<svg version="1.1" xmlns="http://www.w3.org/2000/svg" xmlns:xlink="http://www.w3.org/1999/xlink" width="352.45839" height="237.44158" viewBox="0,0,352.45839,237.44158"><g transform="translate(-61.73362,-97.08228)"><g data-paper-data="{&quot;isPaintingLayer&quot;:true}" fill-rule="nonzero" stroke-linecap="butt" stroke-linejoin="miter" stroke-miterlimit="10" stroke-dasharray="" stroke-dashoffset="0" style="mix-blend-mode: normal"><g data-paper-data="{&quot;index&quot;:null}" stroke="none" stroke-width="0.5"><path d="M210.24357,224.04254c-0.84772,6.0045 -0.29343,11.84397 -0.6592,17.86374c-0.66375,10.9238 -1.74169,21.78924 -2.78937,32.71636c0.01385,12.22582 -0.54055,24.68231 -1.39943,36.859c-0.25921,3.67492 -1.90673,11.9006 1.69259,13.50549c3.21245,1.86316 6.79043,3.87289 10.43592,4.21107c2.30098,0.21346 4.65083,-0.1779 6.95518,-0.00206c6.96606,0.53154 14.35871,1.03835 21.34939,0.40435c2.91043,-0.26396 5.77535,-0.80663 8.69977,-0.80663c3.48129,-0.68683 8.95204,0.11871 11.90552,-2.40087c2.6552,-2.26512 3.27006,-6.71243 3.72888,-10.20038c1.21846,-9.26268 -0.01849,-18.12318 -0.01849,-27.38154c-0.84031,-6.80815 -2.33143,-13.69302 -2.78956,-20.59507c-0.79014,-11.90384 -0.00682,-24.23613 -0.00682,-36.17847c0,-0.84604 0.5767,-6.98469 -0.17235,-7.38425c-1.03264,-0.55084 -2.27356,-0.0045 -3.41034,-0.00244c-2.79133,0.00504 -5.58271,0 -8.37404,0c-9.43269,0 -18.81555,0.40435 -28.26239,0.40435c-4.99403,-0.01513 -10.01329,-0.82914 -15.00349,-0.80871h-1.04676c0,0 -0.39566,0 -0.83501,-0.20394zM209.11504,221.41508c0.27119,-1.80409 1.96354,-1.80409 1.96354,-1.80409h1.04676c4.99288,0.01746 10.0101,0.82602 15.00349,0.8087c10.14565,0 20.21892,-0.40435 30.3559,-0.40435c3.04043,0 9.40543,-1.32398 11.94205,0.80625c2.90251,2.43751 1.92116,7.71164 1.92116,11.21593c0,11.813 -0.78833,24.02238 -0.00681,35.79614c0.45948,6.92212 1.9518,13.81711 2.79313,20.6488c0,9.60661 1.26916,18.80238 -0.01849,28.419c-0.64325,4.80403 -1.7087,10.2114 -5.34299,13.25202c-3.77115,3.15512 -9.51364,2.42567 -13.91444,3.26006c-2.93983,0 -5.81988,0.55417 -8.74614,0.81077c-7.18192,0.62977 -14.76174,0.15561 -21.9165,-0.40435c-2.31959,-0.18154 -4.68407,0.22889 -7.00155,-0.00206c-4.17745,-0.41631 -8.19972,-2.5455 -11.89485,-4.68466c-0.90333,-0.58918 -2.03274,-0.85811 -2.70999,-1.76752c-2.826,-3.7947 -1.50708,-11.81147 -1.18011,-16.26642c0.89038,-12.13116 1.37931,-24.54876 1.39191,-36.73301c1.0503,-10.95446 2.10862,-21.84458 2.79332,-32.78862c0.38811,-6.2036 -0.16983,-12.21222 0.72002,-18.41256c0,0 0.3288,-2.28621 2.30159,-1.90518c0.18607,0.03594 0.35167,0.08883 0.499,0.15515z" fill="#000000"/><path d="M211.0533,224.19649l1.04751,-0.0005c4.9902,-0.02043 10.02247,0.78768 15.0165,0.80281c9.44683,0 18.85943,-0.40194 28.29212,-0.40194c2.79133,0 5.58947,0.00881 8.3808,0.00377c1.13678,-0.00206 2.38004,-0.54673 3.41269,0.00411c0.74905,0.39956 0.17539,6.5407 0.17539,7.38673c0,11.94234 -0.76522,24.30637 0.02492,36.21021c0.45814,6.90205 1.94849,13.81867 2.7888,20.62682c0,9.25836 1.22385,18.14326 0.00539,27.40595c-0.45882,3.48795 -1.08036,7.94149 -3.73556,10.20661c-2.95348,2.51958 -8.43457,1.72021 -11.91586,2.40704c-2.92443,0 -5.79815,0.54548 -8.70858,0.80944c-6.99068,0.63401 -14.4062,0.12573 -21.37226,-0.40582c-2.30435,-0.17584 -4.66055,0.2128 -6.96153,-0.00065c-3.6455,-0.33818 -7.23275,-2.3542 -10.44519,-4.21736c-3.59931,-1.60489 -1.95884,-9.83791 -1.69964,-13.51283c0.85888,-12.17669 1.40017,-24.67621 1.38632,-36.90203c1.04768,-10.92712 2.14145,-21.83119 2.8052,-32.75499c0.36577,-6.01977 -0.18025,-11.86646 0.66747,-17.87096c0.43936,0.20394 0.83552,0.20359 0.83552,0.20359z" data-paper-data="{&quot;noHover&quot;:false,&quot;origItem&quot;:[&quot;Path&quot;,{&quot;applyMatrix&quot;:true,&quot;segments&quot;:[[[420.48713,448.08507],[0.87871,0.40788],[-1.69545,12.009]],[[419.16873,483.81254],[0.73154,-12.03953],[-1.3275,21.84761]],[[413.58998,549.24525],[2.09536,-21.85424],[0.02769,24.45164]],[[410.79113,622.96326],[1.71775,-24.35339],[-0.51842,7.34984]],[[414.1763,649.97425],[-7.19863,-3.20979],[6.42489,3.72633]],[[435.04815,658.3964],[-7.29099,-0.67636],[4.60197,0.42691]],[[448.95851,658.39227],[-4.60869,-0.35167],[13.93212,1.06309]],[[491.65728,659.20097],[-13.98135,1.26801],[5.82086,-0.52791]],[[509.05683,657.5877],[-5.84885,0],[6.96257,-1.37367]],[[532.86787,652.78596],[-5.90696,5.03916],[5.3104,-4.53024]],[[540.32563,632.38521],[-0.91764,6.97589],[2.43691,-18.52537]],[[540.28865,577.62214],[0,18.51672],[-1.68061,-13.6163]],[[534.70952,536.43199],[0.91627,13.8041],[-1.58028,-23.80767]],[[534.69589,464.07505],[0,23.88468],[0,-1.69208]],[[534.3512,449.30655],[1.49809,0.79912],[-2.06528,-1.10167]],[[527.53051,449.30166],[2.27356,-0.00411],[-5.58266,0.01009]],[[510.78243,449.30166],[5.58267,0],[-18.86538,0]],[[454.25765,450.11036],[18.89367,0],[-9.98806,-0.03025]],[[424.25067,448.49295],[9.9804,-0.04087],[0,0]],[422.15716,448.49295]],&quot;closed&quot;:true}]}" fill="#ffffff"/></g><path d="M261.44221,224.22086c-0.03438,-0.03098 -0.06927,-0.06077 -0.10472,-0.08884zM262.86332,229.45198c-0.14685,-0.02854 -0.28729,-0.1031 -0.42293,-0.2121l-0.03404,0.20424l-1.19455,-0.79645c-0.40858,-0.25134 -0.70558,-1.01227 -0.70558,-1.91195c0,-1.10457 0.44767,-2 0.9999,-2h0.44536c-0.14378,-0.13845 -0.29211,-0.30966 -0.45097,-0.46083c-0.08024,-0.00368 -0.99429,-0.08761 -0.99429,-1.99983c0,-2 0.9999,-2 0.9999,-2l0.57409,0.14305c0.82642,0.66924 2.05741,0.40249 2.48798,1.9641c0.23321,0.84583 0.11886,2.87039 -0.23586,4.53929c0.62479,0.89699 1.21161,1.79517 1.30666,2.14319c1.25257,4.58631 -1.44889,12.78827 -3.26986,14.85895c-0.05851,0.06653 -0.11878,0.1233 -0.18052,0.17196c-0.39384,4.95454 -1.51351,9.73053 -3.90942,12.02799c-1.00223,0.96105 -2.36274,0.74672 -3.46441,0.31605c-0.03826,1.40593 -0.1686,2.78329 -0.53981,4.09858c-1.36048,4.82055 -5.42304,5.11882 -7.8435,2.84539c-0.70362,2.03409 -1.61927,3.6675 -2.76355,5.32392c-2.61105,1.12464 -6.64753,0.3981 -8.92945,-3.4339c-1.00374,0.50997 -2.17394,0.36224 -3.03468,0.36397c-3.1599,0.00635 -5.922,-0.35515 -7.2667,-6.89348c-0.00117,-0.15653 -0.00296,-0.32112 -0.0051,-0.49283c-1.93464,0.05887 -4.01183,-0.67352 -5.01785,-2.98715c-1.13586,-2.61223 -1.09313,-5.92122 -0.64527,-9.06281c-1.82626,-0.18411 -3.64492,-1.03032 -4.71243,-4.12863c-0.30554,-0.8868 -0.526,-2.03652 -0.6496,-3.28869c-1.65365,-0.56074 -3.22106,-2.07611 -3.71147,-4.38914c-0.32996,-1.55631 -0.01807,-4.0121 0.14604,-5.61826c0.39649,-3.88053 1.893,-8.62895 3.90807,-10.02095c0.8374,-0.57847 2.45713,-0.50027 3.35725,-0.50815c0,0 0.9999,0 0.9999,2c0,2 -0.9999,2 -0.9999,2c-0.75509,-0.00803 -2.02683,-0.133 -2.72486,0.30288c-1.50675,0.94088 -3.36731,7.1575 -2.83894,10.31375c0.10494,0.62687 1.02213,1.19063 1.18576,1.28137c0.21154,0.11731 0.42481,0.2352 0.63789,0.34342c0.23018,-2.84027 0.99839,-5.31681 2.4323,-5.68965c1.42699,-0.37104 1.8938,1.23421 2.8501,2.89988c-0.17076,2.71246 0.04121,4.15265 -1.13677,5.95087c-0.47768,0.72919 -1.18763,1.15946 -1.99031,1.3129c0.05159,0.3577 0.11075,0.64411 0.17491,0.82191c0.21566,0.5976 1.43614,1.90896 1.70805,2.07351c0.65993,0.39938 1.38451,0.45213 2.11261,0.41872c0.10805,-0.46831 0.21801,-0.9218 0.32637,-1.35658c0.44062,-2.03905 0.55278,-3.70914 1.89169,-4.36787c1.87989,-0.9249 4.11538,1.75219 3.36132,6.08161c-0.43703,2.50922 -2.46651,3.49209 -3.52992,3.53866c-0.239,0.01047 -0.48635,0.02483 -0.73969,0.03803c-0.42787,2.26345 -0.66599,4.78773 0.05418,6.33543c0.72578,1.55976 2.25821,1.68389 3.5403,1.56756c0.061,-2.68368 0.32609,-5.47023 1.24759,-6.73098c2.00199,-2.73903 4.85548,1.94584 4.14474,6.34374c-0.37068,2.29367 -1.26345,3.15931 -2.31227,3.7328c-0.32126,0.17566 -0.69376,0.33272 -1.10022,0.45991c-0.00026,0.02271 -0.00052,0.04548 -0.00077,0.06832c0.79228,4.24411 3.46972,3.646 5.30299,3.64991c0.26723,0.00057 1.01427,0.13871 1.70183,0.08896c-0.46478,-2.08399 -0.7451,-4.90745 0.17044,-6.23334c2.04804,-2.966 3.44602,4.38121 2.93512,7.14796c1.75215,2.22729 4.33159,3.10251 6.34048,2.41472c0.7746,-1.23844 1.4839,-2.47686 2.01206,-4.00157c-0.43202,-1.08638 -0.62164,-2.45668 -0.06542,-3.98837c0.09078,-0.24998 0.20008,-0.4559 0.32253,-0.63054l-0.02813,-0.07503l0.80287,-1.20442c0.16848,-0.25849 0.37928,-0.41212 0.60802,-0.41212c0.55223,0 0.9999,0.89543 0.9999,2v2.02758h-0.05472l0.04181,0.32036c-0.0196,0.11701 -0.03959,0.23276 -0.05996,0.34729c2.08904,1.35549 4.99401,2.76853 5.38452,-2.61008c0.03857,-0.53124 0.04819,-1.06642 0.04453,-1.60345c-0.44033,-0.98882 -0.85523,-2.39786 -0.65702,-3.61012c0.05302,-0.3243 0.13737,-0.60654 0.24348,-0.85956l-0.05213,-0.0782l0.60123,-1.60344c0.18195,-0.49635 0.47561,-0.81862 0.8069,-0.81862c0.55223,0 0.9999,0.89543 0.9999,2v2.00508c1.90598,0.26603 3.63773,0.61761 4.79219,-4.10033c0.26096,-1.06647 0.46649,-2.46485 0.59274,-3.89022c-1.11116,-0.66528 -1.75705,-0.79259 -2.265,-3.51995c-0.6239,-3.34994 0.36639,-8.70376 2.76523,-6.9283c0.94546,0.69977 1.38865,2.94013 1.55475,5.13178c0.64209,-1.28255 1.11101,-3.10514 1.34679,-4.67752c0.02774,-0.18498 0.33333,-3.19677 0.27211,-3.38112c-0.22906,-0.68967 -0.61612,-1.05592 -0.99752,-1.44303zM262.68575,224.94063c0.02209,-0.04169 0.04419,-0.0817 0.06561,-0.11923c-0.07877,0.09054 -0.15565,0.14364 -0.23155,0.16729v0.06489zM260.30305,240.1988c-0.0222,-0.45375 -0.06178,-0.90643 -0.12619,-1.34329c-0.07461,-0.50604 -0.3904,-1.88252 -0.40804,-1.35611c-0.05136,1.53297 0.03169,2.20196 0.53423,2.6994zM226.57196,253.80424c0.56018,-0.1494 1.18495,-0.48845 1.34494,-1.34249c0.2318,-1.23732 -0.94008,-2.10704 -1.12642,-1.76656c-0.1254,0.22913 0.01638,0.68652 -0.01991,1.0184c-0.08188,0.74896 -0.14708,1.43059 -0.19862,2.09065zM221.72399,242.16582c0.37866,-0.05556 0.75579,-0.38217 1.06767,-0.80949c0.17568,-0.24071 0.79579,-0.51292 0.5829,-0.52286c-0.39384,-0.01839 -0.77184,-0.43618 -1.16524,-0.39474c-0.33325,0.0351 -0.39554,0.98175 -0.48532,1.72709zM215.32879,234.89893c0.55158,-0.16246 1.05087,-0.6725 1.45213,-1.77219c-0.30932,-0.11345 -0.93121,-0.72708 -1.19723,-0.11062c-0.14707,0.3408 -0.22668,1.04623 -0.25489,1.88281z" fill="#ffba00" stroke="#000000" stroke-width="2"/><g stroke="#000000" stroke-width="2"><path d="M232.87189,226.96647c0,0 0.01488,-0.00744 0.04209,-0.01892c-8.94862,0.53732 -18.21519,1.96802 -26.84272,-0.18887c-2.25154,0 -4.20529,-1.04564 -6.40324,-1.28064c-1.71187,-0.18303 -3.37702,0.01937 -4.8212,-1.24615c-1.72177,-1.50877 -1.47899,-2.99527 -1.72774,-4.98262c-0.56703,-4.53025 -1.61033,-9.00029 -1.61033,-13.60209c0.01508,-2.28894 -0.66317,-4.32719 -0.95096,-6.56811c-0.41166,-3.20539 -0.7874,-6.39258 -1.27376,-9.55656c-0.84228,-5.47936 -0.65673,-11.28951 -0.65673,-16.85201c0,-6.93684 0,-13.87367 0,-20.81051v-0.64033c0,0 0,-0.17944 0.06742,-0.40347c-0.89674,-4.84439 -0.38759,-10.03921 -0.38759,-14.94501c0,-8.86219 -0.32016,-17.70583 -0.32016,-26.57343c0,-1.31653 -0.43005,-4.06701 0.09675,-5.3081c0.70014,-1.64949 3.0233,-2.81564 4.44779,-3.53189c3.27461,-1.64652 7.17312,-2.38807 10.81359,-2.37532c1.30293,0.00457 3.32099,0.08623 4.46816,0.8053c2.34536,1.47011 2.22919,5.3547 2.2456,7.82943c0,10.16549 0.64016,20.23824 0.64032,30.41535c0.00008,4.93583 0.64273,10.32747 -0.32635,15.17287c-0.09396,0.11653 -0.41806,0.28739 -0.2819,0.3496c1.1242,0.51367 3.83181,-0.46355 5.10015,-0.46521c2.88125,-0.00377 5.76317,-0.01399 8.64437,0c1.40858,0.00684 2.80425,0.33933 4.17017,0.68344c3.11211,0.78403 6.49579,0.93365 9.65521,1.52083c3.88046,0.72117 7.94766,1.98003 11.87766,1.96104c3.12336,0.44191 6.25157,0.84192 9.37425,1.29021c0.71727,0.10298 1.44466,0.15138 2.15158,0.3106c0.15848,0.0357 0.3021,0.38887 0.40835,0.266c0.3927,-0.45417 0.0748,-1.20057 0.17312,-1.79287c0.30253,-1.82247 0.62141,-3.68515 0.61871,-5.52953c-0.00808,-5.52715 0.32016,-11.09772 0.32016,-16.64841c0.01053,-6.62188 0.00396,-14.34264 2.32759,-20.63096c0.3596,-0.97317 1.1754,-1.71798 1.63771,-2.64677c1.10852,-2.22703 2.0603,-4.93813 4.20739,-6.53865c2.0437,-1.52344 3.79074,-1.29076 6.06965,-1.86048c2.53563,-0.01375 7.17959,-0.81822 9.09465,1.36136c1.27423,1.45022 1.07151,3.46863 1.28666,5.18758c0.83046,6.6349 0.32969,13.60759 0.32969,20.32549c0,11.81087 -0.96049,23.41241 -0.96049,35.2178c0,10.8855 0,21.771 0,32.6565c-0.03249,4.89923 -0.98347,10.02744 -1.61033,14.88274c-0.23749,1.83944 0.20869,3.86473 -0.79578,5.59351c-1.64052,2.8235 -6.48748,4.08967 -9.25128,5.34511c-2.54057,1.01666 -5.27806,2.22708 -8.00671,2.65112c-5.41867,0.84207 -10.97241,0.28387 -16.44123,0.65103c-4.08728,0.27441 -8.13035,0.32174 -12.22946,0.32174c-1.43231,0 -2.87817,0.04762 -4.33343,0.12342c0.14607,0.05309 0.2914,0.1424 0.42375,0.28421c-0.67176,-0.00198 -1.34066,0.01207 -1.99938,0.05397c0.18016,-0.08618 0.35958,-0.17394 0.53822,-0.26334zM191.16929,152.74575c0,6.64159 0,13.28317 0,19.92476c0,5.42638 -0.19862,11.10293 0.62391,16.44483c0.82277,5.34344 2.22795,11.07488 2.25754,16.53185c0,4.49072 1.03882,8.86607 1.59129,13.2915c0.14794,1.18507 -0.2515,2.45196 0.83356,3.34158c1.02363,0.83926 2.33062,0.54014 3.50301,0.67482c2.19983,0.25271 4.16223,1.28064 6.40323,1.28064c10.24799,2.56199 21.42542,-0.00952 31.86089,-0.00952c4.05747,0 8.05722,-0.05291 12.10283,-0.31859c5.39653,-0.3544 10.86981,0.18355 16.21528,-0.62962c2.49988,-0.38029 5.03621,-1.54197 7.36104,-2.47147c2.00008,-0.90975 6.86362,-2.14074 8.03747,-4.25975c0.75838,-1.36902 0.30805,-3.19468 0.48487,-4.65166c0.57536,-4.741 1.63169,-9.79752 1.59128,-14.57215c0,-10.8855 0,-21.771 0,-32.6565c0,-11.80623 0.96048,-23.40762 0.96048,-35.2178c0,-5.65612 -0.016,-11.31249 0,-16.96858c0.00457,-1.615 0.15002,-5.47207 -0.94495,-6.82327c-1.05241,-1.29868 -5.49266,-0.55025 -6.91344,-0.55961c-1.78821,0.44705 -3.25575,0.1607 -4.81586,1.34114c-1.80549,1.3661 -2.54048,3.76308 -3.47649,5.6275c-0.43796,0.87237 -1.23613,1.55636 -1.5639,2.47582c-2.14527,6.01787 -2.1657,13.39449 -2.15467,19.70943c0,6.65979 0.34856,13.51377 -0.66143,20.09146c-0.16156,1.05214 -0.33276,5.04371 -1.42819,5.88298c-0.85557,0.6555 -3.68969,0.04904 -4.48362,-0.06373c-3.06375,-0.43518 -6.13262,-0.82907 -9.19514,-1.27108c-1.58121,-0.00702 -3.14267,-0.38535 -4.69029,-0.70961c-6.18821,-1.29655 -12.64909,-2.42139 -18.83178,-3.47223c-2.71168,-0.46089 -5.94975,0.02293 -8.72417,0.02293c-2.01377,0 -4.5996,0.69353 -6.52848,0.31398c-0.84349,-0.16598 -1.87774,-0.14534 -2.45849,-0.77918c-0.50207,-0.54797 -0.18793,-1.47446 -0.28189,-2.21169c0.95303,-4.76519 0.31405,-10.06742 0.31397,-14.92234c-0.00016,-10.17691 -0.64032,-20.24955 -0.64032,-30.4154c0.00936,-1.10635 0.15307,-5.11489 -0.95603,-5.61737c-3.68839,-1.67106 -9.5337,-0.03636 -12.89248,1.6316c-0.74057,0.36777 -2.81381,1.2673 -3.2361,2.23103c-0.34082,0.77782 0.09675,3.5163 0.09675,4.33532c0,8.86764 0.32017,17.71112 0.32017,26.57343c0,5.12658 -0.66127,10.70229 0.60237,15.68055c0,0 0.17921,0.71684 -0.28221,1.19402z" fill="#000000"/><path d="M191.40295,151.53981c-1.26364,-4.97826 -0.59712,-10.56705 -0.59712,-15.69363c0,-8.86231 -0.30988,-17.71834 -0.30988,-26.58598c0,-0.81901 -0.43615,-3.55871 -0.09533,-4.33652c0.42229,-0.96372 2.49761,-1.86487 3.23818,-2.23263c3.35878,-1.66797 9.21114,-3.30697 12.89952,-1.63591c1.10909,0.50248 1.0115,4.59974 1.00214,5.70609c0,10.16585 0.65419,20.22731 0.65435,30.40422c0.00008,4.85492 0.64839,10.14134 -0.30464,14.90653c0.09396,0.73723 -0.21918,1.66066 0.2829,2.20863c0.58076,0.63384 1.51897,0.58529 2.36247,0.75126c1.92888,0.37955 4.51626,-0.31851 6.53003,-0.31851c2.77442,0 6.01785,-0.49383 8.72953,-0.03294c6.18269,1.05085 12.72622,2.17628 18.91442,3.47283c1.54762,0.32425 3.11488,0.71429 4.69608,0.72131c3.06252,0.44201 6.13365,0.84559 9.1974,1.28077c0.79393,0.11277 3.52875,0.7309 4.38432,0.0754c1.09544,-0.83927 1.26873,-4.82086 1.43028,-5.87301c1.00999,-6.57769 0.67445,-13.41077 0.67445,-20.07056c-0.01103,-6.31494 0.01788,-13.68501 2.16316,-19.70287c0.32777,-0.91945 1.12591,-1.60347 1.56387,-2.47584c0.93601,-1.86442 1.72332,-4.34662 3.52882,-5.71272c1.56011,-1.18044 3.02969,-0.89276 4.8179,-1.33982c1.42077,0.00936 5.86431,-0.73662 6.91672,0.56206c1.09497,1.3512 0.95226,5.21066 0.94769,6.82566c-0.016,5.65609 0.00661,11.32006 0.00661,16.97618c0,11.81018 -0.95136,23.44233 -0.95136,35.24856c0,10.8855 -0.00982,21.79889 -0.00982,32.68439c0.04041,4.77463 -1.02233,9.83825 -1.5977,14.57925c-0.17682,1.45698 0.27161,3.28429 -0.48677,4.65331c-1.17385,2.11901 -6.04269,3.35382 -8.04276,4.26357c-2.32484,0.92951 -4.86611,2.09391 -7.36599,2.4742c-5.34546,0.81316 -10.83016,0.27907 -16.22669,0.63347c-4.04561,0.26567 -8.05507,0.31963 -12.11253,0.31963c-10.43547,0 -21.63608,2.56606 -31.88407,0.00407c-2.241,0 -4.20727,-1.03012 -6.4071,-1.28283c-1.17238,-0.13468 -2.4813,0.16317 -3.50493,-0.67609c-1.08506,-0.88962 -0.68712,-2.15759 -0.83506,-3.34266c-0.55247,-4.42542 -1.597,-8.80578 -1.597,-13.2965c-0.0296,-5.45696 -1.44247,-11.1986 -2.26524,-16.54203c-0.82253,-5.34189 -0.62944,-11.03297 -0.62944,-16.45935c0,-6.64158 0.00008,-13.30413 0.00008,-19.94571c0.46142,-0.47719 0.28251,-1.19528 0.28251,-1.19528z" data-paper-data="{&quot;noHover&quot;:false,&quot;origItem&quot;:[&quot;Path&quot;,{&quot;applyMatrix&quot;:true,&quot;segments&quot;:[[[323.60448,200.90993],[0.92284,-0.95438],[0,13.28317]],[[323.60448,240.75944],[0,-13.28317],[0,10.85276]],[[324.85231,273.64909],[-1.64507,-10.68379],[1.64554,10.68687]],[[329.36739,306.71278],[-0.05919,-10.91393],[0,8.98144]],[[332.54997,333.29578],[-1.10493,-8.85085],[0.29588,2.37014]],[[334.21709,339.97894],[-2.17012,-1.77925],[2.04725,1.67851]],[[341.2231,341.32858],[-2.34477,-0.26936],[4.39966,0.50542]],[[354.02957,343.88987],[-4.482,0],[20.49598,5.12399]],[[417.75134,343.87083],[-20.87094,0],[8.11493,0]],[[441.957,343.23366],[-8.09122,0.53135],[10.79306,-0.70879]],[[474.38756,341.97443],[-10.69093,1.62633],[4.99977,-0.76058]],[[489.10965,337.03148],[-4.64967,1.85902],[4.00015,-1.81951]],[[505.18458,328.51198],[-2.34769,4.23802],[1.51676,-2.73804]],[[506.15432,319.20866],[-0.35364,2.91395],[1.15073,-9.482]],[[509.33689,290.06436],[0.08081,9.54926],[0,-21.771]],[[509.33689,224.75136],[0,21.771],[0,-23.61247]],[[511.25786,154.31576],[0,23.62036],[0,-11.31224]],[[511.25786,120.3786],[-0.032,11.31219],[0.00914,-3.23]],[[509.36796,106.73206],[2.18994,2.7024],[-2.10481,-2.59735]],[[495.54109,105.61283],[2.84155,0.01872],[-3.57641,0.89411]],[[485.90937,108.29511],[3.12023,-2.36088],[-3.61099,2.73221]],[[478.95638,119.55012],[1.87203,-3.72885],[-0.87593,1.74473]],[[475.82858,124.50176],[0.65554,-1.83891],[-4.29055,12.03573]],[[471.51924,163.92061],[-0.02206,-12.62988],[0,13.31958]],[[470.19638,204.10353],[2.01998,-13.15538],[-0.32311,2.10429]],[[467.33999,215.86948],[2.19088,-1.67854],[-1.71114,1.31099]],[[458.37274,215.74202],[1.58786,0.22554],[-6.12751,-0.87036]],[[439.98246,213.19985],[6.12504,0.88402],[-3.16241,-0.01403]],[[430.60188,211.78064],[3.09523,0.64851],[-12.37641,-2.5931]],[[392.93832,204.83617],[12.36539,2.10169],[-5.42335,-0.92178]],[[375.48998,204.88204],[5.54884,0],[-4.02754,0]],[[362.43302,205.50999],[3.85776,0.7591],[-1.68699,-0.33195]],[[357.51604,203.95163],[1.16151,1.26768],[-1.00415,-1.09593]],[[356.95225,199.52825],[0.18793,1.47446],[1.90607,-9.53038]],[[357.5802,169.68357],[0.00015,9.70983],[-0.00031,-20.35383]],[[356.29955,108.85278],[0,20.33169],[0.01872,-2.2127]],[[354.3875,97.61804],[2.21819,1.00497],[-7.37677,-3.34212]],[[328.60253,100.88125],[6.71756,-3.33593],[-1.48114,0.73553]],[[322.13033,105.3433],[0.84458,-1.92745],[-0.68165,1.55563]],[[322.32383,114.01393],[0,-1.63803],[0,17.73528]],[[322.96416,167.16079],[0,-17.72462],[0,10.25316]],[[324.16891,198.52188],[-2.52729,-9.95652],[0,0]]],&quot;closed&quot;:true}]}" fill="#ffffff"/></g><g stroke="none" stroke-width="0.5"><path d="M241.00075,168.45565c0.59252,-0.60415 1.49294,-0.60415 1.49294,-0.60415l1.24808,0.0201c11.36306,-1.59801 23.40097,-1.25308 34.88174,-1.24484c2.16384,0.00155 7.69947,-1.14169 9.37503,0.2796c0.91649,0.77742 0.39052,2.37168 0.58578,3.55751c-0.01558,7.07757 -1.60955,15.33188 -5.16914,21.51825c-1.56741,2.72407 -4.48764,5.73212 -7.7002,6.45397c-5.758,1.29379 -13.15405,-0.37954 -18.90888,-1.20854c-6.62142,-1.64907 -13.73639,-5.24548 -15.34987,-12.56824c-0.66158,-3.00257 -0.55644,-6.67281 -0.3463,-9.72693c0.05682,-0.82583 1.14965,-2.33003 0.3323,-2.46102c-1.67463,-0.26838 -3.94121,0.20803 -5.95671,0.46153c-0.07885,0.64177 -0.15548,1.18003 -0.19507,1.47066c-1.00234,7.35759 -4.48591,14.37201 -11.36136,17.82629c-6.44592,1.81388 -15.96523,0.83904 -22.04855,-1.87203c-5.01798,-2.2363 -9.4516,-10.43723 -10.35061,-15.59317c-0.30106,-1.72665 0.06174,-3.49853 0.30046,-5.19599c0,0 0.28284,-1.9799 2.26274,-1.69705c0.84804,0.12115 1.28096,0.55364 1.49877,1.00854c4.66609,-0.49557 9.46428,-0.41628 14.14,-0.41628c6.17693,0 12.31237,-0.20029 18.43631,-0.90399c1.80042,-0.20688 5.8704,-0.92013 7.34172,0.77145c0.09062,0.10419 0.15017,0.30445 0.18568,0.5716c1.64142,-0.20043 3.64549,-0.497 5.30515,-0.44728z" fill="#000000"/><path d="M201.58879,180.00608c-0.10589,0.57506 -0.49931,1.64334 -1.961,1.64334c-2,0 -2,-2 -2,-2l0.33589,-1.41559c1.33602,-2.00403 2.52919,-3.79477 4.2303,-5.50995c0,0 1.41421,-1.41422 2.82842,0c1.41422,1.41422 0,2.82842 0,2.82842c-1.39798,1.38422 -2.36621,2.84605 -3.43361,4.45379z" fill="#ffffff"/><path d="M204.72248,185.95717c-1.71499,-1.02899 -0.686,-2.74398 -0.686,-2.74398l0.84469,-1.39636c1.07631,-2.09534 2.5147,-3.47335 3.79897,-5.42012c0,0 1.1094,-1.6641 2.7735,-0.5547c1.6641,1.1094 0.5547,2.7735 0.5547,2.7735c-1.19607,1.77847 -2.62748,3.07541 -3.54946,4.99017l-0.99242,1.66549c0,0 -1.02899,1.71499 -2.74398,0.686z" fill="#ffffff"/><path d="M249.82204,182.46533c-1.89736,-0.63245 -1.26491,-2.52983 -1.26491,-2.52983l0.67145,-1.99249c1.09883,-2.55452 2.1394,-4.45626 4.0983,-6.44389c0,0 1.41421,-1.41422 2.82843,0c1.41422,1.41422 0,2.82843 0,2.82843c-1.63419,1.60403 -2.35295,3.08915 -3.25014,5.19114l-0.55329,1.68173c0,0 -0.63246,1.89737 -2.52983,1.26491z" fill="#ffffff"/><path d="M256.55809,186.13955c-1.89736,-0.63245 -1.26491,-2.52982 -1.26491,-2.52982l0.41469,-1.18053c1.29088,-2.57035 2.79275,-4.88939 3.93097,-7.54803c0,0 0.78784,-1.83829 2.62613,-1.05045c1.83829,0.78784 1.05045,2.62612 1.05045,2.62612c-1.17105,2.72973 -2.71656,5.12145 -4.02984,7.76122l-0.19768,0.65658c0,0 -0.63245,1.89737 -2.52982,1.26492z" fill="#ffffff"/></g><path d="M242.26421,218.11072l0.01529,-0.03011c-0.25732,-2.31616 -0.47682,-4.62142 -0.66398,-6.93473c-3.4979,0.42793 -7.06164,0.70714 -10.58999,0.74511c0.29061,2.64041 0.65026,5.02663 1.68881,7.7914l0.08619,0.21526c1.58138,0.49895 3.19239,0.69397 4.75484,0.35096c1.47323,-0.32343 3.12929,-0.91808 4.75856,-1.68675c-0.04973,-0.26761 -0.04973,-0.45114 -0.04973,-0.45114zM243.67937,204.89979c0.85559,-0.05704 1.43729,0.19895 1.83231,0.55995c2.27126,-0.30947 4.54309,-0.69259 6.8298,-1.14826c1.67388,0.17302 3.89516,-0.73107 5.02163,0.51907c1.09565,1.21594 0.17679,3.30096 -0.13098,4.90852c-0.47466,2.47923 -3.08593,6.20275 -4.8622,7.97546c-3.37202,3.36526 -9.19911,6.48973 -13.86901,7.44386c-2.45455,0.5015 -4.88841,0.19579 -7.2298,-0.5614c-1.02589,0.17224 -1.71521,-0.3309 -2.12592,-0.81373c-2.59617,-1.14043 -5.04362,-2.72559 -7.23606,-4.22882c-1.46651,-1.0055 -4.80177,-3.47768 -5.48033,-5.07979c-0.51469,-1.21521 -0.40234,-2.74912 -0.13444,-4.21744l-1.61069,-0.45915c0,0 -2.40381,-0.6868 -1.71701,-3.09061c0.6868,-2.40381 3.09061,-1.71701 3.09061,-1.71701l2.06283,0.59082c0.08431,0.02129 0.16861,0.04208 0.25291,0.06236c0.39812,-0.16001 0.89733,-0.21589 1.52018,-0.07748c0.52805,0.11734 0.91646,0.32356 1.20092,0.57468c3.36799,0.43793 6.74455,0.28434 10.19796,0.28434c3.54881,0 7.03029,-0.17606 10.49497,-0.52432c0.32806,-0.4998 0.8994,-0.93487 1.89231,-1.00107zM248.79354,214.22033c1.24452,-1.24791 1.86511,-3.1105 2.70982,-4.65261c-1.60739,0.3088 -3.25425,0.60337 -4.92862,0.87277c0.14038,1.7631 0.29992,3.52075 0.48104,5.28213c0.64197,-0.48764 1.22875,-0.99189 1.73776,-1.5023zM220.92152,211.23164c-0.08384,0.46031 -0.07279,0.90831 0.12668,1.32959c0.66953,1.414 2.41304,1.99902 3.70522,2.88102c0.61116,0.41715 1.26813,0.86915 1.96052,1.32484c-0.32595,-1.64056 -0.52676,-3.26969 -0.71911,-4.99752c-1.71566,-0.10584 -3.41084,-0.28143 -5.07331,-0.53793z" fill="#000000" stroke="none" stroke-width="0.5"/><g data-paper-data="{&quot;index&quot;:null}"><path d="M154.16691,154.49014c5.49599,2.33543 11.02581,4.62709 16.57867,6.91711c4.62389,1.90691 9.39405,3.49408 13.40402,6.06633c-1.47341,3.57226 -4.01553,6.5915 -6.13174,9.92413c-0.86241,1.35816 -0.97936,3.55526 -2.99097,4.36228c-1.96606,0.78875 -5.81494,0.24434 -8.92111,-0.39718c-1.03354,2.52492 -3.52589,4.79819 -5.39889,6.89181c-0.26531,0.29657 -2.82012,2.94716 -3.31795,3.0213c-0.81105,0.12079 -5.81969,-0.99148 -7.01709,-1.24381c-8.31202,-1.75159 -16.59584,-4.11639 -24.59899,-6.73969c-1.36584,-0.45387 -2.77578,-0.82722 -4.19519,-1.12634l-0.17664,-0.0579c-0.45763,1.36682 -1.07036,2.668 -1.52476,4.05967c-0.44622,1.36666 -0.0909,2.60135 -2.05579,3.49385c-1.72962,0.78564 -4.60768,0.21108 -7.39272,-0.39193c-0.13503,0.37095 -0.48789,0.60163 -0.48789,0.60163c-2.6642,1.73899 -6.23281,4.40219 -10.39592,4.48832c-4.1606,0.08608 -9.12391,-1.33149 -13.25319,-2.20165c-3.20145,-0.67464 -7.20544,-1.12215 -10.27499,-2.1899c-3.77121,-1.31182 -6.79619,-4.3976 -9.63428,-6.48989c-1.2026,-1.68311 -3.35522,-3.86577 -3.89788,-5.6867c-0.42762,-1.43493 0.16822,-3.2049 0.43485,-4.48001c0.71843,-3.43576 1.44756,-6.86929 2.17135,-10.30392c0.68485,-3.24992 0.51036,-7.63768 2.28704,-10.59343c0.23193,-0.38585 2.52402,-2.20299 2.96135,-2.6596c1.75346,-1.83072 3.81036,-3.54251 5.34129,-5.4834c2.35159,-2.43768 7.15879,-3.93404 10.81024,-5.39241c2.41296,-0.96373 5.59657,-1.30259 7.54102,-2.74476c2.13034,-1.58005 3.10263,-4.40724 7.02152,-4.50242c1.15377,-0.02803 2.33697,0.46769 3.51062,0.66418c6.14762,1.02922 12.20954,2.30895 18.31678,3.60891c6.54507,2.30953 13.14188,4.55632 20.00046,6.00162c1.7658,0.37211 7.23254,1.00578 8.5985,1.97361c3.38855,2.40091 1.1588,6.06346 2.13824,8.83452l0.48154,1.02278c0,0 0.17137,0.36921 0.06849,0.75287zM105.93622,188.45317c-0.22968,-0.01948 -0.45102,-0.03135 -0.66273,-0.03421l-2.01636,-0.37234c0,0 -1.95703,-0.41241 -1.68136,-1.72052c0.27566,-1.30811 2.23268,-0.89571 2.23268,-0.89571l0.91989,0.24641c2.91591,0.06843 5.10117,0.49374 7.99229,1.1192c0.87106,0.18845 2.00536,0.82409 2.63033,0.47078c0.44464,-0.25136 0.61953,-1.98084 0.65311,-2.08472c0.57608,-1.78209 1.44652,-3.39832 1.86104,-5.21859c0.0093,-0.12479 0.04478,-0.25755 0.11312,-0.39829c0.17977,-0.3702 0.47796,-0.57129 0.80637,-0.67172c0.3233,-0.10655 0.76175,-0.13945 1.35437,-0.01456c0.23534,0.0496 0.43839,0.11215 0.61351,0.18381l1.69747,0.56406c1.52702,0.32179 3.03803,0.73804 4.5102,1.22059c6.48878,2.15623 13.55369,4.37651 20.2927,5.79504c2.2023,0.46357 4.43165,0.82582 6.60658,1.3922c0.6155,0.16028 1.17308,0.62094 1.79172,0.61247c0.31892,-0.00437 0.01866,-0.45491 0.1589,-0.63917c0.39832,-0.52335 0.98667,-0.95374 1.43425,-1.45405c1.15243,-1.28817 2.09709,-2.4886 3.0452,-3.83864c0.69019,-0.98276 1.45251,-1.55413 1.91849,-2.26605c-8.04337,-2.07225 -15.56812,-5.11967 -23.48301,-7.49061c-2.78258,-0.91754 -5.48089,-1.91597 -8.37427,-2.5191l-0.73407,-0.15469c0,0 -1.95702,-0.41241 -1.68136,-1.72052c0.27566,-1.30811 2.23268,-0.89571 2.23268,-0.89571l0.73407,0.15469c3.09224,0.65772 5.95887,1.68389 8.93311,2.66544c7.80199,2.33713 15.21448,5.33218 23.13411,7.3907c0.26527,-0.26008 0.74047,-0.46499 1.5914,-0.38242c1.3722,0.13317 1.8154,0.82897 1.95811,1.24162c2.28136,0.50077 5.11739,0.99456 6.13033,0.58818c0.91537,-0.36722 1.31376,-2.74678 1.70306,-3.36023c1.74912,-2.75629 3.47973,-5.63531 6.07887,-8.0008c-1.19108,-0.00924 -2.36759,-0.62767 -3.47782,-1.07599c-2.59456,-1.04773 -5.19487,-2.11307 -7.77649,-3.17845c-11.16814,-4.60886 -22.24759,-9.22334 -33.14946,-14.18116c0,0 -1.76943,-0.80489 -0.88906,-1.91546c0.88037,-1.11058 2.6498,-0.30567 2.6498,-0.30567c3.93612,1.791 7.89577,3.53666 11.87483,5.25314c-0.49601,-1.61814 -0.64476,-3.19442 -0.47455,-4.78877c0.02603,-0.24377 0.76359,-1.53446 -0.0426,-1.976c-0.36961,-0.20244 -0.8753,-0.04096 -1.31137,-0.11468c-2.81072,-0.47521 -5.6501,-1.18894 -8.44175,-1.77893c-5.8316,-1.23245 -11.89176,-3.49902 -17.44719,-5.47688c-5.92427,-1.23407 -11.81674,-2.39035 -17.75585,-3.48021c-0.79697,-0.14625 -1.56337,-0.52544 -2.3619,-0.57334c-2.01985,-0.12116 -3.61276,3.00866 -4.69268,3.79053c-2.2639,1.63911 -5.50748,2.03561 -8.26738,3.14808c-2.00118,0.80664 -3.92143,1.66929 -5.82846,2.56026c-1.58584,0.74091 -2.88148,0.92765 -3.87401,2.07334c-1.56788,1.96867 -3.63383,3.71471 -5.42176,5.57225c-0.79269,0.82357 -2.12856,1.37086 -2.6838,2.30022c-1.26208,2.11248 -1.10343,5.49568 -1.59038,7.80643c-0.75825,3.5982 -1.51649,7.19638 -2.27474,10.79459c-0.34127,1.61944 -1.36556,3.51881 -0.84731,5.2426c0.42423,1.41108 2.25285,3.19278 3.15314,4.51084c2.24493,1.5915 4.84609,4.40761 7.79708,5.38264c2.88283,0.95249 6.55535,1.35676 9.54476,1.98672c3.70851,0.7815 8.16055,2.06576 11.91185,2.07646c2.60151,0.00742 5.24788,-1.82086 7.18227,-3.16517z" fill="#000000" stroke="#000000" stroke-width="1.5"/><path d="M98.7268,191.64349c-3.75131,-0.01069 -8.21103,-1.30012 -11.91954,-2.08162c-2.98942,-0.62996 -6.66621,-1.03803 -9.54904,-1.99052c-2.951,-0.97502 -5.55647,-3.79621 -7.80141,-5.38771c-0.90029,-1.31807 -2.73124,-3.10339 -3.15547,-4.51447c-0.51824,-1.72378 0.50418,-3.62714 0.84544,-5.24657c0.75825,-3.5982 1.51472,-7.20588 2.27297,-10.80408c0.48695,-2.31075 0.32955,-5.70106 1.59163,-7.81355c0.55524,-0.92936 1.89217,-1.4792 2.68487,-2.30277c1.78793,-1.85754 3.85783,-3.60936 5.4257,-5.57803c0.99253,-1.14569 2.29084,-1.33504 3.87668,-2.07594c1.90702,-0.89096 3.83194,-1.75698 5.83312,-2.56361c2.75991,-1.11247 6.01143,-1.51271 8.27533,-3.1518c1.07992,-0.78187 2.67911,-3.91346 4.69895,-3.7923c0.79854,0.0479 1.56668,0.42673 2.36366,0.57298c5.93909,1.08985 11.84902,2.24534 17.7733,3.47941c5.55543,1.97786 11.63646,4.24924 17.46806,5.48168c2.79165,0.58999 5.63933,1.30761 8.45005,1.78283c0.43607,0.07372 0.94277,-0.08718 1.31238,0.11526c0.80619,0.44154 0.07018,1.73316 0.04415,1.97693c-0.17022,1.59436 -0.08475,3.21518 0.41126,4.83332c-3.97906,-1.71649 -7.92388,-3.45385 -11.86,-5.24484c0,0 -1.76655,-0.80383 -2.64693,0.30674c-0.88037,1.11058 0.92401,1.85622 0.92401,1.85622c10.90187,4.95783 22.00976,9.59677 33.17789,14.20562c2.58161,1.06537 5.18318,2.13421 7.77774,3.18193c1.11022,0.44833 2.287,1.06775 3.47809,1.07699c-2.59914,2.36549 -4.32912,5.25233 -6.07823,8.00862c-0.38929,0.61345 -0.78827,2.99654 -1.70363,3.36378c-1.01294,0.40636 -3.9462,-0.11058 -6.22756,-0.61135c-0.14273,-0.41266 -0.48869,-1.08527 -1.86088,-1.21844c-0.85092,-0.08258 -1.42335,0.09913 -1.68862,0.35921c-7.91962,-2.05853 -15.333,-5.04864 -23.13499,-7.38577c-2.97424,-0.98155 -5.83945,-1.99792 -8.93169,-2.65563l-0.7335,-0.15321c0,0 -1.86026,-0.41206 -2.13592,0.89605c-0.27566,1.30811 1.67823,1.7332 1.67823,1.7332l0.64116,0.12103c2.89338,0.60313 5.68562,1.63331 8.4682,2.55085c7.91488,2.37095 15.43967,5.41826 23.48304,7.4905c-0.46599,0.71191 -1.23001,1.28636 -1.92021,2.26913c-0.94812,1.35004 -1.89675,2.55521 -3.04918,3.84338c-0.44758,0.5003 -1.03788,0.93241 -1.43621,1.45576c-0.14022,0.18425 0.15938,0.6353 -0.15954,0.63968c-0.61864,0.00847 -1.17671,-0.45181 -1.7922,-0.61209c-2.17494,-0.56638 -4.40773,-0.92639 -6.61004,-1.38997c-6.73901,-1.41853 -13.83103,-3.63236 -20.31981,-5.78859c-1.47218,-0.48255 -2.99571,-0.89994 -4.52275,-1.22173l-1.70255,-0.56516c-0.17512,-0.07167 -0.38002,-0.1347 -0.61535,-0.18429c-0.59262,-0.12489 -1.03454,-0.09305 -1.35783,0.01351c-0.32841,0.10043 -0.62768,0.30113 -0.80745,0.67133c-0.06834,0.14074 -0.07192,0.21314 -0.08122,0.33792c-0.41452,1.82027 -1.2863,3.43606 -1.86239,5.21815c-0.03358,0.10387 -0.237,1.89486 -0.68164,2.14622c-0.62497,0.35331 -1.76317,-0.2837 -2.63423,-0.47214c-2.89113,-0.62545 -5.086,-1.0553 -8.00191,-1.12373l-0.92091,-0.24701c0,0 -1.89899,-0.46051 -2.17465,0.84759c-0.27566,1.30811 1.67853,1.71884 1.67853,1.71884l2.01434,0.37126c0.21171,0.00286 0.38447,0.06807 0.61414,0.08756c-1.93439,1.34429 -4.58393,3.1709 -7.18545,3.16349z" data-paper-data="{&quot;noHover&quot;:false,&quot;origItem&quot;:[&quot;Path&quot;,{&quot;applyMatrix&quot;:true,&quot;segments&quot;:[[[584.82793,454.39552],[1.05836,-5.09427],[-1.52612,7.34579]],[[583.97914,478.56358],[0,-7.57992],[0,6.11015]],[[583.9309,498.06221],[-0.67517,-6.03457],[0.69114,6.17725]],[[591.2493,515.54106],[-2.18879,-5.04973],[2.20821,2.30546]],[[598.77674,523.57211],[-2.58656,-1.41217],[3.15976,1.72511]],[[609.38605,524.07596],[-3.30999,0],[7.35444,0]],[[631.44936,524.07596],[-7.35444,0],[4.72301,0]],[[647.38256,524.18296],[-4.65465,1.59872],[2.04776,-0.70334]],[[652.99094,519.87931],[-1.93865,1.21169],[4.3726,-2.73296]],[[666.13189,511.56683],[-4.49933,2.25648],[2.65145,-1.4699]],[[671.7871,504.84038],[-2.10398,2.79795],[2.53011,-3.36464]],[[679.20124,494.48984],[-2.4039,3.58368],[3.31532,-4.9424]],[[688.77157,479.60868],[-4.14139,3.75454],[1.97551,-1.79098]],[[698.12498,471.98824],[-0.59588,4.00284],[0.23558,-1.58249]],[[697.977,467.12951],[-0.04246,1.62001],[0.31644,-12.07239]],[[698.48871,430.94573],[-0.02808,12.10284],[-1.57964,-11.68776]],[[694.96562,394.54257],[0.00695,11.92082],[-0.00333,-5.70663]],[[694.96562,377.28826],[-0.22914,5.69662],[0.03555,-0.8838]],[[695.28199,374.67457],[0.24374,0.80682],[-0.53163,-1.75981]],[[691.4325,373.77632],[0.4878,0.0496],[-3.19038,-0.32439]],[[682.25649,370.87272],[2.96218,1.63803],[1.71822,8.49498]],[[687.63979,396.27841],[-1.88175,-8.44168],[0,0]],[[685.94881,401.33806],[2.53647,-1.26491],[-2.53647,1.26491]],[[682.56686,398.80823],[0,0],[-5.20661,-23.37979]],[[668.48496,328.08575],[4.41385,23.75695],[-1.0203,-5.49163]],[[665.47172,311.55622],[0.98042,5.50969],[-0.41953,-2.35761]],[[664.80024,304.30632],[-0.47312,2.33479],[-5.7012,4.11104]],[[646.63558,312.90324],[6.11546,-2.28635],[-1.36108,0.50886]],[[639.3572,314.85037],[1.09617,-1.63994],[-1.21301,1.81475]],[[637.98012,327.09011],[-0.03917,-4.67118],[0.74872,0.44949]],[[639.60248,331.43423],[0.30528,-2.74034],[-0.18931,1.69935]],[[638.19779,334.39092],[0.61839,-0.41188],[0.76249,16.3478]],[[643.12097,382.71277],[-1.35626,-16.23248],[0.69433,6.22544]],[[644.65325,401.29426],[-0.01192,-6.32282],[0,0]],[644.65325,402.79464],[[641.97958,406.79464],[2.67367,0],[-2.67367,0]],[639.3059,402.79464],[[639.3059,401.29426],[0,0],[0.01291,-5.91114]],[[637.82955,383.86675],[0.64809,5.82396],[-1.37588,-16.46736]],[[632.85472,334.82091],[0.73831,16.59564],[-1.58539,0.61835]],[[627.62882,337.64092],[2.20793,-0.94542],[-3.03306,1.29873]],[[618.86068,342.01739],[2.99625,-1.72408],[-1.16367,0.66959]],[[615.42361,344.22459],[1.18848,-0.5637],[-0.4184,0.19845]],[[614.10722,344.27196],[0.14007,-0.62232],[-0.2717,1.20719]],[[614.56691,348.03095],[-0.05984,-1.27064],[0.21147,4.48999]],[[614.56691,361.53432],[0.00101,-4.50113],[-0.00309,13.77338]],[[617.53917,403.63742],[-1.5438,-13.5879],[0.33724,3.08008]],[[618.06788,412.96734],[0,-3.12113],[0,0]],[[618.47173,416.52193],[0,0],[0.06803,0.37228]],[[618.57843,417.79839],[0,-0.48101],[0,1.21128]],[[617.99139,420.4429],[0.34186,-0.58875],[-0.33198,0.60128]],[[616.3443,421.74396],[0.79863,-0.19913],[-0.30361,0.0757]],[[615.51818,421.8011],[0.24804,0.03326],[-3.73324,0.06053]],[[604.53779,423.29103],[3.72516,-0.39246],[-0.21713,0.02288]],[[600.18861,423.70943],[0.6753,-0.7665],[-0.94917,1.07736]],[[600.02519,429.0512],[-0.00956,-1.7824],[0.03173,5.91593]],[[598.91944,445.15384],[1.0686,-5.73472],[0,0]],[599.02231,447.0557],[[596.34864,451.0557],[2.67367,0],[-2.67367,0]],[593.67496,447.0557],[[593.77784,442.95607],[0,0],[0.08172,-0.4155]],[[593.9842,441.645],[-0.05659,0.45751],[-3.42857,3.23125]]],&quot;closed&quot;:true}]}" fill="#ffffff" stroke="none" stroke-width="0.5"/></g><g data-paper-data="{&quot;index&quot;:null}"><path d="M322.19358,154.49013c-0.10288,-0.38366 0.06849,-0.75287 0.06849,-0.75287l0.48154,-1.02278c0.97944,-2.77105 -1.25031,-6.4336 2.13824,-8.83452c1.36597,-0.96784 6.8327,-1.60151 8.5985,-1.97361c6.85858,-1.4453 13.45539,-3.6921 20.00046,-6.00162c6.10724,-1.29996 12.16916,-2.57968 18.31678,-3.60891c1.17365,-0.19649 2.35684,-0.69221 3.51062,-0.66418c3.91888,0.09518 4.89118,2.92237 7.02152,4.50242c1.94444,1.44217 5.12805,1.78104 7.54102,2.74476c3.65145,1.45837 8.45866,2.95473 10.81025,5.39241c1.53093,1.94089 3.58783,3.65268 5.34129,5.4834c0.43733,0.4566 2.72943,2.27375 2.96136,2.6596c1.77668,2.95576 1.60218,7.34351 2.28704,10.59343c0.72378,3.43463 1.45292,6.86817 2.17134,10.30392c0.26663,1.2751 0.86248,3.04507 0.43486,4.48001c-0.54266,1.82093 -2.69529,4.00358 -3.89788,5.6867c-2.83809,2.09229 -5.86307,5.17807 -9.63429,6.48989c-3.06955,1.06775 -7.07354,1.51526 -10.27499,2.1899c-4.12928,0.87016 -9.09258,2.28773 -13.25318,2.20165c-4.1631,-0.08613 -7.73172,-2.74932 -10.39592,-4.48831c0,0 -0.35287,-0.23068 -0.4879,-0.60163c-2.78504,0.60301 -5.66309,1.17757 -7.39271,0.39193c-1.96489,-0.8925 -1.60957,-2.12719 -2.0558,-3.49385c-0.4544,-1.39167 -1.06712,-2.69286 -1.52476,-4.05967l-0.17664,0.0579c-1.41942,0.29912 -2.82936,0.67247 -4.19519,1.12634c-8.00315,2.6233 -16.28697,4.9881 -24.59899,6.73969c-1.19739,0.25233 -6.20604,1.3646 -7.01709,1.24381c-0.49782,-0.07414 -3.05264,-2.72473 -3.31795,-3.0213c-1.873,-2.09362 -4.36535,-4.36689 -5.39889,-6.89181c-3.10617,0.64152 -6.95505,1.18593 -8.92111,0.39718c-2.01161,-0.80702 -2.12856,-3.00412 -2.99097,-4.36228c-2.11621,-3.33263 -4.65833,-6.35187 -6.13174,-9.92413c4.00997,-2.57225 8.78013,-4.15941 13.40402,-6.06633c5.55285,-2.29002 11.08267,-4.58168 16.57867,-6.91711zM370.42429,188.45311c1.93439,1.3443 4.58076,3.17258 7.18227,3.16517c3.7513,-0.01069 8.20334,-1.29496 11.91185,-2.07646c2.98942,-0.62996 6.66194,-1.03423 9.54477,-1.98672c2.95099,-0.97502 5.55215,-3.79114 7.79708,-5.38264c0.90029,-1.31806 2.72891,-3.09976 3.15314,-4.51084c0.51825,-1.72379 -0.50604,-3.62316 -0.84731,-5.2426c-0.75825,-3.59821 -1.5165,-7.19639 -2.27474,-10.79459c-0.48694,-2.31075 -0.32829,-5.69394 -1.59037,-7.80643c-0.55524,-0.92936 -1.89111,-1.47665 -2.6838,-2.30022c-1.78793,-1.85754 -3.85388,-3.60358 -5.42176,-5.57225c-0.99253,-1.14569 -2.28818,-1.33243 -3.87401,-2.07334c-1.90702,-0.89097 -3.82728,-1.75362 -5.82846,-2.56026c-2.75991,-1.11247 -6.00348,-1.50897 -8.26738,-3.14808c-1.07992,-0.78187 -2.67284,-3.91169 -4.69268,-3.79053c-0.79854,0.0479 -1.56494,0.42709 -2.36191,0.57334c-5.9391,1.08985 -11.83157,2.24614 -17.75584,3.48021c-5.55543,1.97786 -11.61559,4.24443 -17.44719,5.47688c-2.79165,0.58999 -5.63103,1.30372 -8.44175,1.77893c-0.43607,0.07372 -0.94176,-0.08776 -1.31137,0.11468c-0.80619,0.44154 -0.06862,1.73223 -0.0426,1.976c0.17021,1.59436 0.02147,3.17063 -0.47454,4.78877c3.97906,-1.71649 7.93871,-3.46214 11.87483,-5.25314c0,0 1.76943,-0.80491 2.6498,0.30567c0.88037,1.11057 -0.88906,1.91546 -0.88906,1.91546c-10.90188,4.95783 -21.98132,9.57231 -33.14946,14.18116c-2.58162,1.06538 -5.18194,2.13072 -7.77649,3.17845c-1.11023,0.44833 -2.28674,1.06675 -3.47782,1.07599c2.59915,2.36549 4.32975,5.24451 6.07887,8.0008c0.3893,0.61345 0.78769,2.99301 1.70306,3.36023c1.01295,0.40637 3.84897,-0.08741 6.13033,-0.58818c0.14272,-0.41266 0.58592,-1.10845 1.95812,-1.24162c0.85093,-0.08257 1.32612,0.12234 1.59139,0.38242c7.91962,-2.05853 15.33212,-5.05357 23.13411,-7.3907c2.97424,-0.98155 5.84087,-2.00772 8.93311,-2.66544l0.73407,-0.15469c0,0 1.95702,-0.4124 2.23268,0.89571c0.27566,1.30811 -1.68136,1.72052 -1.68136,1.72052l-0.73407,0.15469c-2.89339,0.60313 -5.5917,1.60156 -8.37428,2.5191c-7.91489,2.37094 -15.43963,5.41836 -23.483,7.49061c0.46598,0.71192 1.2283,1.28329 1.91849,2.26605c0.94811,1.35004 1.89277,2.55047 3.0452,3.83864c0.44758,0.5003 1.03593,0.9307 1.43425,1.45405c0.14024,0.18426 -0.16001,0.63481 0.1589,0.63917c0.61864,0.00847 1.17622,-0.45219 1.79172,-0.61247c2.17494,-0.56638 4.40429,-0.92863 6.60658,-1.3922c6.73901,-1.41853 13.80392,-3.63881 20.2927,-5.79504c1.47217,-0.48255 2.98318,-0.8988 4.5102,-1.22059l1.69747,-0.56406c0.17512,-0.07166 0.37817,-0.13422 0.61351,-0.18381c0.59262,-0.12489 1.03107,-0.09199 1.35437,0.01456c0.3284,0.10043 0.6266,0.30151 0.80637,0.67172c0.06834,0.14074 0.10383,0.27351 0.11313,0.39829c0.41451,1.82027 1.28496,3.4365 1.86104,5.21859c0.03358,0.10388 0.20847,1.83336 0.65311,2.08472c0.62496,0.35332 1.75927,-0.28233 2.63033,-0.47078c2.89112,-0.62545 5.07638,-1.05076 7.9923,-1.1192l0.91989,-0.24641c0,0 1.95702,-0.4124 2.23268,0.89571c0.27566,1.30811 -1.68136,1.72052 -1.68136,1.72052l-2.01637,0.37234c-0.21171,0.00286 -0.43305,0.01473 -0.66273,0.03421z" fill="#000000" stroke="#000000" stroke-width="1.5"/><path d="M377.63371,191.64353c-2.60152,0.00742 -5.25107,-1.81919 -7.18546,-3.16349c0.22967,-0.01949 0.40244,-0.0847 0.61415,-0.08756l2.01434,-0.37126c0,0 1.9542,-0.41073 1.67854,-1.71884c-0.27565,-1.3081 -2.17465,-0.84759 -2.17465,-0.84759l-0.92092,0.24701c-2.91591,0.06843 -5.11078,0.49828 -8.00191,1.12373c-0.87106,0.18845 -2.00927,0.82545 -2.63423,0.47214c-0.44464,-0.25136 -0.64806,-2.04235 -0.68164,-2.14622c-0.57609,-1.78209 -1.44787,-3.39788 -1.86239,-5.21815c-0.0093,-0.12479 -0.01288,-0.19719 -0.08122,-0.33792c-0.17977,-0.3702 -0.47905,-0.57091 -0.80745,-0.67133c-0.32329,-0.10655 -0.76521,-0.13839 -1.35783,-0.01351c-0.23533,0.04959 -0.44022,0.11262 -0.61534,0.18429l-1.70255,0.56516c-1.52704,0.32179 -3.05057,0.73918 -4.52274,1.22173c-6.48878,2.15623 -13.5808,4.37005 -20.31981,5.78859c-2.20231,0.46358 -4.4351,0.82358 -6.61004,1.38997c-0.6155,0.16028 -1.17356,0.62055 -1.79221,0.61209c-0.31892,-0.00438 -0.01932,-0.45543 -0.15954,-0.63968c-0.39832,-0.52335 -0.98862,-0.95546 -1.4362,-1.45576c-1.15243,-1.28817 -2.10107,-2.49334 -3.04919,-3.84338c-0.6902,-0.98276 -1.45422,-1.55722 -1.92021,-2.26913c8.04338,-2.07225 15.56817,-5.11955 23.48305,-7.4905c2.78258,-0.91754 5.57482,-1.94772 8.4682,-2.55085l0.64116,-0.12103c0,0 1.95389,-0.42509 1.67823,-1.7332c-0.27566,-1.30811 -2.13592,-0.89605 -2.13592,-0.89605l-0.7335,0.15321c-3.09224,0.65771 -5.95745,1.67408 -8.93169,2.65563c-7.80199,2.33713 -15.21536,5.32725 -23.13499,7.38577c-0.26527,-0.26008 -0.83769,-0.44179 -1.68862,-0.35921c-1.3722,0.13317 -1.71816,0.80578 -1.86088,1.21844c-2.28136,0.50077 -5.21463,1.01772 -6.22757,0.61135c-0.91537,-0.36723 -1.31434,-2.75033 -1.70363,-3.36378c-1.74911,-2.75629 -3.47908,-5.64313 -6.07823,-8.00862c1.19109,-0.00924 2.36787,-0.62866 3.47809,-1.07699c2.59456,-1.04772 5.19613,-2.11655 7.77774,-3.18193c11.16812,-4.60886 22.27601,-9.24779 33.17789,-14.20562c0,0 1.80439,-0.74565 0.92401,-1.85622c-0.88038,-1.11057 -2.64693,-0.30674 -2.64693,-0.30674c-3.93613,1.79099 -7.88094,3.52836 -11.86,5.24484c0.49601,-1.61814 0.58149,-3.23897 0.41126,-4.83332c-0.02603,-0.24377 -0.76204,-1.53538 0.04415,-1.97693c0.36961,-0.20244 0.87631,-0.04154 1.31238,-0.11526c2.81072,-0.47521 5.65839,-1.19284 8.45005,-1.78283c5.83161,-1.23244 11.91263,-3.50382 17.46806,-5.48168c5.92427,-1.23407 11.8342,-2.38956 17.77329,-3.47941c0.79698,-0.14625 1.56513,-0.52508 2.36366,-0.57298c2.01984,-0.12116 3.61903,3.01043 4.69896,3.7923c2.26391,1.63909 5.51543,2.03933 8.27533,3.1518c2.00119,0.80664 3.9261,1.67265 5.83312,2.56361c1.58583,0.7409 2.88415,0.93025 3.87668,2.07594c1.56788,1.96867 3.63777,3.72049 5.4257,5.57803c0.79269,0.82358 2.12963,1.37341 2.68487,2.30277c1.26208,2.11248 1.10469,5.5028 1.59163,7.81355c0.75824,3.5982 1.51472,7.20588 2.27297,10.80408c0.34126,1.61943 1.36369,3.52278 0.84545,5.24657c-0.42423,1.41108 -2.25518,3.19639 -3.15546,4.51447c-2.24493,1.5915 -4.85042,4.41268 -7.80141,5.38771c-2.88283,0.95249 -6.55961,1.36056 -9.54904,1.99052c-3.70851,0.7815 -8.16823,2.07092 -11.91954,2.08162z" data-paper-data="{&quot;noHover&quot;:false,&quot;origItem&quot;:[&quot;Path&quot;,{&quot;applyMatrix&quot;:true,&quot;segments&quot;:[[[584.82793,454.39552],[1.05836,-5.09427],[-1.52612,7.34579]],[[583.97914,478.56358],[0,-7.57992],[0,6.11015]],[[583.9309,498.06221],[-0.67517,-6.03457],[0.69114,6.17725]],[[591.2493,515.54106],[-2.18879,-5.04973],[2.20821,2.30546]],[[598.77674,523.57211],[-2.58656,-1.41217],[3.15976,1.72511]],[[609.38605,524.07596],[-3.30999,0],[7.35444,0]],[[631.44936,524.07596],[-7.35444,0],[4.72301,0]],[[647.38256,524.18296],[-4.65465,1.59872],[2.04776,-0.70334]],[[652.99094,519.87931],[-1.93865,1.21169],[4.3726,-2.73296]],[[666.13189,511.56683],[-4.49933,2.25648],[2.65145,-1.4699]],[[671.7871,504.84038],[-2.10398,2.79795],[2.53011,-3.36464]],[[679.20124,494.48984],[-2.4039,3.58368],[3.31532,-4.9424]],[[688.77157,479.60868],[-4.14139,3.75454],[1.97551,-1.79098]],[[698.12498,471.98824],[-0.59588,4.00284],[0.23558,-1.58249]],[[697.977,467.12951],[-0.04246,1.62001],[0.31644,-12.07239]],[[698.48871,430.94573],[-0.02808,12.10284],[-1.57964,-11.68776]],[[694.96562,394.54257],[0.00695,11.92082],[-0.00333,-5.70663]],[[694.96562,377.28826],[-0.22914,5.69662],[0.03555,-0.8838]],[[695.28199,374.67457],[0.24374,0.80682],[-0.53163,-1.75981]],[[691.4325,373.77632],[0.4878,0.0496],[-3.19038,-0.32439]],[[682.25649,370.87272],[2.96218,1.63803],[1.71822,8.49498]],[[687.63979,396.27841],[-1.88175,-8.44168],[0,0]],[[685.94881,401.33806],[2.53647,-1.26491],[-2.53647,1.26491]],[[682.56686,398.80823],[0,0],[-5.20661,-23.37979]],[[668.48496,328.08575],[4.41385,23.75695],[-1.0203,-5.49163]],[[665.47172,311.55622],[0.98042,5.50969],[-0.41953,-2.35761]],[[664.80024,304.30632],[-0.47312,2.33479],[-5.7012,4.11104]],[[646.63558,312.90324],[6.11546,-2.28635],[-1.36108,0.50886]],[[639.3572,314.85037],[1.09617,-1.63994],[-1.21301,1.81475]],[[637.98012,327.09011],[-0.03917,-4.67118],[0.74872,0.44949]],[[639.60248,331.43423],[0.30528,-2.74034],[-0.18931,1.69935]],[[638.19779,334.39092],[0.61839,-0.41188],[0.76249,16.3478]],[[643.12097,382.71277],[-1.35626,-16.23248],[0.69433,6.22544]],[[644.65325,401.29426],[-0.01192,-6.32282],[0,0]],[644.65325,402.79464],[[641.97958,406.79464],[2.67367,0],[-2.67367,0]],[639.3059,402.79464],[[639.3059,401.29426],[0,0],[0.01291,-5.91114]],[[637.82955,383.86675],[0.64809,5.82396],[-1.37588,-16.46736]],[[632.85472,334.82091],[0.73831,16.59564],[-1.58539,0.61835]],[[627.62882,337.64092],[2.20793,-0.94542],[-3.03306,1.29873]],[[618.86068,342.01739],[2.99625,-1.72408],[-1.16367,0.66959]],[[615.42361,344.22459],[1.18848,-0.5637],[-0.4184,0.19845]],[[614.10722,344.27196],[0.14007,-0.62232],[-0.2717,1.20719]],[[614.56691,348.03095],[-0.05984,-1.27064],[0.21147,4.48999]],[[614.56691,361.53432],[0.00101,-4.50113],[-0.00309,13.77338]],[[617.53917,403.63742],[-1.5438,-13.5879],[0.33724,3.08008]],[[618.06788,412.96734],[0,-3.12113],[0,0]],[[618.47173,416.52193],[0,0],[0.06803,0.37228]],[[618.57843,417.79839],[0,-0.48101],[0,1.21128]],[[617.99139,420.4429],[0.34186,-0.58875],[-0.33198,0.60128]],[[616.3443,421.74396],[0.79863,-0.19913],[-0.30361,0.0757]],[[615.51818,421.8011],[0.24804,0.03326],[-3.73324,0.06053]],[[604.53779,423.29103],[3.72516,-0.39246],[-0.21713,0.02288]],[[600.18861,423.70943],[0.6753,-0.7665],[-0.94917,1.07736]],[[600.02519,429.0512],[-0.00956,-1.7824],[0.03173,5.91593]],[[598.91944,445.15384],[1.0686,-5.73472],[0,0]],[599.02231,447.0557],[[596.34864,451.0557],[2.67367,0],[-2.67367,0]],[593.67496,447.0557],[[593.77784,442.95607],[0,0],[0.08172,-0.4155]],[[593.9842,441.645],[-0.05659,0.45751],[-3.42857,3.23125]]],&quot;closed&quot;:true}]}" fill="#ffffff" stroke="none" stroke-width="0.5"/></g></g></g></svg>