<svg version="1.1" xmlns="http://www.w3.org/2000/svg" xmlns:xlink="http://www.w3.org/1999/xlink" width="214.50192" height="245.55152" viewBox="0,0,214.50192,245.55152"><g transform="translate(-74.18573,-88.97233)"><g data-paper-data="{&quot;isPaintingLayer&quot;:true}" fill-rule="nonzero" stroke-linecap="butt" stroke-linejoin="miter" stroke-miterlimit="10" stroke-dasharray="" stroke-dashoffset="0" style="mix-blend-mode: normal"><g data-paper-data="{&quot;index&quot;:null}" stroke="none" stroke-width="0.5"><path d="M210.24357,224.04254c-0.84772,6.0045 -0.29343,11.84397 -0.6592,17.86374c-0.66375,10.9238 -1.74169,21.78924 -2.78937,32.71636c0.01385,12.22582 -0.54055,24.68231 -1.39943,36.859c-0.25921,3.67492 -1.90673,11.9006 1.69259,13.50549c3.21245,1.86316 6.79043,3.87289 10.43592,4.21107c2.30098,0.21346 4.65083,-0.1779 6.95518,-0.00206c6.96606,0.53154 14.35871,1.03835 21.34939,0.40435c2.91043,-0.26396 5.77535,-0.80663 8.69977,-0.80663c3.48129,-0.68683 8.95204,0.11871 11.90552,-2.40087c2.6552,-2.26512 3.27006,-6.71243 3.72888,-10.20038c1.21846,-9.26268 -0.01849,-18.12318 -0.01849,-27.38154c-0.84031,-6.80815 -2.33143,-13.69302 -2.78956,-20.59507c-0.79014,-11.90384 -0.00682,-24.23613 -0.00682,-36.17847c0,-0.84604 0.5767,-6.98469 -0.17235,-7.38425c-1.03264,-0.55084 -2.27356,-0.0045 -3.41034,-0.00244c-2.79133,0.00504 -5.58271,0 -8.37404,0c-9.43269,0 -18.81555,0.40435 -28.26239,0.40435c-4.99403,-0.01513 -10.01329,-0.82914 -15.00349,-0.80871h-1.04676c0,0 -0.39566,0 -0.83501,-0.20394zM209.11504,221.41508c0.27119,-1.80409 1.96354,-1.80409 1.96354,-1.80409h1.04676c4.99288,0.01746 10.0101,0.82602 15.00349,0.8087c10.14565,0 20.21892,-0.40435 30.3559,-0.40435c3.04043,0 9.40543,-1.32398 11.94205,0.80625c2.90251,2.43751 1.92116,7.71164 1.92116,11.21593c0,11.813 -0.78833,24.02238 -0.00681,35.79614c0.45948,6.92212 1.9518,13.81711 2.79313,20.6488c0,9.60661 1.26916,18.80238 -0.01849,28.419c-0.64325,4.80403 -1.7087,10.2114 -5.34299,13.25202c-3.77115,3.15512 -9.51364,2.42567 -13.91444,3.26006c-2.93983,0 -5.81988,0.55417 -8.74614,0.81077c-7.18192,0.62977 -14.76174,0.15561 -21.9165,-0.40435c-2.31959,-0.18154 -4.68407,0.22889 -7.00155,-0.00206c-4.17745,-0.41631 -8.19972,-2.5455 -11.89485,-4.68466c-0.90333,-0.58918 -2.03274,-0.85811 -2.70999,-1.76752c-2.826,-3.7947 -1.50708,-11.81147 -1.18011,-16.26642c0.89038,-12.13116 1.37931,-24.54876 1.39191,-36.73301c1.0503,-10.95446 2.10862,-21.84458 2.79332,-32.78862c0.38811,-6.2036 -0.16983,-12.21222 0.72002,-18.41256c0,0 0.3288,-2.28621 2.30159,-1.90518c0.18607,0.03594 0.35167,0.08883 0.499,0.15515z" fill="#000000"/><path d="M211.0533,224.19649l1.04751,-0.0005c4.9902,-0.02043 10.02247,0.78768 15.0165,0.80281c9.44683,0 18.85943,-0.40194 28.29212,-0.40194c2.79133,0 5.58947,0.00881 8.3808,0.00377c1.13678,-0.00206 2.38004,-0.54673 3.41269,0.00411c0.74905,0.39956 0.17539,6.5407 0.17539,7.38673c0,11.94234 -0.76522,24.30637 0.02492,36.21021c0.45814,6.90205 1.94849,13.81867 2.7888,20.62682c0,9.25836 1.22385,18.14326 0.00539,27.40595c-0.45882,3.48795 -1.08036,7.94149 -3.73556,10.20661c-2.95348,2.51958 -8.43457,1.72021 -11.91586,2.40704c-2.92443,0 -5.79815,0.54548 -8.70858,0.80944c-6.99068,0.63401 -14.4062,0.12573 -21.37226,-0.40582c-2.30435,-0.17584 -4.66055,0.2128 -6.96153,-0.00065c-3.6455,-0.33818 -7.23275,-2.3542 -10.44519,-4.21736c-3.59931,-1.60489 -1.95884,-9.83791 -1.69964,-13.51283c0.85888,-12.17669 1.40017,-24.67621 1.38632,-36.90203c1.04768,-10.92712 2.14145,-21.83119 2.8052,-32.75499c0.36577,-6.01977 -0.18025,-11.86646 0.66747,-17.87096c0.43936,0.20394 0.83552,0.20359 0.83552,0.20359z" data-paper-data="{&quot;noHover&quot;:false,&quot;origItem&quot;:[&quot;Path&quot;,{&quot;applyMatrix&quot;:true,&quot;segments&quot;:[[[420.48713,448.08507],[0.87871,0.40788],[-1.69545,12.009]],[[419.16873,483.81254],[0.73154,-12.03953],[-1.3275,21.84761]],[[413.58998,549.24525],[2.09536,-21.85424],[0.02769,24.45164]],[[410.79113,622.96326],[1.71775,-24.35339],[-0.51842,7.34984]],[[414.1763,649.97425],[-7.19863,-3.20979],[6.42489,3.72633]],[[435.04815,658.3964],[-7.29099,-0.67636],[4.60197,0.42691]],[[448.95851,658.39227],[-4.60869,-0.35167],[13.93212,1.06309]],[[491.65728,659.20097],[-13.98135,1.26801],[5.82086,-0.52791]],[[509.05683,657.5877],[-5.84885,0],[6.96257,-1.37367]],[[532.86787,652.78596],[-5.90696,5.03916],[5.3104,-4.53024]],[[540.32563,632.38521],[-0.91764,6.97589],[2.43691,-18.52537]],[[540.28865,577.62214],[0,18.51672],[-1.68061,-13.6163]],[[534.70952,536.43199],[0.91627,13.8041],[-1.58028,-23.80767]],[[534.69589,464.07505],[0,23.88468],[0,-1.69208]],[[534.3512,449.30655],[1.49809,0.79912],[-2.06528,-1.10167]],[[527.53051,449.30166],[2.27356,-0.00411],[-5.58266,0.01009]],[[510.78243,449.30166],[5.58267,0],[-18.86538,0]],[[454.25765,450.11036],[18.89367,0],[-9.98806,-0.03025]],[[424.25067,448.49295],[9.9804,-0.04087],[0,0]],[422.15716,448.49295]],&quot;closed&quot;:true}]}" fill="#ffffff"/></g><path d="M261.44221,224.22086c-0.03438,-0.03098 -0.06927,-0.06077 -0.10472,-0.08884zM262.8633,229.45198c-0.14685,-0.02854 -0.28729,-0.1031 -0.42293,-0.2121l-0.03404,0.20424l-1.19455,-0.79645c-0.40858,-0.25134 -0.70558,-1.01227 -0.70558,-1.91195c0,-1.10457 0.44767,-2 0.9999,-2h0.44536c-0.14378,-0.13845 -0.29211,-0.30966 -0.45097,-0.46083c-0.08024,-0.00368 -0.99429,-0.08761 -0.99429,-1.99983c0,-2 0.9999,-2 0.9999,-2l0.57409,0.14305c0.82642,0.66924 2.05741,0.40249 2.48798,1.9641c0.23321,0.84583 0.11886,2.87039 -0.23586,4.53929c0.62479,0.89699 1.21161,1.79517 1.30666,2.14319c1.25257,4.58631 -1.44889,12.78827 -3.26986,14.85895c-0.05851,0.06653 -0.11878,0.1233 -0.18052,0.17196c-0.39384,4.95454 -1.51351,9.73053 -3.90942,12.02799c-1.00223,0.96105 -2.36274,0.74672 -3.46441,0.31605c-0.03826,1.40593 -0.1686,2.78329 -0.53981,4.09858c-1.36048,4.82055 -5.42304,5.11882 -7.8435,2.84539c-0.70362,2.03409 -1.61927,3.6675 -2.76355,5.32392c-2.61105,1.12464 -6.64753,0.3981 -8.92945,-3.4339c-1.00374,0.50997 -2.17394,0.36224 -3.03468,0.36397c-3.1599,0.00635 -5.922,-0.35515 -7.2667,-6.89348c-0.00117,-0.15653 -0.00296,-0.32112 -0.0051,-0.49283c-1.93464,0.05887 -4.01183,-0.67352 -5.01785,-2.98715c-1.13586,-2.61223 -1.09313,-5.92122 -0.64527,-9.06281c-1.82626,-0.18411 -3.64492,-1.03032 -4.71243,-4.12863c-0.30554,-0.8868 -0.526,-2.03652 -0.6496,-3.28869c-1.65365,-0.56074 -3.22106,-2.07611 -3.71147,-4.38914c-0.32996,-1.55631 -0.01807,-4.0121 0.14604,-5.61826c0.39649,-3.88053 1.893,-8.62895 3.90807,-10.02095c0.8374,-0.57847 2.45713,-0.50027 3.35725,-0.50815c0,0 0.9999,0 0.9999,2c0,2 -0.9999,2 -0.9999,2c-0.75509,-0.00803 -2.02683,-0.133 -2.72486,0.30288c-1.50675,0.94088 -3.36731,7.1575 -2.83894,10.31375c0.10494,0.62687 1.02213,1.19063 1.18576,1.28137c0.21154,0.11731 0.42481,0.2352 0.63789,0.34342c0.23018,-2.84027 0.99839,-5.31681 2.4323,-5.68965c1.42699,-0.37104 1.8938,1.23421 2.8501,2.89988c-0.17076,2.71246 0.04121,4.15265 -1.13677,5.95087c-0.47768,0.72919 -1.18763,1.15946 -1.99031,1.3129c0.05159,0.3577 0.11075,0.64411 0.17491,0.82191c0.21566,0.5976 1.43614,1.90896 1.70805,2.07351c0.65993,0.39938 1.38451,0.45213 2.11261,0.41872c0.10805,-0.46831 0.21801,-0.9218 0.32637,-1.35658c0.44062,-2.03905 0.55278,-3.70914 1.89169,-4.36787c1.87989,-0.9249 4.11538,1.75219 3.36132,6.08161c-0.43703,2.50922 -2.46651,3.49209 -3.52992,3.53866c-0.239,0.01047 -0.48635,0.02483 -0.73969,0.03803c-0.42787,2.26345 -0.66599,4.78773 0.05418,6.33543c0.72578,1.55976 2.25821,1.68389 3.5403,1.56756c0.061,-2.68368 0.32609,-5.47023 1.24759,-6.73098c2.00199,-2.73903 4.85548,1.94584 4.14474,6.34374c-0.37068,2.29367 -1.26345,3.15931 -2.31227,3.7328c-0.32126,0.17566 -0.69376,0.33272 -1.10022,0.45991c-0.00026,0.02271 -0.00052,0.04548 -0.00077,0.06832c0.79228,4.24411 3.46972,3.646 5.30299,3.64991c0.26723,0.00057 1.01427,0.13871 1.70183,0.08896c-0.46478,-2.08399 -0.7451,-4.90745 0.17044,-6.23334c2.04804,-2.966 3.44602,4.38121 2.93512,7.14796c1.75215,2.22729 4.33159,3.10251 6.34048,2.41472c0.7746,-1.23844 1.4839,-2.47686 2.01206,-4.00157c-0.43202,-1.08638 -0.62164,-2.45668 -0.06542,-3.98837c0.09078,-0.24998 0.20008,-0.4559 0.32253,-0.63054l-0.02813,-0.07503l0.80287,-1.20442c0.16848,-0.25849 0.37928,-0.41212 0.60802,-0.41212c0.55223,0 0.9999,0.89543 0.9999,2v2.02758h-0.05472l0.04181,0.32036c-0.0196,0.11701 -0.03959,0.23276 -0.05996,0.34729c2.08904,1.35549 4.99401,2.76853 5.38452,-2.61008c0.03857,-0.53124 0.04819,-1.06642 0.04453,-1.60345c-0.44033,-0.98882 -0.85523,-2.39786 -0.65702,-3.61012c0.05302,-0.3243 0.13737,-0.60654 0.24348,-0.85956l-0.05213,-0.0782l0.60123,-1.60344c0.18195,-0.49635 0.47561,-0.81862 0.8069,-0.81862c0.55223,0 0.9999,0.89543 0.9999,2v2.00508c1.90598,0.26603 3.63773,0.61761 4.79219,-4.10033c0.26096,-1.06647 0.46649,-2.46485 0.59274,-3.89022c-1.11116,-0.66528 -1.75705,-0.79259 -2.265,-3.51995c-0.6239,-3.34994 0.36639,-8.70376 2.76523,-6.9283c0.94546,0.69977 1.38865,2.94013 1.55475,5.13178c0.64209,-1.28255 1.11101,-3.10514 1.34679,-4.67752c0.02774,-0.18498 0.33333,-3.19677 0.27211,-3.38112c-0.22906,-0.68967 -0.61612,-1.05592 -0.99752,-1.44303zM262.68573,224.94063c0.02209,-0.04169 0.04419,-0.0817 0.06561,-0.11923c-0.07877,0.09054 -0.15565,0.14364 -0.23155,0.16729v0.06489zM260.30303,240.1988c-0.0222,-0.45375 -0.06178,-0.90643 -0.12619,-1.34329c-0.07461,-0.50604 -0.3904,-1.88252 -0.40804,-1.35611c-0.05136,1.53297 0.03169,2.20196 0.53423,2.6994zM226.57195,253.80424c0.56018,-0.1494 1.18495,-0.48845 1.34494,-1.34249c0.2318,-1.23732 -0.94008,-2.10704 -1.12642,-1.76656c-0.1254,0.22913 0.01638,0.68652 -0.01991,1.0184c-0.08188,0.74896 -0.14708,1.43059 -0.19862,2.09065zM221.72398,242.16582c0.37866,-0.05556 0.75579,-0.38217 1.06767,-0.80949c0.17568,-0.24071 0.79579,-0.51292 0.5829,-0.52286c-0.39384,-0.01839 -0.77184,-0.43618 -1.16524,-0.39474c-0.33325,0.0351 -0.39554,0.98175 -0.48532,1.72709zM215.32877,234.89893c0.55158,-0.16246 1.05087,-0.6725 1.45213,-1.77219c-0.30932,-0.11345 -0.93121,-0.72708 -1.19723,-0.11062c-0.14707,0.3408 -0.22668,1.04623 -0.25489,1.88281z" fill="#ffba00" stroke="#000000" stroke-width="2"/><g stroke="#000000" stroke-width="2"><path d="M232.87187,226.96647c0,0 0.01488,-0.00744 0.04209,-0.01892c-8.94862,0.53732 -18.21519,1.96802 -26.84272,-0.18887c-2.25154,0 -4.20529,-1.04564 -6.40324,-1.28064c-1.71187,-0.18303 -3.37702,0.01937 -4.8212,-1.24615c-1.72177,-1.50877 -1.47899,-2.99527 -1.72774,-4.98262c-0.56703,-4.53025 -1.61033,-9.00029 -1.61033,-13.60209c0.01508,-2.28894 -0.66317,-4.32719 -0.95096,-6.56811c-0.41166,-3.20539 -0.7874,-6.39258 -1.27376,-9.55656c-0.84228,-5.47936 -0.65673,-11.28951 -0.65673,-16.85201c0,-6.93684 0,-13.87367 0,-20.81051v-0.64033c0,0 0,-0.17944 0.06742,-0.40347c-0.89674,-4.84439 -0.38759,-10.03921 -0.38759,-14.94501c0,-8.86219 -0.32016,-17.70583 -0.32016,-26.57343c0,-1.31653 -0.43005,-4.06701 0.09675,-5.3081c0.70014,-1.64949 3.0233,-2.81564 4.44779,-3.53189c3.27461,-1.64652 7.17312,-2.38807 10.81359,-2.37532c1.30293,0.00457 3.32099,0.08623 4.46816,0.8053c2.34536,1.47011 2.22919,5.3547 2.2456,7.82943c0,10.16549 0.64016,20.23824 0.64032,30.41535c0.00008,4.93583 0.64273,10.32747 -0.32635,15.17287c-0.09396,0.11653 -0.41806,0.28739 -0.2819,0.3496c1.1242,0.51367 3.83181,-0.46355 5.10015,-0.46521c2.88125,-0.00377 5.76317,-0.01399 8.64437,0c1.40858,0.00684 2.80425,0.33933 4.17017,0.68344c3.11211,0.78403 6.49579,0.93365 9.65521,1.52083c3.88046,0.72117 7.94766,1.98003 11.87766,1.96104c3.12336,0.44191 6.25157,0.84192 9.37425,1.29021c0.71727,0.10298 1.44466,0.15138 2.15158,0.3106c0.15848,0.0357 0.3021,0.38887 0.40835,0.266c0.3927,-0.45417 0.0748,-1.20057 0.17312,-1.79287c0.30253,-1.82247 0.62141,-3.68515 0.61871,-5.52953c-0.00808,-5.52715 0.32016,-11.09772 0.32016,-16.64841c0.01053,-6.62188 0.00396,-14.34264 2.32759,-20.63096c0.3596,-0.97317 1.1754,-1.71798 1.63771,-2.64677c1.10852,-2.22703 2.0603,-4.93813 4.20739,-6.53865c2.0437,-1.52344 3.79074,-1.29076 6.06965,-1.86048c2.53563,-0.01375 7.17959,-0.81822 9.09465,1.36136c1.27423,1.45022 1.07151,3.46863 1.28666,5.18758c0.83046,6.6349 0.32969,13.60759 0.32969,20.32549c0,11.81087 -0.96049,23.41241 -0.96049,35.2178c0,10.8855 0,21.771 0,32.6565c-0.03249,4.89923 -0.98347,10.02744 -1.61033,14.88274c-0.23749,1.83944 0.20869,3.86473 -0.79578,5.59351c-1.64052,2.8235 -6.48748,4.08967 -9.25128,5.34511c-2.54057,1.01666 -5.27806,2.22708 -8.00671,2.65112c-5.41867,0.84207 -10.97241,0.28387 -16.44123,0.65103c-4.08728,0.27441 -8.13035,0.32174 -12.22946,0.32174c-1.43231,0 -2.87817,0.04762 -4.33343,0.12342c0.14607,0.05309 0.2914,0.1424 0.42375,0.28421c-0.67176,-0.00198 -1.34066,0.01207 -1.99938,0.05397c0.18016,-0.08618 0.35958,-0.17394 0.53822,-0.26334zM191.16928,152.74575c0,6.64159 0,13.28317 0,19.92476c0,5.42638 -0.19862,11.10293 0.62391,16.44483c0.82277,5.34344 2.22795,11.07488 2.25754,16.53185c0,4.49072 1.03882,8.86607 1.59129,13.2915c0.14794,1.18507 -0.2515,2.45196 0.83356,3.34158c1.02363,0.83926 2.33062,0.54014 3.50301,0.67482c2.19983,0.25271 4.16223,1.28064 6.40323,1.28064c10.24799,2.56199 21.42542,-0.00952 31.86089,-0.00952c4.05747,0 8.05722,-0.05291 12.10283,-0.31859c5.39653,-0.3544 10.86981,0.18355 16.21528,-0.62962c2.49988,-0.38029 5.03621,-1.54197 7.36104,-2.47147c2.00008,-0.90975 6.86362,-2.14074 8.03747,-4.25975c0.75838,-1.36902 0.30805,-3.19468 0.48487,-4.65166c0.57536,-4.741 1.63169,-9.79752 1.59128,-14.57215c0,-10.8855 0,-21.771 0,-32.6565c0,-11.80623 0.96048,-23.40762 0.96048,-35.2178c0,-5.65612 -0.016,-11.31249 0,-16.96858c0.00457,-1.615 0.15002,-5.47207 -0.94495,-6.82327c-1.05241,-1.29868 -5.49266,-0.55025 -6.91344,-0.55961c-1.78821,0.44705 -3.25575,0.1607 -4.81586,1.34114c-1.80549,1.3661 -2.54048,3.76308 -3.47649,5.6275c-0.43796,0.87237 -1.23613,1.55636 -1.5639,2.47582c-2.14527,6.01787 -2.1657,13.39449 -2.15467,19.70943c0,6.65979 0.34856,13.51377 -0.66143,20.09146c-0.16156,1.05214 -0.33276,5.04371 -1.42819,5.88298c-0.85557,0.6555 -3.68969,0.04904 -4.48362,-0.06373c-3.06375,-0.43518 -6.13262,-0.82907 -9.19514,-1.27108c-1.58121,-0.00702 -3.14267,-0.38535 -4.69029,-0.70961c-6.18821,-1.29655 -12.64909,-2.42139 -18.83178,-3.47223c-2.71168,-0.46089 -5.94975,0.02293 -8.72417,0.02293c-2.01377,0 -4.5996,0.69353 -6.52848,0.31398c-0.84349,-0.16598 -1.87774,-0.14534 -2.45849,-0.77918c-0.50207,-0.54797 -0.18793,-1.47446 -0.28189,-2.21169c0.95303,-4.76519 0.31405,-10.06742 0.31397,-14.92234c-0.00016,-10.17691 -0.64032,-20.24955 -0.64032,-30.4154c0.00936,-1.10635 0.15307,-5.11489 -0.95603,-5.61737c-3.68839,-1.67106 -9.5337,-0.03636 -12.89248,1.6316c-0.74057,0.36777 -2.81381,1.2673 -3.2361,2.23103c-0.34082,0.77782 0.09675,3.5163 0.09675,4.33532c0,8.86764 0.32017,17.71112 0.32017,26.57343c0,5.12658 -0.66127,10.70229 0.60237,15.68055c0,0 0.17921,0.71684 -0.28221,1.19402z" fill="#000000"/><path d="M191.40293,151.53981c-1.26364,-4.97826 -0.59712,-10.56705 -0.59712,-15.69363c0,-8.86231 -0.30988,-17.71834 -0.30988,-26.58598c0,-0.81901 -0.43615,-3.55871 -0.09533,-4.33652c0.42229,-0.96372 2.49761,-1.86487 3.23818,-2.23263c3.35878,-1.66797 9.21114,-3.30697 12.89952,-1.63591c1.10909,0.50248 1.0115,4.59974 1.00214,5.70609c0,10.16585 0.65419,20.22731 0.65435,30.40422c0.00008,4.85492 0.64839,10.14134 -0.30464,14.90653c0.09396,0.73723 -0.21918,1.66066 0.2829,2.20863c0.58076,0.63384 1.51897,0.58529 2.36247,0.75126c1.92888,0.37955 4.51626,-0.31851 6.53003,-0.31851c2.77442,0 6.01785,-0.49383 8.72953,-0.03294c6.18269,1.05085 12.72622,2.17628 18.91442,3.47283c1.54762,0.32425 3.11488,0.71429 4.69608,0.72131c3.06252,0.44201 6.13365,0.84559 9.1974,1.28077c0.79393,0.11277 3.52875,0.7309 4.38432,0.0754c1.09544,-0.83927 1.26873,-4.82086 1.43028,-5.87301c1.00999,-6.57769 0.67445,-13.41077 0.67445,-20.07056c-0.01103,-6.31494 0.01788,-13.68501 2.16316,-19.70287c0.32777,-0.91945 1.12591,-1.60347 1.56387,-2.47584c0.93601,-1.86442 1.72332,-4.34662 3.52882,-5.71272c1.56011,-1.18044 3.02969,-0.89276 4.8179,-1.33982c1.42077,0.00936 5.86431,-0.73662 6.91672,0.56206c1.09497,1.3512 0.95226,5.21066 0.94769,6.82566c-0.016,5.65609 0.00661,11.32006 0.00661,16.97618c0,11.81018 -0.95136,23.44233 -0.95136,35.24856c0,10.8855 -0.00982,21.79889 -0.00982,32.68439c0.04041,4.77463 -1.02233,9.83825 -1.5977,14.57925c-0.17682,1.45698 0.27161,3.28429 -0.48677,4.65331c-1.17385,2.11901 -6.04269,3.35382 -8.04276,4.26357c-2.32484,0.92951 -4.86611,2.09391 -7.36599,2.4742c-5.34546,0.81316 -10.83016,0.27907 -16.22669,0.63347c-4.04561,0.26567 -8.05507,0.31963 -12.11253,0.31963c-10.43547,0 -21.63608,2.56606 -31.88407,0.00407c-2.241,0 -4.20727,-1.03012 -6.4071,-1.28283c-1.17238,-0.13468 -2.4813,0.16317 -3.50493,-0.67609c-1.08506,-0.88962 -0.68712,-2.15759 -0.83506,-3.34266c-0.55247,-4.42542 -1.597,-8.80578 -1.597,-13.2965c-0.0296,-5.45696 -1.44247,-11.1986 -2.26524,-16.54203c-0.82253,-5.34189 -0.62944,-11.03297 -0.62944,-16.45935c0,-6.64158 0.00008,-13.30413 0.00008,-19.94571c0.46142,-0.47719 0.28251,-1.19528 0.28251,-1.19528z" data-paper-data="{&quot;noHover&quot;:false,&quot;origItem&quot;:[&quot;Path&quot;,{&quot;applyMatrix&quot;:true,&quot;segments&quot;:[[[323.60448,200.90993],[0.92284,-0.95438],[0,13.28317]],[[323.60448,240.75944],[0,-13.28317],[0,10.85276]],[[324.85231,273.64909],[-1.64507,-10.68379],[1.64554,10.68687]],[[329.36739,306.71278],[-0.05919,-10.91393],[0,8.98144]],[[332.54997,333.29578],[-1.10493,-8.85085],[0.29588,2.37014]],[[334.21709,339.97894],[-2.17012,-1.77925],[2.04725,1.67851]],[[341.2231,341.32858],[-2.34477,-0.26936],[4.39966,0.50542]],[[354.02957,343.88987],[-4.482,0],[20.49598,5.12399]],[[417.75134,343.87083],[-20.87094,0],[8.11493,0]],[[441.957,343.23366],[-8.09122,0.53135],[10.79306,-0.70879]],[[474.38756,341.97443],[-10.69093,1.62633],[4.99977,-0.76058]],[[489.10965,337.03148],[-4.64967,1.85902],[4.00015,-1.81951]],[[505.18458,328.51198],[-2.34769,4.23802],[1.51676,-2.73804]],[[506.15432,319.20866],[-0.35364,2.91395],[1.15073,-9.482]],[[509.33689,290.06436],[0.08081,9.54926],[0,-21.771]],[[509.33689,224.75136],[0,21.771],[0,-23.61247]],[[511.25786,154.31576],[0,23.62036],[0,-11.31224]],[[511.25786,120.3786],[-0.032,11.31219],[0.00914,-3.23]],[[509.36796,106.73206],[2.18994,2.7024],[-2.10481,-2.59735]],[[495.54109,105.61283],[2.84155,0.01872],[-3.57641,0.89411]],[[485.90937,108.29511],[3.12023,-2.36088],[-3.61099,2.73221]],[[478.95638,119.55012],[1.87203,-3.72885],[-0.87593,1.74473]],[[475.82858,124.50176],[0.65554,-1.83891],[-4.29055,12.03573]],[[471.51924,163.92061],[-0.02206,-12.62988],[0,13.31958]],[[470.19638,204.10353],[2.01998,-13.15538],[-0.32311,2.10429]],[[467.33999,215.86948],[2.19088,-1.67854],[-1.71114,1.31099]],[[458.37274,215.74202],[1.58786,0.22554],[-6.12751,-0.87036]],[[439.98246,213.19985],[6.12504,0.88402],[-3.16241,-0.01403]],[[430.60188,211.78064],[3.09523,0.64851],[-12.37641,-2.5931]],[[392.93832,204.83617],[12.36539,2.10169],[-5.42335,-0.92178]],[[375.48998,204.88204],[5.54884,0],[-4.02754,0]],[[362.43302,205.50999],[3.85776,0.7591],[-1.68699,-0.33195]],[[357.51604,203.95163],[1.16151,1.26768],[-1.00415,-1.09593]],[[356.95225,199.52825],[0.18793,1.47446],[1.90607,-9.53038]],[[357.5802,169.68357],[0.00015,9.70983],[-0.00031,-20.35383]],[[356.29955,108.85278],[0,20.33169],[0.01872,-2.2127]],[[354.3875,97.61804],[2.21819,1.00497],[-7.37677,-3.34212]],[[328.60253,100.88125],[6.71756,-3.33593],[-1.48114,0.73553]],[[322.13033,105.3433],[0.84458,-1.92745],[-0.68165,1.55563]],[[322.32383,114.01393],[0,-1.63803],[0,17.73528]],[[322.96416,167.16079],[0,-17.72462],[0,10.25316]],[[324.16891,198.52188],[-2.52729,-9.95652],[0,0]]],&quot;closed&quot;:true}]}" fill="#ffffff"/></g><g stroke="none" stroke-width="0.5"><path d="M241.00073,168.45565c0.59252,-0.60415 1.49294,-0.60415 1.49294,-0.60415l1.24808,0.0201c11.36306,-1.59801 23.40097,-1.25308 34.88174,-1.24484c2.16384,0.00155 7.69947,-1.14169 9.37503,0.2796c0.91649,0.77742 0.39052,2.37168 0.58578,3.55751c-0.01558,7.07757 -1.60955,15.33188 -5.16914,21.51825c-1.56741,2.72407 -4.48764,5.73212 -7.7002,6.45397c-5.758,1.29379 -13.15405,-0.37954 -18.90888,-1.20854c-6.62142,-1.64907 -13.73639,-5.24548 -15.34987,-12.56824c-0.66158,-3.00257 -0.55644,-6.67281 -0.3463,-9.72693c0.05682,-0.82583 1.14965,-2.33003 0.3323,-2.46102c-1.67463,-0.26838 -3.94121,0.20803 -5.95671,0.46153c-0.07885,0.64177 -0.15548,1.18003 -0.19507,1.47066c-1.00234,7.35759 -4.48591,14.37201 -11.36136,17.82629c-6.44592,1.81388 -15.96523,0.83904 -22.04855,-1.87203c-5.01798,-2.2363 -9.4516,-10.43723 -10.35061,-15.59317c-0.30106,-1.72665 0.06174,-3.49853 0.30046,-5.19599c0,0 0.28284,-1.9799 2.26274,-1.69705c0.84804,0.12115 1.28096,0.55364 1.49877,1.00854c4.66609,-0.49557 9.46428,-0.41628 14.14,-0.41628c6.17693,0 12.31237,-0.20029 18.43631,-0.90399c1.80042,-0.20688 5.8704,-0.92013 7.34172,0.77145c0.09062,0.10419 0.15017,0.30445 0.18568,0.5716c1.64142,-0.20043 3.64549,-0.497 5.30515,-0.44728z" fill="#000000"/><path d="M201.58878,180.00608c-0.10589,0.57506 -0.49931,1.64334 -1.961,1.64334c-2,0 -2,-2 -2,-2l0.33589,-1.41559c1.33602,-2.00403 2.52919,-3.79477 4.2303,-5.50995c0,0 1.41421,-1.41422 2.82842,0c1.41422,1.41422 0,2.82842 0,2.82842c-1.39798,1.38422 -2.36621,2.84605 -3.43361,4.45379z" fill="#ffffff"/><path d="M204.72247,185.95717c-1.71499,-1.02899 -0.686,-2.74398 -0.686,-2.74398l0.84469,-1.39636c1.07631,-2.09534 2.5147,-3.47335 3.79897,-5.42012c0,0 1.1094,-1.6641 2.7735,-0.5547c1.6641,1.1094 0.5547,2.7735 0.5547,2.7735c-1.19607,1.77847 -2.62748,3.07541 -3.54946,4.99017l-0.99242,1.66549c0,0 -1.02899,1.71499 -2.74398,0.686z" fill="#ffffff"/><path d="M249.82202,182.46533c-1.89736,-0.63245 -1.26491,-2.52983 -1.26491,-2.52983l0.67145,-1.99249c1.09883,-2.55452 2.1394,-4.45626 4.0983,-6.44389c0,0 1.41421,-1.41422 2.82843,0c1.41422,1.41422 0,2.82843 0,2.82843c-1.63419,1.60403 -2.35295,3.08915 -3.25014,5.19114l-0.55329,1.68173c0,0 -0.63246,1.89737 -2.52983,1.26491z" fill="#ffffff"/><path d="M256.55809,186.13955c-1.89736,-0.63245 -1.26491,-2.52982 -1.26491,-2.52982l0.41469,-1.18053c1.29088,-2.57035 2.79275,-4.88939 3.93097,-7.54803c0,0 0.78784,-1.83829 2.62613,-1.05045c1.83829,0.78784 1.05045,2.62612 1.05045,2.62612c-1.17105,2.72973 -2.71656,5.12145 -4.02984,7.76122l-0.19768,0.65658c0,0 -0.63245,1.89737 -2.52982,1.26492z" fill="#ffffff"/></g><path d="M228.04437,200.23402c0.5014,-0.3866 1.02872,-0.51843 1.02872,-0.51843l2.62714,-0.64999c1.07604,-0.1098 2.15207,-0.2196 3.22811,-0.3294c2.2396,-0.24588 4.50503,-0.14436 6.75215,-0.30783c3.63576,-0.26449 4.85753,-1.95989 7.60774,2.14126c0.73071,1.08966 0.53331,2.57543 0.6461,3.88255c0.51116,5.92381 -1.07673,13.75041 -7.40596,16.24596c-10.77796,4.24964 -19.49874,-9.89524 -16.41451,-18.82262c0,0 0.54743,-1.45981 1.9305,-1.64149zM230.51089,204.50935c-1.21414,5.18414 4.14598,13.82119 10.20201,11.53002c4.29038,-1.62317 5.1519,-9.2552 4.2628,-12.93947c-0.22043,-0.91344 -1.86793,0.20684 -2.80254,0.30415c-2.23024,0.23221 -4.49177,0.05373 -6.71999,0.30454c-0.9652,0.09432 -1.93039,0.18865 -2.89559,0.28297l-2.04669,0.5178z" data-paper-data="{&quot;index&quot;:null}" fill="#000000" stroke="none" stroke-width="0.5"/><g data-paper-data="{&quot;index&quot;:null}"><path d="M182.10209,170.03928c-1.36726,4.11556 -1.70469,7.79774 -1.39991,12.1437c0.18601,2.65239 1.13534,5.74512 -0.67739,8.15781c-1.85384,2.4674 -4.94866,3.68997 -7.41778,5.31864c-7.7715,5.12621 -14.60861,12.74956 -24.7253,12.00928c-3.07888,-0.23372 -6.46614,-0.3385 -9.23694,-1.93084c-2.6003,-1.49436 -4.97448,-4.33387 -7.41829,-6.16289c-9.35586,-7.00221 -17.57651,-14.53343 -24.34947,-24.10595c-3.53819,-2.20388 -6.88493,-5.54606 -10.0303,-8.33811c-4.81945,-4.27807 -10.13407,-7.96824 -14.94179,-12.23052c-1.97076,-1.74717 -8.05763,-6.0058 -7.12215,-9.335c0.33466,-1.19097 1.9678,-1.50527 3.01373,-2.16591c3.34464,-2.1126 7.28308,-3.65147 10.82058,-5.42112c3.38707,-1.2967 8.47548,-4.24639 12.35125,-3.1425c0.0055,0.00157 0.011,0.00314 0.01649,0.00472c-1.2431,-1.96572 -2.47755,-3.9296 -3.70494,-5.88649c-1.52074,-2.42459 -3.72409,-4.59458 -5.17943,-6.99718c-0.60254,-0.99471 -1.41147,-2.06012 -1.3409,-3.22095c0.14398,-2.36828 2.6262,-3.9514 4.32829,-4.97721c3.26108,-1.96537 6.98935,-3.75422 10.61961,-4.88581c4.56365,-1.55157 7.64934,-0.96912 11.28263,2.34236c-0.61885,-0.92266 -1.25636,-1.79471 -2.17778,-2.73325c-2.51647,-2.56322 -5.1671,-2.83005 -3.40615,-7.48205c0.42315,-1.11786 1.85582,-1.50693 2.7929,-2.24892c4.15829,-3.29258 8.47698,-5.54 13.19776,-7.90632c0.99654,-0.45749 1.89838,-1.26485 2.98962,-1.37245c5.51597,-0.54394 7.87114,6.59441 10.05627,10.38538c4.01974,6.97381 5.67607,14.48746 8.0732,22.01735c1.60803,5.05118 5.09916,10.00477 7.40966,14.80505c1.09936,0.97523 1.87998,2.27294 2.64131,3.52994c0.3385,0.55888 0.76431,1.06005 1.15508,1.58372c0.31074,0.41643 0.96191,1.81386 0.85034,1.30639c-0.6861,-3.1208 -2.08475,-6.66228 -2.19778,-9.84187c-0.13914,-3.9141 1.4399,-7.72025 2.03528,-11.52305c0.58495,-3.73616 -0.52238,-7.85965 4.38838,-8.81291c3.08218,-0.5983 7.7538,2.64997 10.61729,3.59873c3.73882,1.24779 8.14563,2.6129 9.81186,6.58025c1.14905,2.73593 0.2227,7.31629 0.29452,10.1777c0.15963,6.35957 -0.89947,12.59257 -1.15603,18.95637c-0.24095,5.97652 0.97388,12.29885 -2.16879,17.51811zM122.52859,159.64652c1.30115,1.60042 5.06036,4.88328 5.93135,6.77227c0.01896,0.04112 0.0376,0.08235 0.05593,0.1237l0.02088,-0.01354l1.83227,2.82546c0.04577,0.06857 0.08782,0.14073 0.12572,0.21634c0.49497,0.98746 0.09573,2.18921 -0.89173,2.68418c-0.76747,0.3847 -1.66437,0.22924 -2.2583,-0.32271l-1.47622,-1.30954l0.06585,-0.07423l-0.21896,-0.07707c-2.05325,-2.79054 -4.22407,-5.40325 -6.33162,-8.14471c-0.4883,-0.6703 -0.9745,-1.34351 -1.45869,-2.01936c-2.60907,-3.27579 -5.13299,-6.61201 -7.74943,-9.88472c-1.69827,-2.12425 -4.00016,-3.93219 -5.59575,-6.1047c-0.97089,-1.32195 -2.70462,-5.22212 -4.56544,-5.5974c-3.02863,-0.61079 -7.13841,1.90933 -9.78528,2.91865c-3.4048,1.71033 -7.92761,5.01714 -11.6504,5.18737c-0.23828,0.01089 0.49583,0.03463 0.69672,0.16323c0.48965,0.31348 0.91369,0.72309 1.32678,1.13223c0.64096,0.63483 1.17794,1.37043 1.82975,1.99412c2.15366,2.06076 4.48969,3.75799 6.85699,5.53248c6.98589,5.23651 13.03455,12.19393 20.32437,16.9029c6.98268,9.35112 14.67283,16.83298 24.00988,23.82111c2.29028,1.71411 4.59431,4.53451 7.0201,5.90038c2.22658,1.25371 5.08455,1.22075 7.54113,1.40724c8.93147,0.70632 15.44539,-6.88115 22.2716,-11.39323c2.0375,-1.34678 4.6048,-2.33126 6.27667,-4.21829c1.09439,-1.23523 0.07158,-4.28319 -0.02023,-5.59812c-0.33892,-4.85389 0.06232,-9.0832 1.59356,-13.69236l0.50172,-1.51023c0,0 0.21545,-0.64851 0.77355,-1.06144c1.70946,-4.09392 0.61109,-9.78096 0.78773,-14.13282c0.25432,-6.26564 1.31657,-12.41553 1.1546,-18.67317c-0.06096,-2.35503 0.77302,-6.65123 -0.0602,-8.94511c-0.88631,-2.44004 -5.09979,-3.40811 -7.30912,-4.13835c-2.55448,-0.85077 -4.88936,-2.04097 -7.3839,-3.01202c-0.64855,-0.25246 -1.86091,-0.94002 -2.06955,-0.27607c-0.53732,1.70997 -0.06767,3.5954 -0.34592,5.36608c-0.55518,3.53297 -2.08383,7.10854 -1.98248,10.73725c0.08787,3.14621 2.51833,6.03846 2.0191,9.24516c-0.50812,3.26377 -1.00065,5.36669 -5.19574,4.27154c-2.94321,-0.76835 -4.33895,-5.66629 -6.44274,-7.53255c-2.64321,-5.11872 -6.27211,-10.57898 -8.05409,-16.04488c-2.10079,-6.44378 -3.53487,-12.84686 -6.6088,-18.98618c-0.93841,-1.8742 -2.0927,-3.6323 -3.14589,-5.44449c-1.65385,-2.84571 -1.99488,-6.38318 -5.75509,-4.2202c-4.55894,2.2852 -8.4322,4.69545 -12.61976,7.55237c-0.48098,0.32815 -1.21155,0.31256 -1.56548,0.77491c-0.79686,1.04096 1.70499,1.99656 2.64319,2.91219c2.03597,1.98699 4.04369,4.94124 5.49772,7.41046c5.6661,9.6221 9.88692,19.95988 16.23609,29.07218c1.62077,2.33609 3.3765,4.54749 5.04283,6.83181c0.61536,0.61513 1.5387,1.03441 1.82164,1.85314c0.03541,0.10247 0.06796,0.20557 0.09791,0.30928l0.06873,-0.03445l1.17659,2.34728c0.49497,0.98746 0.09573,2.18921 -0.89173,2.68418c-0.89744,0.44985 -1.97187,0.16109 -2.53188,-0.63656l-1.32446,-1.8173l0.01435,-0.01046l-0.03804,-0.02275c-0.46695,-0.70056 -0.94941,-1.38859 -1.44121,-2.06929c-2.30332,-2.37801 -4.46132,-4.75902 -6.30563,-7.51502c-5.15109,-7.69741 -10.9242,-14.89325 -16.09496,-22.57517c-2.32601,-3.45562 -4.02956,-8.03693 -8.23775,-9.66178c-1.24479,-0.48063 -2.78505,0.47685 -3.77207,0.84432c-3.39913,1.0386 -6.74573,2.7714 -9.83607,4.5286c-0.85298,0.48502 -2.41677,0.75908 -2.37483,1.73942c0.05667,1.32485 1.76446,1.98157 2.59437,3.01583c2.06464,2.57303 3.63909,5.501 5.3959,8.27844c5.84297,9.2375 11.92879,18.67461 18.3227,27.59638c0.48391,0.60822 0.9706,1.21442 1.46117,1.81782z" fill="#000000" stroke="#000000" stroke-width="1"/><path d="M121.02137,157.84818c-6.39392,-8.92177 -12.47673,-18.40379 -18.31971,-27.64129c-1.75681,-2.77744 -3.32884,-5.70912 -5.39348,-8.28215c-0.82991,-1.03426 -2.53719,-1.69169 -2.59386,-3.01654c-0.04193,-0.98034 1.5235,-1.2565 2.37649,-1.74151c3.09034,-1.7572 6.44409,-3.49703 9.84322,-4.53563c0.98703,-0.36747 2.53023,-1.32714 3.77501,-0.84652c4.2082,1.62484 5.91331,6.20513 8.23931,9.66075c5.17076,7.68192 10.95306,14.87317 16.10414,22.57058c1.84431,2.756 4.06898,5.1936 6.37229,7.57161c0.4918,0.6807 0.96917,1.38277 1.43613,2.08334l0.03803,0.02277l-0.01441,0.01058l1.32129,1.82236c0.56001,0.79765 1.55057,1.03212 2.44801,0.58228c0.98746,-0.49497 1.38151,-1.68421 0.88654,-2.67167l-1.17821,-2.33612l-0.06872,0.03424c-0.02996,-0.1037 -0.06254,-0.20504 -0.09795,-0.30751c-0.28294,-0.81872 -1.20452,-1.22486 -1.81988,-1.83999c-1.66632,-2.28433 -3.38375,-4.45986 -5.00452,-6.79595c-6.34917,-9.1123 -10.54216,-19.4524 -16.20826,-29.07449c-1.45403,-2.46922 -3.45942,-5.42443 -5.49539,-7.41142c-0.9382,-0.91563 -3.48156,-1.96221 -2.6847,-3.00317c0.35393,-0.46234 1.08599,-0.44744 1.56698,-0.77558c4.18756,-2.85691 8.07321,-5.2707 12.63215,-7.5559c3.76021,-2.16298 4.10607,1.374 5.75992,4.21972c1.05319,1.81219 2.21055,3.57022 3.14896,5.44443c3.07393,6.13932 4.51986,12.54395 6.62065,18.98774c1.78198,5.4659 5.43807,10.94401 8.08127,16.06273c2.10379,1.86626 3.50908,6.7853 6.45229,7.55364c4.19509,1.09515 4.59085,-0.98321 5.09897,-4.24698c0.49923,-3.2067 -1.92422,-6.08493 -2.01209,-9.23114c-0.10136,-3.62871 1.43372,-7.19693 1.9889,-10.7299c0.27825,-1.77068 -0.18842,-3.65352 0.3489,-5.36349c0.20864,-0.66395 1.48507,-0.05314 2.13363,0.19932c2.49455,0.97106 4.83499,2.16694 7.38947,3.0177c2.20933,0.73024 6.42728,1.70459 7.31359,4.14463c0.83322,2.29388 0.00287,6.59741 0.06382,8.95244c0.16197,6.25763 -0.89678,12.42743 -1.1511,18.69307c-0.17664,4.35187 0.91869,10.05465 -0.79076,14.14857c-0.5581,0.41293 -0.77406,1.06278 -0.77406,1.06278l-0.50241,1.51188c-1.53124,4.60917 -1.93937,8.84974 -1.60044,13.70364c0.09181,1.31494 1.11196,4.36591 0.01757,5.60114c-1.67187,1.88703 -4.24433,2.87623 -6.28183,4.22301c-6.82621,4.51208 -13.36138,12.10939 -22.29284,11.40307c-2.45658,-0.18648 -5.32142,-0.15264 -7.548,-1.40635c-2.42578,-1.36587 -4.73712,-4.18637 -7.0274,-5.90049c-9.33705,-6.98813 -17.06234,-14.48916 -24.04502,-23.84028c-7.28982,-4.70897 -13.34873,-11.69206 -20.33462,-16.92857c-2.3673,-1.77449 -4.70358,-3.47733 -6.85724,-5.53809c-0.6518,-0.62369 -1.18874,-1.36102 -1.82969,-1.99585c-0.41308,-0.40913 -0.83707,-0.81965 -1.32673,-1.13314c-0.20088,-0.12861 -0.93498,-0.15244 -0.69671,-0.16333c3.7228,-0.17022 8.24641,-3.48318 11.65121,-5.19351c2.64687,-1.00933 6.75814,-3.53525 9.78677,-2.92446c1.86082,0.37528 3.69119,4.30044 4.66209,5.62239c1.59558,2.17251 3.89841,3.97153 5.59669,6.09578c2.61644,3.27272 5.13541,6.58651 7.74448,9.8623c0.48419,0.67585 0.96764,1.34407 1.45593,2.01437c2.10755,2.74146 4.26198,5.33808 6.31524,8.12862l0.21853,0.07682l-0.06581,0.07425l1.47259,1.30758c0.59393,0.55195 1.48647,0.70554 2.25393,0.32084c0.98746,-0.49497 1.35142,-1.60315 0.85645,-2.59061c-0.0379,-0.07561 -0.0804,-0.14795 -0.12617,-0.21652l-1.83909,-2.82874l-0.02091,0.01352c-0.01833,-0.04135 -0.03723,-0.08274 -0.05619,-0.12386c-0.87099,-1.889 -4.64805,-5.18973 -5.94919,-6.79015c-0.49057,-0.6034 -0.98014,-1.21535 -1.46405,-1.82357z" data-paper-data="{&quot;noHover&quot;:false,&quot;origItem&quot;:[&quot;Path&quot;,{&quot;applyMatrix&quot;:true,&quot;segments&quot;:[[[732.16474,172.3011],[-0.32011,1.52116],[3.43611,-21.68211]],[[740.19232,106.53876],[-2.16809,21.75285],[0.65188,-6.54043]],[[742.42059,86.90135],[-1.38547,6.45084],[0.55691,-2.593]],[[744.35635,79.18404],[1.08604,2.41957],[-0.80363,-1.79038]],[[738.55135,78.20243],[1.95978,0.10272],[-7.10023,-0.37215]],[[716.90626,78.92084],[7.0083,-1.18942],[-2.09409,0.22758]],[[709.40527,80.79186],[1.79487,-1.97495],[-6.06784,6.67664]],[[703.33567,105.44956],[1.06178,-8.26311],[-2.36036,18.36909]],[[694.79105,160.23764],[2.3113,-18.37915],[-0.82754,6.58052]],[[690.25202,179.32541],[1.98699,-6.31607],[-0.26926,1.65782]],[[689.52975,184.31686],[0.20703,-1.67107],[0,0]],[689.48213,184.39163],[689.51716,184.39747],[[688.77779,188.83373],[0,0],[-0.2864,1.92805]],[[684.8214,192.241],[2.00774,0],[-2.20914,0]],[[680.8214,188.241],[0,2.20914],[0,0]],[680.8214,182.98968],[[680.97517,182.98968],[0,0],[-0.03938,-0.21226]],[[680.87305,182.34896],[0.02852,0.21494],[-0.22788,-1.71741]],[[682.46923,177.40304],[-0.54894,1.65133],[0.93204,-5.57767]],[[685.36273,160.66856],[-0.8042,5.62939],[3.18535,-21.98267]],[[688.3369,94.13763],[-1.50716,22.28197],[0.38677,-5.71799]],[[691.52513,75.96087],[-1.85944,5.37733],[0.85685,-2.47794]],[[693.64106,68.38511],[2.35769,1.14702],[-1.04717,-0.50945]],[[690.14757,68.40263],[1.15407,0.15564],[-10.0476,-1.35503]],[[660.8154,66.20949],[10.19923,0],[-8.6616,-0.49731]],[[654.30781,78.91287],[0.40661,-6.57023],[-0.25893,4.18401]],[[653.56259,91.4668],[-0.00188,-4.19201],[0.00617,13.73176]],[[658.76225,131.3362],[-2.01896,-13.40397],[1.71257,11.36984]],[[658.74172,167.24199],[0.13841,-11.52094],[-2.0889,5.22226]],[[653.97325,186.484],[4.57372,-4.01155],[-6.51912,5.71783]],[[640.85525,183.50324],[3.83357,5.38009],[-3.76653,-5.28601]],[[636.17956,165.16374],[2.6626,5.70404],[-3.07092,-6.5788]],[[623.01199,147.74277],[4.15897,5.81923],[-2.08442,-2.91652]],[[617.58429,138.45848],[2.49323,2.57579],[-0.96808,-1.00013]],[[614.13145,140.80686],[0.93332,-1.03264],[-3.58985,3.97188]],[[603.62882,152.80986],[3.80482,-3.81052],[-3.29572,3.2857]],[[594.26934,166.75966],[-0.60214,-5.15702],[0.56607,4.84811]],[[602.17854,182.80707],[-2.00165,-4.26532],[5.31865,11.33352]],[[620.97828,215.15905],[-6.07013,-10.97475],[4.21607,7.62263]],[[635.0529,239.72191],[-6.7255,-5.78768],[1.36794,0.23812]],[637.38726,240.92645],[[639.63782,243.17701],[0,0],[6.86864,6.86864]],[[654.75848,266.23014],[-3.7442,-8.98229],[1.01432,2.43333]],[[659.73948,276.25746],[-3.06376,-1.22771],[4.68044,1.87555]],[[674.74242,278.17426],[-4.84998,-0.58192],[16.24879,1.94958]],[[724.77392,278.58447],[-15.33603,9.26748],[4.22512,-2.53507]],[[736.99591,269.30985],[-2.85741,4.23709],[3.11306,-4.61617]],[[744.25945,252.46865],[-2.55868,5.11736],[10.43128,-20.86256]],[[765.83894,188.35933],[-4.10401,22.97743],[8.81358,-14.95274]],[[787.02919,139.92251],[-7.79736,15.62358],[2.64228,-5.29435]],[[794.33083,123.88528],[-2.00373,5.61471],[0.60643,-1.69929]],[[795.81515,118.68002],[-0.57705,1.70949],[0.3719,-1.10173]],[[797.17264,115.46656],[-0.59453,0.99933],[0.24391,-0.40998]],[[798.27204,114.55029],[0.43579,-0.19407],[-6.80875,3.03211]],[[772.7926,115.7169],[7.62047,0.00652],[-5.63706,0.56756]],[[752.6812,119.26829],[4.86765,-3.80641],[-2.99072,2.33869]],[[749.53494,133.36785],[0.55115,-3.23372],[-0.90577,5.31436]],[[745.00119,149.29783],[1.13263,-5.3201],[-1.74498,8.19639]],[[740.0045,173.9165],[1.72906,-8.19528],[-0.25999,1.64234]],[[739.20623,178.83434],[0.27231,-1.63609],[-1.31123,6.79044]],[[735.18508,199.07126],[1.17017,-6.82954],[0,0]],[734.86267,199.40529],[735.04693,199.479],[[733.58116,203.14343],[0,0],[-0.56724,1.51916]],[[729.83265,205.74437],[1.71697,0],[-2.20914,0]],[[725.83265,201.74437],[0,2.20914],[0,-0.16915]],[[725.86354,201.24489],[-0.02038,0.16363],[0,0]],[726.60731,194.55096],[[726.65678,194.55646],[0,0],[-0.00428,-0.09036]],[[726.64591,194.28516],[0.00295,0.09051],[-0.13568,-4.15804]],[[731.18141,176.86082],[-0.89205,4.0276],[0.33633,-1.51852]]],&quot;closed&quot;:true}]}" fill="#ffffff" stroke="none" stroke-width="0.5"/></g></g></g></svg>