<svg version="1.1" xmlns="http://www.w3.org/2000/svg" xmlns:xlink="http://www.w3.org/1999/xlink" width="84.31513" height="30.05294" viewBox="0,0,84.31513,30.05294"><g transform="translate(-277.84245,-164.97353)"><g data-paper-data="{&quot;isPaintingLayer&quot;:true}" stroke="none" stroke-miterlimit="10" stroke-dasharray="" stroke-dashoffset="0" style="mix-blend-mode: normal"><path d="M292.86893,164.97353h54.2622c8.32467,0 15.02646,6.7018 15.02646,15.02646c0,8.32467 -6.7018,15.02648 -15.02646,15.02648h-54.2622c-8.32466,0 -15.02647,-6.7018 -15.02647,-15.02648c0,-8.32467 6.70181,-15.02646 15.02647,-15.02646z" data-paper-data="{&quot;index&quot;:null}" fill="#5a5a5a" fill-rule="evenodd" stroke-width="0.314" stroke-linecap="round" stroke-linejoin="round"/><path d="M302.47552,175.73011c0,-1.38071 1.11929,-2.5 2.5,-2.5c1.38071,0 2.5,1.11929 2.5,2.5c0,1.38071 -1.11929,2.5 -2.5,2.5c-1.38071,0 -2.5,-1.11929 -2.5,-2.5z" fill="#000000" fill-rule="nonzero" stroke-width="0.5" stroke-linecap="butt" stroke-linejoin="miter"/><path d="M326.97552,174.60511c0,-1.38071 1.11929,-2.5 2.5,-2.5c1.38071,0 2.5,1.11929 2.5,2.5c0,1.38071 -1.11929,2.5 -2.5,2.5c-1.38071,0 -2.5,-1.11929 -2.5,-2.5z" fill="#000000" fill-rule="nonzero" stroke-width="0.5" stroke-linecap="butt" stroke-linejoin="miter"/><path d="M305.14726,181.3762c9.20627,-1.25683 17.87356,-0.87904 26.87058,1.03844c1.81282,0.38636 11.68729,1.75729 9.44374,5.6835c-1.65261,2.89207 -8.23561,-0.36109 -10.48773,-0.79353c-1.97645,-0.3795 -3.95556,-0.74499 -5.93424,-1.11267c-1.3094,-0.24331 -2.85484,-0.57699 -4.18664,-0.58683c-5.37291,-0.03971 -10.77184,-0.22532 -16.05925,0.84114c-0.49099,0.09903 -2.4717,1.05545 -4.44079,1.68476c-0.45815,0.5206 -1.12942,0.8491 -1.87741,0.8491c-0.43916,0 -0.85187,-0.11323 -1.21053,-0.3121c-1.0153,-0.0923 -1.61176,-0.66797 -1.28862,-2.12207c-0.00057,-0.02188 -0.00085,-0.04382 -0.00085,-0.06584c0,-0.86489 0.43919,-1.6272 1.10672,-2.07607c1.87086,-2.06776 5.43816,-2.66923 8.06502,-3.02784z" fill="#000000" fill-rule="nonzero" stroke-width="0.5" stroke-linecap="butt" stroke-linejoin="miter"/></g></g></svg>