<svg version="1.1" xmlns="http://www.w3.org/2000/svg" xmlns:xlink="http://www.w3.org/1999/xlink" width="226.29064" height="237.44157" viewBox="0,0,226.29064,237.44157"><g transform="translate(-127.11456,-97.08229)"><g data-paper-data="{&quot;isPaintingLayer&quot;:true}" fill-rule="nonzero" stroke-linecap="butt" stroke-linejoin="miter" stroke-miterlimit="10" stroke-dasharray="" stroke-dashoffset="0" style="mix-blend-mode: normal"><g data-paper-data="{&quot;index&quot;:null}" stroke="none" stroke-width="0.5"><path d="M210.24357,224.04254c-0.84772,6.0045 -0.29343,11.84397 -0.6592,17.86374c-0.66375,10.9238 -1.74169,21.78924 -2.78937,32.71636c0.01385,12.22582 -0.54055,24.68231 -1.39943,36.859c-0.25921,3.67492 -1.90673,11.9006 1.69259,13.50549c3.21245,1.86316 6.79043,3.87289 10.43592,4.21107c2.30098,0.21346 4.65083,-0.1779 6.95518,-0.00206c6.96606,0.53154 14.35871,1.03835 21.34939,0.40435c2.91043,-0.26396 5.77535,-0.80663 8.69977,-0.80663c3.48129,-0.68683 8.95204,0.11871 11.90552,-2.40087c2.6552,-2.26512 3.27006,-6.71243 3.72888,-10.20038c1.21846,-9.26268 -0.01849,-18.12318 -0.01849,-27.38154c-0.84031,-6.80815 -2.33143,-13.69302 -2.78956,-20.59507c-0.79014,-11.90384 -0.00682,-24.23613 -0.00682,-36.17847c0,-0.84604 0.5767,-6.98469 -0.17235,-7.38425c-1.03264,-0.55084 -2.27356,-0.0045 -3.41034,-0.00244c-2.79133,0.00504 -5.58271,0 -8.37404,0c-9.43269,0 -18.81555,0.40435 -28.26239,0.40435c-4.99403,-0.01513 -10.01329,-0.82914 -15.00349,-0.80871h-1.04676c0,0 -0.39566,0 -0.83501,-0.20394zM209.11504,221.41508c0.27119,-1.80409 1.96354,-1.80409 1.96354,-1.80409h1.04676c4.99288,0.01746 10.0101,0.82602 15.00349,0.8087c10.14565,0 20.21892,-0.40435 30.3559,-0.40435c3.04043,0 9.40543,-1.32398 11.94205,0.80625c2.90251,2.43751 1.92116,7.71164 1.92116,11.21593c0,11.813 -0.78833,24.02238 -0.00681,35.79614c0.45948,6.92212 1.9518,13.81711 2.79313,20.6488c0,9.60661 1.26916,18.80238 -0.01849,28.419c-0.64325,4.80403 -1.7087,10.2114 -5.34299,13.25202c-3.77115,3.15512 -9.51364,2.42567 -13.91444,3.26006c-2.93983,0 -5.81988,0.55417 -8.74614,0.81077c-7.18192,0.62977 -14.76174,0.15561 -21.9165,-0.40435c-2.31959,-0.18154 -4.68407,0.22889 -7.00155,-0.00206c-4.17745,-0.41631 -8.19972,-2.5455 -11.89485,-4.68466c-0.90333,-0.58918 -2.03274,-0.85811 -2.70999,-1.76752c-2.826,-3.7947 -1.50708,-11.81147 -1.18011,-16.26642c0.89038,-12.13116 1.37931,-24.54876 1.39191,-36.73301c1.0503,-10.95446 2.10862,-21.84458 2.79332,-32.78862c0.38811,-6.2036 -0.16983,-12.21222 0.72002,-18.41256c0,0 0.3288,-2.28621 2.30159,-1.90518c0.18607,0.03594 0.35167,0.08883 0.499,0.15515z" fill="#000000"/><path d="M211.0533,224.19649l1.04751,-0.0005c4.9902,-0.02043 10.02247,0.78768 15.0165,0.80281c9.44683,0 18.85943,-0.40194 28.29212,-0.40194c2.79133,0 5.58947,0.00881 8.3808,0.00377c1.13678,-0.00206 2.38004,-0.54673 3.41269,0.00411c0.74905,0.39956 0.17539,6.5407 0.17539,7.38673c0,11.94234 -0.76522,24.30637 0.02492,36.21021c0.45814,6.90205 1.94849,13.81867 2.7888,20.62682c0,9.25836 1.22385,18.14326 0.00539,27.40595c-0.45882,3.48795 -1.08036,7.94149 -3.73556,10.20661c-2.95348,2.51958 -8.43457,1.72021 -11.91586,2.40704c-2.92443,0 -5.79815,0.54548 -8.70858,0.80944c-6.99068,0.63401 -14.4062,0.12573 -21.37226,-0.40582c-2.30435,-0.17584 -4.66055,0.2128 -6.96153,-0.00065c-3.6455,-0.33818 -7.23275,-2.3542 -10.44519,-4.21736c-3.59931,-1.60489 -1.95884,-9.83791 -1.69964,-13.51283c0.85888,-12.17669 1.40017,-24.67621 1.38632,-36.90203c1.04768,-10.92712 2.14145,-21.83119 2.8052,-32.75499c0.36577,-6.01977 -0.18025,-11.86646 0.66747,-17.87096c0.43936,0.20394 0.83552,0.20359 0.83552,0.20359z" data-paper-data="{&quot;noHover&quot;:false,&quot;origItem&quot;:[&quot;Path&quot;,{&quot;applyMatrix&quot;:true,&quot;segments&quot;:[[[420.48713,448.08507],[0.87871,0.40788],[-1.69545,12.009]],[[419.16873,483.81254],[0.73154,-12.03953],[-1.3275,21.84761]],[[413.58998,549.24525],[2.09536,-21.85424],[0.02769,24.45164]],[[410.79113,622.96326],[1.71775,-24.35339],[-0.51842,7.34984]],[[414.1763,649.97425],[-7.19863,-3.20979],[6.42489,3.72633]],[[435.04815,658.3964],[-7.29099,-0.67636],[4.60197,0.42691]],[[448.95851,658.39227],[-4.60869,-0.35167],[13.93212,1.06309]],[[491.65728,659.20097],[-13.98135,1.26801],[5.82086,-0.52791]],[[509.05683,657.5877],[-5.84885,0],[6.96257,-1.37367]],[[532.86787,652.78596],[-5.90696,5.03916],[5.3104,-4.53024]],[[540.32563,632.38521],[-0.91764,6.97589],[2.43691,-18.52537]],[[540.28865,577.62214],[0,18.51672],[-1.68061,-13.6163]],[[534.70952,536.43199],[0.91627,13.8041],[-1.58028,-23.80767]],[[534.69589,464.07505],[0,23.88468],[0,-1.69208]],[[534.3512,449.30655],[1.49809,0.79912],[-2.06528,-1.10167]],[[527.53051,449.30166],[2.27356,-0.00411],[-5.58266,0.01009]],[[510.78243,449.30166],[5.58267,0],[-18.86538,0]],[[454.25765,450.11036],[18.89367,0],[-9.98806,-0.03025]],[[424.25067,448.49295],[9.9804,-0.04087],[0,0]],[422.15716,448.49295]],&quot;closed&quot;:true}]}" fill="#ffffff"/></g><path d="M261.44221,224.22087c-0.03438,-0.03098 -0.06927,-0.06077 -0.10472,-0.08884zM262.86332,229.45199c-0.14685,-0.02854 -0.28729,-0.1031 -0.42293,-0.2121l-0.03404,0.20424l-1.19455,-0.79645c-0.40858,-0.25134 -0.70558,-1.01227 -0.70558,-1.91195c0,-1.10457 0.44767,-2 0.9999,-2h0.44536c-0.14378,-0.13845 -0.29211,-0.30966 -0.45097,-0.46083c-0.08024,-0.00368 -0.99429,-0.08761 -0.99429,-1.99983c0,-2 0.9999,-2 0.9999,-2l0.57409,0.14305c0.82642,0.66924 2.05741,0.40249 2.48798,1.9641c0.23321,0.84583 0.11886,2.87039 -0.23586,4.53929c0.62479,0.89699 1.21161,1.79517 1.30666,2.14319c1.25257,4.58631 -1.44889,12.78827 -3.26986,14.85895c-0.05851,0.06653 -0.11878,0.1233 -0.18052,0.17196c-0.39384,4.95454 -1.51351,9.73053 -3.90942,12.02799c-1.00223,0.96105 -2.36274,0.74672 -3.46441,0.31605c-0.03826,1.40593 -0.1686,2.78329 -0.53981,4.09858c-1.36048,4.82055 -5.42304,5.11882 -7.8435,2.84539c-0.70362,2.03409 -1.61927,3.6675 -2.76355,5.32392c-2.61105,1.12464 -6.64753,0.3981 -8.92945,-3.4339c-1.00374,0.50997 -2.17394,0.36224 -3.03468,0.36397c-3.1599,0.00635 -5.922,-0.35515 -7.2667,-6.89348c-0.00117,-0.15653 -0.00296,-0.32112 -0.0051,-0.49283c-1.93464,0.05887 -4.01183,-0.67352 -5.01785,-2.98715c-1.13586,-2.61223 -1.09313,-5.92122 -0.64527,-9.06281c-1.82626,-0.18411 -3.64492,-1.03032 -4.71243,-4.12863c-0.30554,-0.8868 -0.526,-2.03652 -0.6496,-3.28869c-1.65365,-0.56074 -3.22106,-2.07611 -3.71147,-4.38914c-0.32996,-1.55631 -0.01807,-4.0121 0.14604,-5.61826c0.39649,-3.88053 1.893,-8.62895 3.90807,-10.02095c0.8374,-0.57847 2.45713,-0.50027 3.35725,-0.50815c0,0 0.9999,0 0.9999,2c0,2 -0.9999,2 -0.9999,2c-0.75509,-0.00803 -2.02683,-0.133 -2.72486,0.30288c-1.50675,0.94088 -3.36731,7.1575 -2.83894,10.31375c0.10494,0.62687 1.02213,1.19063 1.18576,1.28137c0.21154,0.11731 0.42481,0.2352 0.63789,0.34342c0.23018,-2.84027 0.99839,-5.31681 2.4323,-5.68965c1.42699,-0.37104 1.8938,1.23421 2.8501,2.89988c-0.17076,2.71246 0.04121,4.15265 -1.13677,5.95087c-0.47768,0.72919 -1.18763,1.15946 -1.99031,1.3129c0.05159,0.3577 0.11075,0.64411 0.17491,0.82191c0.21566,0.5976 1.43614,1.90896 1.70805,2.07351c0.65993,0.39938 1.38451,0.45213 2.11261,0.41872c0.10805,-0.46831 0.21801,-0.9218 0.32637,-1.35658c0.44062,-2.03905 0.55278,-3.70914 1.89169,-4.36787c1.87989,-0.9249 4.11538,1.75219 3.36132,6.08161c-0.43703,2.50922 -2.46651,3.49209 -3.52992,3.53866c-0.239,0.01047 -0.48635,0.02483 -0.73969,0.03803c-0.42787,2.26345 -0.66599,4.78773 0.05418,6.33543c0.72578,1.55976 2.25821,1.68389 3.5403,1.56756c0.061,-2.68368 0.32609,-5.47023 1.24759,-6.73098c2.00199,-2.73903 4.85548,1.94584 4.14474,6.34374c-0.37068,2.29367 -1.26345,3.15931 -2.31227,3.7328c-0.32126,0.17566 -0.69376,0.33272 -1.10022,0.45991c-0.00026,0.02271 -0.00052,0.04548 -0.00077,0.06832c0.79228,4.24411 3.46972,3.646 5.30299,3.64991c0.26723,0.00057 1.01427,0.13871 1.70183,0.08896c-0.46478,-2.08399 -0.7451,-4.90745 0.17044,-6.23334c2.04804,-2.966 3.44602,4.38121 2.93512,7.14796c1.75215,2.22729 4.33159,3.10251 6.34048,2.41472c0.7746,-1.23844 1.4839,-2.47686 2.01206,-4.00157c-0.43202,-1.08638 -0.62164,-2.45668 -0.06542,-3.98837c0.09078,-0.24998 0.20008,-0.4559 0.32253,-0.63054l-0.02813,-0.07503l0.80287,-1.20442c0.16848,-0.25849 0.37928,-0.41212 0.60802,-0.41212c0.55223,0 0.9999,0.89543 0.9999,2v2.02758h-0.05472l0.04181,0.32036c-0.0196,0.11701 -0.03959,0.23276 -0.05996,0.34729c2.08904,1.35549 4.99401,2.76853 5.38452,-2.61008c0.03857,-0.53124 0.04819,-1.06642 0.04453,-1.60345c-0.44033,-0.98882 -0.85523,-2.39786 -0.65702,-3.61012c0.05302,-0.3243 0.13737,-0.60654 0.24348,-0.85956l-0.05213,-0.0782l0.60123,-1.60344c0.18195,-0.49635 0.47561,-0.81862 0.8069,-0.81862c0.55223,0 0.9999,0.89543 0.9999,2v2.00508c1.90598,0.26603 3.63773,0.61761 4.79219,-4.10033c0.26096,-1.06647 0.46649,-2.46485 0.59274,-3.89022c-1.11116,-0.66528 -1.75705,-0.79259 -2.265,-3.51995c-0.6239,-3.34994 0.36639,-8.70376 2.76523,-6.9283c0.94546,0.69977 1.38865,2.94013 1.55475,5.13178c0.64209,-1.28255 1.11101,-3.10514 1.34679,-4.67752c0.02774,-0.18498 0.33333,-3.19677 0.27211,-3.38112c-0.22906,-0.68967 -0.61612,-1.05592 -0.99752,-1.44303zM262.68575,224.94064c0.02209,-0.04169 0.04419,-0.0817 0.06561,-0.11923c-0.07877,0.09054 -0.15565,0.14364 -0.23155,0.16729v0.06489zM260.30305,240.19881c-0.0222,-0.45375 -0.06178,-0.90643 -0.12619,-1.34329c-0.07461,-0.50604 -0.3904,-1.88252 -0.40804,-1.35611c-0.05136,1.53297 0.03169,2.20196 0.53423,2.6994zM226.57197,253.80425c0.56018,-0.1494 1.18495,-0.48845 1.34494,-1.34249c0.2318,-1.23732 -0.94008,-2.10704 -1.12642,-1.76656c-0.1254,0.22913 0.01638,0.68652 -0.01991,1.0184c-0.08188,0.74896 -0.14708,1.43059 -0.19862,2.09065zM221.724,242.16583c0.37866,-0.05556 0.75579,-0.38217 1.06767,-0.80949c0.17568,-0.24071 0.79579,-0.51292 0.5829,-0.52286c-0.39384,-0.01839 -0.77184,-0.43618 -1.16524,-0.39474c-0.33325,0.0351 -0.39554,0.98175 -0.48532,1.72709zM215.3288,234.89894c0.55158,-0.16246 1.05087,-0.6725 1.45213,-1.77219c-0.30932,-0.11345 -0.93121,-0.72708 -1.19723,-0.11062c-0.14707,0.3408 -0.22668,1.04623 -0.25489,1.88281z" fill="#ffba00" stroke="#000000" stroke-width="2"/><g stroke="#000000" stroke-width="2"><path d="M232.8719,226.96648c0,0 0.01488,-0.00744 0.04209,-0.01892c-8.94862,0.53732 -18.21519,1.96802 -26.84272,-0.18887c-2.25154,0 -4.20529,-1.04564 -6.40324,-1.28064c-1.71187,-0.18303 -3.37702,0.01937 -4.8212,-1.24615c-1.72177,-1.50877 -1.47899,-2.99527 -1.72774,-4.98262c-0.56703,-4.53025 -1.61033,-9.00029 -1.61033,-13.60209c0.01508,-2.28894 -0.66317,-4.32719 -0.95096,-6.56811c-0.41166,-3.20539 -0.7874,-6.39258 -1.27376,-9.55656c-0.84228,-5.47936 -0.65673,-11.28951 -0.65673,-16.85201c0,-6.93684 0,-13.87367 0,-20.81051v-0.64033c0,0 0,-0.17944 0.06742,-0.40347c-0.89674,-4.84439 -0.38759,-10.03921 -0.38759,-14.94501c0,-8.86219 -0.32016,-17.70583 -0.32016,-26.57343c0,-1.31653 -0.43005,-4.06701 0.09675,-5.3081c0.70014,-1.64949 3.0233,-2.81564 4.44779,-3.53189c3.27461,-1.64652 7.17312,-2.38807 10.81359,-2.37532c1.30293,0.00457 3.32099,0.08623 4.46816,0.8053c2.34536,1.47011 2.22919,5.3547 2.2456,7.82943c0,10.16549 0.64016,20.23824 0.64032,30.41535c0.00008,4.93583 0.64273,10.32747 -0.32635,15.17287c-0.09396,0.11653 -0.41806,0.28739 -0.2819,0.3496c1.1242,0.51367 3.83181,-0.46355 5.10015,-0.46521c2.88125,-0.00377 5.76317,-0.01399 8.64437,0c1.40858,0.00684 2.80425,0.33933 4.17017,0.68344c3.11211,0.78403 6.49579,0.93365 9.65521,1.52083c3.88046,0.72117 7.94766,1.98003 11.87766,1.96104c3.12336,0.44191 6.25157,0.84192 9.37425,1.29021c0.71727,0.10298 1.44466,0.15138 2.15158,0.3106c0.15848,0.0357 0.3021,0.38887 0.40835,0.266c0.3927,-0.45417 0.0748,-1.20057 0.17312,-1.79287c0.30253,-1.82247 0.62141,-3.68515 0.61871,-5.52953c-0.00808,-5.52715 0.32016,-11.09772 0.32016,-16.64841c0.01053,-6.62188 0.00396,-14.34264 2.32759,-20.63096c0.3596,-0.97317 1.1754,-1.71798 1.63771,-2.64677c1.10852,-2.22703 2.0603,-4.93813 4.20739,-6.53865c2.0437,-1.52344 3.79074,-1.29076 6.06965,-1.86048c2.53563,-0.01375 7.17959,-0.81822 9.09465,1.36136c1.27423,1.45022 1.07151,3.46863 1.28666,5.18758c0.83046,6.6349 0.32969,13.60759 0.32969,20.32549c0,11.81087 -0.96049,23.41241 -0.96049,35.2178c0,10.8855 0,21.771 0,32.6565c-0.03249,4.89923 -0.98347,10.02744 -1.61033,14.88274c-0.23749,1.83944 0.20869,3.86473 -0.79578,5.59351c-1.64052,2.8235 -6.48748,4.08967 -9.25128,5.34511c-2.54057,1.01666 -5.27806,2.22708 -8.00671,2.65112c-5.41867,0.84207 -10.97241,0.28387 -16.44123,0.65103c-4.08728,0.27441 -8.13035,0.32174 -12.22946,0.32174c-1.43231,0 -2.87817,0.04762 -4.33343,0.12342c0.14607,0.05309 0.2914,0.1424 0.42375,0.28421c-0.67176,-0.00198 -1.34066,0.01207 -1.99938,0.05397c0.18016,-0.08618 0.35958,-0.17394 0.53822,-0.26334zM191.1693,152.74576c0,6.64159 0,13.28317 0,19.92476c0,5.42638 -0.19862,11.10293 0.62391,16.44483c0.82277,5.34344 2.22795,11.07488 2.25754,16.53185c0,4.49072 1.03882,8.86607 1.59129,13.2915c0.14794,1.18507 -0.2515,2.45196 0.83356,3.34158c1.02363,0.83926 2.33062,0.54014 3.50301,0.67482c2.19983,0.25271 4.16223,1.28064 6.40323,1.28064c10.24799,2.56199 21.42542,-0.00952 31.86089,-0.00952c4.05747,0 8.05722,-0.05291 12.10283,-0.31859c5.39653,-0.3544 10.86981,0.18355 16.21528,-0.62962c2.49988,-0.38029 5.03621,-1.54197 7.36104,-2.47147c2.00008,-0.90975 6.86362,-2.14074 8.03747,-4.25975c0.75838,-1.36902 0.30805,-3.19468 0.48487,-4.65166c0.57536,-4.741 1.63169,-9.79752 1.59128,-14.57215c0,-10.8855 0,-21.771 0,-32.6565c0,-11.80623 0.96048,-23.40762 0.96048,-35.2178c0,-5.65612 -0.016,-11.31249 0,-16.96858c0.00457,-1.615 0.15002,-5.47207 -0.94495,-6.82327c-1.05241,-1.29868 -5.49266,-0.55025 -6.91344,-0.55961c-1.78821,0.44705 -3.25575,0.1607 -4.81586,1.34114c-1.80549,1.3661 -2.54048,3.76308 -3.47649,5.6275c-0.43796,0.87237 -1.23613,1.55636 -1.5639,2.47582c-2.14527,6.01787 -2.1657,13.39449 -2.15467,19.70943c0,6.65979 0.34856,13.51377 -0.66143,20.09146c-0.16156,1.05214 -0.33276,5.04371 -1.42819,5.88298c-0.85557,0.6555 -3.68969,0.04904 -4.48362,-0.06373c-3.06375,-0.43518 -6.13262,-0.82907 -9.19514,-1.27108c-1.58121,-0.00702 -3.14267,-0.38535 -4.69029,-0.70961c-6.18821,-1.29655 -12.64909,-2.42139 -18.83178,-3.47223c-2.71168,-0.46089 -5.94975,0.02293 -8.72417,0.02293c-2.01377,0 -4.5996,0.69353 -6.52848,0.31398c-0.84349,-0.16598 -1.87774,-0.14534 -2.45849,-0.77918c-0.50207,-0.54797 -0.18793,-1.47446 -0.28189,-2.21169c0.95303,-4.76519 0.31405,-10.06742 0.31397,-14.92234c-0.00016,-10.17691 -0.64032,-20.24955 -0.64032,-30.4154c0.00936,-1.10635 0.15307,-5.11489 -0.95603,-5.61737c-3.68839,-1.67106 -9.5337,-0.03636 -12.89248,1.6316c-0.74057,0.36777 -2.81381,1.2673 -3.2361,2.23103c-0.34082,0.77782 0.09675,3.5163 0.09675,4.33532c0,8.86764 0.32017,17.71112 0.32017,26.57343c0,5.12658 -0.66127,10.70229 0.60237,15.68055c0,0 0.17921,0.71684 -0.28221,1.19402z" fill="#000000"/><path d="M191.40296,151.53982c-1.26364,-4.97826 -0.59712,-10.56705 -0.59712,-15.69363c0,-8.86231 -0.30988,-17.71834 -0.30988,-26.58598c0,-0.81901 -0.43615,-3.55871 -0.09533,-4.33652c0.42229,-0.96372 2.49761,-1.86487 3.23818,-2.23263c3.35878,-1.66797 9.21114,-3.30697 12.89952,-1.63591c1.10909,0.50248 1.0115,4.59974 1.00214,5.70609c0,10.16585 0.65419,20.22731 0.65435,30.40422c0.00008,4.85492 0.64839,10.14134 -0.30464,14.90653c0.09396,0.73723 -0.21918,1.66066 0.2829,2.20863c0.58076,0.63384 1.51897,0.58529 2.36247,0.75126c1.92888,0.37955 4.51626,-0.31851 6.53003,-0.31851c2.77442,0 6.01785,-0.49383 8.72953,-0.03294c6.18269,1.05085 12.72622,2.17628 18.91442,3.47283c1.54762,0.32425 3.11488,0.71429 4.69608,0.72131c3.06252,0.44201 6.13365,0.84559 9.1974,1.28077c0.79393,0.11277 3.52875,0.7309 4.38432,0.0754c1.09544,-0.83927 1.26873,-4.82086 1.43028,-5.87301c1.00999,-6.57769 0.67445,-13.41077 0.67445,-20.07056c-0.01103,-6.31494 0.01788,-13.68501 2.16316,-19.70287c0.32777,-0.91945 1.12591,-1.60347 1.56387,-2.47584c0.93601,-1.86442 1.72332,-4.34662 3.52882,-5.71272c1.56011,-1.18044 3.02969,-0.89276 4.8179,-1.33982c1.42077,0.00936 5.86431,-0.73662 6.91672,0.56206c1.09497,1.3512 0.95226,5.21066 0.94769,6.82566c-0.016,5.65609 0.00661,11.32006 0.00661,16.97618c0,11.81018 -0.95136,23.44233 -0.95136,35.24856c0,10.8855 -0.00982,21.79889 -0.00982,32.68439c0.04041,4.77463 -1.02233,9.83825 -1.5977,14.57925c-0.17682,1.45698 0.27161,3.28429 -0.48677,4.65331c-1.17385,2.11901 -6.04269,3.35382 -8.04276,4.26357c-2.32484,0.92951 -4.86611,2.09391 -7.36599,2.4742c-5.34546,0.81316 -10.83016,0.27907 -16.22669,0.63347c-4.04561,0.26567 -8.05507,0.31963 -12.11253,0.31963c-10.43547,0 -21.63608,2.56606 -31.88407,0.00407c-2.241,0 -4.20727,-1.03012 -6.4071,-1.28283c-1.17238,-0.13468 -2.4813,0.16317 -3.50493,-0.67609c-1.08506,-0.88962 -0.68712,-2.15759 -0.83506,-3.34266c-0.55247,-4.42542 -1.597,-8.80578 -1.597,-13.2965c-0.0296,-5.45696 -1.44247,-11.1986 -2.26524,-16.54203c-0.82253,-5.34189 -0.62944,-11.03297 -0.62944,-16.45935c0,-6.64158 0.00008,-13.30413 0.00008,-19.94571c0.46142,-0.47719 0.28251,-1.19528 0.28251,-1.19528z" data-paper-data="{&quot;noHover&quot;:false,&quot;origItem&quot;:[&quot;Path&quot;,{&quot;applyMatrix&quot;:true,&quot;segments&quot;:[[[323.60448,200.90993],[0.92284,-0.95438],[0,13.28317]],[[323.60448,240.75944],[0,-13.28317],[0,10.85276]],[[324.85231,273.64909],[-1.64507,-10.68379],[1.64554,10.68687]],[[329.36739,306.71278],[-0.05919,-10.91393],[0,8.98144]],[[332.54997,333.29578],[-1.10493,-8.85085],[0.29588,2.37014]],[[334.21709,339.97894],[-2.17012,-1.77925],[2.04725,1.67851]],[[341.2231,341.32858],[-2.34477,-0.26936],[4.39966,0.50542]],[[354.02957,343.88987],[-4.482,0],[20.49598,5.12399]],[[417.75134,343.87083],[-20.87094,0],[8.11493,0]],[[441.957,343.23366],[-8.09122,0.53135],[10.79306,-0.70879]],[[474.38756,341.97443],[-10.69093,1.62633],[4.99977,-0.76058]],[[489.10965,337.03148],[-4.64967,1.85902],[4.00015,-1.81951]],[[505.18458,328.51198],[-2.34769,4.23802],[1.51676,-2.73804]],[[506.15432,319.20866],[-0.35364,2.91395],[1.15073,-9.482]],[[509.33689,290.06436],[0.08081,9.54926],[0,-21.771]],[[509.33689,224.75136],[0,21.771],[0,-23.61247]],[[511.25786,154.31576],[0,23.62036],[0,-11.31224]],[[511.25786,120.3786],[-0.032,11.31219],[0.00914,-3.23]],[[509.36796,106.73206],[2.18994,2.7024],[-2.10481,-2.59735]],[[495.54109,105.61283],[2.84155,0.01872],[-3.57641,0.89411]],[[485.90937,108.29511],[3.12023,-2.36088],[-3.61099,2.73221]],[[478.95638,119.55012],[1.87203,-3.72885],[-0.87593,1.74473]],[[475.82858,124.50176],[0.65554,-1.83891],[-4.29055,12.03573]],[[471.51924,163.92061],[-0.02206,-12.62988],[0,13.31958]],[[470.19638,204.10353],[2.01998,-13.15538],[-0.32311,2.10429]],[[467.33999,215.86948],[2.19088,-1.67854],[-1.71114,1.31099]],[[458.37274,215.74202],[1.58786,0.22554],[-6.12751,-0.87036]],[[439.98246,213.19985],[6.12504,0.88402],[-3.16241,-0.01403]],[[430.60188,211.78064],[3.09523,0.64851],[-12.37641,-2.5931]],[[392.93832,204.83617],[12.36539,2.10169],[-5.42335,-0.92178]],[[375.48998,204.88204],[5.54884,0],[-4.02754,0]],[[362.43302,205.50999],[3.85776,0.7591],[-1.68699,-0.33195]],[[357.51604,203.95163],[1.16151,1.26768],[-1.00415,-1.09593]],[[356.95225,199.52825],[0.18793,1.47446],[1.90607,-9.53038]],[[357.5802,169.68357],[0.00015,9.70983],[-0.00031,-20.35383]],[[356.29955,108.85278],[0,20.33169],[0.01872,-2.2127]],[[354.3875,97.61804],[2.21819,1.00497],[-7.37677,-3.34212]],[[328.60253,100.88125],[6.71756,-3.33593],[-1.48114,0.73553]],[[322.13033,105.3433],[0.84458,-1.92745],[-0.68165,1.55563]],[[322.32383,114.01393],[0,-1.63803],[0,17.73528]],[[322.96416,167.16079],[0,-17.72462],[0,10.25316]],[[324.16891,198.52188],[-2.52729,-9.95652],[0,0]]],&quot;closed&quot;:true}]}" fill="#ffffff"/></g><g stroke="none" stroke-width="0.5"><path d="M241.00076,168.45566c0.59252,-0.60415 1.49294,-0.60415 1.49294,-0.60415l1.24808,0.0201c11.36306,-1.59801 23.40097,-1.25308 34.88174,-1.24484c2.16384,0.00155 7.69947,-1.14169 9.37503,0.2796c0.91649,0.77742 0.39052,2.37168 0.58578,3.55751c-0.01558,7.07757 -1.60955,15.33188 -5.16914,21.51825c-1.56741,2.72407 -4.48764,5.73212 -7.7002,6.45397c-5.758,1.29379 -13.15405,-0.37954 -18.90888,-1.20854c-6.62142,-1.64907 -13.73639,-5.24548 -15.34987,-12.56824c-0.66158,-3.00257 -0.55644,-6.67281 -0.3463,-9.72693c0.05682,-0.82583 1.14965,-2.33003 0.3323,-2.46102c-1.67463,-0.26838 -3.94121,0.20803 -5.95671,0.46153c-0.07885,0.64177 -0.15548,1.18003 -0.19507,1.47066c-1.00234,7.35759 -4.48591,14.37201 -11.36136,17.82629c-6.44592,1.81388 -15.96523,0.83904 -22.04855,-1.87203c-5.01798,-2.2363 -9.4516,-10.43723 -10.35061,-15.59317c-0.30106,-1.72665 0.06174,-3.49853 0.30046,-5.19599c0,0 0.28284,-1.9799 2.26274,-1.69705c0.84804,0.12115 1.28096,0.55364 1.49877,1.00854c4.66609,-0.49557 9.46428,-0.41628 14.14,-0.41628c6.17693,0 12.31237,-0.20029 18.43631,-0.90399c1.80042,-0.20688 5.8704,-0.92013 7.34172,0.77145c0.09062,0.10419 0.15017,0.30445 0.18568,0.5716c1.64142,-0.20043 3.64549,-0.497 5.30515,-0.44728z" fill="#000000"/><path d="M201.5888,180.00609c-0.10589,0.57506 -0.49931,1.64334 -1.961,1.64334c-2,0 -2,-2 -2,-2l0.33589,-1.41559c1.33602,-2.00403 2.52919,-3.79477 4.2303,-5.50995c0,0 1.41421,-1.41422 2.82842,0c1.41422,1.41422 0,2.82842 0,2.82842c-1.39798,1.38422 -2.36621,2.84605 -3.43361,4.45379z" fill="#ffffff"/><path d="M204.72249,185.95718c-1.71499,-1.02899 -0.686,-2.74398 -0.686,-2.74398l0.84469,-1.39636c1.07631,-2.09534 2.5147,-3.47335 3.79897,-5.42012c0,0 1.1094,-1.6641 2.7735,-0.5547c1.6641,1.1094 0.5547,2.7735 0.5547,2.7735c-1.19607,1.77847 -2.62748,3.07541 -3.54946,4.99017l-0.99242,1.66549c0,0 -1.02899,1.71499 -2.74398,0.686z" fill="#ffffff"/><path d="M249.82204,182.46534c-1.89736,-0.63245 -1.26491,-2.52983 -1.26491,-2.52983l0.67145,-1.99249c1.09883,-2.55452 2.1394,-4.45626 4.0983,-6.44389c0,0 1.41421,-1.41422 2.82843,0c1.41422,1.41422 0,2.82843 0,2.82843c-1.63419,1.60403 -2.35295,3.08915 -3.25014,5.19114l-0.55329,1.68173c0,0 -0.63246,1.89737 -2.52983,1.26491z" fill="#ffffff"/><path d="M256.55809,186.13956c-1.89736,-0.63245 -1.26491,-2.52982 -1.26491,-2.52982l0.41469,-1.18053c1.29088,-2.57035 2.79275,-4.88939 3.93097,-7.54803c0,0 0.78784,-1.83829 2.62613,-1.05045c1.83829,0.78784 1.05045,2.62612 1.05045,2.62612c-1.17105,2.72973 -2.71656,5.12145 -4.02984,7.76122l-0.19768,0.65658c0,0 -0.63245,1.89737 -2.52982,1.26492z" fill="#ffffff"/></g><path d="M203.99113,208.619c0,-2.5 2.5,-2.5 2.5,-2.5h0.91855c6.08987,0.00805 12.41884,-0.03944 18.50244,0.30964c7.36521,0.42262 14.69697,2.13686 22.05222,2.44985c7.33234,0.31202 14.7533,0.00809 22.09593,-0.00349l0.18666,-0.18666c0,0 1.76777,-1.76777 3.53553,0c1.76777,1.76777 0,3.53553 0,3.53553l-1.83711,1.83711c-0.63542,0.63455 -1.27084,1.2691 -1.90625,1.90365c-2.11652,1.81648 -4.51544,4.5349 -7.11034,5.65411c-2.54658,1.09837 -4.75816,0.8248 -7.44805,0.8291c-7.38019,0.01179 -14.50822,-0.94934 -21.67734,-2.51086c-7.4983,-1.63322 -15.01409,-1.94188 -22.0004,-5.40769c0,0 -2.23607,-1.11803 -1.11803,-3.3541c0.0103,-0.02061 0.0207,-0.04093 0.03119,-0.06097c-1.10851,0.00077 -2.2117,0.00318 -3.30645,0.00478h-0.91855c0,0 -2.5,0 -2.5,-2.5zM247.68783,213.87084c-7.35458,-0.32598 -14.67549,-2.02577 -22.03841,-2.44911c-3.01476,-0.17334 -6.09478,-0.2511 -9.17499,-0.28448c5.88053,2.2796 12.25181,2.58189 18.4301,3.92249c6.8158,1.47892 13.55956,2.37564 20.57618,2.3881c1.3047,0.00232 3.96785,0.25123 5.41172,-0.39564c1.39828,-0.62645 2.75696,-1.91458 4.01505,-3.13256c-5.74176,0.07737 -11.50868,0.20433 -17.21964,-0.0488z" fill="#000000" stroke="none" stroke-width="0.5"/><g><path d="M341.64323,192.90426l0.90152,0.68209c2.50954,1.5298 6.55317,0.10319 8.20375,3.91398c0.66537,1.53618 0.15818,7.01611 0.15818,8.82068c0,7.00921 0.83824,13.92753 1.74853,20.80818c0.0127,6.24405 0.01495,12.43957 -0.24559,18.6673c-0.04974,1.18895 0.19134,2.44893 -0.07399,3.57213c-0.90121,3.81503 -3.86813,4.18347 -5.85351,5.94222c-1.81213,1.60528 -2.80017,4.65059 -4.24074,6.81298c-2.17996,3.27226 -4.63543,7.66761 -7.50562,9.46601c-2.21485,1.09783 -4.31399,2.75754 -6.46693,4.09582c-0.53697,0.33378 -2.7877,2.20191 -3.21308,2.3493c-3.25859,1.12902 -7.51606,0.05351 -10.83736,0.05351c-3.51006,0 -7.02015,0.00547 -10.53022,0c-1.30268,-0.00203 -3.15748,0.21606 -4.4734,-0.49827c-1.6699,-0.90647 -3.36177,-3.46291 -4.76074,-4.98672c-1.46211,-3.20853 -3.85782,-6.80479 -4.36382,-10.76546c-0.41186,-3.22377 -0.02412,-7.23398 -0.02412,-10.50574c0,-4.21997 -0.36366,-9.36891 0.57848,-13.42235c0.94271,-4.05588 4.28454,-6.99865 6.53551,-9.24701c0,0 0.2985,-0.29771 0.68931,-0.35335c-0.01578,-2.84953 0.01547,-5.78421 1.14088,-7.31466c1.2785,-1.73863 2.41337,-1.13635 3.84267,-1.29118c1.45547,-0.15767 2.85504,-0.48891 4.28685,-0.65488l-0.02023,-0.18478c0,-1.45059 -0.0746,-2.90721 -0.23708,-4.33729c-0.91667,-8.3721 -1.52251,-16.96551 -1.52251,-25.46008c0,-1.22369 -0.05558,-6.35405 0.22985,-7.12276c0.1752,-0.47184 3.29564,-2.42519 3.64054,-2.62365c2.43484,-1.40104 5.17318,-3.37108 7.85696,-3.86176c0.01276,-3.17171 0.27369,-7.05012 1.4509,-8.81129c1.20447,-1.80197 3.37847,-1.46336 4.88527,-2.02719c3.69738,-1.38353 7.17593,-3.24846 10.97523,-3.9536c1.69011,4.4542 2.25956,9.44912 3.17203,14.36685c1.0958,5.90572 2.19796,11.78924 3.34992,17.6487c0.39662,-0.02156 0.72256,0.22226 0.72256,0.22226zM293.16415,239.24825c-0.76306,3.6729 -0.4244,8.29407 -0.4244,12.08403c0,3.05507 -0.36171,6.73203 -0.02412,9.74931c0.34557,3.08863 2.5648,6.21456 3.6592,8.73943c1.10411,1.15273 2.47044,3.30944 3.76372,4.01552c1.57988,0.86255 3.64966,0.25193 5.30465,0.25193c3.67722,0 7.35444,0 11.03166,0c2.36151,0 5.63928,0.85286 7.9666,0.0535c1.02388,-0.35167 1.83486,-1.54598 2.80419,-2.15182c2.1863,-1.36648 4.32081,-3.028 6.57047,-4.15624c1.32572,-0.73495 1.77562,-1.96425 2.82761,-3.36322c1.26506,-1.68232 2.50512,-3.38343 3.70707,-5.17527c1.65766,-2.4712 2.71447,-5.56331 4.78517,-7.44058c0.98775,-0.89549 4.37877,-1.8088 4.67671,-3.81022c0.11779,-0.79125 -0.09522,-1.61936 -0.07399,-2.42937c0.15822,-6.03619 0.24181,-12.04047 0.25585,-18.09189c-0.78982,-5.84388 -1.75807,-12.24117 -1.76155,-18.20158c-0.00167,-2.85332 -0.11457,-5.77885 0,-8.62716c0.01777,-0.4419 0.28006,-0.90343 0.15819,-1.30684c-0.26581,-0.87991 -1.68084,-0.42433 -1.92474,-0.44913c-1.59519,-0.16219 -3.10692,-0.63278 -4.58801,-1.4518c0.85911,4.24749 1.75077,8.482 2.69165,12.70284c0,0 0.42275,1.89737 -0.84549,2.52982c-1.26824,0.63245 -1.69097,-1.26492 -1.69097,-1.26492c-2.6033,-11.6899 -4.83402,-23.48276 -7.04095,-35.36124c-0.51015,-2.74581 -1.01641,-5.50992 -1.50662,-8.26477c-0.20977,-1.17881 -0.5723,-2.45755 -0.33574,-3.62495c-2.8506,2.05552 -6.0246,3.15528 -9.08233,4.29846c-0.68054,0.25443 -3.0911,0.15359 -3.63919,0.97357c-0.60651,0.90738 -0.70812,3.78428 -0.68854,6.11987c0.37436,0.22475 0.96382,0.80189 0.81118,2.17206c-0.09465,0.84967 -0.39315,1.2724 -0.70234,1.47834c0.38124,8.1739 1.78346,16.04468 2.46159,24.16092c0.34717,3.11272 0.76018,6.12934 0.76614,9.29075v0.75019c0,0 0,2 -1.33683,2c-1.33684,0 -1.33684,-2 -1.33684,-2v-0.75019c0.00646,-2.95557 -0.41413,-5.80177 -0.73817,-8.71375c-0.68794,-8.23368 -2.11826,-16.2251 -2.48741,-24.52292c-0.79269,0.30918 -1.50898,0.93729 -2.61295,1.41c-1.51653,0.64936 -2.88594,1.32619 -4.38407,2.18823c-0.58184,0.3348 -1.12429,0.82175 -1.71853,1.1036c-0.2092,0.09922 -0.58816,-0.28748 -0.6582,0.02369c-0.13585,0.6036 0.19993,1.24418 0.22985,1.8795c0.10573,2.24499 0.0005,4.50112 0,6.75168c-0.00155,6.88669 0.71423,14.2576 1.48613,21.05155c0.16862,1.54004 0.26435,3.10439 0.26435,4.66496l0.20193,1.7773c0.03402,0.18614 0.05335,0.39772 0.05335,0.63823c0,0.60564 -0.12259,1.02788 -0.29352,1.32226c-0.16599,0.30064 -0.42423,0.55096 -0.82355,0.65053c-0.15181,0.03785 -0.28904,0.0452 -0.41306,0.02857c-1.86662,0.03027 -3.62762,0.54873 -5.4902,0.74496c-0.10856,0.01144 -1.83694,-0.17405 -2.17459,0.2092c-0.47458,0.53868 -0.08649,1.77969 -0.08171,2.67088c0.01587,2.95797 -0.01857,5.18396 -0.55287,8.05132l0.05143,0.95093c0,0 0,2 -1.33683,2c-1.33684,0 -1.33684,-2 -1.33684,-2l0.05144,-2.04981c0.04086,-0.20775 0.07488,-0.42678 0.10318,-0.65554c-1.71429,1.61562 -4.04895,3.82813 -4.57813,6.37526z" fill="#000000" stroke="#000000" stroke-width="1.5"/><path d="M297.71109,232.89092c-0.0283,0.22876 -0.00011,0.41125 -0.04097,0.619l-0.05207,2.0476c0,0 -0.00104,1.99689 1.33579,1.99689c1.33684,0 1.27779,-1.95314 1.27779,-1.95314l-0.05181,-0.95206c0.5343,-2.86736 0.56628,-5.1037 0.55041,-8.06166c-0.00478,-0.8912 -0.39339,-2.1363 0.08119,-2.67498c0.33765,-0.38325 2.13209,-0.213 2.24065,-0.22444c1.86258,-0.19623 3.62341,-0.71611 5.49003,-0.74638c0.12402,0.01663 0.19561,0.02805 0.34741,-0.00979c0.39932,-0.09957 0.65741,-0.35103 0.8234,-0.65167c0.17093,-0.29438 0.2932,-0.72023 0.2932,-1.32587c0,-0.24051 -0.01943,-0.45398 -0.05345,-0.64012l-0.20194,-1.7825c0,-1.56056 -0.09427,-3.13743 -0.26289,-4.67747c-0.7719,-6.79395 -1.47577,-14.19005 -1.47422,-21.07674c0.0005,-2.25056 0.10864,-4.5096 0.0029,-6.7546c-0.02992,-0.63532 -0.36522,-1.27631 -0.22937,-1.8799c0.07004,-0.31116 0.44962,0.07501 0.65882,-0.02421c0.59424,-0.28185 1.13879,-0.77036 1.72062,-1.10516c1.49813,-0.86204 2.873,-1.54179 4.38953,-2.19115c1.10397,-0.47271 1.82362,-1.10187 2.61631,-1.41105c0.36915,8.29782 1.79936,16.28927 2.4873,24.52294c0.32405,2.91198 0.75633,5.85663 0.74988,8.8122l-0.01378,0.65234c0,0 0.01306,1.99955 1.3499,1.99955c1.33684,0 1.31721,-1.90525 1.31721,-1.90525l0.00133,-0.74933c-0.00596,-3.16141 -0.40967,-6.17462 -0.75684,-9.28734c-0.67813,-8.11624 -2.07535,-15.98687 -2.45659,-24.16077c0.30919,-0.20594 0.60503,-0.72858 0.69968,-1.57826c0.15264,-1.37017 -0.43418,-1.8474 -0.80854,-2.07214c-0.01959,-2.33559 0.07942,-5.31241 0.68592,-6.21979c0.54809,-0.81997 2.96223,-0.71898 3.64277,-0.97341c3.05773,-1.14318 6.23925,-2.2407 9.08985,-4.29622c-0.23656,1.16739 0.12689,2.44661 0.33666,3.62542c0.49021,2.75484 0.99962,5.52089 1.50977,8.26671c2.20693,11.87848 4.45571,23.70421 7.05902,35.3941c0,0 0.35757,1.91936 1.6258,1.28691c1.26824,-0.63245 0.84595,-2.5268 0.84595,-2.5268c-0.94088,-4.22084 -1.82748,-8.43913 -2.68659,-12.68662c1.48109,0.81902 3.04946,1.23686 4.64465,1.39906c0.2439,0.0248 1.65953,-0.42905 1.92534,0.45085c0.12187,0.40341 -0.14006,0.86604 -0.15783,1.30794c-0.11457,2.84831 0.00043,5.78277 0.0021,8.63608c0.00347,5.96041 0.97212,12.37911 1.76194,18.22299c-0.01404,6.05142 -0.10202,12.0726 -0.26024,18.1088c-0.02123,0.81 0.19107,1.63976 0.07328,2.43101c-0.29794,2.00142 -3.69198,2.92051 -4.67973,3.816c-2.0707,1.87727 -3.13279,4.97639 -4.79045,7.44759c-1.20195,1.79184 -2.44627,3.49682 -3.71133,5.17914c-1.05199,1.39898 -1.50499,2.63036 -2.83071,3.36531c-2.24966,1.12824 -4.39064,2.79242 -6.57694,4.1589c-0.96933,0.60584 -1.78303,1.80067 -2.80691,2.15234c-2.32732,0.79936 -5.61232,-0.05374 -7.97382,-0.05374c-3.67722,0 -7.36336,-0.00369 -11.04058,-0.00369c-1.65499,0 -3.72827,0.60798 -5.30815,-0.25457c-1.29328,-0.70608 -2.66269,-2.86581 -3.76679,-4.01854c-1.0944,-2.52486 -3.31769,-5.65609 -3.66326,-8.74471c-0.33758,-3.01729 0.02128,-6.6992 0.02128,-9.75427c0,-3.78996 -0.34213,-8.41972 0.42093,-12.09262c0.52918,-2.54713 2.86286,-4.76309 4.57715,-6.37871z" data-paper-data="{&quot;noHover&quot;:false,&quot;origItem&quot;:[&quot;Path&quot;,{&quot;applyMatrix&quot;:true,&quot;segments&quot;:[[[584.82793,454.39552],[1.05836,-5.09427],[-1.52612,7.34579]],[[583.97914,478.56358],[0,-7.57992],[0,6.11015]],[[583.9309,498.06221],[-0.67517,-6.03457],[0.69114,6.17725]],[[591.2493,515.54106],[-2.18879,-5.04973],[2.20821,2.30546]],[[598.77674,523.57211],[-2.58656,-1.41217],[3.15976,1.72511]],[[609.38605,524.07596],[-3.30999,0],[7.35444,0]],[[631.44936,524.07596],[-7.35444,0],[4.72301,0]],[[647.38256,524.18296],[-4.65465,1.59872],[2.04776,-0.70334]],[[652.99094,519.87931],[-1.93865,1.21169],[4.3726,-2.73296]],[[666.13189,511.56683],[-4.49933,2.25648],[2.65145,-1.4699]],[[671.7871,504.84038],[-2.10398,2.79795],[2.53011,-3.36464]],[[679.20124,494.48984],[-2.4039,3.58368],[3.31532,-4.9424]],[[688.77157,479.60868],[-4.14139,3.75454],[1.97551,-1.79098]],[[698.12498,471.98824],[-0.59588,4.00284],[0.23558,-1.58249]],[[697.977,467.12951],[-0.04246,1.62001],[0.31644,-12.07239]],[[698.48871,430.94573],[-0.02808,12.10284],[-1.57964,-11.68776]],[[694.96562,394.54257],[0.00695,11.92082],[-0.00333,-5.70663]],[[694.96562,377.28826],[-0.22914,5.69662],[0.03555,-0.8838]],[[695.28199,374.67457],[0.24374,0.80682],[-0.53163,-1.75981]],[[691.4325,373.77632],[0.4878,0.0496],[-3.19038,-0.32439]],[[682.25649,370.87272],[2.96218,1.63803],[1.71822,8.49498]],[[687.63979,396.27841],[-1.88175,-8.44168],[0,0]],[[685.94881,401.33806],[2.53647,-1.26491],[-2.53647,1.26491]],[[682.56686,398.80823],[0,0],[-5.20661,-23.37979]],[[668.48496,328.08575],[4.41385,23.75695],[-1.0203,-5.49163]],[[665.47172,311.55622],[0.98042,5.50969],[-0.41953,-2.35761]],[[664.80024,304.30632],[-0.47312,2.33479],[-5.7012,4.11104]],[[646.63558,312.90324],[6.11546,-2.28635],[-1.36108,0.50886]],[[639.3572,314.85037],[1.09617,-1.63994],[-1.21301,1.81475]],[[637.98012,327.09011],[-0.03917,-4.67118],[0.74872,0.44949]],[[639.60248,331.43423],[0.30528,-2.74034],[-0.18931,1.69935]],[[638.19779,334.39092],[0.61839,-0.41188],[0.76249,16.3478]],[[643.12097,382.71277],[-1.35626,-16.23248],[0.69433,6.22544]],[[644.65325,401.29426],[-0.01192,-6.32282],[0,0]],[644.65325,402.79464],[[641.97958,406.79464],[2.67367,0],[-2.67367,0]],[639.3059,402.79464],[[639.3059,401.29426],[0,0],[0.01291,-5.91114]],[[637.82955,383.86675],[0.64809,5.82396],[-1.37588,-16.46736]],[[632.85472,334.82091],[0.73831,16.59564],[-1.58539,0.61835]],[[627.62882,337.64092],[2.20793,-0.94542],[-3.03306,1.29873]],[[618.86068,342.01739],[2.99625,-1.72408],[-1.16367,0.66959]],[[615.42361,344.22459],[1.18848,-0.5637],[-0.4184,0.19845]],[[614.10722,344.27196],[0.14007,-0.62232],[-0.2717,1.20719]],[[614.56691,348.03095],[-0.05984,-1.27064],[0.21147,4.48999]],[[614.56691,361.53432],[0.00101,-4.50113],[-0.00309,13.77338]],[[617.53917,403.63742],[-1.5438,-13.5879],[0.33724,3.08008]],[[618.06788,412.96734],[0,-3.12113],[0,0]],[[618.47173,416.52193],[0,0],[0.06803,0.37228]],[[618.57843,417.79839],[0,-0.48101],[0,1.21128]],[[617.99139,420.4429],[0.34186,-0.58875],[-0.33198,0.60128]],[[616.3443,421.74396],[0.79863,-0.19913],[-0.30361,0.0757]],[[615.51818,421.8011],[0.24804,0.03326],[-3.73324,0.06053]],[[604.53779,423.29103],[3.72516,-0.39246],[-0.21713,0.02288]],[[600.18861,423.70943],[0.6753,-0.7665],[-0.94917,1.07736]],[[600.02519,429.0512],[-0.00956,-1.7824],[0.03173,5.91593]],[[598.91944,445.15384],[1.0686,-5.73472],[0,0]],[599.02231,447.0557],[[596.34864,451.0557],[2.67367,0],[-2.67367,0]],[593.67496,447.0557],[[593.77784,442.95607],[0,0],[0.08172,-0.4155]],[[593.9842,441.645],[-0.05659,0.45751],[-3.42857,3.23125]]],&quot;closed&quot;:true}]}" fill="#ffffff" stroke="none" stroke-width="0.5"/></g><g data-paper-data="{&quot;index&quot;:null}"><path d="M139.5991,192.68201c1.15196,-5.85945 2.25412,-11.74298 3.34992,-17.6487c0.91248,-4.91773 1.48192,-9.91265 3.17203,-14.36685c3.79931,0.70514 7.27786,2.57006 10.97523,3.9536c1.5068,0.56383 3.6808,0.22522 4.88527,2.02719c1.1772,1.76117 1.43814,5.63959 1.4509,8.81129c2.68378,0.49068 5.42212,2.46072 7.85696,3.86176c0.34491,0.19846 3.46534,2.15181 3.64054,2.62365c0.28543,0.76871 0.22985,5.89907 0.22985,7.12276c0,8.49457 -0.60584,17.08799 -1.52251,25.46008c-0.16248,1.43007 -0.23708,2.8867 -0.23708,4.33729l-0.02023,0.18478c1.43181,0.16596 2.83138,0.49721 4.28684,0.65488c1.4293,0.15483 2.56418,-0.44745 3.84267,1.29118c1.12541,1.53045 1.15666,4.46513 1.14088,7.31466c0.39082,0.05564 0.68931,0.35335 0.68931,0.35335c2.25098,2.24836 5.5928,5.19113 6.53551,9.24701c0.94215,4.05344 0.57848,9.20238 0.57848,13.42235c0,3.27176 0.38774,7.28198 -0.02412,10.50574c-0.506,3.96067 -2.90171,7.55693 -4.36382,10.76546c-1.39897,1.52381 -3.09084,4.08025 -4.76074,4.98672c-1.31592,0.71432 -3.17072,0.49624 -4.4734,0.49827c-3.51006,0.00547 -7.02016,0 -10.53022,0c-3.3213,0 -7.57877,1.07551 -10.83736,-0.05351c-0.42538,-0.14738 -2.67611,-2.01552 -3.21308,-2.3493c-2.15294,-1.33828 -4.25208,-2.998 -6.46694,-4.09582c-2.87019,-1.7984 -5.32565,-6.19375 -7.50561,-9.46601c-1.44057,-2.16239 -2.42861,-5.2077 -4.24074,-6.81298c-1.98538,-1.75875 -4.95229,-2.12718 -5.85351,-5.94222c-0.26533,-1.1232 -0.02425,-2.38318 -0.07399,-3.57213c-0.26054,-6.22773 -0.25829,-12.42326 -0.24559,-18.6673c0.91029,-6.88064 1.74853,-13.79897 1.74853,-20.80818c0,-1.80458 -0.50719,-7.2845 0.15818,-8.82068c1.65059,-3.8108 5.69421,-2.38419 8.20375,-3.91398l0.90151,-0.68209c0,0 0.32594,-0.24382 0.72257,-0.22226zM182.77747,232.87299c0.0283,0.22876 0.06232,0.44779 0.10318,0.65554l0.05144,2.04981c0,0 0,2 -1.33684,2c-1.33684,0 -1.33684,-2 -1.33684,-2l0.05143,-0.95093c-0.5343,-2.86736 -0.56874,-5.09336 -0.55288,-8.05132c0.00478,-0.8912 0.39288,-2.1322 -0.08171,-2.67088c-0.33765,-0.38325 -2.06602,-0.19776 -2.17459,-0.2092c-1.86258,-0.19623 -3.62357,-0.7147 -5.49019,-0.74496c-0.12402,0.01663 -0.26126,0.00928 -0.41306,-0.02857c-0.39932,-0.09957 -0.65756,-0.34989 -0.82355,-0.65053c-0.17093,-0.29438 -0.29352,-0.71662 -0.29352,-1.32226c0,-0.24051 0.01934,-0.45209 0.05335,-0.63823l0.20192,-1.7773c0,-1.56056 0.09573,-3.12492 0.26435,-4.66496c0.7719,-6.79395 1.48767,-14.16486 1.48613,-21.05155c-0.00051,-2.25056 -0.10574,-4.50669 0,-6.75168c0.02992,-0.63532 0.3657,-1.2759 0.22985,-1.8795c-0.07003,-0.31116 -0.44899,0.07554 -0.6582,-0.02369c-0.59424,-0.28185 -1.1367,-0.7688 -1.71854,-1.1036c-1.49812,-0.86204 -2.86754,-1.53887 -4.38407,-2.18823c-1.10396,-0.47271 -1.82025,-1.10083 -2.61295,-1.41c-0.36916,8.29782 -1.79948,16.28924 -2.48741,24.52292c-0.32405,2.91198 -0.74463,5.75818 -0.73818,8.71375v0.75019c0,0 0,2 -1.33684,2c-1.33684,0 -1.33684,-2 -1.33684,-2v-0.75019c0.00596,-3.16141 0.41898,-6.17803 0.76614,-9.29075c0.67813,-8.11624 2.08034,-15.98702 2.46159,-24.16092c-0.30919,-0.20594 -0.60769,-0.62867 -0.70235,-1.47834c-0.15264,-1.37017 0.43682,-1.94732 0.81118,-2.17206c0.01959,-2.33559 -0.08203,-5.21249 -0.68854,-6.11987c-0.54808,-0.81997 -2.95865,-0.71913 -3.63919,-0.97357c-3.05773,-1.14318 -6.23173,-2.24294 -9.08233,-4.29846c0.23656,1.16739 -0.12598,2.44614 -0.33574,3.62495c-0.49021,2.75484 -0.99647,5.51895 -1.50662,8.26477c-2.20693,11.87848 -4.43765,23.67134 -7.04095,35.36124c0,0 -0.42274,1.89737 -1.69097,1.26492c-1.26824,-0.63245 -0.84549,-2.52982 -0.84549,-2.52982c0.94088,-4.22084 1.83254,-8.45535 2.69165,-12.70284c-1.48109,0.81902 -2.99282,1.2896 -4.58801,1.4518c-0.2439,0.0248 -1.65893,-0.43078 -1.92475,0.44913c-0.12187,0.40341 0.14041,0.86494 0.15819,1.30684c0.11457,2.84831 0.00167,5.77384 0,8.62716c-0.00348,5.96041 -0.97173,12.3577 -1.76155,18.20158c0.01404,6.05142 0.09764,12.05569 0.25586,18.09189c0.02123,0.81 -0.19178,1.63812 -0.07399,2.42937c0.29794,2.00142 3.68895,2.91473 4.6767,3.81022c2.0707,1.87727 3.12751,4.96938 4.78517,7.44058c1.20195,1.79184 2.44201,3.49295 3.70707,5.17527c1.05199,1.39898 1.50188,2.62827 2.82761,3.36323c2.24966,1.12824 4.38417,2.78976 6.57047,4.15624c0.96932,0.60584 1.78031,1.80015 2.80419,2.15182c2.32733,0.79936 5.6051,-0.0535 7.9666,-0.0535c3.67722,0 7.35443,0 11.03166,0c1.655,0 3.72477,0.61063 5.30465,-0.25193c1.29328,-0.70608 2.65962,-2.86279 3.76372,-4.01552c1.09439,-2.52486 3.31363,-5.6508 3.6592,-8.73943c0.33758,-3.01728 -0.02412,-6.69424 -0.02412,-9.74931c0,-3.78996 0.33866,-8.41114 -0.4244,-12.08403c-0.52918,-2.54713 -2.86385,-4.75964 -4.57814,-6.37526z" fill="#000000" stroke="#000000" stroke-width="1.5"/><path d="M187.38582,239.26963c0.76306,3.6729 0.42094,8.30266 0.42094,12.09262c0,3.05508 0.35886,6.73699 0.02128,9.75427c-0.34557,3.08863 -2.56887,6.21985 -3.66326,8.74471c-1.10411,1.15273 -2.47351,3.31246 -3.76679,4.01854c-1.57988,0.86255 -3.65316,0.25457 -5.30815,0.25457c-3.67722,0 -7.36336,0.00369 -11.04058,0.00369c-2.3615,0 -5.6465,0.8531 -7.97383,0.05374c-1.02388,-0.35167 -1.83758,-1.5465 -2.80691,-2.15234c-2.1863,-1.36648 -4.32728,-3.03066 -6.57694,-4.1589c-1.32573,-0.73495 -1.77873,-1.96633 -2.83071,-3.36531c-1.26505,-1.68232 -2.50937,-3.38729 -3.71132,-5.17914c-1.65766,-2.4712 -2.71976,-5.57032 -4.79045,-7.44759c-0.98775,-0.89549 -4.38179,-1.81458 -4.67973,-3.816c-0.11779,-0.79125 0.09451,-1.621 0.07328,-2.43101c-0.15822,-6.03619 -0.2462,-12.05738 -0.26024,-18.1088c0.78982,-5.84388 1.75847,-12.26258 1.76194,-18.22299c0.00167,-2.85332 0.11667,-5.78777 0.0021,-8.63608c-0.01778,-0.4419 -0.2797,-0.90453 -0.15783,-1.30794c0.26582,-0.87991 1.68144,-0.42605 1.92534,-0.45085c1.59519,-0.16219 3.16356,-0.58004 4.64465,-1.39906c-0.85911,4.24749 -1.74571,8.46578 -2.68658,12.68662c0,0 -0.42229,1.89434 0.84595,2.5268c1.26824,0.63245 1.6258,-1.28691 1.6258,-1.28691c2.60331,-11.6899 4.85209,-23.51563 7.05902,-35.3941c0.51015,-2.74581 1.01957,-5.51186 1.50977,-8.26671c0.20977,-1.17881 0.57322,-2.45802 0.33666,-3.62542c2.8506,2.05552 6.03212,3.15305 9.08985,4.29622c0.68054,0.25443 3.09469,0.15344 3.64278,0.97341c0.6065,0.90738 0.70551,3.8842 0.68592,6.21979c-0.37436,0.22475 -0.96118,0.70197 -0.80854,2.07214c0.09465,0.84967 0.39049,1.37232 0.69968,1.57826c-0.38125,8.1739 -1.77846,16.04453 -2.45659,24.16077c-0.34716,3.11272 -0.75088,6.12593 -0.75683,9.28734l0.00133,0.74933c0,0 -0.01962,1.90525 1.31722,1.90525c1.33684,0 1.3499,-1.99955 1.3499,-1.99955l-0.01378,-0.65234c-0.00645,-2.95557 0.42583,-5.90022 0.74988,-8.8122c0.68794,-8.23368 2.11814,-16.22512 2.4873,-24.52294c0.7927,0.30918 1.51235,0.93833 2.61631,1.41105c1.51653,0.64936 2.89141,1.32911 4.38953,2.19115c0.58184,0.3348 1.12638,0.82331 1.72062,1.10516c0.2092,0.09922 0.58879,-0.28695 0.65883,0.02421c0.13585,0.6036 -0.19946,1.24458 -0.22938,1.8799c-0.10574,2.24499 0.0024,4.50403 0.0029,6.7546c0.00154,6.88669 -0.70232,14.28279 -1.47422,21.07674c-0.16862,1.54004 -0.26288,3.1169 -0.26288,4.67747l-0.20194,1.7825c-0.03402,0.18614 -0.05345,0.39962 -0.05345,0.64012c0,0.60564 0.12227,1.0315 0.2932,1.32587c0.16599,0.30064 0.42409,0.5521 0.82341,0.65167c0.1518,0.03785 0.22339,0.02642 0.34741,0.00979c1.86662,0.03027 3.62745,0.55014 5.49003,0.74638c0.10856,0.01144 1.903,-0.15881 2.24065,0.22444c0.47458,0.53868 0.08597,1.78378 0.08119,2.67498c-0.01586,2.95797 0.01612,5.1943 0.55042,8.06166l-0.05181,0.95206c0,0 -0.05904,1.95314 1.27779,1.95314c1.33684,0 1.33579,-1.99689 1.33579,-1.99689l-0.05207,-2.0476c-0.04086,-0.20775 -0.01267,-0.39024 -0.04096,-0.619c1.71428,1.61562 4.04797,3.83158 4.57715,6.37872z" data-paper-data="{&quot;noHover&quot;:false,&quot;origItem&quot;:[&quot;Path&quot;,{&quot;applyMatrix&quot;:true,&quot;segments&quot;:[[[584.82793,454.39552],[1.05836,-5.09427],[-1.52612,7.34579]],[[583.97914,478.56358],[0,-7.57992],[0,6.11015]],[[583.9309,498.06221],[-0.67517,-6.03457],[0.69114,6.17725]],[[591.2493,515.54106],[-2.18879,-5.04973],[2.20821,2.30546]],[[598.77674,523.57211],[-2.58656,-1.41217],[3.15976,1.72511]],[[609.38605,524.07596],[-3.30999,0],[7.35444,0]],[[631.44936,524.07596],[-7.35444,0],[4.72301,0]],[[647.38256,524.18296],[-4.65465,1.59872],[2.04776,-0.70334]],[[652.99094,519.87931],[-1.93865,1.21169],[4.3726,-2.73296]],[[666.13189,511.56683],[-4.49933,2.25648],[2.65145,-1.4699]],[[671.7871,504.84038],[-2.10398,2.79795],[2.53011,-3.36464]],[[679.20124,494.48984],[-2.4039,3.58368],[3.31532,-4.9424]],[[688.77157,479.60868],[-4.14139,3.75454],[1.97551,-1.79098]],[[698.12498,471.98824],[-0.59588,4.00284],[0.23558,-1.58249]],[[697.977,467.12951],[-0.04246,1.62001],[0.31644,-12.07239]],[[698.48871,430.94573],[-0.02808,12.10284],[-1.57964,-11.68776]],[[694.96562,394.54257],[0.00695,11.92082],[-0.00333,-5.70663]],[[694.96562,377.28826],[-0.22914,5.69662],[0.03555,-0.8838]],[[695.28199,374.67457],[0.24374,0.80682],[-0.53163,-1.75981]],[[691.4325,373.77632],[0.4878,0.0496],[-3.19038,-0.32439]],[[682.25649,370.87272],[2.96218,1.63803],[1.71822,8.49498]],[[687.63979,396.27841],[-1.88175,-8.44168],[0,0]],[[685.94881,401.33806],[2.53647,-1.26491],[-2.53647,1.26491]],[[682.56686,398.80823],[0,0],[-5.20661,-23.37979]],[[668.48496,328.08575],[4.41385,23.75695],[-1.0203,-5.49163]],[[665.47172,311.55622],[0.98042,5.50969],[-0.41953,-2.35761]],[[664.80024,304.30632],[-0.47312,2.33479],[-5.7012,4.11104]],[[646.63558,312.90324],[6.11546,-2.28635],[-1.36108,0.50886]],[[639.3572,314.85037],[1.09617,-1.63994],[-1.21301,1.81475]],[[637.98012,327.09011],[-0.03917,-4.67118],[0.74872,0.44949]],[[639.60248,331.43423],[0.30528,-2.74034],[-0.18931,1.69935]],[[638.19779,334.39092],[0.61839,-0.41188],[0.76249,16.3478]],[[643.12097,382.71277],[-1.35626,-16.23248],[0.69433,6.22544]],[[644.65325,401.29426],[-0.01192,-6.32282],[0,0]],[644.65325,402.79464],[[641.97958,406.79464],[2.67367,0],[-2.67367,0]],[639.3059,402.79464],[[639.3059,401.29426],[0,0],[0.01291,-5.91114]],[[637.82955,383.86675],[0.64809,5.82396],[-1.37588,-16.46736]],[[632.85472,334.82091],[0.73831,16.59564],[-1.58539,0.61835]],[[627.62882,337.64092],[2.20793,-0.94542],[-3.03306,1.29873]],[[618.86068,342.01739],[2.99625,-1.72408],[-1.16367,0.66959]],[[615.42361,344.22459],[1.18848,-0.5637],[-0.4184,0.19845]],[[614.10722,344.27196],[0.14007,-0.62232],[-0.2717,1.20719]],[[614.56691,348.03095],[-0.05984,-1.27064],[0.21147,4.48999]],[[614.56691,361.53432],[0.00101,-4.50113],[-0.00309,13.77338]],[[617.53917,403.63742],[-1.5438,-13.5879],[0.33724,3.08008]],[[618.06788,412.96734],[0,-3.12113],[0,0]],[[618.47173,416.52193],[0,0],[0.06803,0.37228]],[[618.57843,417.79839],[0,-0.48101],[0,1.21128]],[[617.99139,420.4429],[0.34186,-0.58875],[-0.33198,0.60128]],[[616.3443,421.74396],[0.79863,-0.19913],[-0.30361,0.0757]],[[615.51818,421.8011],[0.24804,0.03326],[-3.73324,0.06053]],[[604.53779,423.29103],[3.72516,-0.39246],[-0.21713,0.02288]],[[600.18861,423.70943],[0.6753,-0.7665],[-0.94917,1.07736]],[[600.02519,429.0512],[-0.00956,-1.7824],[0.03173,5.91593]],[[598.91944,445.15384],[1.0686,-5.73472],[0,0]],[599.02231,447.0557],[[596.34864,451.0557],[2.67367,0],[-2.67367,0]],[593.67496,447.0557],[[593.77784,442.95607],[0,0],[0.08172,-0.4155]],[[593.9842,441.645],[-0.05659,0.45751],[-3.42857,3.23125]]],&quot;closed&quot;:true}]}" fill="#ffffff" stroke="none" stroke-width="0.5"/></g></g></g></svg>