<svg version="1.1" xmlns="http://www.w3.org/2000/svg" xmlns:xlink="http://www.w3.org/1999/xlink" width="202.36865" height="279.49157" viewBox="-0.25,-0.25,202.36865,279.49157"><g transform="translate(-147.70654,-40.50421)"><g data-paper-data="{&quot;isPaintingLayer&quot;:true}" fill-rule="nonzero" stroke="#000000" stroke-width="1" stroke-linecap="butt" stroke-linejoin="miter" stroke-miterlimit="10" stroke-dasharray="" stroke-dashoffset="0" style="mix-blend-mode: normal"><path d="M257.2755,298.10467c0,0.78338 -0.35978,1.20698 -0.74887,1.43603c0.06608,3.59509 0.10658,7.1933 0.11834,10.79665c0.90268,-0.16209 1.80465,-0.32406 2.66071,-0.64263c1.57908,-0.58763 2.83877,-1.84696 4.38864,-2.5078c1.70707,-0.72787 3.62422,-0.80224 5.42502,-1.25056c3.13938,-0.78156 5.80241,-1.59923 8.9948,-1.88418c0.52185,-0.04658 0.21912,-1.03526 0.20093,-1.55887c-0.05081,-1.462 0,-2.92576 0,-4.38864c0.01771,-8.5514 -2.12442,-17.06231 -2.50518,-25.61056c-0.30486,-6.84421 -0.42119,-13.51547 -1.03872,-20.34543c-0.24882,-2.75201 0.4683,-6.22415 -0.18537,-8.88447c-0.25596,-1.04173 -0.911,-1.95116 -1.21561,-2.97972c-0.81706,-2.75894 -0.7324,-5.65574 -1.13379,-8.48394c-0.9802,-2.91924 -2.29469,-6.90845 -1.37174,-10.05026c0.75753,-2.57872 2.39132,-2.65794 3.86094,-4.71698c0.43902,-0.61509 0.34579,-1.52516 0.8199,-2.11362c0.5138,-0.63772 1.43665,-0.82574 2.01526,-1.4053c1.83568,-1.83874 2.79725,-3.30315 4.91464,-4.95668c-1.70705,-2.89938 -4.00229,-5.64288 -5.68563,-8.43784c-0.34096,-0.56611 -0.2896,-1.31257 -0.62695,-1.88084c-0.34642,-0.58355 -1.1224,-0.86958 -1.37881,-1.4979c-0.16759,-0.41066 -0.21245,-0.90036 -0.29711,-1.35985c-7.02557,5.01413 -15.59541,8.04224 -24.09966,9.65781c0.18395,18.15821 3.41677,36.08391 4.49103,54.19347c0.09039,1.52791 0.17832,3.05504 0.26353,4.58153c0.44993,0.06084 1.50674,0.34665 1.50674,1.68926c0,1.18378 -0.82156,1.54601 -1.32434,1.65685c0.52283,9.83305 0.92566,19.64451 1.1435,29.47533c0.41089,0.22045 0.80779,0.64635 0.80779,1.46915zM215.6202,298.10467c0,-1.27374 0.95117,-1.59632 1.43293,-1.67801c0.1853,-12.13744 0.44792,-24.26936 0.44792,-36.43633c0,-18.37276 -0.22668,-36.94006 3.81814,-54.96743c-6.13179,-0.93179 -12.20131,-2.65471 -17.60548,-5.53282c-5.3862,0.76932 -10.82397,2.32122 -15.77254,4.62601c-1.77724,0.82774 -3.24926,2.39948 -5.16594,2.8119c-0.79843,0.1718 -1.80004,-0.71211 -2.44141,-0.20648c-0.43842,0.34563 0.65154,0.92457 1.08634,1.27475c1.24739,1.00462 2.52626,2.03641 4.00163,2.65974c1.98016,0.83661 3.58507,0.17539 5.01598,2.36284c0.88053,1.34608 1.57263,2.94417 1.60023,4.55243c0.01351,0.78778 -1.11797,1.14021 -1.49065,1.83438c-1.4498,2.70044 -2.24892,6.10619 -3.35177,8.97701c-0.0852,10.5937 -1.09787,21.67371 -0.14508,32.23018c0.99591,11.03422 1.26065,21.91134 1.26065,33.02961c0,3.95624 0.25689,8.03517 0,11.9856c-0.04725,0.7266 -0.74546,1.58433 -0.30374,2.16318c0.49718,0.65154 1.60558,0.33875 2.39116,0.57229c2.71982,0.80854 5.38594,1.15188 8.21796,1.55645c3.84501,0.54929 7.64704,1.66725 11.45923,2.17473c2.25595,0.30031 4.5274,0.49634 6.80548,0.64531c0.01704,-4.32445 0.06315,-8.64589 0.12302,-12.96617c-0.49427,-0.09504 -1.38406,-0.43721 -1.38406,-1.66917zM237.40648,295.7721c5.2136,0.11381 10.35297,0.62685 15.58193,0.62685h0.06177c-0.21959,-9.73526 -0.62073,-19.45171 -1.13961,-29.1899c-5.61923,0 -11.54904,0 -17.03009,0c-2.30823,0 -5.01015,-0.2874 -7.29049,-0.01597c-2.26846,0.27001 -4.41602,0.55642 -6.71045,0.62668c-0.07603,9.5193 -0.2684,19.02248 -0.41379,28.52895c5.64851,-0.16895 11.32118,-0.69929 16.94073,-0.57661zM234.99932,229.94655c4.35741,0.34298 8.74684,-0.64834 12.95953,0.71034l0.08755,-0.08753c0,0 0.31854,0 0.68032,0.13766c-0.87812,-8.3428 -1.63014,-16.69347 -1.74415,-25.09416c-0.81273,0.11992 -1.62287,0.22751 -2.42898,0.32327c-3.45331,0.41023 -7.17248,0.0115 -10.6542,0.00522c-2.99789,-0.00686 -6.08618,-0.15169 -9.18696,-0.48153c-1.75763,7.65767 -2.70661,15.42759 -3.21726,23.24095c4.58148,0.10688 8.93011,0.88576 13.50415,1.24579zM254.94283,315.48409c-0.83993,0 -1.26627,-0.4136 -1.48266,-0.83347c-6.99764,1.91903 -14.42604,3.13301 -21.62441,2.41835c-3.8257,-0.38503 -7.69039,-0.53313 -11.55024,-0.72535v1.19644c0,0 0,1.70571 -1.70571,1.70571c-1.70571,0 -1.70571,-1.70571 -1.70571,-1.70571v-1.2539c0,-0.04375 0,-0.0875 0.00001,-0.13125c-2.4593,-0.15487 -4.91137,-0.36147 -7.3448,-0.69286c-3.79868,-0.51731 -7.56526,-1.61783 -11.39523,-2.16496c-2.99994,-0.42856 -6.11914,-0.53679 -8.93334,-1.73937c-1.3467,-0.57548 -3.1374,-0.63789 -3.99727,-1.82337c-0.80586,-1.11102 -0.24078,-2.73524 -0.30374,-4.10631c-0.18244,-3.97275 0,-8.00995 0,-11.9856c0,-11.01931 -0.28202,-21.79096 -1.24715,-32.72641c-0.95737,-10.84769 -0.05669,-22.29179 0.19131,-33.16899c1.18428,-3.22408 2.13986,-7.19952 3.83522,-10.18831c0.20062,-0.35368 0.99852,-0.26721 1.01714,-0.67341c0.11478,-2.50407 -3.34374,-2.53546 -4.66886,-3.11591c-2.66442,-1.16711 -8.43736,-4.81138 -6.65765,-8.73671c0.61796,-1.36298 2.89136,-0.79218 4.28862,-1.32815c0.62592,-0.2401 1.16486,-0.664 1.75137,-0.98871c4.98271,-2.75857 10.38195,-4.73122 15.94921,-5.9124c-0.8719,-0.62097 -1.71831,-1.28038 -2.536,-1.98016c-1.44657,-1.23798 -2.22795,-3.08819 -3.34648,-4.629c-1.31864,-1.81645 -3.0596,-3.92393 -3.96093,-6.00063c-1.08129,-2.49134 -1.78898,-5.57772 -2.1849,-8.65573c-2.48356,-0.72584 -5.05846,-0.93548 -7.62762,-1.31948c-5.61574,-0.83936 -11.22993,-1.6605 -16.85821,-2.41148c-2.32331,-0.31 -7.47547,0.10306 -8.88215,-2.32446c-1.25964,-2.17377 -0.86406,-4.94989 -1.30638,-7.42301c-0.99903,-5.58582 -2.11533,-11.13659 -3.26442,-16.69336c-1.57199,-7.66535 -1.6867,-16.45018 -1.134,-24.25468c0.13949,-1.96968 -0.35414,-4.12251 0.50033,-5.90267c1.38759,-2.89084 4.70646,-5.87856 6.74563,-8.37087c3.34812,-4.09214 6.60865,-9.58349 10.65164,-12.97878c3.46199,-2.90737 8.40718,-5.29365 12.66858,-6.5891c5.40463,-1.62151 10.83203,-3.18202 16.21892,-4.86121c1.41991,-0.44261 2.84357,-1.85603 4.24773,-1.36574c3.2116,1.1214 0.99642,5.8076 0.58156,7.21062c-1.55446,5.25701 -3.36844,10.51092 -5.29848,15.64271c-0.09095,0.24182 -0.49099,1.73408 -1.10011,2.84044c0.42729,-0.2197 0.87413,-0.40752 1.31112,-0.60427c2.01345,-0.90657 4.00134,-1.87662 5.93338,-2.94575c1.97946,-1.09537 4.1405,-1.85129 6.3016,-2.52041c7.14319,-2.19758 14.48131,-4.556 21.7827,-6.16022c15.42523,-3.38916 31.98735,-4.95818 47.73465,-5.3283c5.41422,-0.1219 10.62626,0.06062 15.95044,1.16887c1.97771,0.41167 5.59743,0.79832 6.76448,2.89621c0.5069,0.9112 -0.32499,2.06313 -0.58464,3.07299c-1.01587,3.95094 -5.13955,7.09225 -7.75394,10.10812c-0.57045,0.65805 -1.06092,1.39831 -1.66032,2.02667c1.22025,-0.27021 2.59153,-0.31696 3.08854,-0.38111c5.85731,-0.75602 11.07638,-0.73619 16.95576,-0.16423c2.11782,0.20603 4.29727,0.08281 6.35156,0.63734c11.32149,3.05607 22.58525,11.32481 29.0874,21.08228c1.84186,2.76399 3.98946,6.48156 4.58881,9.78411c0.17614,0.97055 0.55519,2.14386 0.00003,2.9592c-0.74095,1.0882 -2.1847,1.49824 -3.39221,2.02275c-3.0554,1.32718 -6.90374,1.88507 -10.14528,2.61447c-4.12329,0.92369 -8.15691,2.35983 -12.14041,3.77051c-1.02148,0.36174 -2.02797,0.76451 -3.04278,1.14455c-0.46433,0.17388 -1.21914,0.05347 -1.39464,0.51719c-0.30198,0.79789 0.2008,1.69615 0.23431,2.54861c0.16312,4.14917 -0.08923,8.20413 0.34775,12.34167c0.70372,6.66308 2.35032,13.92604 2.16004,20.60548c-0.09771,3.42987 -0.68529,6.94243 -1.02681,10.35766c-0.24698,2.12152 -1.08458,4.2225 -2.29441,5.98267c-0.6754,0.98263 -1.04431,2.51461 -2.19591,2.82375c-0.33707,0.09049 -5.96558,-1.43331 -6.96917,-1.95365c-3.0452,-1.57887 -3.39597,-2.33245 -5.66576,-4.7492c-0.5133,-0.54653 -1.10892,-1.03107 -1.6215,-1.57836c-0.80644,2.63253 -2.69538,5.38241 -3.61836,7.89286c-0.17775,0.48346 -1.52021,5.08812 -1.85777,5.7987c-0.70843,1.49125 -1.78373,2.79199 -2.46588,4.29545c-0.92625,2.04144 -0.94243,4.4395 -4.63723,3.46844c-0.62626,-0.16459 -2.85385,-3.64949 -3.37347,-4.42892c-0.86765,-1.31113 -1.51019,-2.7524 -2.16986,-4.18459c-1.76253,1.45842 -2.33679,2.52511 -4.08286,4.26823c-0.48721,0.48639 -1.31435,0.56653 -1.74643,1.10249c-0.40639,0.50409 -0.24856,1.31241 -0.6251,1.83917c-1.00762,1.40961 -3.02526,2.19488 -3.47135,3.86919c-0.67561,2.53581 0.64323,5.96583 1.42505,8.27341c0.38033,2.64757 0.3003,5.72069 1.08501,8.30152c0.34273,1.1272 1.0276,2.14172 1.29218,3.28977c0.65749,2.85293 -0.03159,6.30813 0.23621,9.23763c0.62793,6.86885 0.74602,13.58206 1.0475,20.46563c0.12848,2.93357 0.95685,5.77088 1.2539,8.66167c0.24403,2.37474 -0.12668,4.48521 0.08353,6.85274c0.3143,3.53972 1.16616,6.69137 1.17297,10.28481c0,2.95779 1.15044,7.55293 -2.30686,9.09926c-0.899,0.40209 -1.9736,0.00599 -2.95213,0.11706c-3.22929,0.36654 -6.65153,1.76488 -9.82843,2.47028c-2.32892,0.51711 -3.91062,2.25614 -6.0279,3.0552c-1.26995,0.47928 -2.63222,0.65078 -3.96265,0.93525c-0.0011,0.08329 -0.04384,1.70239 -1.70568,1.70239zM248.67335,201.72972c0.19123,0 0.36103,0.02144 0.51178,0.05951c8.59231,-1.56849 17.33664,-4.60876 24.273,-9.88301c0.1192,-0.49808 0.48398,-1.2637 1.60039,-1.28481c2.32392,-1.97037 4.40753,-4.2217 6.1668,-6.78666c1.73405,-2.52818 2.89261,-5.82265 4.26706,-8.57155c2.88808,-5.76837 2.95466,-10.442 2.95466,-16.79174c0,-1.75028 0.50987,-3.56305 0.04563,-5.25064c-0.95496,-3.47145 -3.32667,-6.72347 -5.1503,-9.74702c-0.51495,-0.85377 -0.74454,-1.87759 -1.35231,-2.66798c-0.77534,-1.00829 -2.44356,-1.00558 -3.39217,-1.57269c-0.50734,-0.30331 -0.72912,-0.98186 -1.2539,-1.2539c-0.98271,-0.50942 -2.16564,-0.53823 -3.1562,-1.0322c-0.68073,-0.33947 -1.10126,-1.08404 -1.77922,-1.429c-2.80314,-1.4263 -6.1758,-1.51615 -9.22457,-1.62535c-3.44186,-0.04627 -6.77247,-0.52146 -10.2102,-0.62966c-8.64281,-0.27202 -17.32345,-0.10514 -25.97917,-0.0566c-0.10113,0.01197 -0.16368,0.01197 -0.16368,0.01197c-5.702,-0.00925 -10.74444,1.35365 -16.14595,3.04182c-2.46807,0.77136 -5.24623,1.67024 -7.21728,3.46276c-2.36963,2.15499 -4.38659,4.92188 -6.20772,7.53092c-1.24485,1.78343 -2.84371,3.36029 -3.7586,5.33342c-2.12709,4.58745 -3.02,10.99484 -3.14407,15.9908c-0.12911,4.3532 0.56552,10.28735 2.31691,14.32703c0.6866,1.58366 2.58367,3.93724 3.56245,5.28445c0.99426,1.36851 1.62322,3.06573 2.92301,4.14829c6.47263,5.39085 14.73359,8.1617 23.11283,9.3839c0.29795,-0.402 0.83172,-0.79427 1.73658,-0.56806c0.67571,0.16893 1.00652,0.54479 1.16144,0.93043c2.94493,0.30895 5.88072,0.44207 8.735,0.44578c3.36404,0.00607 6.97882,0.41574 10.31189,0.01138c1.1181,-0.13564 2.2455,-0.29442 3.37767,-0.47808c0.24825,-0.19643 0.59471,-0.3335 1.07824,-0.3335zM279.6917,198.32636c1.909,3.19464 4.63628,6.3688 6.40829,9.72893c1.02603,1.94558 1.73709,4.06994 2.96421,5.89537c0.64774,0.97161 1.10954,2.05526 1.64212,3.09446c0.24214,0.47248 0.18157,-1.05405 0.37835,-1.54715c0.63705,-1.59636 1.80528,-2.93263 2.54971,-4.48183c1.70301,-3.54406 2.61262,-7.60812 4.23229,-11.24923c0.2425,-0.54515 2.40104,-5.77222 3.17975,-5.96569c1.35964,-0.33781 4.67925,3.65697 5.24388,4.26209c2.2969,2.46161 3.8461,3.46538 6.87037,4.73232c0.73309,0.30711 1.33136,1.19277 2.11975,1.09189c0.49379,-0.06318 0.22452,-0.98171 0.45747,-1.42165c0.75762,-1.43081 1.66812,-2.89986 1.79279,-4.51407c0.33027,-3.30269 0.90039,-6.69287 1.00989,-10.00932c0.21593,-6.53981 -1.45623,-13.72782 -2.1413,-20.25724c-0.44215,-4.21412 -0.49575,-8.45928 -0.3665,-12.69879c0.04348,-1.42622 -0.41254,-3.0024 0.23432,-4.27424c0.65099,-1.27998 5.17378,-2.77122 6.23792,-3.15061c4.1098,-1.46523 8.279,-2.92391 12.53422,-3.88432c2.19338,-0.49296 4.37538,-1.03862 6.54497,-1.62755c1.58828,-0.43114 3.50167,-0.26336 4.75463,-1.33041c0.17614,-0.15 -0.2685,-0.38279 -0.35018,-0.59925c-0.36112,-0.95698 -0.56133,-1.97394 -0.97398,-2.90985c-1.31692,-2.98683 -3.1363,-5.70749 -5.16077,-8.2376c-6.26843,-7.83412 -15.26276,-14.45209 -25.04149,-17.12257c-1.88789,-0.51556 -3.89749,-0.35971 -5.84531,-0.5492c-3.28839,-0.3199 -6.6141,-0.85829 -9.92811,-0.6561c-3.17397,0.19365 -6.58794,1.42885 -9.75449,1.2539c-1.70309,-0.09409 -4.11547,0.52058 -5.03432,-0.91645c-0.81157,-1.26925 1.02009,-2.85617 1.79656,-4.14719c1.65578,-2.75304 4.66319,-5.40683 6.82553,-7.78293c1.03057,-1.13244 1.86105,-2.45189 2.55874,-3.81487c0.14586,-0.28494 0.8744,-0.44297 0.66926,-0.6887c-0.32457,-0.38878 -0.99385,-0.19562 -1.49047,-0.29497c-0.93752,-0.18756 -1.87523,-0.37418 -2.81194,-0.56575c-5.07955,-1.03886 -10.02092,-1.21554 -15.18398,-1.09929c-23.32496,0.50058 -46.31892,4.48458 -68.59089,11.33853c-4.21903,1.28933 -7.81915,3.55079 -11.84072,5.31763c-1.33259,0.58546 -4.81988,3.06175 -6.43185,0.74759c-0.7806,-1.12064 0.05084,-2.74941 0.34843,-4.08231c1.153,-5.1644 3.86554,-10.37526 5.51871,-15.4277c0.35049,-1.07118 0.64875,-2.1589 0.99411,-3.23176c0.29539,-0.91764 0.54394,-1.85489 0.92794,-2.73912c0.00139,-0.00321 0.00295,-0.00646 0.00465,-0.00976c-2.35647,1.80076 -5.05855,2.23132 -7.9373,3.095c-3.26753,0.98033 -6.53507,1.96066 -9.80261,2.941c-3.8212,1.12929 -8.31881,3.31543 -11.41814,5.90255c-1.52792,1.27541 -2.50106,3.09674 -3.76138,4.63714c-2.16024,2.6403 -4.32049,5.2806 -6.48074,7.9209c-1.85332,2.26517 -4.86511,4.88853 -6.21584,7.47092c-0.22896,0.43774 0.00166,0.98853 -0.02536,1.4818c-0.12271,2.23983 -0.44373,4.4695 -0.48041,6.71239c-0.10618,6.49416 -0.01419,13.66525 1.31009,20.01202c1.15531,5.58681 2.2784,11.16765 3.28187,16.78388c0.35814,2.00446 0.14577,4.11615 0.74052,6.06355c0.07366,0.24118 0.48511,0.14474 0.73481,0.18001c1.93116,0.27279 3.87298,0.46482 5.80618,0.72276c7.6494,1.02061 16.17094,1.38988 23.70523,3.46102c-0.06229,-1.18504 -0.07903,-2.33045 -0.05413,-3.39807c0.1505,-5.44689 1.13586,-12.32503 3.45941,-17.3362c0.08212,-0.17711 3.84634,-5.55098 4.05709,-5.8523c1.99532,-2.85285 4.21717,-5.86787 6.82862,-8.20471c2.31897,-2.07512 5.48078,-3.1751 8.36912,-4.08926c3.93779,-1.24631 7.71692,-2.28644 11.65904,-2.81793c0.4939,-0.3811 1.12196,-0.3811 1.12196,-0.3811h0.62695c9.98781,0 20.02348,-0.27529 30.00652,0.04614c3.43312,0.11054 6.75827,0.58885 10.19316,0.6292c3.66901,0.14118 7.39703,0.37823 10.77279,2.04062c0.68242,0.33606 1.0992,1.08813 1.77923,1.42901c1.04364,0.52315 2.28103,0.58631 3.31653,1.12537c0.5243,0.27294 0.74757,0.9489 1.2539,1.2539c1.33495,0.80414 3.11741,1.00539 4.13121,2.189c0.78563,0.91722 1.10161,2.15232 1.73447,3.18092c2.01418,3.2737 4.5789,6.92956 5.55578,10.73592c0.50004,1.94839 0.04563,4.0229 0.04563,6.03443c0,6.86207 -0.19357,12.06687 -3.31482,18.31738c-1.44665,2.8933 -2.68846,6.32013 -4.51022,8.98301c-1.90736,2.788 -4.16746,5.23828 -6.68894,7.38339c0.9663,1.6432 1.21245,3.27215 2.34721,5.17113z" fill="#000000"/><path d="M256.45824,296.67709c-0.21784,-9.83082 -0.63736,-19.65018 -1.16019,-29.48323c0.50278,-0.11084 1.3244,-0.47302 1.3244,-1.6568c0,-1.34261 -1.06131,-1.63245 -1.51125,-1.69329c-0.08521,-1.52649 -0.17987,-3.06272 -0.27027,-4.59063c-1.07426,-18.10956 -4.28331,-36.09628 -4.46726,-54.25449c8.50425,-1.61556 17.09358,-4.64548 24.11914,-9.65961c0.08465,0.45949 0.12988,0.94923 0.29746,1.3599c0.25641,0.62832 1.03359,0.91455 1.38001,1.49809c0.33735,0.56827 0.28673,1.31487 0.62769,1.88098c1.68334,2.79496 3.98488,5.54021 5.69194,8.43959c-2.1174,1.65354 -3.10509,3.19908 -4.94077,5.03782c-0.5786,0.57957 -1.49981,0.76801 -2.01361,1.40573c-0.47412,0.58846 -0.38054,1.49861 -0.81956,2.1137c-1.46962,2.05904 -3.0998,2.13894 -3.85733,4.71765c-0.92295,3.14181 0.40889,7.0477 1.38909,9.96693c0.40138,2.8282 0.32599,5.72877 1.14305,8.48771c0.30461,1.02855 0.96666,1.94283 1.22262,2.98456c0.65367,2.66031 -0.04858,6.16133 0.20024,8.91334c0.61753,6.82996 0.70975,13.54333 1.01461,20.38753c0.38076,8.54826 2.51535,17.06194 2.49764,25.61333c0,1.46288 -0.05172,2.92687 -0.0009,4.38887c0.0182,0.52361 0.32047,1.5124 -0.20138,1.55898c-3.19238,0.28496 -5.86274,1.10363 -9.00212,1.88519c-1.8008,0.44832 -3.72226,0.52269 -5.42933,1.25056c-1.54987,0.66084 -2.81272,1.91989 -4.3918,2.50752c-0.85606,0.31857 -1.75988,0.48027 -2.66256,0.64236c-0.01176,-3.60335 -0.05396,-7.20189 -0.12004,-10.79697c0.38909,-0.22905 0.74927,-0.65257 0.74927,-1.43595c0,-0.8228 -0.39791,-1.24892 -0.8088,-1.46937z" data-paper-data="{&quot;noHover&quot;:false,&quot;origItem&quot;:[&quot;Path&quot;,{&quot;applyMatrix&quot;:true,&quot;segments&quot;:[[[499.90782,659.16082],[0,-1.92951],[0,1.83707]],[[498.15167,662.5284],[0.91244,-0.53714],[0.15496,8.43069]],[[498.42919,687.84718],[-0.02758,-8.45006],[2.11684,-0.38011]],[[504.66871,686.34017],[-2.00752,0.74707],[3.70304,-1.37802]],[[514.96033,680.45924],[-3.63453,1.5497],[4.00317,-1.70689]],[[527.68233,677.5266],[-4.22298,1.05133],[7.36203,-1.83281]],[[548.77566,673.10808],[-7.48633,0.66824],[1.22376,-0.10923]],[[549.24685,669.45244],[0.04267,1.22789],[-0.11916,-3.42847]],[[549.24685,659.16082],[0,3.43054],[0.04153,-20.05353]],[[543.37205,599.10253],[0.89291,20.04617],[-0.71491,-16.05007]],[[540.9362,551.39128],[1.44814,16.01667],[-0.5835,-6.45363]],[[540.5015,530.55668],[1.5329,6.23859],[-0.60025,-2.44291]],[[537.65083,523.56907],[0.71432,2.41202],[-1.91606,-6.46987]],[[534.99203,503.67373],[0.94127,6.6323],[-2.29863,-6.84578]],[[531.77521,480.10528],[-2.16437,7.36773],[1.77646,-6.04725]],[[540.82934,469.04368],[-3.44635,4.82857],[1.02952,-1.44242]],[[542.75206,464.08711],[-1.11183,1.37997],[1.2049,-1.49549]],[[547.47796,460.79159],[-1.35686,1.35912],[4.30479,-4.31195]],[[559.00309,449.16787],[-4.96542,3.87764],[-4.00314,-6.79921]],[[545.66994,429.38064],[3.94754,6.55434],[-0.79957,-1.32757]],[[544.19971,424.96995],[0.7911,1.33263],[-0.81237,-1.36845]],[[540.96633,421.45729],[0.60129,1.47345],[-0.393,-0.96303]],[[540.2696,418.26837],[0.19852,1.07753],[-16.47537,11.75843]],[[483.75447,440.9165],[19.94297,-3.78859],[0.43137,42.58209]],[[494.2862,568.00339],[-2.5192,-42.46799],[0.21198,3.58305]],[[494.9042,578.74736],[-0.19983,-3.57972],[1.05512,0.14268]],[[498.43759,582.70878],[0,-3.1485],[0,2.77604]],[[495.33194,586.59418],[1.17904,-0.25992],[1.22607,23.05909]],[[498.01351,655.71557],[-0.51084,-23.05386],[0.96356,0.51698]]],&quot;closed&quot;:true}]}" fill="#00e8ff"/><path d="M217.01912,299.8138c-0.05987,4.32027 -0.10917,8.64277 -0.12621,12.96721c-2.27809,-0.14897 -4.55421,-0.34394 -6.81016,-0.64426c-3.81219,-0.50748 -7.62292,-1.6249 -11.46793,-2.17418c-2.83202,-0.40457 -5.50474,-0.74869 -8.22456,-1.55724c-0.78559,-0.23354 -1.89591,0.07882 -2.39309,-0.57271c-0.44172,-0.57885 0.25631,-1.43662 0.30356,-2.16322c0.25689,-3.95043 -0.00303,-8.03025 -0.00303,-11.98649c0,-11.11827 -0.29182,-22.02258 -1.28773,-33.05681c-0.95279,-10.55647 0.08165,-21.68806 0.16685,-32.28176c1.10285,-2.87082 1.90928,-6.27934 3.35908,-8.97979c0.37269,-0.69418 1.50619,-1.04712 1.49267,-1.8349c-0.02759,-1.60826 -0.70033,-3.1233 -1.58086,-4.46938c-1.43091,-2.18745 -3.03213,-1.5273 -5.01229,-2.3639c-1.47537,-0.62333 -2.75197,-1.65596 -3.99936,-2.66058c-0.4348,-0.35018 -1.55698,-1.00808 -1.11856,-1.35371c0.64137,-0.50562 1.64463,0.37764 2.44306,0.20584c1.91668,-0.41242 3.39314,-1.98551 5.17038,-2.81325c4.94857,-2.30479 10.39876,-3.85787 15.78497,-4.6272c5.40417,2.87811 11.48739,4.60405 17.61918,5.53585c-4.04482,18.02737 -3.79251,36.64385 -3.79251,55.01661c0,12.16697 -0.2882,24.32881 -0.47349,36.46625c-0.48177,0.08169 -1.43468,0.40493 -1.43468,1.67867c0,1.23196 0.89043,1.5739 1.3847,1.66893z" data-paper-data="{&quot;noHover&quot;:false,&quot;origItem&quot;:[&quot;Path&quot;,{&quot;applyMatrix&quot;:true,&quot;segments&quot;:[[[402.22369,659.16082],[0,2.88902],[0,-2.987]],[[405.584,655.22579],[-1.12977,0.19157],[0.43453,-28.46301]],[[406.63439,569.78044],[0,28.53227],[0,-43.08521]],[[415.58816,440.87857],[-9.48534,42.27525],[-14.3794,-2.18511]],[[374.30227,427.90377],[12.6731,6.74934],[-12.63096,1.80411]],[[337.31473,438.75203],[11.60469,-5.40486],[-4.16773,1.94111]],[[325.20029,445.3461],[4.49473,-0.96714],[-1.87237,0.40288]],[[319.47505,444.86189],[1.50405,-1.18572],[-1.02813,0.81053]],[[322.02258,447.85125],[-1.01963,-0.82119],[2.9252,2.3559]],[[331.40663,454.0885],[-3.45982,-1.46175],[4.64359,1.96189]],[[343.16941,459.62949],[-3.35558,-5.12969],[2.0649,3.15663]],[[346.92204,470.30521],[-0.06471,-3.77147],[0.03169,1.84739]],[[343.42637,474.60695],[0.87397,-1.62789],[-3.39987,6.3327]],[[335.56627,495.65857],[2.58626,-6.73225],[-0.1998,24.84285]],[[335.22605,571.24025],[-2.23435,-24.75554],[2.33547,25.87591]],[[338.18234,648.69665],[0,-26.073],[0,9.27761]],[[338.18234,676.8036],[0.60242,-9.264],[-0.1108,1.70392]],[[337.47005,681.87638],[-1.03585,-1.35743],[1.16592,1.52789]],[[343.07747,683.21843],[-1.84225,-0.54766],[6.37814,1.89608]],[[362.34907,686.8684],[-6.64126,-0.94875],[9.01677,1.28811]],[[389.22164,691.96826],[-8.9398,-1.19007],[5.29033,0.70425]],[[405.1809,693.48155],[-5.34225,-0.34934],[0.03995,-10.14108]],[[405.46939,663.07512],[-0.14039,10.1313],[-1.15909,-0.22287]]],&quot;closed&quot;:true}]}" fill="#00e8ff"/><path d="M277.3207,193.11984c2.52148,-2.14511 4.77513,-4.59007 6.68249,-7.37807c1.82176,-2.66288 3.05813,-6.083 4.50478,-8.97631c3.12125,-6.25051 3.30851,-11.43943 3.30851,-18.30149c0,-2.01154 0.45378,-4.08017 -0.04626,-6.02856c-0.97688,-3.80637 -3.54041,-7.45052 -5.5546,-10.72421c-0.63286,-1.0286 -0.94772,-2.2599 -1.73335,-3.17711c-1.01381,-1.18361 -2.7947,-1.38095 -4.12965,-2.18509c-0.50632,-0.305 -0.72868,-0.97909 -1.25298,-1.25203c-1.03551,-0.53907 -2.27121,-0.59927 -3.31485,-1.12242c-0.68003,-0.34088 -1.09515,-1.0905 -1.77757,-1.42656c-3.37576,-1.66239 -7.09391,-1.8897 -10.76293,-2.03089c-3.43489,-0.04035 -6.74377,-0.51165 -10.17689,-0.62219c-9.98304,-0.32144 -19.97728,-0.06104 -29.96508,-0.06104l-0.62664,-0.00039c0,0 -0.6273,-0.00098 -1.1212,0.38013c-3.94212,0.5315 -7.71657,1.5637 -11.65436,2.81001c-2.88834,0.91416 -6.048,2.00832 -8.36697,4.08344c-2.61145,2.33684 -4.83185,5.34435 -6.82717,8.1972c-0.21075,0.30132 -3.97475,5.67065 -4.05687,5.84776c-2.32355,5.01117 -3.31055,11.87785 -3.46105,17.32474c-0.0249,1.06762 -0.08954,2.23847 -0.02724,3.42351c-7.53429,-2.07113 -16.05723,-2.44555 -23.70663,-3.46617c-1.9332,-0.25793 -3.87519,-0.45082 -5.80635,-0.7236c-0.2497,-0.03527 -0.66118,0.06103 -0.73484,-0.18015c-0.59475,-1.9474 -0.38278,-4.06185 -0.74092,-6.0663c-1.00347,-5.61623 -2.12676,-11.20464 -3.28206,-16.79146c-1.32428,-6.34677 -1.41489,-13.5262 -1.30872,-20.02036c0.03667,-2.24289 0.35849,-4.4752 0.4812,-6.71503c0.02702,-0.49327 -0.20341,-1.0446 0.02556,-1.48235c1.35073,-2.5824 4.36398,-5.20937 6.21731,-7.47454c2.16024,-2.6403 4.3225,-5.28443 6.48274,-7.92473c1.26032,-1.54039 2.23484,-3.36391 3.76276,-4.63933c3.09933,-2.58712 7.60014,-4.77743 11.42134,-5.90672c3.26753,-0.98033 6.53804,-1.96373 9.80557,-2.94407c2.87875,-0.86369 5.58388,-1.29685 7.94036,-3.09761c-0.0017,0.0033 0.04896,0.07399 0.04757,0.0772c-0.38399,0.88423 -0.63157,1.8207 -0.92696,2.73834c-0.34536,1.07285 -0.64248,2.1596 -0.99297,3.23079c-1.65317,5.05244 -4.36005,10.25722 -5.51305,15.42162c-0.29758,1.3329 -1.12783,2.96 -0.34722,4.08064c1.61197,2.31416 5.03069,-0.21277 6.36328,-0.79823c4.02157,-1.76684 7.62715,-4.03404 11.84618,-5.32337c22.27197,-6.85395 45.31227,-10.8443 68.63724,-11.34489c5.16306,-0.11625 10.11171,0.06484 15.19126,1.1037c0.93671,0.19157 1.87562,0.37913 2.81314,0.56669c0.49661,0.09935 1.1665,-0.09331 1.49107,0.29547c0.20515,0.24573 -0.52343,0.40373 -0.66929,0.68867c-0.69768,1.36298 -1.58316,2.74762 -2.61372,3.88006c-2.16235,2.3761 -5.11462,4.96482 -6.7704,7.71786c-0.77647,1.29102 -2.60735,2.87863 -1.79577,4.14788c0.91886,1.43703 3.33363,0.82466 5.03673,0.91875c3.16656,0.17495 6.5831,-1.05733 9.75706,-1.25097c3.31401,-0.2022 6.64207,0.33942 9.93046,0.65933c1.94782,0.18949 3.95851,0.03537 5.8464,0.55094c9.77873,2.67047 18.77781,9.30018 25.04624,17.1343c2.02446,2.53012 3.8446,5.25475 5.16152,8.24158c0.41265,0.93591 0.61303,1.95419 0.97415,2.91116c0.08168,0.21646 0.52635,0.44952 0.35021,0.59952c-1.25295,1.06706 -3.16631,0.89966 -4.75459,1.33079c-2.16959,0.58893 -4.35154,1.13508 -6.54493,1.62804c-4.25522,0.9604 -8.42432,2.42072 -12.53412,3.88595c-1.06414,0.37938 -5.58689,1.87245 -6.23788,3.15242c-0.64685,1.27184 -0.19092,2.85073 -0.2344,4.27695c-0.12925,4.23951 -0.07684,8.49236 0.36531,12.70648c0.68507,6.52942 2.3535,13.72715 2.13756,20.26696c-0.1095,3.31646 -0.6821,6.71072 -1.01237,10.01341c-0.12467,1.61421 -1.03658,3.08519 -1.79421,4.516c-0.23295,0.43995 0.03588,1.35903 -0.45791,1.42221c-0.78839,0.10088 -1.38681,-0.7846 -2.1199,-1.0917c-3.02427,-1.26694 -4.63955,-2.32462 -6.93645,-4.78623c-0.56463,-0.60512 -3.81842,-4.54569 -5.17805,-4.20788c-0.77872,0.19347 -2.94,5.42356 -3.1825,5.96872c-1.61966,3.64111 -2.534,7.70926 -4.23701,11.25331c-0.74443,1.5492 -1.9148,2.88696 -2.55185,4.48332c-0.19678,0.4931 -0.13674,2.01997 -0.37889,1.54749c-0.53258,-1.0392 -1.04005,-2.19488 -1.68778,-3.16649c-1.22711,-1.82543 -1.93853,-3.94958 -2.96456,-5.89515c-1.77201,-3.36013 -4.49925,-6.53432 -6.40825,-9.72896c-1.13476,-1.89898 -1.3815,-3.52754 -2.3478,-5.17074z" data-paper-data="{&quot;noHover&quot;:false,&quot;origItem&quot;:[&quot;Path&quot;,{&quot;applyMatrix&quot;:true,&quot;segments&quot;:[[[552.47515,425.17479],[-2.66108,-4.45322],[4.47672,7.49161]],[[567.50298,447.98971],[-4.15548,-7.8797],[2.4061,4.56249]],[[574.45422,461.81471],[-2.87765,-4.28074],[1.51898,2.27848]],[[578.30509,469.0714],[-1.24893,-2.43699],[0.56784,1.108]],[[579.19235,465.44324],[-0.46146,1.15635],[1.49392,-3.74356]],[[585.17157,454.93308],[-1.74573,3.63297],[3.99366,-8.31102]],[[595.09653,428.55296],[-3.7982,8.53862],[0.56868,-1.27842]],[[602.55324,414.56306],[-1.82614,0.45371],[3.18843,-0.79219]],[[614.85046,424.55792],[-1.3241,-1.41904],[5.38637,5.77261]],[[630.96188,435.65548],[-7.09209,-2.97105],[1.71913,0.72018]],[[635.93281,438.21603],[-1.84881,0.23656],[1.15797,-0.14816]],[[637.00561,434.88217],[-0.54629,1.0317],[1.77667,-3.35534]],[[641.20982,424.29642],[-0.29237,3.78541],[0.7745,-7.745]],[[643.57807,400.82396],[-0.25679,7.77729],[0.50638,-15.33624]],[[638.55659,353.31953],[1.60653,15.31188],[-1.03686,-9.88237]],[[637.69713,323.54011],[-0.3031,9.9419],[0.10197,-3.34458]],[[638.24662,313.51676],[-1.51691,2.98255],[1.52661,-3.00162]],[[652.87491,306.1284],[-2.49546,0.88968],[9.63773,-3.43605]],[[682.26841,297.01945],[-9.97875,2.2522],[5.14361,-1.15603]],[[697.61675,293.20275],[-5.08781,1.38108],[3.7246,-1.01104]],[[708.76663,290.08285],[-2.93825,2.50231],[0.41305,-0.35177]],[[707.94543,288.67757],[0.19154,0.50761],[-0.84684,-2.24417]],[[705.66139,281.85379],[0.96769,2.19477],[-3.08825,-7.00429]],[[693.55909,262.53612],[4.74748,5.93327],[-14.69985,-18.37148]],[[634.83532,222.38269],[22.9317,6.26242],[-4.42721,-1.20903]],[[621.12771,221.09478],[4.56776,0.44436],[-7.71146,-0.75019]],[[597.8457,219.55619],[7.77156,-0.47416],[-7.44314,0.45412]],[[574.97084,222.49666],[7.42576,0.41026],[-3.99385,-0.22065]],[[563.16505,220.34753],[2.15478,3.36993],[-1.90319,-2.97647]],[[567.37809,210.62212],[-1.82086,3.02753],[3.8829,-6.45605]],[[583.38437,192.37069],[-5.07083,5.5721],[2.41674,-2.65564]],[[589.38476,183.42459],[-1.63611,3.19628],[0.34205,-0.66821]],[[590.95421,181.80954],[0.48108,0.57626],[-0.76114,-0.91172]],[[587.45898,181.11781],[1.16459,0.23298],[-2.19854,-0.43983]],[[580.86482,179.79109],[2.19663,0.44925],[-11.91184,-2.43618]],[[545.25749,177.21318],[12.10769,-0.27261],[-54.69842,1.1739]],[[384.40779,203.80271],[52.22909,-16.07293],[-9.89388,3.02355]],[[356.6406,216.27286],[9.43081,-4.14334],[-3.12501,1.37294]],[[341.55753,218.02601],[3.78016,5.42684],[-1.83056,-2.62797]],[[342.37461,208.45276],[-0.69785,3.12573],[2.70385,-12.11083]],[[355.31632,172.27388],[-3.87679,11.84828],[0.82193,-2.51199]],[[357.64756,164.69522],[-0.80988,2.5159],[0.69271,-2.15191]],[[359.82363,158.27183],[-0.90049,2.07357],[0.00327,-0.00752]],[[359.83453,158.24894],[-0.00399,0.00774],[-5.52607,4.2229]],[[341.2211,165.50691],[6.75084,-2.0254],[-7.66256,2.29894]],[[318.23341,172.40372],[7.66256,-2.29894],[-8.96095,2.64825]],[[291.4572,186.24555],[7.26811,-6.06696],[-3.58307,2.99092]],[[282.63654,197.11991],[2.95553,-3.61231],[-5.0659,6.19166]],[[267.43883,215.69489],[5.0659,-6.19166],[-4.34615,5.31196]],[[252.86232,233.21465],[3.16754,-6.05587],[-0.53693,1.02653]],[[252.80284,236.68955],[0.06337,-1.15674],[-0.28776,5.25253]],[[251.67626,252.43051],[0.086,-5.25971],[-0.24899,15.22919]],[[254.7485,299.35989],[-3.10552,-14.88355],[2.70926,13.10141]],[[262.44468,338.71909],[-2.35319,-13.17039],[0.83986,4.70057]],[[264.18124,352.93847],[-1.39473,-4.56677],[0.17273,0.56559]],[[265.90442,353.36061],[-0.58556,-0.08271],[4.52869,0.6397]],[[279.52026,355.05552],[-4.53347,-0.60487],[17.9383,2.3934]],[[335.11042,363.17181],[-17.66835,-4.85693],[-0.14608,-2.77899]],[[334.98349,355.20313],[-0.0584,2.50364],[0.35292,-12.77328]],[[343.09601,314.54872],[-5.44887,11.75148],[0.19258,-0.41533]],[[352.61012,300.82472],[-0.49422,0.70662],[4.67914,-6.6901]],[[368.62363,281.58418],[-6.124,5.48003],[5.43813,-4.86628]],[[388.24972,271.99463],[-6.77333,2.14376],[9.23434,-2.92267]],[[415.59087,265.38641],[-9.24451,1.24639],[1.15823,-0.89371]],[418.22193,264.4927],[[419.69216,264.4927],[0,0],[23.422,0]],[[490.05922,264.60091],[-23.41081,-0.75379],[8.05087,0.25922]],[[513.96279,266.07641],[-8.05502,-0.09462],[8.60405,0.33108]],[[539.22561,270.86178],[-7.91635,-3.8984],[1.60032,0.78808]],[[543.398,274.21289],[-1.5947,-0.79938],[2.4474,1.22682]],[[551.17547,276.85195],[-2.42833,-1.26414],[1.22952,0.64006]],[[554.11593,279.79241],[-1.18736,-0.71524],[3.13053,1.88576]],[[563.80387,284.92574],[-2.37744,-2.77563],[1.84236,2.15093]],[[567.8713,292.38518],[-1.48409,-2.41212],[4.72338,7.67701]],[[580.89994,317.56156],[-2.29085,-8.92616],[1.17263,4.56909]],[[581.00694,331.71266],[0,-4.71717],[0,16.09195]],[[573.23349,374.668],[7.31951,-14.65781],[-3.39248,6.78497]],[[562.65676,395.7337],[4.27214,-6.24462],[-4.47287,6.53802]],[[546.9708,413.04818],[5.91302,-5.03041],[2.26603,3.85341]]],&quot;closed&quot;:true}]}" fill="#ffde00"/><path d="M247.60493,202.10471c-1.13217,0.18366 -2.26365,0.34319 -3.38175,0.47883c-3.33307,0.40436 -6.96041,-0.00547 -10.32446,-0.01154c-2.85428,-0.00371 -5.79975,-0.13961 -8.74468,-0.44856c-0.15492,-0.38564 -0.48725,-0.76218 -1.16296,-0.9311c-0.90486,-0.22622 -1.43997,0.1654 -1.73792,0.5674c-8.37924,-1.2222 -16.65731,-4.00895 -23.12994,-9.39981c-1.29978,-1.08255 -1.93089,-2.78377 -2.92514,-4.15228c-0.97879,-1.34721 -2.87785,-3.70588 -3.56445,-5.28954c-1.7514,-4.03968 -2.44805,-9.98625 -2.31894,-14.33945c0.12407,-4.99595 1.01917,-11.4174 3.14626,-16.00485c0.91489,-1.97313 2.5159,-3.55524 3.76075,-5.33868c1.82114,-2.60905 3.84282,-5.38347 6.21244,-7.53846c1.97105,-1.79252 4.75408,-2.69666 7.22215,-3.46801c5.40151,-1.68816 10.45802,-3.05959 16.16002,-3.05034c0,0 0.06271,-0.00006 0.16385,-0.01204c8.65573,-0.04854 17.36627,-0.21506 26.00908,0.05696c3.43773,0.1082 6.77725,0.58814 10.21911,0.63441c3.04877,0.1092 6.42746,0.20414 9.2306,1.63044c0.67796,0.34496 1.09991,1.09106 1.78064,1.43052c0.99056,0.49397 2.17513,0.52473 3.15783,1.03414c0.52478,0.27203 0.74749,0.95182 1.25483,1.25513c0.94861,0.56712 2.6184,0.56669 3.39374,1.57498c0.60778,0.79038 0.83867,1.81638 1.35361,2.67015c1.82363,3.02355 4.19894,6.28409 5.1539,9.75554c0.46424,1.68759 -0.0446,3.50454 -0.0446,5.25482c0,6.34975 -0.06635,11.03818 -2.95442,16.80655c-1.37445,2.7489 -2.53528,6.05184 -4.26933,8.58003c-1.75928,2.56497 -3.84679,4.82405 -6.17071,6.79442c-1.11641,0.02111 -1.4823,0.78839 -1.6015,1.28647c-6.93636,5.27425 -15.7038,8.33091 -24.29612,9.8994c-0.15076,-0.03807 -0.32111,-0.05936 -0.51234,-0.05936c-0.48353,0 -0.83132,0.13741 -1.07957,0.33384z" data-paper-data="{&quot;noHover&quot;:false,&quot;origItem&quot;:[&quot;Path&quot;,{&quot;applyMatrix&quot;:true,&quot;segments&quot;:[[[479.73527,433.15585],[-1.13391,0],[0.44845,0]],[[480.93543,433.29541],[-0.35353,-0.08928],[20.14948,-3.6782]],[[537.85705,410.11917],[-16.26617,12.36843],[0.27952,-1.16803]],[[541.61005,407.10621],[-2.61804,0.0495],[5.44972,-4.62063]],[[556.07157,391.19108],[-4.12561,6.015],[4.06645,-5.92874]],[[566.07808,371.09029],[-3.22317,6.44634],[6.77271,-13.52717]],[[573.00694,331.71266],[0,14.89053],[0,-4.10451]],[[573.11395,319.39959],[1.08867,3.9575],[-2.23944,-8.14076]],[[561.03618,296.54224],[4.27653,7.09041],[-1.20758,-2.00214]],[[557.86493,290.28568],[1.42527,1.85349],[-1.81822,-2.36451]],[[549.91008,286.59762],[2.22455,1.32992],[-1.18975,-0.71127]],[[546.96962,283.65716],[1.23063,0.63793],[-2.30451,-1.19461]],[[539.56815,281.23658],[2.32292,1.1584],[-1.59635,-0.79607]],[[535.39577,277.88548],[1.58986,0.80896],[-6.57353,-3.34475]],[[513.7636,274.07393],[7.14955,0.25608],[-8.07137,-0.1085]],[[489.82008,272.59734],[8.06168,0.25373],[-20.26789,-0.6379]],[[428.89738,272.46462],[20.29819,-0.11383],[-0.23716,0.02808]],[[428.51355,272.4927],[0,0],[-13.37153,-0.02169]],[[390.65034,279.62594],[12.66687,-3.95884],[-5.78777,1.80888]],[[373.7254,287.74632],[4.62223,-4.20356],[-5.55692,5.05359]],[[359.16792,305.40678],[4.27067,-6.11837],[-2.91924,4.18225]],[[350.35377,317.91396],[2.14548,-4.62711],[-4.98815,10.75784]],[[342.98073,355.41333],[0.29096,-11.71581],[-0.30278,10.20852]],[[348.41403,389.01106],[-4.10713,-9.47328],[1.61011,3.71378]],[[356.76819,401.4034],[-2.29531,-3.15929],[2.33159,3.20923]],[[363.62281,411.13138],[-3.04807,-2.53865],[15.17871,12.64187]],[[417.82377,433.13718],[-19.64982,-2.86612],[0.69872,-0.94272]],[[421.89615,431.80505],[-2.12194,-0.53049],[1.58458,0.39614]],[[424.6198,433.98696],[-0.36329,-0.90434],[6.90604,0.72451]],[[445.10389,435.03235],[-6.69345,-0.0087],[7.88888,0.01424]],[[469.28589,435.05904],[-7.81625,0.94824],[2.62202,-0.31809]],[[477.20673,433.93792],[-2.65501,0.43069],[0.58215,-0.46064]]],&quot;closed&quot;:true}]}" fill="#fbfbfb"/><path d="M220.43401,296.37719c0.14539,-9.50647 0.33744,-19.06623 0.41347,-28.58553c2.29443,-0.07026 4.45132,-0.36463 6.71978,-0.63465c2.28033,-0.27143 4.99952,0.00976 7.30776,0.00976c5.48105,0 11.44711,0.01278 17.06634,0.01278c0.51887,9.73819 0.92094,19.51268 1.14053,29.24793l-0.06182,0.00006c-5.22896,0 -10.39801,-0.49902 -15.6116,-0.61284c-5.61955,-0.12268 -11.32593,0.39354 -16.97444,0.56249z" data-paper-data="{&quot;noHover&quot;:false,&quot;origItem&quot;:[&quot;Path&quot;,{&quot;applyMatrix&quot;:true,&quot;segments&quot;:[[[453.3138,653.69082],[-13.17818,-0.28769],[12.22619,0.2669]],[[489.85435,655.16082],[-12.26222,0],[0,0]],[[489.9992,655.16082],[0,0],[-0.51495,-22.82975]],[[487.32675,586.70878],[1.21679,22.83663],[-13.17743,0]],[[447.39018,586.70878],[12.85339,0],[-5.41294,0]],[[430.29356,586.67132],[5.34751,-0.63651],[-5.31967,0.6332]],[[414.55716,588.14092],[5.38058,-0.16476],[-0.17829,22.32332]],[[413.58679,655.04301],[0.34095,-22.29324],[13.2461,-0.39619]]],&quot;closed&quot;:true}]}" fill="#fbfbfb"/><path d="M221.46154,228.72698c0.51065,-7.81336 1.46614,-15.64242 3.22377,-23.30009c3.10078,0.32984 6.21195,0.46516 9.20984,0.47201c3.48173,0.00628 7.2313,0.41378 10.68461,0.00355c0.80611,-0.09576 1.61948,-0.20057 2.43221,-0.32049c0.11401,8.4007 0.86789,16.81124 1.74602,25.15404c-0.36177,-0.13766 -0.6809,-0.13704 -0.6809,-0.13704l-0.08776,0.08774c-4.21269,-1.35867 -8.633,-0.35453 -12.99041,-0.69752c-4.57405,-0.36004 -8.9559,-1.15533 -13.53738,-1.26221z" data-paper-data="{&quot;noHover&quot;:false,&quot;origItem&quot;:[&quot;Path&quot;,{&quot;applyMatrix&quot;:true,&quot;segments&quot;:[[[447.66886,499.32599],[-10.72641,-0.84431],[10.21839,0.80432]],[[478.05972,500.99177],[-9.879,-3.18617],[0,0]],[478.26504,500.7865],[[479.86042,501.10932],[-0.84838,-0.32281],[-2.05925,-19.56437]],[[475.77029,442.26202],[0.26735,19.70013],[-1.9059,0.28122]],[[470.07419,443.0201],[1.89038,-0.22456],[-8.09822,0.96201]],[[445.08945,443.03234],[8.16486,0.01473],[-7.03024,-0.01608]],[[423.54548,441.90312],[7.27152,0.77349],[-4.12175,17.95769]],[[416.00082,496.40453],[1.1975,-18.32279],[10.74384,0.25065]]],&quot;closed&quot;:true}]}" fill="#fbfbfb"/><path d="M208.09682,87.62626c0,-1.70571 1.70571,-1.70571 1.70571,-1.70571h0.96451c0.39375,-1.97697 1.1117,-3.88738 1.62093,-5.8412c1.49522,-5.73699 2.82217,-11.63702 4.55742,-17.39205c0.57752,-1.91538 1.15495,-3.83615 1.89709,-5.69396c0.37063,-0.9278 0.40768,-2.18444 1.24778,-2.7252c4.2678,-2.7471 8.26918,4.12884 10.35027,6.44359c0.74527,0.82895 1.67298,2.14426 2.86949,1.04254c0.6176,-0.56868 0.95461,-1.38131 1.43191,-2.07196c2.38769,-3.57833 5.23771,-6.6581 8.33665,-9.62518c0.7982,-0.76424 1.40834,-1.83981 2.43422,-2.2506c3.27051,-1.30958 5.1685,1.51041 6.51668,3.85447c0.694,1.20666 0.78631,3.18515 2.11477,3.60096c2.21579,0.69355 3.71251,-3.48688 4.46438,-4.41461c1.27317,-1.57096 3.69338,-2.95623 5.083,-4.4705c1.37955,-1.5033 2.273,-3.57077 4.03103,-4.60633c1.01729,-0.59923 2.30757,-1.28919 3.42423,-0.90573c2.56084,0.87939 2.62247,4.64233 2.95621,6.52867c1.54424,6.4716 2.82054,13.00425 4.3898,19.47928c0.65037,2.68354 2.40588,6.9229 1.15092,9.64635c-1.39449,3.02626 -6.12054,2.71448 -8.64409,3.36506c-1.93159,0.49797 -3.72334,1.49267 -5.67838,1.8887c-6.69333,1.35589 -13.43587,2.15631 -20.12962,3.77428c-4.90584,0.45256 -10.27432,0.37188 -15.09025,1.26056c-3.15356,0.58193 -6.24744,1.56957 -9.47274,1.88903c-1.83681,0.18194 -3.71121,-0.28215 -5.53739,-0.01372c-1.34777,0.19811 -2.67273,0.63505 -4.03491,0.64897h-1.2539c0,0 -1.70571,0 -1.70571,-1.70571zM214.30127,85.35363c0.08108,-0.01393 0.16229,-0.02669 0.24363,-0.03801c0.73272,-0.102 5.09381,0.05234 5.74768,-0.01373c3.17782,-0.32106 6.22258,-1.31568 9.33572,-1.87266c4.80998,-0.86056 10.1119,-0.80963 15.00328,-1.24724c6.64348,-1.63659 13.34548,-2.40663 19.99509,-3.7491c1.93146,-0.38994 3.69875,-1.38075 5.60669,-1.87299c1.74122,-0.44922 3.59041,-0.49843 5.27631,-1.12405c0.38856,-0.14419 0.98807,-0.13579 1.12637,-0.52648c0.60264,-1.70248 -1.07263,-5.64006 -1.45863,-7.23325c-1.57896,-6.51711 -2.86366,-13.09223 -4.41796,-19.60595c-0.15841,-1.02537 -0.30144,-2.05324 -0.47521,-3.07612c-0.05074,-0.29864 0.07521,-0.75618 -0.19804,-0.88693c-0.22705,-0.10864 -0.35253,0.35936 -0.52857,0.53927c-1.20547,1.23194 -2.13253,2.713 -3.30125,3.97985c-1.48269,1.60719 -3.58582,2.5964 -4.94818,4.30678c-1.36252,1.71058 -2.38495,3.98669 -4.37841,4.88595c-1.14481,0.51643 -2.4856,1.06496 -3.69618,0.73062c-3.7479,-1.03511 -3.10378,-5.80446 -5.83997,-7.59133c-0.67815,-0.44286 -1.34625,0.92267 -1.90282,1.51109c-2.84043,3.003 -5.6507,5.71012 -7.96401,9.18328c-0.77659,0.98121 -1.26843,2.28074 -2.32978,2.94362c-3.19655,1.99645 -4.75793,0.7628 -7.16169,-1.46526c-1.58963,-1.47343 -2.6571,-3.45538 -4.26745,-4.90613c-0.51035,-0.45977 -1.37484,-1.80318 -1.68294,-1.18925c-0.52872,1.05352 -0.43526,2.32446 -0.80817,3.44266c-1.02284,3.06706 -1.74311,6.1578 -2.66666,9.25119c-1.55274,5.20079 -3.35116,10.32161 -4.30885,15.62415z" fill="#000000"/><path d="M218.5682,69.73728c0.92355,-3.09338 1.64374,-6.19927 2.66658,-9.26633c0.37292,-1.11821 0.28094,-2.39508 0.80966,-3.4486c0.30811,-0.61393 1.25397,0.75496 1.76432,1.21473c1.61036,1.45075 2.67943,3.42437 4.26906,4.8978c2.40376,2.22805 3.88003,3.45732 7.07658,1.46087c1.06135,-0.66288 1.55601,-1.97716 2.3326,-2.95837c2.31331,-3.47316 5.16325,-6.20766 8.00368,-9.21066c0.55657,-0.58842 1.23053,-1.95357 1.90868,-1.51071c2.73619,1.78687 2.11963,6.57181 5.86753,7.60692c1.21057,0.33434 2.48163,-0.16542 3.62643,-0.68185c1.99346,-0.89926 3.01821,-3.17193 4.38073,-4.88252c1.36236,-1.71038 3.46597,-2.69896 4.94866,-4.30615c1.16872,-1.26685 2.09674,-2.74672 3.30221,-3.97867c0.17604,-0.17991 0.36689,-0.70266 0.59394,-0.59403c0.27326,0.13075 0.148,0.58912 0.19873,0.88777c0.17377,1.02288 0.31905,2.05383 0.47745,3.07921c1.5543,6.51372 2.84584,13.11656 4.4248,19.63367c0.38599,1.59319 2.05936,5.53981 1.45672,7.24229c-0.1383,0.39069 -0.73818,0.38337 -1.12673,0.52756c-1.6859,0.62562 -3.53678,0.6789 -5.27801,1.12813c-1.90795,0.49223 -3.67905,1.48949 -5.61051,1.87943c-6.64961,1.34247 -13.38845,2.13023 -20.03193,3.76682c-4.89138,0.43761 -10.21872,0.37657 -15.0287,1.23714c-3.11314,0.55698 -6.16333,1.54605 -9.34115,1.86711c-0.65388,0.06606 -5.01743,-0.09162 -5.75015,0.01038c-0.08135,0.01132 -0.16261,0.02398 -0.2437,0.03791c0.9577,-5.30254 2.74978,-10.43908 4.30251,-15.63986z" data-paper-data="{&quot;noHover&quot;:false,&quot;origItem&quot;:[&quot;Path&quot;,{&quot;applyMatrix&quot;:true,&quot;segments&quot;:[[[399.13071,160.24704],[2.24586,-12.43478],[0.19014,-0.03266]],[[399.70204,160.15791],[-0.19076,0.02655],[1.71827,-0.2392]],[[413.1807,160.12572],[-1.53338,0.15492],[7.45217,-0.75291]],[[435.07352,155.73423],[-7.30049,1.30614],[11.27969,-2.01807]],[[470.25711,152.80939],[-11.47058,1.02622],[15.57936,-3.8379]],[[517.14678,144.01752],[-15.59372,3.14818],[4.52938,-0.91443]],[[530.29481,139.62525],[-4.47425,1.15432],[4.08327,-1.05345]],[[542.66806,136.98929],[-3.95353,1.46712],[0.91119,-0.33813]],[[545.30946,135.75466],[-0.32431,0.91619],[1.41323,-3.99242]],[[541.88889,118.79226],[0.90518,3.73612],[-3.70276,-15.28302]],[[531.52852,72.81514],[3.64492,15.27506],[-0.37147,-2.40456]],[[530.41412,65.60146],[0.4075,2.39871],[-0.11898,-0.70034]],[[529.9497,63.52156],[0.6408,0.30661],[-0.53245,-0.25476]],[[528.71018,64.78617],[0.41282,-0.42189],[-2.82689,2.88898]],[[520.96856,74.11916],[2.74071,-2.97085],[-3.47699,3.76896]],[[509.36478,84.21882],[3.19481,-4.01095],[-3.19518,4.01142]],[[499.09714,95.67666],[4.67479,-2.10881],[-2.68464,1.21105]],[[490.42939,97.39],[2.83887,0.78405],[-8.78905,-2.42739]],[[476.73431,79.58788],[6.41653,4.19031],[-1.5903,-1.03854]],[[472.27208,83.13148],[1.30519,-1.37989],[-6.66098,7.04221]],[[453.596,104.66682],[5.42485,-8.14476],[-1.82115,2.30099]],[[448.13253,111.56979],[2.48892,-1.55449],[-7.4961,4.68179]],[[431.33795,108.13368],[5.63696,5.22491],[-3.72778,-3.45528]],[[421.33052,96.62851],[3.77638,3.40209],[-1.1968,-1.07818]],[[417.38392,93.83965],[0.72253,-1.43971],[-1.23988,2.47057]],[[415.48871,101.9129],[0.87451,-2.62226],[-2.39863,7.19243]],[[409.23523,123.60748],[2.16579,-7.25417],[-3.64126,12.19615]]],&quot;closed&quot;:true}]}" fill="#ffde00"/><path d="M219.07962,153.17467c-0.08007,0.00808 -0.12818,0.00808 -0.12818,0.00808c-1.05799,-0.10118 -2.12799,0.64908 -2.85053,1.42851c-0.20029,0.21606 -0.57824,0.51739 -0.43017,0.77208c0.39673,0.68243 4.30199,1.03506 4.86717,1.00552c0.69877,-0.03651 3.76041,-1.98166 3.72975,-2.01578c-0.61001,-0.67888 -2.61705,-0.87489 -3.57657,-0.8424zM219.1068,149.78233c0.34288,-0.02593 0.60627,0.03992 0.60627,0.03992l0.97802,0.297c1.94695,0.04168 6.31497,0.80052 6.8613,3.33274c0.74441,3.45033 -3.99845,6.08412 -6.70811,6.33451c-2.21435,0.20462 -7.4162,-0.72102 -8.35413,-3.16962c-1.56668,-4.09007 3.44211,-6.70491 6.4613,-6.84556c0,0 0.05913,0 0.15536,0.01101z" fill="#000000"/><path d="M255.58607,156.47775c-0.57611,0.89498 -0.92526,2.18591 -0.66403,2.93469c0.23531,0.6745 1.38155,0.40712 2.09434,0.45463c1.31486,0.08765 3.62698,0.38331 4.88678,0.08172c0.31173,-0.07463 0.49834,-0.40507 0.72499,-0.63173c1.3613,-1.3613 0.12426,-1.58774 -1.36749,-2.02988c-1.32226,-0.3919 -1.60274,-0.28456 -2.99325,-0.27722h-1.39172c0,0 -0.78469,0 -1.28962,-0.53222zM259.27694,153.62244c2.49657,0.10987 6.06775,0.66387 7.12675,3.00658c1.15844,2.5627 -0.98993,5.7551 -3.42175,6.55615c-1.3383,0.44084 -4.75594,0.24263 -6.24694,0.08172c-1.82676,-0.19715 -3.84071,-0.41572 -4.86424,-2.3288c-1.24727,-2.33128 0.91766,-8.01915 3.35237,-8.96685c0.83757,-0.32602 1.78862,0.17914 2.68294,0.26872c0,0 1.23846,0.24769 1.37088,1.38248z" fill="#000000"/><path d="M276.42548,176.09513c-1.65479,0.4137 -2.06848,-1.24109 -2.06848,-1.24109l-0.1053,-0.80512c-0.61342,2.19318 -0.93644,4.7284 -1.92658,6.70769c-3.54417,7.08484 -11.16045,9.94368 -18.27754,11.71493c-12.7281,1.45578 -29.24455,1.43772 -39.99096,-6.34491c-4.85085,-3.51302 -9.12282,-7.5888 -10.81202,-13.21547c-0.00261,0.02327 -0.00498,0.04659 -0.0071,0.06995c0,0 -0.28042,1.68251 -1.96292,1.40209c-1.68251,-0.28042 -1.40209,-1.96292 -1.40209,-1.96292c0.67807,-3.23768 2.41373,-4.2017 4.01461,-7.13763l1.91242,-2.35762c0,0 1.07744,-1.32234 2.39978,-0.2449c1.32234,1.07744 0.2449,2.39978 0.2449,2.39978l-1.73269,2.116c-0.30428,0.53865 -0.68637,1.05781 -1.08517,1.57039c0.34046,0.42595 0.40464,0.9394 0.40464,0.9394c0.69003,6.08234 5.28771,10.2254 10.02673,13.65805c9.95671,7.21202 25.60475,7.06313 37.38339,5.75071c6.01909,-1.51203 12.79414,-3.80182 15.81949,-9.85666c1.01922,-2.03983 1.29083,-4.95313 2.00166,-7.09649l0.31133,-1.26602c0,0 0.06116,-0.24466 0.23053,-0.5223c-0.74387,-1.12086 -1.46792,-2.25508 -2.14429,-3.43666c0,0 -0.84627,-1.48097 0.6347,-2.32725c1.48097,-0.84627 2.32725,0.6347 2.32725,0.6347c1.36243,2.38869 2.93712,4.57278 4.46134,6.85869l0.58347,1.92418c0,0 0.4137,1.65479 -1.24109,2.06848z" fill="#000000"/></g></g></svg>