<svg version="1.1" xmlns="http://www.w3.org/2000/svg" xmlns:xlink="http://www.w3.org/1999/xlink" width="271.71426" height="312.34735" viewBox="0,0,271.71426,312.34735"><g transform="translate(-131.52997,-28.60476)"><g data-paper-data="{&quot;isPaintingLayer&quot;:true}" fill-rule="nonzero" stroke-linecap="butt" stroke-linejoin="miter" stroke-miterlimit="10" stroke-dasharray="" stroke-dashoffset="0" style="mix-blend-mode: normal"><g data-paper-data="{&quot;index&quot;:null}" stroke="none" stroke-width="0.5"><path d="M210.24357,224.04254c-0.84772,6.0045 -0.29343,11.84397 -0.6592,17.86374c-0.66375,10.9238 -1.74169,21.78924 -2.78937,32.71636c0.01385,12.22582 -0.54055,24.68231 -1.39943,36.859c-0.25921,3.67492 -1.90673,11.9006 1.69259,13.50549c3.21245,1.86316 6.79043,3.87289 10.43592,4.21107c2.30098,0.21346 4.65083,-0.1779 6.95518,-0.00206c6.96606,0.53154 14.35871,1.03835 21.34939,0.40435c2.91043,-0.26396 5.77535,-0.80663 8.69977,-0.80663c3.48129,-0.68683 8.95204,0.11871 11.90552,-2.40087c2.6552,-2.26512 3.27006,-6.71243 3.72888,-10.20038c1.21846,-9.26268 -0.01849,-18.12318 -0.01849,-27.38154c-0.84031,-6.80815 -2.33143,-13.69302 -2.78956,-20.59507c-0.79014,-11.90384 -0.00682,-24.23613 -0.00682,-36.17847c0,-0.84604 0.5767,-6.98469 -0.17235,-7.38425c-1.03264,-0.55084 -2.27356,-0.0045 -3.41034,-0.00244c-2.79133,0.00504 -5.58271,0 -8.37404,0c-9.43269,0 -18.81555,0.40435 -28.26239,0.40435c-4.99403,-0.01513 -10.01329,-0.82914 -15.00349,-0.80871h-1.04676c0,0 -0.39566,0 -0.83501,-0.20394zM209.11504,221.41508c0.27119,-1.80409 1.96354,-1.80409 1.96354,-1.80409h1.04676c4.99288,0.01746 10.0101,0.82602 15.00349,0.8087c10.14565,0 20.21892,-0.40435 30.3559,-0.40435c3.04043,0 9.40543,-1.32398 11.94205,0.80625c2.90251,2.43751 1.92116,7.71164 1.92116,11.21593c0,11.813 -0.78833,24.02238 -0.00681,35.79614c0.45948,6.92212 1.9518,13.81711 2.79313,20.6488c0,9.60661 1.26916,18.80238 -0.01849,28.419c-0.64325,4.80403 -1.7087,10.2114 -5.34299,13.25202c-3.77115,3.15512 -9.51364,2.42567 -13.91444,3.26006c-2.93983,0 -5.81988,0.55417 -8.74614,0.81077c-7.18192,0.62977 -14.76174,0.15561 -21.9165,-0.40435c-2.31959,-0.18154 -4.68407,0.22889 -7.00155,-0.00206c-4.17745,-0.41631 -8.19972,-2.5455 -11.89485,-4.68466c-0.90333,-0.58918 -2.03274,-0.85811 -2.70999,-1.76752c-2.826,-3.7947 -1.50708,-11.81147 -1.18011,-16.26642c0.89038,-12.13116 1.37931,-24.54876 1.39191,-36.73301c1.0503,-10.95446 2.10862,-21.84458 2.79332,-32.78862c0.38811,-6.2036 -0.16983,-12.21222 0.72002,-18.41256c0,0 0.3288,-2.28621 2.30159,-1.90518c0.18607,0.03594 0.35167,0.08883 0.499,0.15515z" fill="#000000"/><path d="M211.0533,224.19649l1.04751,-0.0005c4.9902,-0.02043 10.02247,0.78768 15.0165,0.80281c9.44683,0 18.85943,-0.40194 28.29212,-0.40194c2.79133,0 5.58947,0.00881 8.3808,0.00377c1.13678,-0.00206 2.38004,-0.54673 3.41269,0.00411c0.74905,0.39956 0.17539,6.5407 0.17539,7.38673c0,11.94234 -0.76522,24.30637 0.02492,36.21021c0.45814,6.90205 1.94849,13.81867 2.7888,20.62682c0,9.25836 1.22385,18.14326 0.00539,27.40595c-0.45882,3.48795 -1.08036,7.94149 -3.73556,10.20661c-2.95348,2.51958 -8.43457,1.72021 -11.91586,2.40704c-2.92443,0 -5.79815,0.54548 -8.70858,0.80944c-6.99068,0.63401 -14.4062,0.12573 -21.37226,-0.40582c-2.30435,-0.17584 -4.66055,0.2128 -6.96153,-0.00065c-3.6455,-0.33818 -7.23275,-2.3542 -10.44519,-4.21736c-3.59931,-1.60489 -1.95884,-9.83791 -1.69964,-13.51283c0.85888,-12.17669 1.40017,-24.67621 1.38632,-36.90203c1.04768,-10.92712 2.14145,-21.83119 2.8052,-32.75499c0.36577,-6.01977 -0.18025,-11.86646 0.66747,-17.87096c0.43936,0.20394 0.83552,0.20359 0.83552,0.20359z" data-paper-data="{&quot;noHover&quot;:false,&quot;origItem&quot;:[&quot;Path&quot;,{&quot;applyMatrix&quot;:true,&quot;segments&quot;:[[[420.48713,448.08507],[0.87871,0.40788],[-1.69545,12.009]],[[419.16873,483.81254],[0.73154,-12.03953],[-1.3275,21.84761]],[[413.58998,549.24525],[2.09536,-21.85424],[0.02769,24.45164]],[[410.79113,622.96326],[1.71775,-24.35339],[-0.51842,7.34984]],[[414.1763,649.97425],[-7.19863,-3.20979],[6.42489,3.72633]],[[435.04815,658.3964],[-7.29099,-0.67636],[4.60197,0.42691]],[[448.95851,658.39227],[-4.60869,-0.35167],[13.93212,1.06309]],[[491.65728,659.20097],[-13.98135,1.26801],[5.82086,-0.52791]],[[509.05683,657.5877],[-5.84885,0],[6.96257,-1.37367]],[[532.86787,652.78596],[-5.90696,5.03916],[5.3104,-4.53024]],[[540.32563,632.38521],[-0.91764,6.97589],[2.43691,-18.52537]],[[540.28865,577.62214],[0,18.51672],[-1.68061,-13.6163]],[[534.70952,536.43199],[0.91627,13.8041],[-1.58028,-23.80767]],[[534.69589,464.07505],[0,23.88468],[0,-1.69208]],[[534.3512,449.30655],[1.49809,0.79912],[-2.06528,-1.10167]],[[527.53051,449.30166],[2.27356,-0.00411],[-5.58266,0.01009]],[[510.78243,449.30166],[5.58267,0],[-18.86538,0]],[[454.25765,450.11036],[18.89367,0],[-9.98806,-0.03025]],[[424.25067,448.49295],[9.9804,-0.04087],[0,0]],[422.15716,448.49295]],&quot;closed&quot;:true}]}" fill="#ffffff"/></g><path d="M261.44221,224.22086c-0.03438,-0.03098 -0.06927,-0.06077 -0.10472,-0.08884zM262.8633,229.45198c-0.14685,-0.02854 -0.28729,-0.1031 -0.42293,-0.2121l-0.03404,0.20424l-1.19455,-0.79645c-0.40858,-0.25134 -0.70558,-1.01227 -0.70558,-1.91195c0,-1.10457 0.44767,-2 0.9999,-2h0.44536c-0.14378,-0.13845 -0.29211,-0.30966 -0.45097,-0.46083c-0.08024,-0.00368 -0.99429,-0.08761 -0.99429,-1.99983c0,-2 0.9999,-2 0.9999,-2l0.57409,0.14305c0.82642,0.66924 2.05741,0.40249 2.48798,1.9641c0.23321,0.84583 0.11886,2.87039 -0.23586,4.53929c0.62479,0.89699 1.21161,1.79517 1.30666,2.14319c1.25257,4.58631 -1.44889,12.78827 -3.26986,14.85895c-0.05851,0.06653 -0.11878,0.1233 -0.18052,0.17196c-0.39384,4.95454 -1.51351,9.73053 -3.90942,12.02799c-1.00223,0.96105 -2.36274,0.74672 -3.46441,0.31605c-0.03826,1.40593 -0.1686,2.78329 -0.53981,4.09858c-1.36048,4.82055 -5.42304,5.11882 -7.8435,2.84539c-0.70362,2.03409 -1.61927,3.6675 -2.76355,5.32392c-2.61105,1.12464 -6.64753,0.3981 -8.92945,-3.4339c-1.00374,0.50997 -2.17394,0.36224 -3.03468,0.36397c-3.1599,0.00635 -5.922,-0.35515 -7.2667,-6.89348c-0.00117,-0.15653 -0.00296,-0.32112 -0.0051,-0.49283c-1.93464,0.05887 -4.01183,-0.67352 -5.01785,-2.98715c-1.13586,-2.61223 -1.09313,-5.92122 -0.64527,-9.06281c-1.82626,-0.18411 -3.64492,-1.03032 -4.71243,-4.12863c-0.30554,-0.8868 -0.526,-2.03652 -0.6496,-3.28869c-1.65365,-0.56074 -3.22106,-2.07611 -3.71147,-4.38914c-0.32996,-1.55631 -0.01807,-4.0121 0.14604,-5.61826c0.39649,-3.88053 1.893,-8.62895 3.90807,-10.02095c0.8374,-0.57847 2.45713,-0.50027 3.35725,-0.50815c0,0 0.9999,0 0.9999,2c0,2 -0.9999,2 -0.9999,2c-0.75509,-0.00803 -2.02683,-0.133 -2.72486,0.30288c-1.50675,0.94088 -3.36731,7.1575 -2.83894,10.31375c0.10494,0.62687 1.02213,1.19063 1.18576,1.28137c0.21154,0.11731 0.42481,0.2352 0.63789,0.34342c0.23018,-2.84027 0.99839,-5.31681 2.4323,-5.68965c1.42699,-0.37104 1.8938,1.23421 2.8501,2.89988c-0.17076,2.71246 0.04121,4.15265 -1.13677,5.95087c-0.47768,0.72919 -1.18763,1.15946 -1.99031,1.3129c0.05159,0.3577 0.11075,0.64411 0.17491,0.82191c0.21566,0.5976 1.43614,1.90896 1.70805,2.07351c0.65993,0.39938 1.38451,0.45213 2.11261,0.41872c0.10805,-0.46831 0.21801,-0.9218 0.32637,-1.35658c0.44062,-2.03905 0.55278,-3.70914 1.89169,-4.36787c1.87989,-0.9249 4.11538,1.75219 3.36132,6.08161c-0.43703,2.50922 -2.46651,3.49209 -3.52992,3.53866c-0.239,0.01047 -0.48635,0.02483 -0.73969,0.03803c-0.42787,2.26345 -0.66599,4.78773 0.05418,6.33543c0.72578,1.55976 2.25821,1.68389 3.5403,1.56756c0.061,-2.68368 0.32609,-5.47023 1.24759,-6.73098c2.00199,-2.73903 4.85548,1.94584 4.14474,6.34374c-0.37068,2.29367 -1.26345,3.15931 -2.31227,3.7328c-0.32126,0.17566 -0.69376,0.33272 -1.10022,0.45991c-0.00026,0.02271 -0.00052,0.04548 -0.00077,0.06832c0.79228,4.24411 3.46972,3.646 5.30299,3.64991c0.26723,0.00057 1.01427,0.13871 1.70183,0.08896c-0.46478,-2.08399 -0.7451,-4.90745 0.17044,-6.23334c2.04804,-2.966 3.44602,4.38121 2.93512,7.14796c1.75215,2.22729 4.33159,3.10251 6.34048,2.41472c0.7746,-1.23844 1.4839,-2.47686 2.01206,-4.00157c-0.43202,-1.08638 -0.62164,-2.45668 -0.06542,-3.98837c0.09078,-0.24998 0.20008,-0.4559 0.32253,-0.63054l-0.02813,-0.07503l0.80287,-1.20442c0.16848,-0.25849 0.37928,-0.41212 0.60802,-0.41212c0.55223,0 0.9999,0.89543 0.9999,2v2.02758h-0.05472l0.04181,0.32036c-0.0196,0.11701 -0.03959,0.23276 -0.05996,0.34729c2.08904,1.35549 4.99401,2.76853 5.38452,-2.61008c0.03857,-0.53124 0.04819,-1.06642 0.04453,-1.60345c-0.44033,-0.98882 -0.85523,-2.39786 -0.65702,-3.61012c0.05302,-0.3243 0.13737,-0.60654 0.24348,-0.85956l-0.05213,-0.0782l0.60123,-1.60344c0.18195,-0.49635 0.47561,-0.81862 0.8069,-0.81862c0.55223,0 0.9999,0.89543 0.9999,2v2.00508c1.90598,0.26603 3.63773,0.61761 4.79219,-4.10033c0.26096,-1.06647 0.46649,-2.46485 0.59274,-3.89022c-1.11116,-0.66528 -1.75705,-0.79259 -2.265,-3.51995c-0.6239,-3.34994 0.36639,-8.70376 2.76523,-6.9283c0.94546,0.69977 1.38865,2.94013 1.55475,5.13178c0.64209,-1.28255 1.11101,-3.10514 1.34679,-4.67752c0.02774,-0.18498 0.33333,-3.19677 0.27211,-3.38112c-0.22906,-0.68967 -0.61612,-1.05592 -0.99752,-1.44303zM262.68573,224.94063c0.02209,-0.04169 0.04419,-0.0817 0.06561,-0.11923c-0.07877,0.09054 -0.15565,0.14364 -0.23155,0.16729v0.06489zM260.30303,240.1988c-0.0222,-0.45375 -0.06178,-0.90643 -0.12619,-1.34329c-0.07461,-0.50604 -0.3904,-1.88252 -0.40804,-1.35611c-0.05136,1.53297 0.03169,2.20196 0.53423,2.6994zM226.57195,253.80424c0.56018,-0.1494 1.18495,-0.48845 1.34494,-1.34249c0.2318,-1.23732 -0.94008,-2.10704 -1.12642,-1.76656c-0.1254,0.22913 0.01638,0.68652 -0.01991,1.0184c-0.08188,0.74896 -0.14708,1.43059 -0.19862,2.09065zM221.72398,242.16582c0.37866,-0.05556 0.75579,-0.38217 1.06767,-0.80949c0.17568,-0.24071 0.79579,-0.51292 0.5829,-0.52286c-0.39384,-0.01839 -0.77184,-0.43618 -1.16524,-0.39474c-0.33325,0.0351 -0.39554,0.98175 -0.48532,1.72709zM215.32877,234.89893c0.55158,-0.16246 1.05087,-0.6725 1.45213,-1.77219c-0.30932,-0.11345 -0.93121,-0.72708 -1.19723,-0.11062c-0.14707,0.3408 -0.22668,1.04623 -0.25489,1.88281z" fill="#ffba00" stroke="#000000" stroke-width="2"/><g stroke="#000000" stroke-width="2"><path d="M232.87187,226.96647c0,0 0.01488,-0.00744 0.04209,-0.01892c-8.94862,0.53732 -18.21519,1.96802 -26.84272,-0.18887c-2.25154,0 -4.20529,-1.04564 -6.40324,-1.28064c-1.71187,-0.18303 -3.37702,0.01937 -4.8212,-1.24615c-1.72177,-1.50877 -1.47899,-2.99527 -1.72774,-4.98262c-0.56703,-4.53025 -1.61033,-9.00029 -1.61033,-13.60209c0.01508,-2.28894 -0.66317,-4.32719 -0.95096,-6.56811c-0.41166,-3.20539 -0.7874,-6.39258 -1.27376,-9.55656c-0.84228,-5.47936 -0.65673,-11.28951 -0.65673,-16.85201c0,-6.93684 0,-13.87367 0,-20.81051v-0.64033c0,0 0,-0.17944 0.06742,-0.40347c-0.89674,-4.84439 -0.38759,-10.03921 -0.38759,-14.94501c0,-8.86219 -0.32016,-17.70583 -0.32016,-26.57343c0,-1.31653 -0.43005,-4.06701 0.09675,-5.3081c0.70014,-1.64949 3.0233,-2.81564 4.44779,-3.53189c3.27461,-1.64652 7.17312,-2.38807 10.81359,-2.37532c1.30293,0.00457 3.32099,0.08623 4.46816,0.8053c2.34536,1.47011 2.22919,5.3547 2.2456,7.82943c0,10.16549 0.64016,20.23824 0.64032,30.41535c0.00008,4.93583 0.64273,10.32747 -0.32635,15.17287c-0.09396,0.11653 -0.41806,0.28739 -0.2819,0.3496c1.1242,0.51367 3.83181,-0.46355 5.10015,-0.46521c2.88125,-0.00377 5.76317,-0.01399 8.64437,0c1.40858,0.00684 2.80425,0.33933 4.17017,0.68344c3.11211,0.78403 6.49579,0.93365 9.65521,1.52083c3.88046,0.72117 7.94766,1.98003 11.87766,1.96104c3.12336,0.44191 6.25157,0.84192 9.37425,1.29021c0.71727,0.10298 1.44466,0.15138 2.15158,0.3106c0.15848,0.0357 0.3021,0.38887 0.40835,0.266c0.3927,-0.45417 0.0748,-1.20057 0.17312,-1.79287c0.30253,-1.82247 0.62141,-3.68515 0.61871,-5.52953c-0.00808,-5.52715 0.32016,-11.09772 0.32016,-16.64841c0.01053,-6.62188 0.00396,-14.34264 2.32759,-20.63096c0.3596,-0.97317 1.1754,-1.71798 1.63771,-2.64677c1.10852,-2.22703 2.0603,-4.93813 4.20739,-6.53865c2.0437,-1.52344 3.79074,-1.29076 6.06965,-1.86048c2.53563,-0.01375 7.17959,-0.81822 9.09465,1.36136c1.27423,1.45022 1.07151,3.46863 1.28666,5.18758c0.83046,6.6349 0.32969,13.60759 0.32969,20.32549c0,11.81087 -0.96049,23.41241 -0.96049,35.2178c0,10.8855 0,21.771 0,32.6565c-0.03249,4.89923 -0.98347,10.02744 -1.61033,14.88274c-0.23749,1.83944 0.20869,3.86473 -0.79578,5.59351c-1.64052,2.8235 -6.48748,4.08967 -9.25128,5.34511c-2.54057,1.01666 -5.27806,2.22708 -8.00671,2.65112c-5.41867,0.84207 -10.97241,0.28387 -16.44123,0.65103c-4.08728,0.27441 -8.13035,0.32174 -12.22946,0.32174c-1.43231,0 -2.87817,0.04762 -4.33343,0.12342c0.14607,0.05309 0.2914,0.1424 0.42375,0.28421c-0.67176,-0.00198 -1.34066,0.01207 -1.99938,0.05397c0.18016,-0.08618 0.35958,-0.17394 0.53822,-0.26334zM191.16928,152.74575c0,6.64159 0,13.28317 0,19.92476c0,5.42638 -0.19862,11.10293 0.62391,16.44483c0.82277,5.34344 2.22795,11.07488 2.25754,16.53185c0,4.49072 1.03882,8.86607 1.59129,13.2915c0.14794,1.18507 -0.2515,2.45196 0.83356,3.34158c1.02363,0.83926 2.33062,0.54014 3.50301,0.67482c2.19983,0.25271 4.16223,1.28064 6.40323,1.28064c10.24799,2.56199 21.42542,-0.00952 31.86089,-0.00952c4.05747,0 8.05722,-0.05291 12.10283,-0.31859c5.39653,-0.3544 10.86981,0.18355 16.21528,-0.62962c2.49988,-0.38029 5.03621,-1.54197 7.36104,-2.47147c2.00008,-0.90975 6.86362,-2.14074 8.03747,-4.25975c0.75838,-1.36902 0.30805,-3.19468 0.48487,-4.65166c0.57536,-4.741 1.63169,-9.79752 1.59128,-14.57215c0,-10.8855 0,-21.771 0,-32.6565c0,-11.80623 0.96048,-23.40762 0.96048,-35.2178c0,-5.65612 -0.016,-11.31249 0,-16.96858c0.00457,-1.615 0.15002,-5.47207 -0.94495,-6.82327c-1.05241,-1.29868 -5.49266,-0.55025 -6.91344,-0.55961c-1.78821,0.44705 -3.25575,0.1607 -4.81586,1.34114c-1.80549,1.3661 -2.54048,3.76308 -3.47649,5.6275c-0.43796,0.87237 -1.23613,1.55636 -1.5639,2.47582c-2.14527,6.01787 -2.1657,13.39449 -2.15467,19.70943c0,6.65979 0.34856,13.51377 -0.66143,20.09146c-0.16156,1.05214 -0.33276,5.04371 -1.42819,5.88298c-0.85557,0.6555 -3.68969,0.04904 -4.48362,-0.06373c-3.06375,-0.43518 -6.13262,-0.82907 -9.19514,-1.27108c-1.58121,-0.00702 -3.14267,-0.38535 -4.69029,-0.70961c-6.18821,-1.29655 -12.64909,-2.42139 -18.83178,-3.47223c-2.71168,-0.46089 -5.94975,0.02293 -8.72417,0.02293c-2.01377,0 -4.5996,0.69353 -6.52848,0.31398c-0.84349,-0.16598 -1.87774,-0.14534 -2.45849,-0.77918c-0.50207,-0.54797 -0.18793,-1.47446 -0.28189,-2.21169c0.95303,-4.76519 0.31405,-10.06742 0.31397,-14.92234c-0.00016,-10.17691 -0.64032,-20.24955 -0.64032,-30.4154c0.00936,-1.10635 0.15307,-5.11489 -0.95603,-5.61737c-3.68839,-1.67106 -9.5337,-0.03636 -12.89248,1.6316c-0.74057,0.36777 -2.81381,1.2673 -3.2361,2.23103c-0.34082,0.77782 0.09675,3.5163 0.09675,4.33532c0,8.86764 0.32017,17.71112 0.32017,26.57343c0,5.12658 -0.66127,10.70229 0.60237,15.68055c0,0 0.17921,0.71684 -0.28221,1.19402z" fill="#000000"/><path d="M191.40293,151.53981c-1.26364,-4.97826 -0.59712,-10.56705 -0.59712,-15.69363c0,-8.86231 -0.30988,-17.71834 -0.30988,-26.58598c0,-0.81901 -0.43615,-3.55871 -0.09533,-4.33652c0.42229,-0.96372 2.49761,-1.86487 3.23818,-2.23263c3.35878,-1.66797 9.21114,-3.30697 12.89952,-1.63591c1.10909,0.50248 1.0115,4.59974 1.00214,5.70609c0,10.16585 0.65419,20.22731 0.65435,30.40422c0.00008,4.85492 0.64839,10.14134 -0.30464,14.90653c0.09396,0.73723 -0.21918,1.66066 0.2829,2.20863c0.58076,0.63384 1.51897,0.58529 2.36247,0.75126c1.92888,0.37955 4.51626,-0.31851 6.53003,-0.31851c2.77442,0 6.01785,-0.49383 8.72953,-0.03294c6.18269,1.05085 12.72622,2.17628 18.91442,3.47283c1.54762,0.32425 3.11488,0.71429 4.69608,0.72131c3.06252,0.44201 6.13365,0.84559 9.1974,1.28077c0.79393,0.11277 3.52875,0.7309 4.38432,0.0754c1.09544,-0.83927 1.26873,-4.82086 1.43028,-5.87301c1.00999,-6.57769 0.67445,-13.41077 0.67445,-20.07056c-0.01103,-6.31494 0.01788,-13.68501 2.16316,-19.70287c0.32777,-0.91945 1.12591,-1.60347 1.56387,-2.47584c0.93601,-1.86442 1.72332,-4.34662 3.52882,-5.71272c1.56011,-1.18044 3.02969,-0.89276 4.8179,-1.33982c1.42077,0.00936 5.86431,-0.73662 6.91672,0.56206c1.09497,1.3512 0.95226,5.21066 0.94769,6.82566c-0.016,5.65609 0.00661,11.32006 0.00661,16.97618c0,11.81018 -0.95136,23.44233 -0.95136,35.24856c0,10.8855 -0.00982,21.79889 -0.00982,32.68439c0.04041,4.77463 -1.02233,9.83825 -1.5977,14.57925c-0.17682,1.45698 0.27161,3.28429 -0.48677,4.65331c-1.17385,2.11901 -6.04269,3.35382 -8.04276,4.26357c-2.32484,0.92951 -4.86611,2.09391 -7.36599,2.4742c-5.34546,0.81316 -10.83016,0.27907 -16.22669,0.63347c-4.04561,0.26567 -8.05507,0.31963 -12.11253,0.31963c-10.43547,0 -21.63608,2.56606 -31.88407,0.00407c-2.241,0 -4.20727,-1.03012 -6.4071,-1.28283c-1.17238,-0.13468 -2.4813,0.16317 -3.50493,-0.67609c-1.08506,-0.88962 -0.68712,-2.15759 -0.83506,-3.34266c-0.55247,-4.42542 -1.597,-8.80578 -1.597,-13.2965c-0.0296,-5.45696 -1.44247,-11.1986 -2.26524,-16.54203c-0.82253,-5.34189 -0.62944,-11.03297 -0.62944,-16.45935c0,-6.64158 0.00008,-13.30413 0.00008,-19.94571c0.46142,-0.47719 0.28251,-1.19528 0.28251,-1.19528z" data-paper-data="{&quot;noHover&quot;:false,&quot;origItem&quot;:[&quot;Path&quot;,{&quot;applyMatrix&quot;:true,&quot;segments&quot;:[[[323.60448,200.90993],[0.92284,-0.95438],[0,13.28317]],[[323.60448,240.75944],[0,-13.28317],[0,10.85276]],[[324.85231,273.64909],[-1.64507,-10.68379],[1.64554,10.68687]],[[329.36739,306.71278],[-0.05919,-10.91393],[0,8.98144]],[[332.54997,333.29578],[-1.10493,-8.85085],[0.29588,2.37014]],[[334.21709,339.97894],[-2.17012,-1.77925],[2.04725,1.67851]],[[341.2231,341.32858],[-2.34477,-0.26936],[4.39966,0.50542]],[[354.02957,343.88987],[-4.482,0],[20.49598,5.12399]],[[417.75134,343.87083],[-20.87094,0],[8.11493,0]],[[441.957,343.23366],[-8.09122,0.53135],[10.79306,-0.70879]],[[474.38756,341.97443],[-10.69093,1.62633],[4.99977,-0.76058]],[[489.10965,337.03148],[-4.64967,1.85902],[4.00015,-1.81951]],[[505.18458,328.51198],[-2.34769,4.23802],[1.51676,-2.73804]],[[506.15432,319.20866],[-0.35364,2.91395],[1.15073,-9.482]],[[509.33689,290.06436],[0.08081,9.54926],[0,-21.771]],[[509.33689,224.75136],[0,21.771],[0,-23.61247]],[[511.25786,154.31576],[0,23.62036],[0,-11.31224]],[[511.25786,120.3786],[-0.032,11.31219],[0.00914,-3.23]],[[509.36796,106.73206],[2.18994,2.7024],[-2.10481,-2.59735]],[[495.54109,105.61283],[2.84155,0.01872],[-3.57641,0.89411]],[[485.90937,108.29511],[3.12023,-2.36088],[-3.61099,2.73221]],[[478.95638,119.55012],[1.87203,-3.72885],[-0.87593,1.74473]],[[475.82858,124.50176],[0.65554,-1.83891],[-4.29055,12.03573]],[[471.51924,163.92061],[-0.02206,-12.62988],[0,13.31958]],[[470.19638,204.10353],[2.01998,-13.15538],[-0.32311,2.10429]],[[467.33999,215.86948],[2.19088,-1.67854],[-1.71114,1.31099]],[[458.37274,215.74202],[1.58786,0.22554],[-6.12751,-0.87036]],[[439.98246,213.19985],[6.12504,0.88402],[-3.16241,-0.01403]],[[430.60188,211.78064],[3.09523,0.64851],[-12.37641,-2.5931]],[[392.93832,204.83617],[12.36539,2.10169],[-5.42335,-0.92178]],[[375.48998,204.88204],[5.54884,0],[-4.02754,0]],[[362.43302,205.50999],[3.85776,0.7591],[-1.68699,-0.33195]],[[357.51604,203.95163],[1.16151,1.26768],[-1.00415,-1.09593]],[[356.95225,199.52825],[0.18793,1.47446],[1.90607,-9.53038]],[[357.5802,169.68357],[0.00015,9.70983],[-0.00031,-20.35383]],[[356.29955,108.85278],[0,20.33169],[0.01872,-2.2127]],[[354.3875,97.61804],[2.21819,1.00497],[-7.37677,-3.34212]],[[328.60253,100.88125],[6.71756,-3.33593],[-1.48114,0.73553]],[[322.13033,105.3433],[0.84458,-1.92745],[-0.68165,1.55563]],[[322.32383,114.01393],[0,-1.63803],[0,17.73528]],[[322.96416,167.16079],[0,-17.72462],[0,10.25316]],[[324.16891,198.52188],[-2.52729,-9.95652],[0,0]]],&quot;closed&quot;:true}]}" fill="#ffffff"/></g><g stroke="none" stroke-width="0.5"><path d="M241.00073,168.45565c0.59252,-0.60415 1.49294,-0.60415 1.49294,-0.60415l1.24808,0.0201c11.36306,-1.59801 23.40097,-1.25308 34.88174,-1.24484c2.16384,0.00155 7.69947,-1.14169 9.37503,0.2796c0.91649,0.77742 0.39052,2.37168 0.58578,3.55751c-0.01558,7.07757 -1.60955,15.33188 -5.16914,21.51825c-1.56741,2.72407 -4.48764,5.73212 -7.7002,6.45397c-5.758,1.29379 -13.15405,-0.37954 -18.90888,-1.20854c-6.62142,-1.64907 -13.73639,-5.24548 -15.34987,-12.56824c-0.66158,-3.00257 -0.55644,-6.67281 -0.3463,-9.72693c0.05682,-0.82583 1.14965,-2.33003 0.3323,-2.46102c-1.67463,-0.26838 -3.94121,0.20803 -5.95671,0.46153c-0.07885,0.64177 -0.15548,1.18003 -0.19507,1.47066c-1.00234,7.35759 -4.48591,14.37201 -11.36136,17.82629c-6.44592,1.81388 -15.96523,0.83904 -22.04855,-1.87203c-5.01798,-2.2363 -9.4516,-10.43723 -10.35061,-15.59317c-0.30106,-1.72665 0.06174,-3.49853 0.30046,-5.19599c0,0 0.28284,-1.9799 2.26274,-1.69705c0.84804,0.12115 1.28096,0.55364 1.49877,1.00854c4.66609,-0.49557 9.46428,-0.41628 14.14,-0.41628c6.17693,0 12.31237,-0.20029 18.43631,-0.90399c1.80042,-0.20688 5.8704,-0.92013 7.34172,0.77145c0.09062,0.10419 0.15017,0.30445 0.18568,0.5716c1.64142,-0.20043 3.64549,-0.497 5.30515,-0.44728z" fill="#000000"/><path d="M201.58878,180.00608c-0.10589,0.57506 -0.49931,1.64334 -1.961,1.64334c-2,0 -2,-2 -2,-2l0.33589,-1.41559c1.33602,-2.00403 2.52919,-3.79477 4.2303,-5.50995c0,0 1.41421,-1.41422 2.82842,0c1.41422,1.41422 0,2.82842 0,2.82842c-1.39798,1.38422 -2.36621,2.84605 -3.43361,4.45379z" fill="#ffffff"/><path d="M204.72247,185.95717c-1.71499,-1.02899 -0.686,-2.74398 -0.686,-2.74398l0.84469,-1.39636c1.07631,-2.09534 2.5147,-3.47335 3.79897,-5.42012c0,0 1.1094,-1.6641 2.7735,-0.5547c1.6641,1.1094 0.5547,2.7735 0.5547,2.7735c-1.19607,1.77847 -2.62748,3.07541 -3.54946,4.99017l-0.99242,1.66549c0,0 -1.02899,1.71499 -2.74398,0.686z" fill="#ffffff"/><path d="M249.82202,182.46533c-1.89736,-0.63245 -1.26491,-2.52983 -1.26491,-2.52983l0.67145,-1.99249c1.09883,-2.55452 2.1394,-4.45626 4.0983,-6.44389c0,0 1.41421,-1.41422 2.82843,0c1.41422,1.41422 0,2.82843 0,2.82843c-1.63419,1.60403 -2.35295,3.08915 -3.25014,5.19114l-0.55329,1.68173c0,0 -0.63246,1.89737 -2.52983,1.26491z" fill="#ffffff"/><path d="M256.55809,186.13955c-1.89736,-0.63245 -1.26491,-2.52982 -1.26491,-2.52982l0.41469,-1.18053c1.29088,-2.57035 2.79275,-4.88939 3.93097,-7.54803c0,0 0.78784,-1.83829 2.62613,-1.05045c1.83829,0.78784 1.05045,2.62612 1.05045,2.62612c-1.17105,2.72973 -2.71656,5.12145 -4.02984,7.76122l-0.19768,0.65658c0,0 -0.63245,1.89737 -2.52982,1.26492z" fill="#ffffff"/></g><path d="M268.84037,208.62764c0.52022,-0.0855 0.96955,-0.111 1.3106,-0.05903c1.80021,0.27433 4.36038,0.70121 4.88536,2.44489c0.5112,1.69791 -1.57647,3.23462 -2.78462,4.53255c-0.48052,0.51622 -1.16413,0.76305 -1.84041,1.0205l-0.44387,0.38046l-0.06412,-0.0748l-0.17999,0.25937c-3.08452,1.54593 -10.64072,5.68119 -12.73923,-0.82585c-0.36617,-1.13541 0.72884,-2.05694 1.871,-2.89742c0.47456,-0.88556 1.35089,-1.80426 2.46855,-2.80479c1.02487,-0.91747 2.31296,-1.57197 3.63405,-1.95512c1.08326,-0.31417 2.25518,-0.05329 3.38277,-0.07993c0,0 0.20609,0 0.49992,0.05917z" fill="#000000" stroke="none" stroke-width="0.5"/><g><path d="M316.77754,124.20399c-5.14829,-3.25763 -6.89537,-9.45403 -9.78893,-14.68893c-3.08106,-5.57412 -6.82095,-10.67169 -9.52805,-16.42853c-1.21803,-2.59022 -4.09868,-6.26985 -4.29746,-9.23061c-0.28825,-4.29338 3.03961,-7.4885 5.82288,-10.27941c2.13475,-2.13133 4.85547,-7.12862 7.87898,-7.97492c4.81727,-1.34838 5.67514,2.83413 7.87229,5.91205c2.23634,3.13282 5.35356,5.82784 6.98312,9.3893c1.32377,2.89314 1.66039,6.68589 2.4455,9.78327c0.12767,0.50366 0.08358,-1.03741 0.17477,-1.54893c0.11468,-0.64326 0.27076,-1.2821 0.32293,-1.93342c0.11733,-1.46489 0.23367,-2.97482 0.77946,-4.33929c-0.08553,-5.3267 0.81569,-11.31952 -0.01026,-16.55573c-1.23126,-7.80573 -3.1175,-15.26499 -2.649,-23.30071c0.25468,-4.36823 -0.83865,-11.80512 4.33625,-13.79063c1.02377,-0.3928 2.19178,-0.07516 3.28767,-0.11274c5.28065,0 10.14855,0.07388 15.34142,1.15399c1.17022,0.2434 2.62535,-0.05077 3.50456,0.75895c3.65887,3.36968 1.40883,4.79599 0.30778,8.21512c-0.40316,1.25194 -0.58231,2.31721 -0.72208,3.41935c1.76416,-4.5885 4.2617,-6.49194 9.03677,-7.1499c3.75245,-0.61516 7.88705,-0.68665 11.68308,-0.39098c1.98131,0.15432 4.90977,0.45728 6.09975,2.50995c0.58327,1.00613 0.33753,2.32107 0.24462,3.48033c-0.22441,2.80002 -1.22175,5.7273 -1.49477,8.57629c-0.22035,2.29943 -0.44388,4.60826 -0.67432,6.92262c0.0042,-0.00388 0.00841,-0.00775 0.01262,-0.01161c2.97018,-2.72364 8.84089,-2.36686 12.44993,-2.72543c3.95545,-0.00317 8.16591,-0.39233 12.10263,-0.00248c1.23108,0.12191 2.83191,-0.32895 3.66478,0.58579c2.32816,2.55703 -1.20502,9.09174 -2.1839,11.5368c-2.38801,5.96478 -5.48555,11.64525 -7.87697,17.62941c-1.56074,3.90551 -3.05497,8.39306 -5.23045,11.94878c-1.76531,11.59266 -5.73955,22.00918 -10.96569,32.46147c-1.3651,2.7302 -2.21514,6.33256 -3.87011,8.83371c-1.76348,2.66515 -4.74467,4.27669 -7.39238,5.86532c-8.71235,5.19521 -18.24069,1.4439 -27.48536,0.34369c-2.93717,-0.34955 -6.25172,-0.05567 -9.01468,-1.43074c-2.70169,-1.34458 -3.23891,-4.53481 -4.26118,-6.98935c-1.67501,-4.02176 -3.62671,-7.16234 -6.69324,-10.22887zM366.08237,86.15055c1.71806,-10.84106 2.92974,-22.00474 4.01379,-32.88117c0.32594,-3.27021 0.4214,-6.59329 1.11413,-9.81871c0.27845,-1.2965 1.51091,-2.64887 0.96788,-3.85866c-0.40182,-0.89519 -1.92261,-0.43944 -2.9025,-0.4908c-3.55011,-0.18608 -7.31839,-0.2355 -10.82254,0.35921c-1.04704,0.11379 -2.85307,-0.05197 -3.7505,0.93551c-3.03392,3.33832 -2.50391,8.1973 -3.0348,12.32885c-1.18018,9.18455 -3.11666,18.20446 -4.27231,27.39404c-0.41377,3.29026 -1.27602,6.38585 -2.26952,9.54389c-0.13463,0.82891 -0.25762,1.66019 -0.36113,2.49572l-0.02381,0.03739l0.01752,0.00292l-0.36969,2.21813c-0.1432,0.96403 -0.97432,1.70363 -1.97819,1.70363c-1.10457,0 -2,-0.89543 -2,-2v-2.62566h0.07688c-0.01969,-0.10613 -0.0368,-0.2129 -0.05106,-0.32036c-0.11394,-0.8587 0.52362,-1.64729 0.79809,-2.47296c0.46602,-2.78883 1.04465,-5.55255 1.44675,-8.36724c1.59268,-10.99133 0.73351,-22.12448 1.48709,-33.26546c0.19338,-2.859 0.66439,-6.39972 1.59411,-9.08838c0.42843,-1.23897 2.23681,-3.21437 1.05797,-3.78788c-0.52358,-0.25472 -1.16972,0.08658 -1.74675,0.00876c-5.0238,-0.67752 -9.56647,-1.09657 -14.66608,-1.09657c-4.3308,-0.24865 -3.05049,3.06658 -3.2538,6.35169c-0.12947,2.092 -0.37355,4.18096 -0.37261,6.27697c0.00308,6.86588 1.59035,13.23271 2.59983,19.9347c0.85629,5.68492 0.05894,12.19242 -0.01026,17.95289c-1.04445,2.61113 -0.09738,7.61523 -2.38424,9.621c-3.25956,2.85892 -4.64221,1.19967 -6.559,-1.49038c-1.88327,-2.643 -1.00655,-6.31773 -2.33785,-9.16975c-1.53546,-3.2894 -4.50429,-5.80087 -6.58378,-8.71048c-1.04221,-1.45826 -1.46724,-3.35425 -2.71385,-4.64215c-0.48404,-0.50007 -1.25976,0.65787 -1.72642,1.17419c-1.79493,1.98594 -3.3489,4.09624 -5.25131,6.0015c-1.64786,1.64285 -4.98081,4.39639 -4.67974,6.9749c0.28304,2.42405 2.95378,5.89104 3.9546,8.0237c2.65933,5.66676 6.36481,10.68862 9.39987,16.17599c2.10804,3.81132 3.67456,9.38759 7.03731,12.28143c0.68397,0.11906 1.16718,0.60227 1.16718,0.60227l1.12528,1.12528c3.43432,3.43432 5.68823,7.03542 7.56033,11.52657c0.50716,1.21667 0.95862,4.3998 2.4905,5.01366c2.34022,0.93777 5.07648,0.66744 7.50147,0.9584c8.12439,0.97479 17.34773,4.83884 25.01575,0.2051c2.11256,-1.26754 4.68229,-2.51877 6.111,-4.63731c1.55653,-2.30809 2.35243,-5.86192 3.63177,-8.4206c5.21564,-10.43128 8.73774,-20.56595 10.78974,-32.05466c4.40679,-7.47637 6.69645,-16.40662 10.59513,-24.21841c1.32114,-2.64717 2.64896,-5.21126 3.65082,-8.01862c0.30321,-0.84964 0.45363,-1.74789 0.74216,-2.60263c0.18595,-0.55087 0.38148,-1.10706 0.67875,-1.60673c0.12196,-0.20499 0.7676,-0.55517 0.5497,-0.45813c-3.40437,1.51605 -8.92949,0.58656 -12.73972,0.5833c-2.81853,0.28378 -7.62188,-0.12751 -10.0557,1.7757c-1.49536,1.16934 -1.29755,5.43292 -1.57313,7.04978c-0.45288,2.65718 -1.70056,5.30494 -2.26688,7.96499c-0.87249,4.0982 -1.63381,8.2117 -2.49834,12.30934c-0.13,0.82117 -0.26299,1.64087 -0.39914,2.45892c-0.65562,3.39522 -1.42549,6.70369 -2.01057,10.11846l-0.1612,0.16702l0.09213,0.03685l-0.73289,1.83221c-0.28362,0.75958 -1.01577,1.30047 -1.87426,1.30047c-1.10457,0 -2,-0.89543 -2,-2c0,-0.08458 0.00525,-0.16793 0.01544,-0.24974l0.37188,-3.34696l0.02474,0.00275c-0.00214,-0.04518 -0.00396,-0.0904 -0.00543,-0.13565c-0.06784,-2.07902 1.82173,-6.69837 2.26775,-8.71217c0.16816,-0.75926 0.33161,-1.51928 0.49166,-2.27986z" fill="#000000" stroke="#000000" stroke-width="1"/><path d="M365.6406,88.43362c-0.44602,2.0138 -2.34353,6.65713 -2.27569,8.73615c0.00148,0.04525 0.00313,0.09073 0.00527,0.13591l-0.02475,-0.00272l-0.37651,3.35295c-0.01019,0.08182 -0.01577,0.16553 -0.01577,0.2501c0,1.10457 0.82196,1.93216 1.92653,1.93216c0.85848,0 1.58757,-0.53726 1.87119,-1.29684l0.73051,-1.82883l-0.09211,-0.03689l0.16094,-0.1666c0.58509,-3.41477 1.34752,-6.70152 2.00314,-10.09674c0.13615,-0.81805 0.26891,-1.63205 0.3989,-2.45322c0.86453,-4.09764 1.63148,-8.18888 2.50397,-12.28708c0.56631,-2.66005 1.81883,-5.30025 2.27172,-7.95743c0.27557,-1.61686 0.15298,-5.94608 1.64834,-7.11543c2.43382,-1.9032 7.24111,-1.4874 10.05964,-1.77117c3.81024,0.00326 9.33881,0.93788 12.74319,-0.57818c0.2179,-0.09704 -0.42769,0.25323 -0.54965,0.45822c-0.29726,0.49966 -0.49234,1.05665 -0.67829,1.60752c-0.28853,0.85474 -0.43813,1.75451 -0.74134,2.60415c-1.00186,2.80735 -2.32738,5.37657 -3.64853,8.02374c-3.89868,7.81179 -6.18599,16.76959 -10.59278,24.24596c-2.05201,11.48872 -5.59693,21.65625 -10.81257,32.08754c-1.27934,2.55868 -2.08172,6.11588 -3.63825,8.42397c-1.42871,2.11854 -4.00497,3.37206 -6.11753,4.6396c-7.66802,4.63374 -16.91475,0.77041 -25.03915,-0.20438c-2.42499,-0.29096 -5.16798,-0.02253 -7.5082,-0.9603c-1.53188,-0.61386 -1.98707,-3.7985 -2.49423,-5.01517c-1.8721,-4.49115 -4.13721,-8.09924 -7.57153,-11.53356l-1.12664,-1.12644c0,0 -0.48426,-0.48417 -1.16823,-0.60323c-3.36275,-2.89384 -4.93904,-8.48283 -7.04708,-12.29415c-3.03506,-5.48738 -6.74633,-10.5286 -9.40566,-16.19536c-1.00083,-2.13266 -3.67161,-5.60782 -3.95464,-8.03188c-0.30107,-2.57851 3.03307,-5.33966 4.68092,-6.98251c1.90241,-1.90526 3.45882,-4.02313 5.25374,-6.00907c0.46666,-0.51632 1.33406,-1.63436 1.81809,-1.13429c1.24662,1.2879 1.67315,3.18023 2.71536,4.63849c2.07949,2.90961 5.05077,5.41164 6.58623,8.70104c1.3313,2.85202 0.45456,6.51106 2.33782,9.15407c1.91679,2.69005 3.20193,4.37071 6.46149,1.5118c2.28686,-2.00577 1.33887,-7.03301 2.38332,-9.64414c0.0692,-5.76047 0.88285,-12.29611 0.02657,-17.98103c-1.00948,-6.70199 -2.58684,-13.07551 -2.58993,-19.9414c-0.00094,-2.09601 0.24591,-4.18628 0.37538,-6.27828c0.2033,-3.28511 -1.07247,-6.60208 3.25833,-6.35342c5.09961,0 9.65495,0.41666 14.67875,1.09417c0.57703,0.07782 1.22481,-0.26355 1.74839,-0.00883c1.17885,0.57351 -0.62587,2.64884 -1.0543,3.88781c-0.92972,2.68866 -1.39823,6.2292 -1.59161,9.08819c-0.75358,11.14098 0.13151,22.26372 -1.46116,33.25506c-0.4021,2.81469 -0.96256,5.52917 -1.42858,8.31801c-0.27447,0.82566 -0.91635,1.60172 -0.80241,2.46043c0.01426,0.10747 0.03054,0.21267 0.05024,0.3188l-0.07678,0.00018l-0.00645,2.61641c0,1.10457 0.88518,1.99114 1.98975,1.99114c1.00387,0 1.78434,-0.6535 1.92754,-1.61753l0.36458,-2.22124l-0.01763,-0.003l0.0238,-0.03739c0.10351,-0.83553 0.21567,-1.67709 0.3503,-2.506c0.99349,-3.15803 1.88998,-6.33409 2.30375,-9.62435c1.15565,-9.18958 3.10239,-18.20951 4.28258,-27.39406c0.53089,-4.13155 0.00274,-8.99031 3.03666,-12.32863c0.89743,-0.98748 2.70706,-0.82108 3.75411,-0.93487c3.50415,-0.59471 7.28197,-0.5422 10.83208,-0.35612c0.97989,0.05136 2.50311,-0.40325 2.90492,0.49194c0.54302,1.20978 -0.68865,2.56256 -0.9671,3.85906c-0.69273,3.22542 -0.78437,6.55073 -1.11031,9.82094c-1.08405,10.87643 -2.27293,22.07892 -3.99099,32.91997c-0.16006,0.76058 -0.3235,1.52703 -0.49166,2.28629z" data-paper-data="{&quot;noHover&quot;:false,&quot;origItem&quot;:[&quot;Path&quot;,{&quot;applyMatrix&quot;:true,&quot;segments&quot;:[[[366.08237,86.15055],[-0.16006,0.76058],[1.71806,-10.84106]],[[370.09616,53.26938],[-1.08405,10.87643],[0.32594,-3.27021]],[[371.21029,43.45067],[-0.69273,3.22542],[0.27845,-1.2965]],[[372.17818,39.59202],[0.54302,1.20978],[-0.40182,-0.89519]],[[369.27567,39.10121],[0.97989,0.05136],[-3.55011,-0.18608]],[[358.45313,39.46042],[3.50415,-0.59471],[-1.04704,0.11379]],[[354.70263,40.39593],[0.89743,-0.98748],[-3.03392,3.33832]],[[351.66783,52.72478],[0.53089,-4.13155],[-1.18018,9.18455]],[[347.39553,80.11882],[1.15565,-9.18958],[-0.41377,3.29026]],[[345.12601,89.66271],[0.99349,-3.15803],[-0.13463,0.82891]],[[344.76488,92.15843],[0.10351,-0.83553],[0,0]],[344.74107,92.19581],[344.75858,92.19873],[[344.38889,94.41687],[0,0],[-0.1432,0.96403]],[[342.4107,96.1205],[1.00387,0],[-1.10457,0]],[[340.4107,94.1205],[0,1.10457],[0,0]],[340.4107,91.49484],[[340.48758,91.49484],[0,0],[-0.01969,-0.10613]],[[340.43653,91.17448],[0.01426,0.10747],[-0.11394,-0.8587]],[[341.23462,88.70152],[-0.27447,0.82566],[0.46602,-2.78883]],[[342.68136,80.33428],[-0.4021,2.81469],[1.59268,-10.99133]],[[344.16845,47.06882],[-0.75358,11.14098],[0.19338,-2.859]],[[345.76257,37.98044],[-0.92972,2.68866],[0.42843,-1.23897]],[[346.82053,34.19255],[1.17885,0.57351],[-0.52358,-0.25472]],[[345.07378,34.20132],[0.57703,0.07782],[-5.0238,-0.67752]],[[330.4077,33.10474],[5.09961,0],[-4.3308,-0.24865]],[[327.1539,39.45644],[0.2033,-3.28511],[-0.12947,2.092]],[[326.78129,45.7334],[-0.00094,-2.09601],[0.00308,6.86588]],[[329.38112,65.6681],[-1.00948,-6.70199],[0.85629,5.68492]],[[329.37086,83.62099],[0.0692,-5.76047],[-1.04445,2.61113]],[[326.98662,93.242],[2.28686,-2.00577],[-3.25956,2.85892]],[[320.42762,91.75162],[1.91679,2.69005],[-1.88327,-2.643]],[[318.08978,82.58187],[1.3313,2.85202],[-1.53546,-3.2894]],[[311.506,73.87139],[2.07949,2.90961],[-1.04221,-1.45826]],[[308.79214,69.22924],[1.24662,1.2879],[-0.48404,-0.50007]],[[307.06572,70.40343],[0.46666,-0.51632],[-1.79493,1.98594]],[[301.81441,76.40493],[1.90241,-1.90526],[-1.64786,1.64285]],[[297.13467,83.37983],[-0.30107,-2.57851],[0.28304,2.42405]],[[301.08927,91.40353],[-1.00083,-2.13266],[2.65933,5.66676]],[[310.48914,107.57953],[-3.03506,-5.48738],[2.10804,3.81132]],[[317.52645,119.86095],[-3.36275,-2.89384],[0.68397,0.11906]],[318.69363,120.46322],[[319.81891,121.58851],[0,0],[3.43432,3.43432]],[[327.37924,133.11507],[-1.8721,-4.49115],[0.50716,1.21667]],[[329.86974,138.12873],[-1.53188,-0.61386],[2.34022,0.93777]],[[337.37121,139.08713],[-2.42499,-0.29096],[8.12439,0.97479]],[[362.38696,139.29223],[-7.66802,4.63374],[2.11256,-1.26754]],[[368.49796,134.65493],[-1.42871,2.11854],[1.55653,-2.30809]],[[372.12972,126.23432],[-1.27934,2.55868],[5.21564,-10.43128]],[[382.91947,94.17966],[-2.05201,11.48872],[4.40679,-7.47637]],[[393.5146,69.96126],[-3.89868,7.81179],[1.32114,-2.64717]],[[397.16542,61.94264],[-1.00186,2.80735],[0.30321,-0.84964]],[[397.90758,59.34001],[-0.28853,0.85474],[0.18595,-0.55087]],[[398.58632,57.73328],[-0.29726,0.49966],[0.12196,-0.20499]],[[399.13602,57.27515],[0.2179,-0.09704],[-3.40437,1.51605]],[[386.3963,57.85845],[3.81024,0.00326],[-2.81853,0.28378]],[[376.3406,59.63415],[2.43382,-1.9032],[-1.49536,1.16934]],[[374.76747,66.68392],[0.27557,-1.61686],[-0.45288,2.65718]],[[372.50059,74.64891],[0.56631,-2.66005],[-0.87249,4.0982]],[[370.00225,86.95825],[0.86453,-4.09764],[-0.13,0.82117]],[[369.60311,89.41717],[0.13615,-0.81805],[-0.65562,3.39522]],[[367.59254,99.53563],[0.58509,-3.41477],[0,0]],[367.43134,99.70265],[367.52347,99.7395],[[366.79058,101.57171],[0,0],[-0.28362,0.75958]],[[364.91633,102.87219],[0.85848,0],[-1.10457,0]],[[362.91633,100.87219],[0,1.10457],[0,-0.08458]],[[362.93177,100.62244],[-0.01019,0.08182],[0,0]],[363.30365,97.27548],[[363.32839,97.27823],[0,0],[-0.00214,-0.04518]],[[363.32296,97.14258],[0.00148,0.04525],[-0.06784,-2.07902]],[[365.59071,88.43041],[-0.44602,2.0138],[0.16816,-0.75926]]],&quot;closed&quot;:true}]}" fill="#ffffff" stroke="none" stroke-width="0.5"/></g><g data-paper-data="{&quot;index&quot;:null}"><path d="M164.37258,238.15097c4.6385,-3.94986 11.07424,-3.77971 16.93195,-4.98968c6.23729,-1.28839 12.21498,-3.34734 18.5158,-4.22438c2.83499,-0.39462 7.20363,-2.05375 10.09004,-1.36507c4.18556,0.99864 6.24937,5.12468 8.08875,8.61071c1.40194,2.67101 5.36691,6.75198 5.27797,9.89043c-0.1417,5.00041 -4.39039,4.57864 -7.98163,5.76358c-3.65529,1.20608 -7.15388,3.38325 -11.03847,3.8827c-3.15563,0.40572 -6.87746,-0.39818 -10.0683,-0.56747c-0.51885,-0.02752 0.96589,0.38764 1.42733,0.6265c0.58027,0.30037 1.14403,0.63899 1.75053,0.88206c1.36411,0.5467 2.77152,1.10582 3.9126,2.03189c5.1122,1.49883 10.56772,4.13762 15.81321,4.90253c7.81954,1.14025 15.50256,1.55224 23.03739,4.38395c4.09595,1.53932 11.52234,2.70187 11.88296,8.23285c0.07135,1.09422 -0.57855,2.11538 -0.86783,3.17307c-1.56685,5.04284 -3.08178,9.66961 -5.65404,14.30813c-0.57967,1.0453 -0.7305,2.52218 -1.76463,3.12155c-4.30357,2.49426 -4.99803,-0.07765 -7.93649,-2.14363c-1.07594,-0.75647 -2.04008,-1.24363 -3.05112,-1.70414c3.85842,3.04619 4.93509,5.99603 4.14658,10.75129c-0.52595,3.766 -1.68447,7.73561 -3.09317,11.27297c-0.73525,1.8463 -1.89348,4.55297 -4.2068,5.08031c-1.13389,0.25848 -2.31669,-0.36637 -3.39618,-0.79906c-2.60734,-1.04511 -5.10685,-2.86611 -7.74654,-3.97216c-2.13049,-0.89271 -4.26902,-1.79124 -6.41078,-2.698c0.00246,0.00517 0.0049,0.01034 0.00734,0.01551c1.71969,3.64457 -0.36294,9.14505 -1.09138,12.69794c-1.17061,3.77825 -2.04828,7.91458 -3.58865,11.55833c-0.4817,1.13947 -0.52613,2.80198 -1.6468,3.32593c-3.13268,1.46462 -8.32477,-3.84841 -10.36926,-5.50869c-4.98761,-4.05031 -9.49318,-8.69384 -14.49828,-12.75314c-3.26654,-2.64928 -7.10864,-5.40774 -9.85873,-8.54028c-10.54681,-5.12552 -19.31501,-12.01153 -27.74593,-20.10366c-2.2022,-2.11371 -5.39012,-3.99435 -7.28758,-6.31691c-2.02188,-2.47485 -2.67629,-5.79995 -3.40776,-8.79979c-2.37617,-9.86149 4.0334,-17.84768 7.82709,-26.34957c1.20532,-2.70118 1.90815,-5.95365 4.0411,-8.18419c2.08566,-2.18107 5.29163,-1.74749 7.93895,-1.99544c4.33764,-0.40626 7.91589,-1.33822 11.75421,-3.35676zM184.0516,295.38049c0.67517,0.38588 1.35246,0.76748 2.0313,1.146c9.84306,4.85739 20.1445,9.32693 30.20946,13.58935c3.02624,1.28158 6.17134,2.35874 9.04596,3.97731c1.15549,0.6506 2.08127,2.22881 3.3977,2.06921c0.9741,-0.1181 0.99012,-1.70564 1.32991,-2.62616c1.23107,-3.33502 2.39638,-6.91894 2.86818,-10.44174c0.20201,-1.03366 0.89618,-2.70917 0.21945,-3.85918c-2.28777,-3.88782 -7.0852,-4.82341 -10.87317,-6.55628c-8.42076,-3.85222 -16.45989,-8.37783 -24.89273,-12.20812c-3.01933,-1.37141 -5.71966,-3.11334 -8.44069,-4.99913c-0.75163,-0.37452 -1.50899,-0.73861 -2.27618,-1.08538l-0.02864,-0.03383l-0.00799,0.01586l-2.00855,-1.01119c-0.87813,-0.42279 -1.33782,-1.43594 -1.03996,-2.3946c0.32774,-1.05483 1.44853,-1.64425 2.50336,-1.3165l2.50742,0.77907l-0.02281,0.07343c0.10719,0.01269 0.21422,0.02802 0.32108,0.04629c0.85384,0.14598 1.41774,0.98881 2.12479,1.49591c2.52497,1.27252 4.99253,2.64512 7.56116,3.86428c10.02379,4.78224 20.91049,7.26512 31.32616,11.29046c2.67286,1.03298 5.91437,2.53336 8.2061,4.21898c1.05605,0.77676 2.40592,3.08984 3.30338,2.13424c0.39862,-0.42443 0.26439,-1.14272 0.50992,-1.67069c2.13763,-4.59653 3.8857,-8.8103 5.39883,-13.68025c1.52246,-4.06199 -2.02336,-3.823 -5.1002,-4.9919c-1.95939,-0.74436 -3.88185,-1.59728 -5.88374,-2.2183c-6.5576,-2.03426 -13.10868,-2.40761 -19.80837,-3.43216c-5.68298,-0.86908 -11.66084,-3.56138 -17.14136,-5.33669c-2.18364,-1.77217 -7.24341,-2.35254 -8.4803,-5.13155c-1.763,-3.96105 0.23178,-4.78911 3.36941,-5.82141c3.08277,-1.01423 6.33187,0.91335 9.45047,0.48824c3.59686,-0.49031 6.87612,-2.58026 10.27172,-3.70277c1.70182,-0.56259 3.63853,-0.4059 5.23833,-1.21424c0.62117,-0.31386 -0.25445,-1.39823 -0.60906,-1.99707c-1.36393,-2.30335 -2.9181,-4.4135 -4.17309,-6.79556c-1.07992,-2.06111 -2.72053,-6.06098 -5.27225,-6.53855c-2.39888,-0.44896 -6.50218,1.0728 -8.83576,1.39576c-6.20063,0.85816 -12.0958,2.9067 -18.2366,4.17691c-4.26516,0.88224 -10.05513,0.72365 -13.81642,3.07632c-0.31664,0.61784 -0.92147,0.93592 -0.92147,0.93592l-1.40849,0.74072c-4.29867,2.26065 -8.40637,3.34456 -13.25074,3.79976c-1.31236,0.12332 -4.4861,-0.39003 -5.52684,0.89072c-1.58993,1.95658 -2.14365,4.64983 -3.14103,6.87928c-3.34153,7.46929 -9.76826,15.13074 -7.61841,23.82834c0.58362,2.39352 1.01602,5.21879 2.61525,7.21176c1.7423,2.17128 4.89994,3.98581 6.96379,5.96673c8.41396,8.07587 17.04717,14.44645 27.40965,19.81492c5.83212,6.42668 13.68084,11.26296 19.98404,17.30394c2.13596,2.0471 4.19059,4.07591 6.57425,5.86565c0.72142,0.54167 1.53456,0.95183 2.26521,1.48098c0.47089,0.34102 0.94401,0.69278 1.33298,1.12491c0.15957,0.17729 0.3024,0.89775 0.27439,0.66088c-0.43765,-3.7009 2.08936,-8.7014 3.22303,-12.33908c0.5653,-2.7758 2.38329,-7.24079 1.28795,-10.12973c-0.67299,-1.77498 -4.80325,-2.85114 -6.26553,-3.59406c-2.40314,-1.22092 -4.56145,-3.19804 -6.93368,-4.52812c-3.65476,-2.04919 -7.35712,-3.99676 -11.01371,-6.03819c-0.74562,-0.3678 -1.48895,-0.73802 -2.22975,-1.11076c-3.04779,-1.63351 -5.97883,-3.35039 -9.06622,-4.92233l-0.11167,-0.2035l-0.06254,0.07704l-1.53224,-1.24353c-0.64122,-0.49623 -0.94051,-1.3559 -0.68578,-2.17572c0.32774,-1.05483 1.44853,-1.64425 2.50336,-1.3165c0.08076,0.02509 0.1588,0.05484 0.23391,0.08885l3.08589,1.34823l-0.00997,0.02281c0.04378,0.01136 0.0875,0.02304 0.13116,0.03505c2.00552,0.55209 5.85619,3.72718 7.64695,4.75065z" fill="#000000" stroke="#000000" stroke-width="1"/><path d="M186.07113,296.57501c-0.67884,-0.37852 -1.36227,-0.76202 -2.03745,-1.14789c-1.79077,-1.02347 -5.66198,-4.21326 -7.6675,-4.76535c-0.04365,-0.01201 -0.08756,-0.02393 -0.13134,-0.03529l0.00994,-0.02284l-3.09024,-1.35441c-0.0751,-0.03401 -0.15339,-0.06417 -0.23416,-0.08927c-1.05483,-0.32774 -2.08904,0.21164 -2.41678,1.26647c-0.25472,0.81982 0.04201,1.67549 0.68323,2.17171l1.52972,1.24025l0.06256,-0.07702l0.11134,0.20312c3.08739,1.57194 5.9999,3.27527 9.04769,4.90878c0.7408,0.37275 1.47876,0.74105 2.22438,1.10885c3.65659,2.04143 7.33602,3.98777 10.99078,6.03696c2.37223,1.33008 4.52189,3.30958 6.92503,4.53049c1.46229,0.74292 5.63292,1.91038 6.30591,3.68536c1.09534,2.88893 -0.72814,7.35635 -1.29343,10.13215c-1.13366,3.63769 -3.6666,8.63997 -3.22895,12.34087c0.02802,0.23687 -0.11492,-0.48357 -0.2745,-0.66086c-0.38896,-0.43213 -0.86298,-0.78369 -1.33387,-1.12472c-0.73065,-0.52915 -1.54549,-0.93898 -2.26691,-1.48064c-2.38366,-1.78973 -4.44386,-3.81788 -6.57983,-5.86498c-6.3032,-6.04098 -14.17892,-10.88319 -20.01104,-17.30987c-10.36248,-5.36847 -19.02031,-11.77061 -27.43427,-19.84648c-2.06384,-1.98092 -5.22277,-3.80264 -6.96508,-5.97392c-1.59923,-1.99296 -2.03187,-4.82515 -2.6155,-7.21867c-2.14985,-8.6976 4.28314,-16.38162 7.62465,-23.8509c0.99739,-2.22945 1.55494,-4.92856 3.14486,-6.88514c1.04074,-1.28076 4.21703,-0.77051 5.52938,-0.89383c4.84438,-0.4552 8.96207,-1.54773 13.26074,-3.80838l1.41001,-0.74167c0,0 0.60605,-0.31879 0.9227,-0.93663c3.7613,-2.35267 9.56631,-2.19963 13.83147,-3.08186c6.1408,-1.27021 12.05618,-3.31853 18.25681,-4.17669c2.33358,-0.32297 6.44471,-1.84234 8.84358,-1.39338c2.55172,0.47758 4.19925,4.48084 5.27917,6.54194c1.25499,2.38206 2.81567,4.49678 4.1796,6.80012c0.35459,0.59884 1.16492,1.75892 0.54375,2.07278c-1.59979,0.80834 -3.53346,0.65418 -5.23529,1.21677c-3.3956,1.12251 -6.66657,3.2176 -10.26343,3.7079c-3.1186,0.42511 -6.35272,-1.49784 -9.4355,-0.4836c-3.13764,1.0323 -5.12393,1.76089 -3.36093,5.72193c1.23691,2.77902 6.31902,3.36537 8.50266,5.13755c5.48052,1.77531 11.48041,4.49154 17.16339,5.36061c6.69969,1.02456 13.25424,1.40934 19.81183,3.44361c2.00189,0.62102 3.92478,1.47697 5.88416,2.22133c3.07685,1.16888 6.62297,0.93476 5.10051,4.99675c-1.51313,4.86996 -3.26266,9.09652 -5.40029,13.69305c-0.24553,0.52796 -0.11173,1.24784 -0.51034,1.67227c-0.89746,0.95559 -2.34385,-1.38363 -3.3999,-2.16039c-2.29172,-1.68562 -5.5338,-3.18355 -8.20666,-4.21652c-10.41567,-4.02534 -21.30012,-6.48038 -31.32391,-11.26262c-2.56863,-1.21915 -4.99457,-2.5598 -7.51954,-3.83232c-0.70704,-0.50709 -1.25768,-1.35033 -2.11153,-1.49632c-0.10686,-0.01828 -0.21215,-0.03394 -0.31935,-0.04662l0.0226,-0.07338l-2.49667,-0.78249c-1.05483,-0.32774 -2.16412,0.25453 -2.49186,1.30935c-0.29786,0.95866 0.09463,1.89789 0.97276,2.32068l2.01303,1.00724l0.00809,-0.01595l0.02865,0.03383c0.76719,0.34677 1.53757,0.70357 2.28921,1.07809c2.72104,1.8858 5.48806,3.68428 8.50737,5.05569c8.43284,3.83029 16.46894,8.36571 24.8897,12.21793c3.78798,1.73288 8.58463,2.67016 10.87241,6.55798c0.67673,1.15001 -0.01912,2.82878 -0.22113,3.86244c-0.4718,3.5228 -1.64288,7.11491 -2.87396,10.44995c-0.33979,0.92052 -0.35762,2.51004 -1.33172,2.62813c-1.31642,0.15961 -2.24283,-1.41798 -3.39832,-2.06859c-2.87462,-1.61857 -6.02298,-2.69274 -9.04922,-3.97432c-10.06497,-4.26243 -20.41021,-8.72172 -30.25328,-13.57909z" data-paper-data="{&quot;noHover&quot;:false,&quot;origItem&quot;:[&quot;Path&quot;,{&quot;applyMatrix&quot;:true,&quot;segments&quot;:[[[732.16474,172.3011],[-0.32011,1.52116],[3.43611,-21.68211]],[[740.19232,106.53876],[-2.16809,21.75285],[0.65188,-6.54043]],[[742.42059,86.90135],[-1.38547,6.45084],[0.55691,-2.593]],[[744.35635,79.18404],[1.08604,2.41957],[-0.80363,-1.79038]],[[738.55135,78.20243],[1.95978,0.10272],[-7.10023,-0.37215]],[[716.90626,78.92084],[7.0083,-1.18942],[-2.09409,0.22758]],[[709.40527,80.79186],[1.79487,-1.97495],[-6.06784,6.67664]],[[703.33567,105.44956],[1.06178,-8.26311],[-2.36036,18.36909]],[[694.79105,160.23764],[2.3113,-18.37915],[-0.82754,6.58052]],[[690.25202,179.32541],[1.98699,-6.31607],[-0.26926,1.65782]],[[689.52975,184.31686],[0.20703,-1.67107],[0,0]],[689.48213,184.39163],[689.51716,184.39747],[[688.77779,188.83373],[0,0],[-0.2864,1.92805]],[[684.8214,192.241],[2.00774,0],[-2.20914,0]],[[680.8214,188.241],[0,2.20914],[0,0]],[680.8214,182.98968],[[680.97517,182.98968],[0,0],[-0.03938,-0.21226]],[[680.87305,182.34896],[0.02852,0.21494],[-0.22788,-1.71741]],[[682.46923,177.40304],[-0.54894,1.65133],[0.93204,-5.57767]],[[685.36273,160.66856],[-0.8042,5.62939],[3.18535,-21.98267]],[[688.3369,94.13763],[-1.50716,22.28197],[0.38677,-5.71799]],[[691.52513,75.96087],[-1.85944,5.37733],[0.85685,-2.47794]],[[693.64106,68.38511],[2.35769,1.14702],[-1.04717,-0.50945]],[[690.14757,68.40263],[1.15407,0.15564],[-10.0476,-1.35503]],[[660.8154,66.20949],[10.19923,0],[-8.6616,-0.49731]],[[654.30781,78.91287],[0.40661,-6.57023],[-0.25893,4.18401]],[[653.56259,91.4668],[-0.00188,-4.19201],[0.00617,13.73176]],[[658.76225,131.3362],[-2.01896,-13.40397],[1.71257,11.36984]],[[658.74172,167.24199],[0.13841,-11.52094],[-2.0889,5.22226]],[[653.97325,186.484],[4.57372,-4.01155],[-6.51912,5.71783]],[[640.85525,183.50324],[3.83357,5.38009],[-3.76653,-5.28601]],[[636.17956,165.16374],[2.6626,5.70404],[-3.07092,-6.5788]],[[623.01199,147.74277],[4.15897,5.81923],[-2.08442,-2.91652]],[[617.58429,138.45848],[2.49323,2.57579],[-0.96808,-1.00013]],[[614.13145,140.80686],[0.93332,-1.03264],[-3.58985,3.97188]],[[603.62882,152.80986],[3.80482,-3.81052],[-3.29572,3.2857]],[[594.26934,166.75966],[-0.60214,-5.15702],[0.56607,4.84811]],[[602.17854,182.80707],[-2.00165,-4.26532],[5.31865,11.33352]],[[620.97828,215.15905],[-6.07013,-10.97475],[4.21607,7.62263]],[[635.0529,239.72191],[-6.7255,-5.78768],[1.36794,0.23812]],[637.38726,240.92645],[[639.63782,243.17701],[0,0],[6.86864,6.86864]],[[654.75848,266.23014],[-3.7442,-8.98229],[1.01432,2.43333]],[[659.73948,276.25746],[-3.06376,-1.22771],[4.68044,1.87555]],[[674.74242,278.17426],[-4.84998,-0.58192],[16.24879,1.94958]],[[724.77392,278.58447],[-15.33603,9.26748],[4.22512,-2.53507]],[[736.99591,269.30985],[-2.85741,4.23709],[3.11306,-4.61617]],[[744.25945,252.46865],[-2.55868,5.11736],[10.43128,-20.86256]],[[765.83894,188.35933],[-4.10401,22.97743],[8.81358,-14.95274]],[[787.02919,139.92251],[-7.79736,15.62358],[2.64228,-5.29435]],[[794.33083,123.88528],[-2.00373,5.61471],[0.60643,-1.69929]],[[795.81515,118.68002],[-0.57705,1.70949],[0.3719,-1.10173]],[[797.17264,115.46656],[-0.59453,0.99933],[0.24391,-0.40998]],[[798.27204,114.55029],[0.43579,-0.19407],[-6.80875,3.03211]],[[772.7926,115.7169],[7.62047,0.00652],[-5.63706,0.56756]],[[752.6812,119.26829],[4.86765,-3.80641],[-2.99072,2.33869]],[[749.53494,133.36785],[0.55115,-3.23372],[-0.90577,5.31436]],[[745.00119,149.29783],[1.13263,-5.3201],[-1.74498,8.19639]],[[740.0045,173.9165],[1.72906,-8.19528],[-0.25999,1.64234]],[[739.20623,178.83434],[0.27231,-1.63609],[-1.31123,6.79044]],[[735.18508,199.07126],[1.17017,-6.82954],[0,0]],[734.86267,199.40529],[735.04693,199.479],[[733.58116,203.14343],[0,0],[-0.56724,1.51916]],[[729.83265,205.74437],[1.71697,0],[-2.20914,0]],[[725.83265,201.74437],[0,2.20914],[0,-0.16915]],[[725.86354,201.24489],[-0.02038,0.16363],[0,0]],[726.60731,194.55096],[[726.65678,194.55646],[0,0],[-0.00428,-0.09036]],[[726.64591,194.28516],[0.00295,0.09051],[-0.13568,-4.15804]],[[731.18141,176.86082],[-0.89205,4.0276],[0.33633,-1.51852]]],&quot;closed&quot;:true}]}" fill="#ffffff" stroke="none" stroke-width="0.5"/></g></g></g></svg>