<svg version="1.1" xmlns="http://www.w3.org/2000/svg" xmlns:xlink="http://www.w3.org/1999/xlink" width="739.22059" height="530.1864" viewBox="0,0,739.22059,530.1864"><g transform="translate(57.61029,77.53736)"><g data-paper-data="{&quot;isPaintingLayer&quot;:true}" fill-rule="nonzero" stroke="none" stroke-linecap="butt" stroke-linejoin="miter" stroke-miterlimit="10" stroke-dasharray="" stroke-dashoffset="0" style="mix-blend-mode: normal"><path d="M648.56441,-77.53736v323.4235h-692v-323.4235z" data-paper-data="{&quot;index&quot;:null}" fill="#00eaff" stroke-width="NaN"/><path d="M675.08586,148.93477l-1.0281,0.64307c2.59472,1.16124 4.96926,2.50064 6.78951,4.30423c0,0 1.21092,1.22961 -0.60545,2.04936c-1.81637,0.81975 -3.02726,-0.40987 -3.02726,-0.40987c-1.09363,-1.14687 -2.52411,-2.08646 -4.13409,-2.90796c-0.22561,3.03797 0.49889,6.09882 -0.12775,9.13696c-0.13336,0.6465 -0.75084,1.21455 -0.91478,1.85782c-0.91085,3.57408 0.66605,7.48312 0.01184,11.09079c-0.30573,1.68595 -0.92294,3.35747 -0.93866,5.05605c-1.44688,2.44236 -0.97367,4.92104 -1.8537,7.50511c-1.86163,5.46642 -4.55148,11.10248 -5.44636,16.72261c-0.16012,1.00565 0.21017,2.03656 -0.03488,3.03435c-0.22827,0.92946 -2.4178,4.65425 -2.75545,5.69322c-2.41722,7.43798 -2.67629,14.92057 -2.67629,22.49702c0,7.3581 1.16654,15.16433 -0.0147,22.46514c-1.82515,11.28047 -3.6444,22.90964 -3.6444,34.31109c0,4.19039 1.81264,10.71528 -1.19813,14.54921c-2.53885,3.23297 -10.79811,3.39435 -15.35461,3.83499c-13.17327,1.27396 -26.08954,3.34324 -39.4815,4.34373c-8.04457,-0.02017 -15.8644,1.94846 -23.86106,2.47275c-19.6336,1.28725 -39.77242,0.62588 -59.50455,0.62588c-12.175,0 -24.57272,0.46126 -36.72681,-0.00285c-14.74967,-0.56322 -29.46634,-2.82379 -44.06031,-4.34486c-10.08937,-0.75804 -19.57488,-2.22467 -29.44988,-3.73656c-6.49474,-0.99436 -13.067,-1.34362 -19.61953,-2.03827c-12.93325,-1.37108 -25.67337,-3.58647 -38.59526,-5.0482c-15.77184,-1.78411 -31.19376,-4.93194 -46.99212,-6.59681c-4.37627,-0.46118 -8.69765,-0.62434 -13.05686,-1.21395c-9.30804,-1.25896 -18.27929,-2.99875 -27.71817,-3.79748c-15.5476,-1.31565 -30.66491,-3.50957 -46.0491,-5.44721c-13.7828,-1.73594 -27.73187,-2.90001 -41.54091,-4.58887c-18.18474,-2.22401 -36.4313,-2.98636 -54.79232,-4.17581c-11.59272,-0.75099 -23.15839,-1.87588 -34.7285,-2.78002c-29.13961,-2.27746 -58.10314,-2.05545 -87.38738,-2.05545c-6.33338,0 -12.66938,0.03625 -19.00246,0c-3.00493,-0.0172 -6.11817,0.23743 -8.26042,-1.93944c-2.26565,-2.30225 0.22555,-3.43531 0.64479,-5.36527c0.41303,-1.90133 0.60775,-3.82164 0.8677,-5.73535c1.21103,-8.91532 0.33244,-18.59018 -0.60714,-27.49505c-1.14818,-10.9299 -1.99807,-21.78243 -3.95937,-32.59803c-1.22342,-6.74663 -0.04721,-14.15301 0.01516,-20.96473c0.04211,-3.40197 0.3432,-7.32402 1.8851,-10.59275c0.40148,-0.85113 0.51628,-1.86996 1.46711,-2.48961c4.70312,-3.06499 14.17202,-0.37232 19.27409,0.20551c6.12829,0.69406 13.42153,-0.20788 19.47268,-0.62408c4.42703,-0.30449 8.27565,-1.86005 12.86143,-1.86252c3.38199,-0.53035 7.21096,-1.41539 10.35328,-2.36356c2.62681,-0.79263 4.68734,-2.30625 7.3162,-3.09578c1.23309,-0.37033 2.68368,-0.34697 3.88988,-0.75588c3.23399,-1.09635 5.58209,-3.3333 8.515,-4.66237c2.00569,-0.9089 4.39795,-1.4117 6.29587,-2.42109c2.70109,-1.43653 3.40194,-2.87028 6.5266,-4.39846c3.81825,-1.86739 9.07883,-2.83898 12.62304,-4.85568c0.8795,-0.50045 1.0465,-1.44323 1.9492,-1.92437c1.7194,-0.91645 4.0338,-1.18917 5.85464,-2.01093c3.2455,-0.74353 6.3614,-2.58625 9.47429,-3.18324c3.76796,-0.72262 9.51328,-0.06341 13.43951,-0.06341c6.01766,0 11.86571,0.05047 17.73048,0.63835c4.23947,0.42496 8.53301,2.06029 12.37784,3.18979c4.32461,1.27043 8.75101,1.72373 13.04487,3.17486c6.10674,2.65468 14.09077,3.58243 20.25351,6.24585c1.05007,0.45382 1.53878,1.38446 2.61818,1.80557c2.17682,0.84923 4.75157,1.11401 7.06635,1.77524c5.73037,1.63691 12.44792,1.72623 18.25103,3.08447c0.992,0.23218 1.60466,0.97474 2.59782,1.20463c2.07722,0.48082 4.4077,0.23212 6.51656,0.64498c2.70753,0.53006 5.24846,1.49152 8.03303,1.78651c2.36856,0.25092 4.79496,-0.01112 7.19215,0.00976c6.01689,1.65947 15.90675,0.80023 22.44336,0.30787c3.44269,-0.25932 7.5794,-0.12328 10.97011,-0.6082c8.13928,-1.16406 16.07375,-2.80651 24.04111,-4.60975c5.0055,-1.13288 9.40601,-1.63667 14.0905,-3.40452c8.71722,-3.26863 18.54214,-5.30155 28.05291,-7.13634c4.08948,-0.78893 7.93507,-2.55009 12.10168,-3.13003c1.23776,-0.17228 2.53651,0.08953 3.79091,-0.01376c3.75276,-0.30902 6.32326,-1.76856 9.82775,-2.44863c1.85806,-0.36057 3.79716,-0.49673 5.67412,-0.80922c5.66866,-0.94375 11.98267,-0.4697 17.76819,-0.46808c5.58322,0.2491 11.43051,0.6386 16.86048,1.27179c4.15619,0.48466 8.45539,2.05102 12.69084,2.46215c1.30089,0.12627 2.67872,-0.20077 3.94204,0.04433c1.14038,0.22124 1.90468,0.98484 2.99487,1.30147c5.78416,1.67995 11.82023,2.36423 17.45677,4.35886c1.45703,0.5156 3.26167,0.28902 4.87925,0.48809c3.04848,0.37516 3.63389,0.87689 6.09809,1.98901c2.64115,0.58129 5.75672,1.0164 8.23302,1.85782c0.88074,0.29927 1.48442,0.93774 2.41783,1.15169c0.75134,0.17221 1.59314,-0.128 2.37847,-0.05233c2.22515,0.21438 4.26031,1.03668 6.4864,1.24656c3.65116,0.34423 7.30485,0.28689 10.96484,0.61792c5.88285,0.53207 11.76513,1.52954 17.45647,2.48604c1.70941,0.28728 3.52246,-0.02667 5.28376,-0.02667c4.80952,0 9.61903,0 14.42855,0c4.15775,0.0001 8.39209,-0.15372 12.45723,-0.60019c4.69012,-0.51512 9.02145,-2.56105 13.72169,-3.09638c0.80939,-0.09219 1.68322,0.22095 2.46142,0.04433c2.82675,-0.64154 6.11828,-2.22803 8.94499,-3.04729c1.86452,-0.54039 3.57525,-1.30542 5.44093,-1.84398c1.81082,-0.52273 4.44467,0.0697 5.74298,-0.93204c0.63595,-0.49068 0.21938,-1.40561 0.91478,-1.85783c0.86192,-0.56051 2.26873,-0.52822 3.32884,-0.90184c1.75074,-0.61702 3.41872,-1.38336 5.30012,-1.78739c2.7885,-1.7534 4.40394,-0.83617 7.50679,-1.92827c1.24429,-0.43795 4.69555,-2.34534 5.81518,-2.56395c4.26696,-0.83315 10.78697,-0.06341 15.26905,-0.06341c13.0503,0 25.43717,-0.23138 38.11629,1.91676c6.96822,1.57242 14.40068,1.76726 21.26498,3.7692c2.74255,0.79985 6.07585,3.10551 8.89512,3.65678c1.25303,0.24501 2.68067,-0.23263 3.91179,0.05887c0.9679,0.22919 1.41433,1.02309 2.27057,1.40501c2.08707,0.9309 4.3025,1.74534 6.477,2.58826l1.68033,-1.19582c0,0 1.54361,-1.04497 3.08721,0c1.54361,1.04497 0,2.08995 0,2.08995z" data-paper-data="{&quot;index&quot;:null}" fill="#41d800" stroke-width="0.5"/><path d="M-51.26747,201.74428c1.59023,-1.53175 3.18048,0 3.18048,0l1.73108,1.75288c2.24019,-1.23559 4.52255,-2.42941 6.67265,-3.79395c0.88211,-0.55982 1.34203,-1.72355 2.33917,-2.0595c1.26831,-0.42729 2.73908,0.27286 4.02997,-0.08629c2.90443,-0.80807 6.33842,-4.18776 9.16382,-5.3602c7.07165,-2.93448 14.72864,-3.22011 21.90734,-5.52499c13.06213,-3.1488 25.82319,-2.80963 39.2677,-2.80963c4.6175,0 11.33446,-1.1283 15.73031,0.09295c1.15345,0.32045 4.70896,3.11635 5.99084,3.75831c3.19659,1.60083 4.86082,0.25633 7.73356,2.82651c1.93823,0.59222 3.65659,1.71555 5.46022,2.61998c1.09214,0.54766 2.54144,0.50033 3.4294,1.32195c0.7164,0.66287 0.28726,2.004 0.94242,2.72324c1.33753,1.46839 4.05096,0.59998 5.91646,1.3662c1.92205,0.78944 3.68443,1.91083 5.60528,2.70296c2.91211,1.20089 6.30306,3.52642 9.2152,4.4668c0.8017,0.25889 1.70193,-0.20011 2.53578,-0.06499c4.84222,0.7847 9.30439,3.78368 14.13619,4.53875c4.18795,0.65446 8.55018,0.87993 12.83354,0.87977c4.9548,0 9.90961,0 14.86442,0c1.81451,0 3.68232,0.4602 5.44337,0.03909c5.86327,-1.40206 11.92322,-2.86416 17.98378,-3.64409c3.77055,-0.48523 7.53461,-0.40118 11.29606,-0.90576c2.29334,-0.30765 4.38998,-1.51299 6.68234,-1.82724c0.80905,-0.11091 1.67627,0.32915 2.45032,0.07671c0.96161,-0.31361 1.58352,-1.2495 2.49086,-1.68818c2.55109,-1.23338 5.76078,-1.87118 8.48171,-2.72324c2.53865,-1.63018 3.14173,-2.36562 6.2823,-2.91556c1.66644,-0.2918 3.52562,0.04034 5.02665,-0.71545c5.80681,-2.92377 12.02521,-3.92682 17.9841,-6.38933c1.12311,-0.46413 1.91053,-1.58343 3.08535,-1.90773c1.30149,-0.35926 2.72093,0.12012 4.06112,-0.06497c4.36339,-0.60265 8.79245,-2.89867 13.0742,-3.60909c5.594,-0.92814 11.61792,-1.49908 17.36979,-1.86422c5.96028,-0.00238 12.46503,-0.69725 18.30492,0.68612c1.93366,0.45805 3.93135,0.65764 5.84553,1.18617c3.61034,0.99687 6.2585,3.1363 10.12462,3.58927c1.2923,0.15141 2.63027,-0.23235 3.90543,0.02018c4.29248,0.8501 8.25424,3.43164 12.46724,4.58807c9.79805,2.68948 19.91977,5.66938 28.90032,10.46063c4.82598,2.59137 9.35944,3.32984 14.51614,4.99045c8.20804,2.64323 16.38218,5.05078 24.76733,6.75708c3.49313,0.71082 7.7548,0.5114 11.3015,0.89152c6.73407,0.72172 16.9227,1.9812 23.12133,-0.45129c2.46959,-0.03061 4.96929,0.3535 7.40939,-0.01431c2.8687,-0.4324 5.48638,-1.84174 8.27568,-2.61872c2.17258,-0.60518 4.57346,-0.24062 6.71343,-0.94542c1.02315,-0.33698 1.65433,-1.42546 2.67629,-1.76578c5.9784,-1.99094 12.89887,-2.12187 18.80235,-4.52129c2.3847,-0.96924 5.03724,-1.35735 7.2798,-2.60218c1.112,-0.61726 1.61547,-1.98142 2.69726,-2.64665c6.34891,-3.90412 14.57411,-5.26403 20.86532,-9.15533c4.42357,-2.1271 8.98369,-2.79155 13.43893,-4.65378c3.96096,-1.65563 8.38422,-4.05275 12.75175,-4.67566c6.04194,-0.86173 12.06664,-0.93572 18.26608,-0.93572c4.04483,0 9.96369,-0.96629 13.84548,0.09295c3.20692,0.87508 6.41696,3.57618 9.7605,4.66606c1.87585,1.20457 4.26016,1.60434 6.03149,2.94769c0.92996,0.70527 1.10202,2.08722 2.00808,2.82079c3.65127,2.95614 9.07077,4.38033 13.00435,7.11758c3.21905,2.24004 3.94108,4.34167 6.72376,6.44738c1.95527,1.47959 4.41978,2.21661 6.48607,3.5489c3.02149,1.94818 5.44053,5.22718 8.77221,6.83423c1.24264,0.59939 2.73705,0.56514 4.00738,1.10798c2.70826,1.15729 4.83104,3.37601 7.53721,4.53787c3.23723,1.38986 7.18186,2.68717 10.66602,3.46457c4.7243,0.00361 8.68918,2.2838 13.24993,2.73013c6.23394,0.61007 13.74751,1.93215 20.06091,0.91478c5.25619,-0.847 15.01113,-4.79399 19.85631,-0.30124c0.97956,0.9083 1.09782,2.40173 1.51143,3.64933c1.58848,4.7914 1.89867,10.54042 1.94206,15.52711c0.06427,9.9848 1.27601,20.84124 0.01561,30.73063c-2.02054,15.85378 -2.89612,31.76168 -4.07898,47.78301c-0.96796,13.05298 -1.8731,27.23463 -0.62547,40.30292c0.2678,2.80515 0.46842,5.61999 0.89392,8.407c0.43191,2.82898 2.99835,4.48985 0.66426,7.86455c-2.20697,3.19089 -5.41426,2.81764 -8.50996,2.84287c-6.52438,0.05314 -13.05176,0 -19.57647,0c-30.16886,0 -60.00732,-0.32543 -90.02718,3.01292c-11.91961,1.3253 -23.83467,2.9742 -35.77757,4.07503c-18.91567,1.74352 -37.71342,2.861 -56.44747,6.12101c-14.2262,2.47557 -28.59663,4.18189 -42.79578,6.72648c-15.8489,2.84023 -31.42287,6.05614 -47.44012,7.98465c-9.72403,1.1708 -18.96628,3.72102 -28.55549,5.56644c-4.4909,0.86426 -8.94282,1.10342 -13.45129,1.77943c-16.27558,2.4404 -32.16337,7.05457 -48.41165,9.66976c-13.31223,2.14264 -26.4372,5.39001 -39.76114,7.39977c-6.75047,1.01823 -13.52126,1.5302 -20.21219,2.98776c-10.17331,2.21616 -19.94535,4.36597 -30.3395,5.47714c-15.03483,2.22962 -30.19605,5.5432 -45.39129,6.36879c-12.52124,0.6803 -25.29347,0.00418 -37.83624,0.00418c-20.32819,0 -41.07537,0.96944 -61.30206,-0.91744c-8.23822,-0.76852 -16.29427,-3.65419 -24.58185,-3.62461c-13.79648,-1.46654 -27.10295,-4.49975 -40.67416,-6.36716c-4.69415,-0.6459 -13.20289,-0.88247 -15.81843,-5.62143c-3.10174,-5.61986 -1.23433,-15.18421 -1.23433,-21.32659c0,-16.71253 -1.8742,-33.75885 -3.75449,-50.29405c-1.21693,-10.70172 -0.01515,-22.14428 -0.01515,-32.92997c0,-11.10574 -0.2669,-22.07392 -2.75715,-32.97669c-0.34784,-1.52294 -2.60353,-6.98282 -2.83869,-8.34526c-0.25245,-1.46258 0.12904,-2.97371 -0.03592,-4.44783c-0.92191,-8.23813 -3.69301,-16.49961 -5.61088,-24.51242c-0.90661,-3.78779 -0.41913,-7.42109 -1.9097,-11.00118c-0.01621,-2.48981 -0.65204,-4.93998 -0.96701,-7.41129c-0.67397,-5.28821 0.95054,-11.01819 0.01218,-16.25715c-0.16889,-0.94292 -0.80503,-1.77559 -0.94241,-2.72324c-0.64559,-4.45337 0.10082,-8.94004 -0.13162,-13.39318c-1.65861,1.20417 -3.1323,2.58144 -4.25896,4.26256c0,0 -1.24749,1.8024 -3.11873,0.60081c-1.87123,-1.20159 -0.62374,-3.004 -0.62374,-3.004c1.87524,-2.64374 4.32151,-4.60709 6.99461,-6.30925l-1.05915,-0.94264c0,0 -1.59023,-1.53175 0,-3.06349z" fill="#4eff00" stroke-width="0.5"/></g></g></svg>