<svg version="1.1" xmlns="http://www.w3.org/2000/svg" xmlns:xlink="http://www.w3.org/1999/xlink" width="102.35344" height="237.35382" viewBox="0,0,102.35344,237.35382"><g transform="translate(-186.3342,-97.08228)"><g data-paper-data="{&quot;isPaintingLayer&quot;:true}" fill-rule="nonzero" stroke-linecap="butt" stroke-linejoin="miter" stroke-miterlimit="10" stroke-dasharray="" stroke-dashoffset="0" style="mix-blend-mode: normal"><g stroke="#000000" stroke-width="2"><path d="M238.16152,220.15212c9.00671,0 18.04414,-0.83596 27.01883,0.00618c2.558,0.24003 4.90689,1.37176 7.35929,1.99374c2.22352,1.09837 5.5162,2.24288 7.02112,4.33094c1.37978,1.91444 1.52499,5.04611 1.80344,7.27115c0.60002,4.79482 0.93657,9.64127 1.37497,14.47723c0.23455,2.58734 -0.10925,5.12387 0.85275,7.52887c0.05757,4.61825 0.83974,9.02554 1.29739,13.56191c0.29848,2.95863 0.02181,5.9768 0.31682,8.93448c0.30678,3.07562 1.63439,5.91309 2.22773,8.87947c0.22997,1.14975 0.12156,2.3471 0.31646,3.50332c1.24399,4.96539 0.91112,10.37656 -1.38821,14.91434c-1.26297,2.49251 -2.50922,3.21845 -5.29892,2.94373c-0.83832,-0.08256 -1.86983,0.18724 -2.49955,-0.37227c-0.43911,-0.39015 -0.37519,-2.72251 -0.37227,-3.46003c0.00933,-2.35756 -1.20598,-4.57275 -1.59648,-6.93872c-0.01689,-5.40455 0.19924,-10.94106 -0.63237,-16.25679c-0.38448,-2.45766 -0.49912,-2.99756 -2.59512,-2.46502c-0.42647,0.10835 -0.84287,0.27576 -1.28064,0.32016c-0.19947,0.02024 -0.45599,-0.28238 -0.5871,-0.13071c-0.12349,0.14286 0.24095,0.31174 0.2692,0.49846c0.12773,0.84416 0,1.70753 0,2.5613c0,9.75683 -1.25453,19.72369 0.63413,29.32964c0.02668,6.06291 -0.12204,11.58547 -3.38526,16.80154c-1.24605,1.99176 -2.79967,4.39646 -5.27143,5.05106c-4.59714,1.21748 -10.20798,-0.93267 -14.82454,-0.93267c-1.67419,-0.33484 -2.98731,-0.16055 -4.67719,-0.31398c-0.73397,-0.06664 -1.65826,0.14886 -2.17938,-0.37227c-0.07863,-0.07864 -0.14113,-0.21536 -0.19073,-0.39127c-1.73368,0.11406 -3.97817,-0.19695 -5.01289,-0.19695c-4.54982,0 -9.16754,-0.13042 -13.68291,-0.6712c-3.89918,-0.46698 -7.86695,-1.91682 -11.74589,-1.89961c-1.91086,-0.47771 -5.47135,0.40573 -6.9107,-1.096c-1.02685,-1.07136 -0.1164,-4.8197 0.0416,-6.08369c0.79843,-6.38744 0.6308,-12.88702 0.6308,-19.37457c0,-5.4318 -0.62607,-11.45222 0.33225,-16.82328c0.40713,-2.28184 1.35216,-5.22707 0.97133,-7.58882c-0.28748,-1.78282 -4.70818,-2.86143 -5.55019,-1.43924c0.31663,4.26575 -0.08913,8.64981 0.37587,12.88958c0.20622,1.88036 0.90198,3.46487 0.64032,5.43318c-0.2709,2.03787 -1.61651,3.54226 -2.31056,5.40827c-0.82738,2.2245 -1.92137,4.18331 -2.99233,6.31031c-0.63142,0.84377 -1.76229,2.51708 -2.69609,2.99911c-2.87677,1.485 -5.83549,-2.37959 -6.63086,-4.85564c-0.66797,-2.07944 -0.00495,-3.95156 0.26089,-6.01053c0.25669,-1.98816 0.09332,-4.0845 0.32016,-6.08307c0.15858,-1.39713 0.78702,-2.76847 0.96048,-4.1621c0.21719,-1.74492 0.17999,-3.65192 0.31461,-5.40727c0.05417,-7.47191 1.25205,-14.82744 2.23746,-22.21977c1.18738,-8.90747 2.2038,-18.2395 5.60545,-26.62754c6.13648,-8.28869 16.03054,-9.51561 25.13069,-12.5615c0.03778,-1.21345 1.27012,-1.21345 1.27012,-1.21345c0.23087,0 0.51491,0 0.80877,0c0.00154,0.03959 0.00759,0.08223 0.01906,0.12813c0.12127,0.48507 0.60634,0.3638 0.60634,0.3638c3.09932,-0.79626 6.88288,-0.29438 10.08597,-0.29438h0.46397c0,0 0.26922,0 0.41256,-0.19755c0.77692,0 1.55385,0 2.33077,0zM225.86699,222.69413c-9.23822,3.50831 -20.29026,4.17489 -26.61768,12.47833c-3.19064,8.12323 -4.15646,17.126 -5.30175,25.71802c-0.9753,7.31676 -2.16184,14.59491 -2.2174,21.99014c-0.13835,1.8182 -0.10435,3.80138 -0.33143,5.61161c-0.17484,1.39374 -0.80938,2.76833 -0.96048,4.1621c-0.21712,2.00266 -0.07773,4.08546 -0.32016,6.08307c-0.14517,1.19626 -0.60055,2.52197 -0.63116,3.71688c-0.03757,1.46663 1.71846,4.10715 2.91057,4.82795c0.36071,0.21811 1.96199,-2.13953 2.10133,-2.32477c1.20237,-2.42334 2.27403,-4.86458 3.46613,-7.26392c0.53331,-1.0734 1.33713,-2.20674 1.47615,-3.42882c0.19972,-1.75559 -0.45069,-3.12286 -0.64033,-4.812c-0.2273,-2.0246 0.15169,-4.11827 -0.00633,-6.14827c-0.2073,-2.66326 -0.36213,-5.17295 -0.25813,-7.85575c0.53262,-0.67184 0.87038,-1.56184 1.59786,-2.01554c0.52436,-0.32702 1.23165,-0.10771 1.84905,-0.13419c3.04181,-0.13041 6.16037,0.54454 7.01099,3.9121c0.62588,2.47785 -0.51015,6.02267 -0.94964,8.41927c-0.96027,5.23652 -0.30808,11.17519 -0.30808,16.47354c0,5.66892 0.34999,11.52338 -0.32968,17.12387c-0.20197,1.66417 -0.63749,3.27686 -0.6308,4.96729c0.00169,0.42688 0.06913,0.8594 0,1.28065c-0.02998,0.18269 -0.43702,0.36487 -0.28808,0.47484c0.20272,0.14968 0.49154,-0.12448 0.74312,-0.13885c1.55988,-0.08911 3.0059,-0.05311 4.51232,0.32349c3.88049,0.01621 7.7951,1.42667 11.69491,1.89387c5.08483,0.60915 10.24339,0.65791 15.36355,0.65791c0.96887,0 1.9215,0.3152 2.88635,0.36678c0.00025,-0.14297 0.00131,-0.27634 0.00238,-0.39531c-0.10307,-0.83446 0.00108,-1.68214 0.00237,-2.52313c0.0042,-2.73893 -1.08203,-5.00475 -1.94738,-7.58198c-0.12539,-0.32932 -1.64614,-4.10948 -1.45812,-4.49423c1.16655,-2.38709 6.25261,-1.0349 7.13141,0.68503c0.12477,0.2442 0.09779,3.03662 0.09675,3.36785c-0.00813,2.5921 -0.71209,5.25994 -0.97001,7.83918c-0.10423,1.04234 -0.0839,2.65842 -0.30755,3.67275c0.00005,0.00827 0.00008,0.01653 0.0001,0.02479c0.00214,-0.00048 0.00429,-0.0009 0.00645,-0.00125c0.63212,-0.10219 1.28065,-0.00119 1.92097,0c1.00812,0.00187 2.01816,0.12864 3.0067,0.32634c4.42705,0 9.56608,1.95238 13.99002,0.9883c1.71018,-0.37269 2.86598,-2.58865 3.6931,-3.91347c2.9576,-4.73722 2.98843,-9.69579 3.01798,-15.21464c-1.97031,-9.6534 -0.64651,-19.76759 -0.64651,-29.58013c0,-1.02523 -0.34335,-3.85036 0.2692,-4.62413c0.74759,-0.94437 5.72646,-1.96176 6.75063,-1.28432c0.74054,0.48984 1.12387,1.39679 1.50025,2.20095c1.23208,2.63244 0.69892,5.58911 1.05598,8.35463c0.45205,3.50128 0.33846,7.05949 0.32536,10.61581c0.33664,1.99705 1.33519,3.75345 1.59561,5.71245c0.11933,0.89764 0.20739,1.83294 0.00953,2.71659c-0.03885,0.17348 -0.54997,0.37671 -0.37227,0.38191c0.41955,0.01226 2.34895,-0.12248 2.77697,-0.27552c0.59366,-0.21227 0.67191,-1.06966 0.95038,-1.63529c0.79232,-1.60937 0.876,-2.06685 1.15875,-3.76998c0.56138,-3.38153 0.86463,-6.08172 0.01434,-9.48991c-0.19297,-1.16919 -0.09148,-2.37824 -0.32385,-3.54024c-0.60252,-3.01301 -1.94098,-5.92077 -2.25455,-9.04959c-0.29863,-2.9798 -0.02874,-6.01557 -0.3235,-8.99458c-0.44099,-4.45691 -1.34039,-8.78867 -1.2639,-13.33168c-0.99346,-2.48365 -0.64575,-5.12038 -0.88818,-7.77945c-0.43847,-4.80932 -0.77098,-9.6286 -1.36636,-14.39678c-0.23286,-1.86488 -0.27344,-4.57661 -1.39818,-6.17564c-1.10028,-1.56426 -4.1323,-2.51425 -5.78535,-3.35294c-2.23889,-0.55096 -4.39386,-1.64356 -6.72783,-1.8482c-8.90115,-0.78044 -17.83748,0.00618 -26.76835,0.00618c-4.09817,0 -8.19636,0 -12.29453,0zM242.97119,320.19371c0.23451,-1.51798 0.33908,-3.0213 0.09915,-4.47678c-0.06529,-0.39607 -1.03754,-0.27106 -1.67634,-0.20434c0.33098,0.58478 0.52258,1.60213 0.7445,2.18304c0.29,0.86352 0.57265,1.6895 0.8327,2.49808z" fill="#000000"/><path d="M238.16201,222.64414c8.93087,0 17.88923,-0.78127 26.79039,-0.00083c2.33398,0.20464 4.4937,1.29998 6.73259,1.85094c1.65305,0.83869 4.68936,1.79181 5.78964,3.35607c1.12474,1.59903 1.16846,4.31354 1.40132,6.17843c0.59537,4.76818 0.93481,9.59575 1.37328,14.40507c0.24243,2.65906 -0.1017,5.30212 0.89176,7.78577c-0.07649,4.54301 0.82706,8.88818 1.26806,13.34509c0.29476,2.97901 0.02547,6.02472 0.3241,9.00452c0.31356,3.12882 1.6508,6.04576 2.25332,9.05877c0.23237,1.162 0.13001,2.37433 0.32298,3.54352c0.85028,3.40819 0.54387,6.11633 -0.01751,9.49787c-0.28274,1.70313 -0.36816,2.16376 -1.16047,3.77314c-0.27847,0.56563 -0.35764,1.42451 -0.9513,1.63678c-0.42803,0.15304 -2.35836,0.28917 -2.7779,0.27691c-0.1777,-0.0052 0.25089,-0.26489 0.28973,-0.43837c0.19786,-0.88365 0.1086,-1.81708 -0.01073,-2.71472c-0.26042,-1.959 -1.26108,-3.71159 -1.59773,-5.70864c0.0131,-3.55632 0.12287,-7.10411 -0.32918,-10.60539c-0.35706,-2.76552 0.1747,-5.71245 -1.05738,-8.3449c-0.37637,-0.80416 -0.75976,-1.70835 -1.50029,-2.19819c-1.02417,-0.67744 -5.90305,0.34071 -6.65065,1.28507c-0.61255,0.77378 -0.26991,3.60611 -0.26991,4.63134c0,9.81253 -1.33922,19.95501 0.63109,29.6084c-0.02954,5.51885 -0.0691,10.48384 -3.0267,15.22107c-0.82712,1.32481 -1.98674,3.54278 -3.69692,3.91547c-4.42394,0.96407 -9.57369,-0.98467 -14.00073,-0.98467c-0.98854,-0.19771 -2.00122,-0.32397 -3.00933,-0.32585c-0.64032,-0.00119 -1.29061,-0.10193 -1.92273,0.00025c-0.00216,0.00035 -0.00433,0.00077 -0.00646,0.00125c-0.00002,-0.00825 -0.01244,-0.11575 -0.01249,-0.12401c0.22365,-1.01434 0.20256,-2.63031 0.30679,-3.67265c0.25793,-2.57924 0.95947,-5.24668 0.9676,-7.83878c0.00104,-0.33123 0.04743,-3.02555 -0.07735,-3.26975c-0.8788,-1.71993 -5.97403,-3.0711 -7.14058,-0.68402c-0.18802,0.38474 1.32934,4.06498 1.45473,4.3943c0.86535,2.57723 1.95,4.84315 1.94581,7.58208c-0.00129,0.84099 -0.09745,1.78835 0.00562,2.62281c-0.00107,0.11897 -0.00217,0.25234 -0.00241,0.39531c-0.96484,-0.05158 -1.92021,-0.36665 -2.88909,-0.36665c-5.12016,0 -10.2932,-0.05056 -15.37803,-0.65971c-3.89981,-0.46719 -7.82429,-1.88156 -11.70478,-1.89777c-1.50642,-0.3766 -2.95557,-0.41439 -4.51544,-0.32528c-0.25159,0.01437 -0.54081,0.28829 -0.74353,0.1386c-0.14893,-0.10997 0.25809,-0.29216 0.28807,-0.47485c0.06913,-0.42125 0.00118,-0.8541 -0.00051,-1.28098c-0.00669,-1.69043 0.42711,-3.3043 0.62907,-4.96847c0.67968,-5.60049 0.32053,-11.46337 0.32053,-17.13229c0,-5.29835 -0.66195,-11.25501 0.29833,-16.49153c0.43949,-2.3966 1.57343,-5.955 0.94755,-8.43285c-0.85062,-3.36757 -3.96894,-4.04813 -7.01075,-3.91771c-0.6174,0.02647 -1.22514,-0.18352 -1.74949,0.1435c-0.72747,0.4537 -1.06507,1.34095 -1.59769,2.0128c-0.10399,2.6828 0.05017,5.18251 0.25747,7.84577c0.15802,2.03 -0.22275,4.11644 0.00455,6.14104c0.18964,1.68914 0.83798,3.0511 0.63826,4.8067c-0.13903,1.22208 -0.94407,2.35291 -1.47738,3.42632c-1.1921,2.39935 -2.26613,4.83656 -3.4685,7.2599c-0.13933,0.18525 -1.82393,2.59817 -2.18465,2.38006c-1.19211,-0.72081 -2.9508,-3.36575 -2.91323,-4.83238c0.03061,-1.19491 0.48472,-2.52318 0.62989,-3.71943c0.24243,-1.99761 0.10104,-4.08544 0.31816,-6.08811c0.15111,-1.39378 0.78457,-2.77202 0.95941,-4.16577c0.22708,-1.81024 0.19199,-3.7991 0.33034,-5.6173c0.05555,-7.39523 1.24467,-14.69706 2.21997,-22.01382c1.1453,-8.59203 2.1242,-17.61445 5.31484,-25.73768c6.32742,-8.30344 17.40273,-8.98212 26.64095,-12.49043c4.09817,0 8.20747,-0.00114 12.30565,-0.00114z" data-paper-data="{&quot;noHover&quot;:false,&quot;origItem&quot;:[&quot;Path&quot;,{&quot;applyMatrix&quot;:true,&quot;segments&quot;:[[[402.76713,356.72832],[8.19635,0],[-18.47644,7.01662]],[[349.53177,381.68497],[12.65484,-16.60688],[-6.38128,16.24646]],[[338.92826,433.12102],[2.29059,-17.18405],[-1.95061,14.63352]],[[334.49347,477.10131],[0.1111,-14.79046],[-0.2767,3.6364]],[[333.83061,488.32453],[0.45417,-3.62047],[-0.34968,2.78749]],[[331.90964,496.64874],[0.30221,-2.78756],[-0.43424,4.00533]],[[331.26932,508.81489],[0.48486,-3.99522],[-0.29035,2.39251]],[[330.007,516.24865],[0.06122,-2.38982],[-0.07514,2.93325]],[[335.82814,525.90455],[-2.38422,-1.44161],[0.72143,0.43621]],[[340.03079,521.255],[-0.27867,0.37049],[2.40475,-4.84668]],[[346.96306,506.72715],[-2.3842,4.79869],[1.06663,-2.14681]],[[349.91536,499.8695],[-0.27805,2.44416],[0.39944,-3.51119]],[[348.63471,490.2455],[0.37928,3.37828],[-0.4546,-4.0492]],[[348.62206,477.94896],[0.31603,4.06],[-0.41461,-5.32651]],[[348.10579,462.23746],[-0.20799,5.36559],[1.06524,-1.34369]],[[351.30151,458.20638],[-1.45495,0.9074],[1.04871,-0.65404]],[[354.99962,457.93801],[-1.23481,0.05294],[6.08362,-0.26083]],[[369.02159,465.76222],[-1.70123,-6.73513],[1.25176,4.9557]],[[367.12231,482.60077],[0.87898,-4.7932],[-1.92055,10.47304]],[[366.50616,515.54785],[0,-10.5967],[0,11.33784]],[[365.8468,549.7956],[1.35935,-11.20098],[-0.40393,3.32834]],[[364.58519,559.73018],[-0.01338,-3.38086],[0.00338,0.85376]],[[364.58519,562.29148],[0.13826,-0.8425],[-0.05996,0.36538]],[[364.00903,563.24117],[-0.29787,-0.21994],[0.40545,0.29937]],[[365.49528,562.96346],[-0.50317,0.02875],[3.11975,-0.17823]],[[374.51992,563.61045],[-3.01284,-0.75321],[7.76098,0.03242]],[[397.90973,567.39818],[-7.79962,-0.93438],[10.16966,1.2183]],[[428.63684,568.714],[-10.24033,0],[1.93775,0]],[[434.40953,569.44757],[-1.92969,-0.10317],[0.00049,-0.28595]],[[434.41429,568.65695],[-0.00214,0.23795],[-0.20614,-1.66892]],[[434.41903,563.61069],[-0.00258,1.68198],[0.00839,-5.47787]],[[430.52427,548.44673],[1.7307,5.15446],[-0.25078,-0.65863]],[[427.60803,539.45828],[-0.37604,0.76949],[2.3331,-4.77417]],[[441.87085,540.82834],[-1.7576,-3.43986],[0.24955,0.4884]],[[442.06435,547.56404],[0.00208,-0.66245],[-0.01626,5.1842]],[[440.12433,563.24239],[0.51585,-5.15847],[-0.20847,2.08469]],[[439.50923,570.5879],[0.44729,-2.02867],[0.0001,0.01653]],[[439.50943,570.63747],[-0.00004,-0.01651],[0.00427,-0.00096]],[[439.52234,570.63497],[-0.00433,0.0007],[1.26424,-0.20437]],[[443.36428,570.63497],[-1.28065,-0.00238],[2.01623,0.00375]],[[449.37768,571.28766],[-1.97708,-0.39542],[8.85409,0]],[[477.35772,573.26426],[-8.84788,1.92815],[3.42036,-0.74537]],[[484.74392,565.43733],[-1.65425,2.64963],[5.91521,-9.47445]],[[490.77988,535.00805],[-0.05909,11.0377],[-3.94062,-19.30679]],[[489.48686,475.84779],[0,19.62507],[0,-2.05045]],[[490.02525,466.59952],[-1.2251,1.54755],[1.49519,-1.88873]],[[503.5265,464.03088],[-2.04833,-1.35489],[1.48107,0.97967]],[[506.527,468.43278],[-0.75275,-1.60832],[2.46415,5.26489]],[[508.63896,485.14205],[-0.71412,-5.53105],[0.9041,7.00256]],[[509.28967,506.37366],[0.0262,-7.11264],[0.67329,3.9941]],[[512.4809,517.79856],[-0.52084,-3.918],[0.23866,1.79528]],[[512.49995,523.23174],[0.39572,-1.76731],[-0.07769,0.34696]],[[511.75541,523.99556],[-0.3554,-0.01039],[0.83909,0.02453]],[[517.30936,523.44452],[-0.85605,0.30608],[1.18732,-0.42453]],[[519.21012,520.17394],[-0.55694,1.13127],[1.58463,-3.21875]],[[521.52761,512.63398],[-0.56549,3.40626],[1.12277,-6.76307]],[[521.5563,493.65416],[1.70057,6.81637],[-0.38594,-2.33838]],[[520.90859,486.57368],[0.46474,2.324],[-1.20504,-6.02602]],[[516.3995,468.4745],[0.62712,6.25764],[-0.59725,-5.9596]],[[515.7525,450.48533],[0.58952,5.95803],[-0.88199,-8.91382]],[[513.2247,423.82197],[-0.15298,9.08602],[-1.98692,-4.9673]],[[511.44834,408.26308],[0.48486,5.31812],[-0.87694,-9.61864]],[[508.71562,379.46952],[1.19075,9.53636],[-0.46572,-3.72977]],[[505.91926,367.11824],[2.24948,3.19806],[-2.20056,-3.12851]],[[494.34855,360.41236],[3.3061,1.67738],[-4.47778,-1.10192]],[[480.89289,356.71595],[4.66795,0.40928],[-17.80231,-1.56088]],[[427.35619,356.72832],[17.86174,0],[-8.19635,0]]],&quot;closed&quot;:true}]}" fill="#ffffff"/></g><path d="M261.44221,224.22086c-0.03438,-0.03098 -0.06927,-0.06077 -0.10472,-0.08884zM262.86331,229.45198c-0.14685,-0.02854 -0.28729,-0.1031 -0.42293,-0.2121l-0.03404,0.20424l-1.19455,-0.79645c-0.40858,-0.25134 -0.70558,-1.01227 -0.70558,-1.91195c0,-1.10457 0.44767,-2 0.9999,-2h0.44536c-0.14378,-0.13845 -0.29211,-0.30966 -0.45097,-0.46083c-0.08024,-0.00368 -0.99429,-0.08761 -0.99429,-1.99983c0,-2 0.9999,-2 0.9999,-2l0.57409,0.14305c0.82642,0.66924 2.05741,0.40249 2.48798,1.9641c0.23321,0.84583 0.11886,2.87039 -0.23586,4.53929c0.62479,0.89699 1.21161,1.79517 1.30666,2.14319c1.25257,4.58631 -1.44889,12.78827 -3.26986,14.85895c-0.05851,0.06653 -0.11878,0.1233 -0.18052,0.17196c-0.39384,4.95454 -1.51351,9.73053 -3.90942,12.02799c-1.00223,0.96105 -2.36274,0.74672 -3.46441,0.31605c-0.03826,1.40593 -0.1686,2.78329 -0.53981,4.09858c-1.36048,4.82055 -5.42304,5.11882 -7.8435,2.84539c-0.70362,2.03409 -1.61927,3.6675 -2.76355,5.32392c-2.61105,1.12464 -6.64753,0.3981 -8.92945,-3.4339c-1.00374,0.50997 -2.17394,0.36224 -3.03468,0.36397c-3.1599,0.00635 -5.922,-0.35515 -7.2667,-6.89348c-0.00117,-0.15653 -0.00296,-0.32112 -0.0051,-0.49283c-1.93464,0.05887 -4.01183,-0.67352 -5.01785,-2.98715c-1.13586,-2.61223 -1.09313,-5.92122 -0.64527,-9.06281c-1.82626,-0.18411 -3.64492,-1.03032 -4.71243,-4.12863c-0.30554,-0.8868 -0.526,-2.03652 -0.6496,-3.28869c-1.65365,-0.56074 -3.22106,-2.07611 -3.71147,-4.38914c-0.32996,-1.55631 -0.01807,-4.0121 0.14604,-5.61826c0.39649,-3.88053 1.893,-8.62895 3.90807,-10.02095c0.8374,-0.57847 2.45713,-0.50027 3.35725,-0.50815c0,0 0.9999,0 0.9999,2c0,2 -0.9999,2 -0.9999,2c-0.75509,-0.00803 -2.02683,-0.133 -2.72486,0.30288c-1.50675,0.94088 -3.36731,7.1575 -2.83894,10.31375c0.10494,0.62687 1.02213,1.19063 1.18576,1.28137c0.21154,0.11731 0.42481,0.2352 0.63789,0.34342c0.23018,-2.84027 0.99839,-5.31681 2.4323,-5.68965c1.42699,-0.37104 1.8938,1.23421 2.8501,2.89988c-0.17076,2.71246 0.04121,4.15265 -1.13677,5.95087c-0.47768,0.72919 -1.18763,1.15946 -1.99031,1.3129c0.05159,0.3577 0.11075,0.64411 0.17491,0.82191c0.21566,0.5976 1.43614,1.90896 1.70805,2.07351c0.65993,0.39938 1.38451,0.45213 2.11261,0.41872c0.10805,-0.46831 0.21801,-0.9218 0.32637,-1.35658c0.44062,-2.03905 0.55278,-3.70914 1.89169,-4.36787c1.87989,-0.9249 4.11538,1.75219 3.36132,6.08161c-0.43703,2.50922 -2.46651,3.49209 -3.52992,3.53866c-0.239,0.01047 -0.48635,0.02483 -0.73969,0.03803c-0.42787,2.26345 -0.66599,4.78773 0.05418,6.33543c0.72578,1.55976 2.25821,1.68389 3.5403,1.56756c0.061,-2.68368 0.32609,-5.47023 1.24759,-6.73098c2.00199,-2.73903 4.85548,1.94584 4.14474,6.34374c-0.37068,2.29367 -1.26345,3.15931 -2.31227,3.7328c-0.32126,0.17566 -0.69376,0.33272 -1.10022,0.45991c-0.00026,0.02271 -0.00052,0.04548 -0.00077,0.06832c0.79228,4.24411 3.46972,3.646 5.30299,3.64991c0.26723,0.00057 1.01427,0.13871 1.70183,0.08896c-0.46478,-2.08399 -0.7451,-4.90745 0.17044,-6.23334c2.04804,-2.966 3.44602,4.38121 2.93512,7.14796c1.75215,2.22729 4.33159,3.10251 6.34048,2.41472c0.7746,-1.23844 1.4839,-2.47686 2.01206,-4.00157c-0.43202,-1.08638 -0.62164,-2.45668 -0.06542,-3.98837c0.09078,-0.24998 0.20008,-0.4559 0.32253,-0.63054l-0.02813,-0.07503l0.80287,-1.20442c0.16848,-0.25849 0.37928,-0.41212 0.60802,-0.41212c0.55223,0 0.9999,0.89543 0.9999,2v2.02758h-0.05472l0.04181,0.32036c-0.0196,0.11701 -0.03959,0.23276 -0.05996,0.34729c2.08904,1.35549 4.99401,2.76853 5.38452,-2.61008c0.03857,-0.53124 0.04819,-1.06642 0.04453,-1.60345c-0.44033,-0.98882 -0.85523,-2.39786 -0.65702,-3.61012c0.05302,-0.3243 0.13737,-0.60654 0.24348,-0.85956l-0.05213,-0.0782l0.60123,-1.60344c0.18195,-0.49635 0.47561,-0.81862 0.8069,-0.81862c0.55223,0 0.9999,0.89543 0.9999,2v2.00508c1.90598,0.26603 3.63773,0.61761 4.79219,-4.10033c0.26096,-1.06647 0.46649,-2.46485 0.59274,-3.89022c-1.11116,-0.66528 -1.75705,-0.79259 -2.265,-3.51995c-0.6239,-3.34994 0.36639,-8.70376 2.76523,-6.9283c0.94546,0.69977 1.38865,2.94013 1.55475,5.13178c0.64209,-1.28255 1.11101,-3.10514 1.34679,-4.67752c0.02774,-0.18498 0.33333,-3.19677 0.27211,-3.38112c-0.22906,-0.68967 -0.61612,-1.05592 -0.99752,-1.44303zM262.68574,224.94063c0.02209,-0.04169 0.04419,-0.0817 0.06561,-0.11923c-0.07877,0.09054 -0.15565,0.14364 -0.23155,0.16729v0.06489zM260.30304,240.1988c-0.0222,-0.45375 -0.06178,-0.90643 -0.12619,-1.34329c-0.07461,-0.50604 -0.3904,-1.88252 -0.40804,-1.35611c-0.05136,1.53297 0.03169,2.20196 0.53423,2.6994zM226.57195,253.80424c0.56018,-0.1494 1.18495,-0.48845 1.34494,-1.34249c0.2318,-1.23732 -0.94008,-2.10704 -1.12642,-1.76656c-0.1254,0.22913 0.01638,0.68652 -0.01991,1.0184c-0.08188,0.74896 -0.14708,1.43059 -0.19862,2.09065zM221.72398,242.16582c0.37866,-0.05556 0.75579,-0.38217 1.06767,-0.80949c0.17568,-0.24071 0.79579,-0.51292 0.5829,-0.52286c-0.39384,-0.01839 -0.77184,-0.43618 -1.16524,-0.39474c-0.33325,0.0351 -0.39554,0.98175 -0.48532,1.72709zM215.32878,234.89893c0.55158,-0.16246 1.05087,-0.6725 1.45213,-1.77219c-0.30932,-0.11345 -0.93121,-0.72708 -1.19723,-0.11062c-0.14707,0.3408 -0.22668,1.04623 -0.25489,1.88281z" fill="#ffba00" stroke="#000000" stroke-width="2"/><g stroke="#000000" stroke-width="2"><path d="M232.87187,226.96647c0,0 0.01488,-0.00744 0.04209,-0.01892c-8.94862,0.53732 -18.21519,1.96802 -26.84272,-0.18887c-2.25154,0 -4.20529,-1.04564 -6.40324,-1.28064c-1.71187,-0.18303 -3.37702,0.01937 -4.8212,-1.24615c-1.72177,-1.50877 -1.47899,-2.99527 -1.72774,-4.98262c-0.56703,-4.53025 -1.61033,-9.00029 -1.61033,-13.60209c0.01508,-2.28894 -0.66317,-4.32719 -0.95096,-6.56811c-0.41166,-3.20539 -0.7874,-6.39258 -1.27376,-9.55656c-0.84228,-5.47936 -0.65673,-11.28951 -0.65673,-16.85201c0,-6.93684 0,-13.87367 0,-20.81051v-0.64033c0,0 0,-0.17944 0.06742,-0.40347c-0.89674,-4.84439 -0.38759,-10.03921 -0.38759,-14.94501c0,-8.86219 -0.32016,-17.70583 -0.32016,-26.57343c0,-1.31653 -0.43005,-4.06701 0.09675,-5.3081c0.70014,-1.64949 3.0233,-2.81564 4.44779,-3.53189c3.27461,-1.64652 7.17312,-2.38807 10.81359,-2.37532c1.30293,0.00457 3.32099,0.08623 4.46816,0.8053c2.34536,1.47011 2.22919,5.3547 2.2456,7.82943c0,10.16549 0.64016,20.23824 0.64032,30.41535c0.00008,4.93583 0.64273,10.32747 -0.32635,15.17287c-0.09396,0.11653 -0.41806,0.28739 -0.2819,0.3496c1.1242,0.51367 3.83181,-0.46355 5.10015,-0.46521c2.88125,-0.00377 5.76317,-0.01399 8.64437,0c1.40858,0.00684 2.80425,0.33933 4.17017,0.68344c3.11211,0.78403 6.49579,0.93365 9.65521,1.52083c3.88046,0.72117 7.94766,1.98003 11.87766,1.96104c3.12336,0.44191 6.25157,0.84192 9.37425,1.29021c0.71727,0.10298 1.44466,0.15138 2.15158,0.3106c0.15848,0.0357 0.3021,0.38887 0.40835,0.266c0.3927,-0.45417 0.0748,-1.20057 0.17312,-1.79287c0.30253,-1.82247 0.62141,-3.68515 0.61871,-5.52953c-0.00808,-5.52715 0.32016,-11.09772 0.32016,-16.64841c0.01053,-6.62188 0.00396,-14.34264 2.32759,-20.63096c0.3596,-0.97317 1.1754,-1.71798 1.63771,-2.64677c1.10852,-2.22703 2.0603,-4.93813 4.20739,-6.53865c2.0437,-1.52344 3.79074,-1.29076 6.06965,-1.86048c2.53563,-0.01375 7.17959,-0.81822 9.09465,1.36136c1.27423,1.45022 1.07151,3.46863 1.28666,5.18758c0.83046,6.6349 0.32969,13.60759 0.32969,20.32549c0,11.81087 -0.96049,23.41241 -0.96049,35.2178c0,10.8855 0,21.771 0,32.6565c-0.03249,4.89923 -0.98347,10.02744 -1.61033,14.88274c-0.23749,1.83944 0.20869,3.86473 -0.79578,5.59351c-1.64052,2.8235 -6.48748,4.08967 -9.25128,5.34511c-2.54057,1.01666 -5.27806,2.22708 -8.00671,2.65112c-5.41867,0.84207 -10.97241,0.28387 -16.44123,0.65103c-4.08728,0.27441 -8.13035,0.32174 -12.22946,0.32174c-1.43231,0 -2.87817,0.04762 -4.33343,0.12342c0.14607,0.05309 0.2914,0.1424 0.42375,0.28421c-0.67176,-0.00198 -1.34066,0.01207 -1.99938,0.05397c0.18016,-0.08618 0.35958,-0.17394 0.53822,-0.26334zM191.16928,152.74575c0,6.64159 0,13.28317 0,19.92476c0,5.42638 -0.19862,11.10293 0.62391,16.44483c0.82277,5.34344 2.22795,11.07488 2.25754,16.53185c0,4.49072 1.03882,8.86607 1.59129,13.2915c0.14794,1.18507 -0.2515,2.45196 0.83356,3.34158c1.02363,0.83926 2.33062,0.54014 3.50301,0.67482c2.19983,0.25271 4.16223,1.28064 6.40323,1.28064c10.24799,2.56199 21.42542,-0.00952 31.86089,-0.00952c4.05747,0 8.05722,-0.05291 12.10283,-0.31859c5.39653,-0.3544 10.86981,0.18355 16.21528,-0.62962c2.49988,-0.38029 5.03621,-1.54197 7.36104,-2.47147c2.00008,-0.90975 6.86362,-2.14074 8.03747,-4.25975c0.75838,-1.36902 0.30805,-3.19468 0.48487,-4.65166c0.57536,-4.741 1.63169,-9.79752 1.59128,-14.57215c0,-10.8855 0,-21.771 0,-32.6565c0,-11.80623 0.96048,-23.40762 0.96048,-35.2178c0,-5.65612 -0.016,-11.31249 0,-16.96858c0.00457,-1.615 0.15002,-5.47207 -0.94495,-6.82327c-1.05241,-1.29868 -5.49266,-0.55025 -6.91344,-0.55961c-1.78821,0.44705 -3.25575,0.1607 -4.81586,1.34114c-1.80549,1.3661 -2.54048,3.76308 -3.47649,5.6275c-0.43796,0.87237 -1.23613,1.55636 -1.5639,2.47582c-2.14527,6.01787 -2.1657,13.39449 -2.15467,19.70943c0,6.65979 0.34856,13.51377 -0.66143,20.09146c-0.16156,1.05214 -0.33276,5.04371 -1.42819,5.88298c-0.85557,0.6555 -3.68969,0.04904 -4.48362,-0.06373c-3.06375,-0.43518 -6.13262,-0.82907 -9.19514,-1.27108c-1.58121,-0.00702 -3.14267,-0.38535 -4.69029,-0.70961c-6.18821,-1.29655 -12.64909,-2.42139 -18.83178,-3.47223c-2.71168,-0.46089 -5.94975,0.02293 -8.72417,0.02293c-2.01377,0 -4.5996,0.69353 -6.52848,0.31398c-0.84349,-0.16598 -1.87774,-0.14534 -2.45849,-0.77918c-0.50207,-0.54797 -0.18793,-1.47446 -0.28189,-2.21169c0.95303,-4.76519 0.31405,-10.06742 0.31397,-14.92234c-0.00016,-10.17691 -0.64032,-20.24955 -0.64032,-30.4154c0.00936,-1.10635 0.15307,-5.11489 -0.95603,-5.61737c-3.68839,-1.67106 -9.5337,-0.03636 -12.89248,1.6316c-0.74057,0.36777 -2.81381,1.2673 -3.2361,2.23103c-0.34082,0.77782 0.09675,3.5163 0.09675,4.33532c0,8.86764 0.32017,17.71112 0.32017,26.57343c0,5.12658 -0.66127,10.70229 0.60237,15.68055c0,0 0.17921,0.71684 -0.28221,1.19402z" fill="#000000"/><path d="M191.40293,151.53981c-1.26364,-4.97826 -0.59712,-10.56705 -0.59712,-15.69363c0,-8.86231 -0.30988,-17.71834 -0.30988,-26.58598c0,-0.81901 -0.43615,-3.55871 -0.09533,-4.33652c0.42229,-0.96372 2.49761,-1.86487 3.23818,-2.23263c3.35878,-1.66797 9.21114,-3.30697 12.89952,-1.63591c1.10909,0.50248 1.0115,4.59974 1.00214,5.70609c0,10.16585 0.65419,20.22731 0.65435,30.40422c0.00008,4.85492 0.64839,10.14134 -0.30464,14.90653c0.09396,0.73723 -0.21918,1.66066 0.2829,2.20863c0.58076,0.63384 1.51897,0.58529 2.36247,0.75126c1.92888,0.37955 4.51626,-0.31851 6.53003,-0.31851c2.77442,0 6.01785,-0.49383 8.72953,-0.03294c6.18269,1.05085 12.72622,2.17628 18.91442,3.47283c1.54762,0.32425 3.11488,0.71429 4.69608,0.72131c3.06252,0.44201 6.13365,0.84559 9.1974,1.28077c0.79393,0.11277 3.52875,0.7309 4.38432,0.0754c1.09544,-0.83927 1.26873,-4.82086 1.43028,-5.87301c1.00999,-6.57769 0.67445,-13.41077 0.67445,-20.07056c-0.01103,-6.31494 0.01788,-13.68501 2.16316,-19.70287c0.32777,-0.91945 1.12591,-1.60347 1.56387,-2.47584c0.93601,-1.86442 1.72332,-4.34662 3.52882,-5.71272c1.56011,-1.18044 3.02969,-0.89276 4.8179,-1.33982c1.42077,0.00936 5.86431,-0.73662 6.91672,0.56206c1.09497,1.3512 0.95226,5.21066 0.94769,6.82566c-0.016,5.65609 0.00661,11.32006 0.00661,16.97618c0,11.81018 -0.95136,23.44233 -0.95136,35.24856c0,10.8855 -0.00982,21.79889 -0.00982,32.68439c0.04041,4.77463 -1.02233,9.83825 -1.5977,14.57925c-0.17682,1.45698 0.27161,3.28429 -0.48677,4.65331c-1.17385,2.11901 -6.04269,3.35382 -8.04276,4.26357c-2.32484,0.92951 -4.86611,2.09391 -7.36599,2.4742c-5.34546,0.81316 -10.83016,0.27907 -16.22669,0.63347c-4.04561,0.26567 -8.05507,0.31963 -12.11253,0.31963c-10.43547,0 -21.63608,2.56606 -31.88407,0.00407c-2.241,0 -4.20727,-1.03012 -6.4071,-1.28283c-1.17238,-0.13468 -2.4813,0.16317 -3.50493,-0.67609c-1.08506,-0.88962 -0.68712,-2.15759 -0.83506,-3.34266c-0.55247,-4.42542 -1.597,-8.80578 -1.597,-13.2965c-0.0296,-5.45696 -1.44247,-11.1986 -2.26524,-16.54203c-0.82253,-5.34189 -0.62944,-11.03297 -0.62944,-16.45935c0,-6.64158 0.00008,-13.30413 0.00008,-19.94571c0.46142,-0.47719 0.28251,-1.19528 0.28251,-1.19528z" data-paper-data="{&quot;noHover&quot;:false,&quot;origItem&quot;:[&quot;Path&quot;,{&quot;applyMatrix&quot;:true,&quot;segments&quot;:[[[323.60448,200.90993],[0.92284,-0.95438],[0,13.28317]],[[323.60448,240.75944],[0,-13.28317],[0,10.85276]],[[324.85231,273.64909],[-1.64507,-10.68379],[1.64554,10.68687]],[[329.36739,306.71278],[-0.05919,-10.91393],[0,8.98144]],[[332.54997,333.29578],[-1.10493,-8.85085],[0.29588,2.37014]],[[334.21709,339.97894],[-2.17012,-1.77925],[2.04725,1.67851]],[[341.2231,341.32858],[-2.34477,-0.26936],[4.39966,0.50542]],[[354.02957,343.88987],[-4.482,0],[20.49598,5.12399]],[[417.75134,343.87083],[-20.87094,0],[8.11493,0]],[[441.957,343.23366],[-8.09122,0.53135],[10.79306,-0.70879]],[[474.38756,341.97443],[-10.69093,1.62633],[4.99977,-0.76058]],[[489.10965,337.03148],[-4.64967,1.85902],[4.00015,-1.81951]],[[505.18458,328.51198],[-2.34769,4.23802],[1.51676,-2.73804]],[[506.15432,319.20866],[-0.35364,2.91395],[1.15073,-9.482]],[[509.33689,290.06436],[0.08081,9.54926],[0,-21.771]],[[509.33689,224.75136],[0,21.771],[0,-23.61247]],[[511.25786,154.31576],[0,23.62036],[0,-11.31224]],[[511.25786,120.3786],[-0.032,11.31219],[0.00914,-3.23]],[[509.36796,106.73206],[2.18994,2.7024],[-2.10481,-2.59735]],[[495.54109,105.61283],[2.84155,0.01872],[-3.57641,0.89411]],[[485.90937,108.29511],[3.12023,-2.36088],[-3.61099,2.73221]],[[478.95638,119.55012],[1.87203,-3.72885],[-0.87593,1.74473]],[[475.82858,124.50176],[0.65554,-1.83891],[-4.29055,12.03573]],[[471.51924,163.92061],[-0.02206,-12.62988],[0,13.31958]],[[470.19638,204.10353],[2.01998,-13.15538],[-0.32311,2.10429]],[[467.33999,215.86948],[2.19088,-1.67854],[-1.71114,1.31099]],[[458.37274,215.74202],[1.58786,0.22554],[-6.12751,-0.87036]],[[439.98246,213.19985],[6.12504,0.88402],[-3.16241,-0.01403]],[[430.60188,211.78064],[3.09523,0.64851],[-12.37641,-2.5931]],[[392.93832,204.83617],[12.36539,2.10169],[-5.42335,-0.92178]],[[375.48998,204.88204],[5.54884,0],[-4.02754,0]],[[362.43302,205.50999],[3.85776,0.7591],[-1.68699,-0.33195]],[[357.51604,203.95163],[1.16151,1.26768],[-1.00415,-1.09593]],[[356.95225,199.52825],[0.18793,1.47446],[1.90607,-9.53038]],[[357.5802,169.68357],[0.00015,9.70983],[-0.00031,-20.35383]],[[356.29955,108.85278],[0,20.33169],[0.01872,-2.2127]],[[354.3875,97.61804],[2.21819,1.00497],[-7.37677,-3.34212]],[[328.60253,100.88125],[6.71756,-3.33593],[-1.48114,0.73553]],[[322.13033,105.3433],[0.84458,-1.92745],[-0.68165,1.55563]],[[322.32383,114.01393],[0,-1.63803],[0,17.73528]],[[322.96416,167.16079],[0,-17.72462],[0,10.25316]],[[324.16891,198.52188],[-2.52729,-9.95652],[0,0]]],&quot;closed&quot;:true}]}" fill="#ffffff"/></g><g stroke="none" stroke-width="0.5"><path d="M241.00072,139.19667c0.59252,-0.60415 1.49294,-0.60415 1.49294,-0.60415l1.24808,0.0201c11.36306,-1.59801 23.40097,-1.25308 34.88174,-1.24484c2.16384,0.00155 7.69947,-1.14169 9.37503,0.2796c0.91649,0.77742 0.39052,2.37168 0.58578,3.55751c-0.01558,7.07757 -1.60955,15.33188 -5.16914,21.51825c-1.56741,2.72407 -4.48764,5.73212 -7.7002,6.45397c-5.758,1.29379 -13.15405,-0.37954 -18.90888,-1.20854c-6.62142,-1.64907 -13.73639,-5.24548 -15.34987,-12.56824c-0.66158,-3.00257 -0.55644,-6.67281 -0.3463,-9.72693c0.05682,-0.82583 1.14965,-2.33003 0.3323,-2.46102c-1.67463,-0.26838 -3.94121,0.20803 -5.95671,0.46153c-0.07885,0.64177 -0.15548,1.18003 -0.19507,1.47066c-1.00234,7.35759 -4.48591,14.37201 -11.36136,17.82629c-6.44592,1.81388 -15.96523,0.83904 -22.04855,-1.87203c-5.01798,-2.2363 -9.4516,-10.43723 -10.35061,-15.59317c-0.30106,-1.72665 0.06174,-3.49853 0.30046,-5.19599c0,0 0.28284,-1.9799 2.26274,-1.69705c0.84804,0.12115 1.28096,0.55364 1.49877,1.00854c4.66609,-0.49557 9.46428,-0.41628 14.14,-0.41628c6.17693,0 12.31237,-0.20029 18.43631,-0.90399c1.80042,-0.20688 5.8704,-0.92013 7.34172,0.77145c0.09062,0.10419 0.15017,0.30445 0.18568,0.5716c1.64142,-0.20043 3.64549,-0.497 5.30515,-0.44728z" fill="#000000"/><path d="M201.58877,150.7471c-0.10589,0.57506 -0.49931,1.64334 -1.961,1.64334c-2,0 -2,-2 -2,-2l0.33589,-1.41559c1.33602,-2.00403 2.52919,-3.79477 4.2303,-5.50995c0,0 1.41421,-1.41422 2.82842,0c1.41422,1.41422 0,2.82842 0,2.82842c-1.39798,1.38422 -2.36621,2.84605 -3.43361,4.45379z" fill="#ffffff"/><path d="M204.72247,156.69819c-1.71499,-1.02899 -0.686,-2.74398 -0.686,-2.74398l0.84469,-1.39636c1.07631,-2.09534 2.5147,-3.47335 3.79897,-5.42012c0,0 1.1094,-1.6641 2.7735,-0.5547c1.6641,1.1094 0.5547,2.7735 0.5547,2.7735c-1.19607,1.77847 -2.62748,3.07541 -3.54946,4.99017l-0.99242,1.66549c0,0 -1.02899,1.71499 -2.74398,0.686z" fill="#ffffff"/><path d="M249.82201,153.20635c-1.89736,-0.63245 -1.26491,-2.52983 -1.26491,-2.52983l0.67145,-1.99249c1.09883,-2.55452 2.1394,-4.45626 4.0983,-6.44389c0,0 1.41421,-1.41422 2.82843,0c1.41422,1.41422 0,2.82843 0,2.82843c-1.63419,1.60403 -2.35295,3.08915 -3.25014,5.19114l-0.55329,1.68173c0,0 -0.63246,1.89737 -2.52983,1.26491z" fill="#ffffff"/><path d="M256.55808,156.88057c-1.89736,-0.63245 -1.26491,-2.52982 -1.26491,-2.52982l0.41469,-1.18053c1.29088,-2.57035 2.79275,-4.88939 3.93097,-7.54803c0,0 0.78784,-1.83829 2.62613,-1.05045c1.83829,0.78784 1.05045,2.62612 1.05045,2.62612c-1.17105,2.72973 -2.71656,5.12145 -4.02984,7.76122l-0.19768,0.65658c0,0 -0.63245,1.89737 -2.52982,1.26492z" fill="#ffffff"/></g><path d="M256.3032,218.28878c0,2.5 -2.5,2.5 -2.5,2.5h-1.25845c-5.29706,0 -10.68363,-0.28673 -15.93118,0.5922c-4.12076,0.69019 -8.18822,1.58992 -12.38396,1.61009c0,0 -2.5,0 -2.5,-2.5c0,-2.5 2.5,-2.5 2.5,-2.5c3.88781,0.02268 7.70652,-0.90235 11.5266,-1.53603c5.54307,-0.9195 11.19462,-0.66626 16.78854,-0.66626h1.25845c0,0 2.5,0 2.5,2.5z" fill="#000000" stroke="none" stroke-width="0.5"/><path d="M217.44786,172.30077c-0.71755,2.09379 -2.94835,1.53608 -2.94835,1.53608c-2.06601,-0.5345 -4.91859,-1.15458 -7.03253,-0.39096c-3.44342,1.24386 -5.1298,7.81707 -3.41115,10.87083c1.346,2.39163 5.53625,2.82957 7.96988,3.18606c6.37758,0.93424 13.38021,0.66357 14.11232,-7.42038c0.01688,-1.03938 0.21775,-2.09214 0.05063,-3.11813c-0.6958,-4.27194 -5.04607,-4.67933 -8.74079,-4.66351zM210.07939,168.10821c0.74037,-0.76978 1.88032,-0.76978 1.88032,-0.76978h2.83152c6.66468,0.00975 14.58208,0.36689 16.28849,8.58789c0.30031,1.44679 0.03376,2.95505 0.05063,4.43258c-0.14303,1.15108 -0.05603,2.35494 -0.42909,3.45324c-3.05618,8.99747 -11.47729,9.81965 -19.43676,8.63236c-4.05564,-0.60496 -9.22485,-1.77318 -11.53611,-5.6231c-3.50021,-5.83038 -0.06366,-15.61259 6.02723,-18.07353c1.30778,-0.52839 2.80428,-0.68798 4.32376,-0.63967z" fill="#000000" stroke="none" stroke-width="0.5"/><path d="M211.97662,180.22065c0,-1.38071 1.11929,-2.5 2.5,-2.5c1.38071,0 2.5,1.11929 2.5,2.5c0,1.38071 -1.11929,2.5 -2.5,2.5c-1.38071,0 -2.5,-1.11929 -2.5,-2.5z" fill="#000000" stroke="none" stroke-width="0.5"/><path d="M261.81084,173.97598c-1.74887,0.1304 -3.48959,0.43974 -5.21394,0.75763c-4.80292,0.88546 -10.69535,6.17709 -5.29106,10.79606c1.64054,1.40215 3.97737,1.00013 5.95809,1.00013c5.09584,0 8.70049,-0.84679 11.47125,-5.52666c0.16578,-1.64462 1.19689,-4.79648 0.58924,-6.343c-0.31273,-0.79592 -4.90324,-0.43492 -5.45362,-0.43403h-0.94384c0,0 -0.53879,0 -1.11612,-0.25013zM264.79638,169.21912c2.98742,-0.03606 6.9613,-0.1014 8.72221,2.71909c1.71582,2.74826 0.37736,7.69061 -0.03999,10.64608c-2.00567,3.57494 -5.00839,7.20581 -9.14811,8.50798c-1.83655,0.5777 -5.2084,0.43755 -7.06656,0.43755c-3.31814,0 -6.41743,0.14926 -9.14332,-2.14599c-0.9804,-0.82551 -1.88256,-1.80158 -2.48897,-2.93071c-4.37037,-8.13757 2.33013,-15.10059 10.00218,-16.62587c2.60734,-0.51836 5.264,-0.90648 7.92235,-0.91574c0,0 0.61848,0 1.24019,0.30762z" fill="#000000" stroke="none" stroke-width="0.5"/><path d="M256.96623,179.90604c0,-1.38071 1.11929,-2.5 2.5,-2.5c1.38071,0 2.5,1.11929 2.5,2.5c0,1.38071 -1.11929,2.5 -2.5,2.5c-1.38071,0 -2.5,-1.11929 -2.5,-2.5z" fill="#000000" stroke="none" stroke-width="0.5"/><path d="M276.1407,194.08051c2.5,0 2.5,2.5 2.5,2.5l-0.0031,2.64144c-0.28124,2.78405 -0.55046,8.42412 -3.1163,10.30507c-3.10752,2.27805 -6.8253,1.39874 -8.83961,-1.73495c-1.29433,-2.01362 -0.09067,-7.17285 0.42679,-9.301c0,0 0.60634,-2.42536 3.0317,-1.81902c2.42536,0.60634 1.81902,3.0317 1.81902,3.0317c-0.1911,0.73867 -0.47848,1.45894 -0.57331,2.21602c-0.14888,1.18861 -0.40399,2.39538 -0.25835,3.58439c0.05529,0.45137 1.189,0.2107 1.228,0.15273c1.07194,-1.59354 1.11425,-4.92204 1.28828,-6.68401l-0.0031,-2.39237c0,0 0,-2.5 2.5,-2.5z" fill="#000000" stroke="none" stroke-width="0.5"/></g></g></svg>