<svg version="1.1" xmlns="http://www.w3.org/2000/svg" xmlns:xlink="http://www.w3.org/1999/xlink" width="280.71171" height="305.91911" viewBox="0,0,280.71171,305.91911"><g transform="translate(-73.59084,-28.60475)"><g data-paper-data="{&quot;isPaintingLayer&quot;:true}" fill-rule="nonzero" stroke-linecap="butt" stroke-linejoin="miter" stroke-miterlimit="10" stroke-dasharray="" stroke-dashoffset="0" style="mix-blend-mode: normal"><g data-paper-data="{&quot;index&quot;:null}" stroke="none" stroke-width="0.5"><path d="M210.24357,224.04255c-0.84772,6.0045 -0.29343,11.84397 -0.6592,17.86374c-0.66375,10.9238 -1.74169,21.78924 -2.78937,32.71636c0.01385,12.22582 -0.54055,24.68231 -1.39943,36.859c-0.25921,3.67492 -1.90673,11.9006 1.69259,13.50549c3.21245,1.86316 6.79043,3.87289 10.43592,4.21107c2.30098,0.21346 4.65083,-0.1779 6.95518,-0.00206c6.96606,0.53154 14.35871,1.03835 21.34939,0.40435c2.91043,-0.26396 5.77535,-0.80663 8.69977,-0.80663c3.48129,-0.68683 8.95204,0.11871 11.90552,-2.40087c2.6552,-2.26512 3.27006,-6.71243 3.72888,-10.20038c1.21846,-9.26268 -0.01849,-18.12318 -0.01849,-27.38154c-0.84031,-6.80815 -2.33143,-13.69302 -2.78956,-20.59507c-0.79014,-11.90384 -0.00682,-24.23613 -0.00682,-36.17847c0,-0.84604 0.5767,-6.98469 -0.17235,-7.38425c-1.03264,-0.55084 -2.27356,-0.0045 -3.41034,-0.00244c-2.79133,0.00504 -5.58271,0 -8.37404,0c-9.43269,0 -18.81555,0.40435 -28.26239,0.40435c-4.99403,-0.01513 -10.01329,-0.82914 -15.00349,-0.80871h-1.04676c0,0 -0.39566,0 -0.83501,-0.20394zM209.11504,221.41509c0.27119,-1.80409 1.96354,-1.80409 1.96354,-1.80409h1.04676c4.99288,0.01746 10.0101,0.82602 15.00349,0.8087c10.14565,0 20.21892,-0.40435 30.3559,-0.40435c3.04043,0 9.40543,-1.32398 11.94205,0.80625c2.90251,2.43751 1.92116,7.71164 1.92116,11.21593c0,11.813 -0.78833,24.02238 -0.00681,35.79614c0.45948,6.92212 1.9518,13.81711 2.79313,20.6488c0,9.60661 1.26916,18.80238 -0.01849,28.419c-0.64325,4.80403 -1.7087,10.2114 -5.34299,13.25202c-3.77115,3.15512 -9.51364,2.42567 -13.91444,3.26006c-2.93983,0 -5.81988,0.55417 -8.74614,0.81077c-7.18192,0.62977 -14.76174,0.15561 -21.9165,-0.40435c-2.31959,-0.18154 -4.68407,0.22889 -7.00155,-0.00206c-4.17745,-0.41631 -8.19972,-2.5455 -11.89485,-4.68466c-0.90333,-0.58918 -2.03274,-0.85811 -2.70999,-1.76752c-2.826,-3.7947 -1.50708,-11.81147 -1.18011,-16.26642c0.89038,-12.13116 1.37931,-24.54876 1.39191,-36.73301c1.0503,-10.95446 2.10862,-21.84458 2.79332,-32.78862c0.38811,-6.2036 -0.16983,-12.21222 0.72002,-18.41256c0,0 0.3288,-2.28621 2.30159,-1.90518c0.18607,0.03594 0.35167,0.08883 0.499,0.15515z" fill="#000000"/><path d="M211.0533,224.1965l1.04751,-0.0005c4.9902,-0.02043 10.02247,0.78768 15.0165,0.80281c9.44683,0 18.85943,-0.40194 28.29212,-0.40194c2.79133,0 5.58947,0.00881 8.3808,0.00377c1.13678,-0.00206 2.38004,-0.54673 3.41269,0.00411c0.74905,0.39956 0.17539,6.5407 0.17539,7.38673c0,11.94234 -0.76522,24.30637 0.02492,36.21021c0.45814,6.90205 1.94849,13.81867 2.7888,20.62682c0,9.25836 1.22385,18.14326 0.00539,27.40595c-0.45882,3.48795 -1.08036,7.94149 -3.73556,10.20661c-2.95348,2.51958 -8.43457,1.72021 -11.91586,2.40704c-2.92443,0 -5.79815,0.54548 -8.70858,0.80944c-6.99068,0.63401 -14.4062,0.12573 -21.37226,-0.40582c-2.30435,-0.17584 -4.66055,0.2128 -6.96153,-0.00065c-3.6455,-0.33818 -7.23275,-2.3542 -10.44519,-4.21736c-3.59931,-1.60489 -1.95884,-9.83791 -1.69964,-13.51283c0.85888,-12.17669 1.40017,-24.67621 1.38632,-36.90203c1.04768,-10.92712 2.14145,-21.83119 2.8052,-32.75499c0.36577,-6.01977 -0.18025,-11.86646 0.66747,-17.87096c0.43936,0.20394 0.83552,0.20359 0.83552,0.20359z" data-paper-data="{&quot;noHover&quot;:false,&quot;origItem&quot;:[&quot;Path&quot;,{&quot;applyMatrix&quot;:true,&quot;segments&quot;:[[[420.48713,448.08507],[0.87871,0.40788],[-1.69545,12.009]],[[419.16873,483.81254],[0.73154,-12.03953],[-1.3275,21.84761]],[[413.58998,549.24525],[2.09536,-21.85424],[0.02769,24.45164]],[[410.79113,622.96326],[1.71775,-24.35339],[-0.51842,7.34984]],[[414.1763,649.97425],[-7.19863,-3.20979],[6.42489,3.72633]],[[435.04815,658.3964],[-7.29099,-0.67636],[4.60197,0.42691]],[[448.95851,658.39227],[-4.60869,-0.35167],[13.93212,1.06309]],[[491.65728,659.20097],[-13.98135,1.26801],[5.82086,-0.52791]],[[509.05683,657.5877],[-5.84885,0],[6.96257,-1.37367]],[[532.86787,652.78596],[-5.90696,5.03916],[5.3104,-4.53024]],[[540.32563,632.38521],[-0.91764,6.97589],[2.43691,-18.52537]],[[540.28865,577.62214],[0,18.51672],[-1.68061,-13.6163]],[[534.70952,536.43199],[0.91627,13.8041],[-1.58028,-23.80767]],[[534.69589,464.07505],[0,23.88468],[0,-1.69208]],[[534.3512,449.30655],[1.49809,0.79912],[-2.06528,-1.10167]],[[527.53051,449.30166],[2.27356,-0.00411],[-5.58266,0.01009]],[[510.78243,449.30166],[5.58267,0],[-18.86538,0]],[[454.25765,450.11036],[18.89367,0],[-9.98806,-0.03025]],[[424.25067,448.49295],[9.9804,-0.04087],[0,0]],[422.15716,448.49295]],&quot;closed&quot;:true}]}" fill="#ffffff"/></g><path d="M261.44221,224.22087c-0.03438,-0.03098 -0.06927,-0.06077 -0.10472,-0.08884zM262.8633,229.45199c-0.14685,-0.02854 -0.28729,-0.1031 -0.42293,-0.2121l-0.03404,0.20424l-1.19455,-0.79645c-0.40858,-0.25134 -0.70558,-1.01227 -0.70558,-1.91195c0,-1.10457 0.44767,-2 0.9999,-2h0.44536c-0.14378,-0.13845 -0.29211,-0.30966 -0.45097,-0.46083c-0.08024,-0.00368 -0.99429,-0.08761 -0.99429,-1.99983c0,-2 0.9999,-2 0.9999,-2l0.57409,0.14305c0.82642,0.66924 2.05741,0.40249 2.48798,1.9641c0.23321,0.84583 0.11886,2.87039 -0.23586,4.53929c0.62479,0.89699 1.21161,1.79517 1.30666,2.14319c1.25257,4.58631 -1.44889,12.78827 -3.26986,14.85895c-0.05851,0.06653 -0.11878,0.1233 -0.18052,0.17196c-0.39384,4.95454 -1.51351,9.73053 -3.90942,12.02799c-1.00223,0.96105 -2.36274,0.74672 -3.46441,0.31605c-0.03826,1.40593 -0.1686,2.78329 -0.53981,4.09858c-1.36048,4.82055 -5.42304,5.11882 -7.8435,2.84539c-0.70362,2.03409 -1.61927,3.6675 -2.76355,5.32392c-2.61105,1.12464 -6.64753,0.3981 -8.92945,-3.4339c-1.00374,0.50997 -2.17394,0.36224 -3.03468,0.36397c-3.1599,0.00635 -5.922,-0.35515 -7.2667,-6.89348c-0.00117,-0.15653 -0.00296,-0.32112 -0.0051,-0.49283c-1.93464,0.05887 -4.01183,-0.67352 -5.01785,-2.98715c-1.13586,-2.61223 -1.09313,-5.92122 -0.64527,-9.06281c-1.82626,-0.18411 -3.64492,-1.03032 -4.71243,-4.12863c-0.30554,-0.8868 -0.526,-2.03652 -0.6496,-3.28869c-1.65365,-0.56074 -3.22106,-2.07611 -3.71147,-4.38914c-0.32996,-1.55631 -0.01807,-4.0121 0.14604,-5.61826c0.39649,-3.88053 1.893,-8.62895 3.90807,-10.02095c0.8374,-0.57847 2.45713,-0.50027 3.35725,-0.50815c0,0 0.9999,0 0.9999,2c0,2 -0.9999,2 -0.9999,2c-0.75509,-0.00803 -2.02683,-0.133 -2.72486,0.30288c-1.50675,0.94088 -3.36731,7.1575 -2.83894,10.31375c0.10494,0.62687 1.02213,1.19063 1.18576,1.28137c0.21154,0.11731 0.42481,0.2352 0.63789,0.34342c0.23018,-2.84027 0.99839,-5.31681 2.4323,-5.68965c1.42699,-0.37104 1.8938,1.23421 2.8501,2.89988c-0.17076,2.71246 0.04121,4.15265 -1.13677,5.95087c-0.47768,0.72919 -1.18763,1.15946 -1.99031,1.3129c0.05159,0.3577 0.11075,0.64411 0.17491,0.82191c0.21566,0.5976 1.43614,1.90896 1.70805,2.07351c0.65993,0.39938 1.38451,0.45213 2.11261,0.41872c0.10805,-0.46831 0.21801,-0.9218 0.32637,-1.35658c0.44062,-2.03905 0.55278,-3.70914 1.89169,-4.36787c1.87989,-0.9249 4.11538,1.75219 3.36132,6.08161c-0.43703,2.50922 -2.46651,3.49209 -3.52992,3.53866c-0.239,0.01047 -0.48635,0.02483 -0.73969,0.03803c-0.42787,2.26345 -0.66599,4.78773 0.05418,6.33543c0.72578,1.55976 2.25821,1.68389 3.5403,1.56756c0.061,-2.68368 0.32609,-5.47023 1.24759,-6.73098c2.00199,-2.73903 4.85548,1.94584 4.14474,6.34374c-0.37068,2.29367 -1.26345,3.15931 -2.31227,3.7328c-0.32126,0.17566 -0.69376,0.33272 -1.10022,0.45991c-0.00026,0.02271 -0.00052,0.04548 -0.00077,0.06832c0.79228,4.24411 3.46972,3.646 5.30299,3.64991c0.26723,0.00057 1.01427,0.13871 1.70183,0.08896c-0.46478,-2.08399 -0.7451,-4.90745 0.17044,-6.23334c2.04804,-2.966 3.44602,4.38121 2.93512,7.14796c1.75215,2.22729 4.33159,3.10251 6.34048,2.41472c0.7746,-1.23844 1.4839,-2.47686 2.01206,-4.00157c-0.43202,-1.08638 -0.62164,-2.45668 -0.06542,-3.98837c0.09078,-0.24998 0.20008,-0.4559 0.32253,-0.63054l-0.02813,-0.07503l0.80287,-1.20442c0.16848,-0.25849 0.37928,-0.41212 0.60802,-0.41212c0.55223,0 0.9999,0.89543 0.9999,2v2.02758h-0.05472l0.04181,0.32036c-0.0196,0.11701 -0.03959,0.23276 -0.05996,0.34729c2.08904,1.35549 4.99401,2.76853 5.38452,-2.61008c0.03857,-0.53124 0.04819,-1.06642 0.04453,-1.60345c-0.44033,-0.98882 -0.85523,-2.39786 -0.65702,-3.61012c0.05302,-0.3243 0.13737,-0.60654 0.24348,-0.85956l-0.05213,-0.0782l0.60123,-1.60344c0.18195,-0.49635 0.47561,-0.81862 0.8069,-0.81862c0.55223,0 0.9999,0.89543 0.9999,2v2.00508c1.90598,0.26603 3.63773,0.61761 4.79219,-4.10033c0.26096,-1.06647 0.46649,-2.46485 0.59274,-3.89022c-1.11116,-0.66528 -1.75705,-0.79259 -2.265,-3.51995c-0.6239,-3.34994 0.36639,-8.70376 2.76523,-6.9283c0.94546,0.69977 1.38865,2.94013 1.55475,5.13178c0.64209,-1.28255 1.11101,-3.10514 1.34679,-4.67752c0.02774,-0.18498 0.33333,-3.19677 0.27211,-3.38112c-0.22906,-0.68967 -0.61612,-1.05592 -0.99752,-1.44303zM262.68573,224.94064c0.02209,-0.04169 0.04419,-0.0817 0.06561,-0.11923c-0.07877,0.09054 -0.15565,0.14364 -0.23155,0.16729v0.06489zM260.30303,240.19881c-0.0222,-0.45375 -0.06178,-0.90643 -0.12619,-1.34329c-0.07461,-0.50604 -0.3904,-1.88252 -0.40804,-1.35611c-0.05136,1.53297 0.03169,2.20196 0.53423,2.6994zM226.57195,253.80425c0.56018,-0.1494 1.18495,-0.48845 1.34494,-1.34249c0.2318,-1.23732 -0.94008,-2.10704 -1.12642,-1.76656c-0.1254,0.22913 0.01638,0.68652 -0.01991,1.0184c-0.08188,0.74896 -0.14708,1.43059 -0.19862,2.09065zM221.72398,242.16583c0.37866,-0.05556 0.75579,-0.38217 1.06767,-0.80949c0.17568,-0.24071 0.79579,-0.51292 0.5829,-0.52286c-0.39384,-0.01839 -0.77184,-0.43618 -1.16524,-0.39474c-0.33325,0.0351 -0.39554,0.98175 -0.48532,1.72709zM215.32877,234.89894c0.55158,-0.16246 1.05087,-0.6725 1.45213,-1.77219c-0.30932,-0.11345 -0.93121,-0.72708 -1.19723,-0.11062c-0.14707,0.3408 -0.22668,1.04623 -0.25489,1.88281z" fill="#ffba00" stroke="#000000" stroke-width="2"/><g stroke="#000000" stroke-width="2"><path d="M232.87187,226.96648c0,0 0.01488,-0.00744 0.04209,-0.01892c-8.94862,0.53732 -18.21519,1.96802 -26.84272,-0.18887c-2.25154,0 -4.20529,-1.04564 -6.40324,-1.28064c-1.71187,-0.18303 -3.37702,0.01937 -4.8212,-1.24615c-1.72177,-1.50877 -1.47899,-2.99527 -1.72774,-4.98262c-0.56703,-4.53025 -1.61033,-9.00029 -1.61033,-13.60209c0.01508,-2.28894 -0.66317,-4.32719 -0.95096,-6.56811c-0.41166,-3.20539 -0.7874,-6.39258 -1.27376,-9.55656c-0.84228,-5.47936 -0.65673,-11.28951 -0.65673,-16.85201c0,-6.93684 0,-13.87367 0,-20.81051v-0.64033c0,0 0,-0.17944 0.06742,-0.40347c-0.89674,-4.84439 -0.38759,-10.03921 -0.38759,-14.94501c0,-8.86219 -0.32016,-17.70583 -0.32016,-26.57343c0,-1.31653 -0.43005,-4.06701 0.09675,-5.3081c0.70014,-1.64949 3.0233,-2.81564 4.44779,-3.53189c3.27461,-1.64652 7.17312,-2.38807 10.81359,-2.37532c1.30293,0.00457 3.32099,0.08623 4.46816,0.8053c2.34536,1.47011 2.22919,5.3547 2.2456,7.82943c0,10.16549 0.64016,20.23824 0.64032,30.41535c0.00008,4.93583 0.64273,10.32747 -0.32635,15.17287c-0.09396,0.11653 -0.41806,0.28739 -0.2819,0.3496c1.1242,0.51367 3.83181,-0.46355 5.10015,-0.46521c2.88125,-0.00377 5.76317,-0.01399 8.64437,0c1.40858,0.00684 2.80425,0.33933 4.17017,0.68344c3.11211,0.78403 6.49579,0.93365 9.65521,1.52083c3.88046,0.72117 7.94766,1.98003 11.87766,1.96104c3.12336,0.44191 6.25157,0.84192 9.37425,1.29021c0.71727,0.10298 1.44466,0.15138 2.15158,0.3106c0.15848,0.0357 0.3021,0.38887 0.40835,0.266c0.3927,-0.45417 0.0748,-1.20057 0.17312,-1.79287c0.30253,-1.82247 0.62141,-3.68515 0.61871,-5.52953c-0.00808,-5.52715 0.32016,-11.09772 0.32016,-16.64841c0.01053,-6.62188 0.00396,-14.34264 2.32759,-20.63096c0.3596,-0.97317 1.1754,-1.71798 1.63771,-2.64677c1.10852,-2.22703 2.0603,-4.93813 4.20739,-6.53865c2.0437,-1.52344 3.79074,-1.29076 6.06965,-1.86048c2.53563,-0.01375 7.17959,-0.81822 9.09465,1.36136c1.27423,1.45022 1.07151,3.46863 1.28666,5.18758c0.83046,6.6349 0.32969,13.60759 0.32969,20.32549c0,11.81087 -0.96049,23.41241 -0.96049,35.2178c0,10.8855 0,21.771 0,32.6565c-0.03249,4.89923 -0.98347,10.02744 -1.61033,14.88274c-0.23749,1.83944 0.20869,3.86473 -0.79578,5.59351c-1.64052,2.8235 -6.48748,4.08967 -9.25128,5.34511c-2.54057,1.01666 -5.27806,2.22708 -8.00671,2.65112c-5.41867,0.84207 -10.97241,0.28387 -16.44123,0.65103c-4.08728,0.27441 -8.13035,0.32174 -12.22946,0.32174c-1.43231,0 -2.87817,0.04762 -4.33343,0.12342c0.14607,0.05309 0.2914,0.1424 0.42375,0.28421c-0.67176,-0.00198 -1.34066,0.01207 -1.99938,0.05397c0.18016,-0.08618 0.35958,-0.17394 0.53822,-0.26334zM191.16928,152.74576c0,6.64159 0,13.28317 0,19.92476c0,5.42638 -0.19862,11.10293 0.62391,16.44483c0.82277,5.34344 2.22795,11.07488 2.25754,16.53185c0,4.49072 1.03882,8.86607 1.59129,13.2915c0.14794,1.18507 -0.2515,2.45196 0.83356,3.34158c1.02363,0.83926 2.33062,0.54014 3.50301,0.67482c2.19983,0.25271 4.16223,1.28064 6.40323,1.28064c10.24799,2.56199 21.42542,-0.00952 31.86089,-0.00952c4.05747,0 8.05722,-0.05291 12.10283,-0.31859c5.39653,-0.3544 10.86981,0.18355 16.21528,-0.62962c2.49988,-0.38029 5.03621,-1.54197 7.36104,-2.47147c2.00008,-0.90975 6.86362,-2.14074 8.03747,-4.25975c0.75838,-1.36902 0.30805,-3.19468 0.48487,-4.65166c0.57536,-4.741 1.63169,-9.79752 1.59128,-14.57215c0,-10.8855 0,-21.771 0,-32.6565c0,-11.80623 0.96048,-23.40762 0.96048,-35.2178c0,-5.65612 -0.016,-11.31249 0,-16.96858c0.00457,-1.615 0.15002,-5.47207 -0.94495,-6.82327c-1.05241,-1.29868 -5.49266,-0.55025 -6.91344,-0.55961c-1.78821,0.44705 -3.25575,0.1607 -4.81586,1.34114c-1.80549,1.3661 -2.54048,3.76308 -3.47649,5.6275c-0.43796,0.87237 -1.23613,1.55636 -1.5639,2.47582c-2.14527,6.01787 -2.1657,13.39449 -2.15467,19.70943c0,6.65979 0.34856,13.51377 -0.66143,20.09146c-0.16156,1.05214 -0.33276,5.04371 -1.42819,5.88298c-0.85557,0.6555 -3.68969,0.04904 -4.48362,-0.06373c-3.06375,-0.43518 -6.13262,-0.82907 -9.19514,-1.27108c-1.58121,-0.00702 -3.14267,-0.38535 -4.69029,-0.70961c-6.18821,-1.29655 -12.64909,-2.42139 -18.83178,-3.47223c-2.71168,-0.46089 -5.94975,0.02293 -8.72417,0.02293c-2.01377,0 -4.5996,0.69353 -6.52848,0.31398c-0.84349,-0.16598 -1.87774,-0.14534 -2.45849,-0.77918c-0.50207,-0.54797 -0.18793,-1.47446 -0.28189,-2.21169c0.95303,-4.76519 0.31405,-10.06742 0.31397,-14.92234c-0.00016,-10.17691 -0.64032,-20.24955 -0.64032,-30.4154c0.00936,-1.10635 0.15307,-5.11489 -0.95603,-5.61737c-3.68839,-1.67106 -9.5337,-0.03636 -12.89248,1.6316c-0.74057,0.36777 -2.81381,1.2673 -3.2361,2.23103c-0.34082,0.77782 0.09675,3.5163 0.09675,4.33532c0,8.86764 0.32017,17.71112 0.32017,26.57343c0,5.12658 -0.66127,10.70229 0.60237,15.68055c0,0 0.17921,0.71684 -0.28221,1.19402z" fill="#000000"/><path d="M191.40293,151.53982c-1.26364,-4.97826 -0.59712,-10.56705 -0.59712,-15.69363c0,-8.86231 -0.30988,-17.71834 -0.30988,-26.58598c0,-0.81901 -0.43615,-3.55871 -0.09533,-4.33652c0.42229,-0.96372 2.49761,-1.86487 3.23818,-2.23263c3.35878,-1.66797 9.21114,-3.30697 12.89952,-1.63591c1.10909,0.50248 1.0115,4.59974 1.00214,5.70609c0,10.16585 0.65419,20.22731 0.65435,30.40422c0.00008,4.85492 0.64839,10.14134 -0.30464,14.90653c0.09396,0.73723 -0.21918,1.66066 0.2829,2.20863c0.58076,0.63384 1.51897,0.58529 2.36247,0.75126c1.92888,0.37955 4.51626,-0.31851 6.53003,-0.31851c2.77442,0 6.01785,-0.49383 8.72953,-0.03294c6.18269,1.05085 12.72622,2.17628 18.91442,3.47283c1.54762,0.32425 3.11488,0.71429 4.69608,0.72131c3.06252,0.44201 6.13365,0.84559 9.1974,1.28077c0.79393,0.11277 3.52875,0.7309 4.38432,0.0754c1.09544,-0.83927 1.26873,-4.82086 1.43028,-5.87301c1.00999,-6.57769 0.67445,-13.41077 0.67445,-20.07056c-0.01103,-6.31494 0.01788,-13.68501 2.16316,-19.70287c0.32777,-0.91945 1.12591,-1.60347 1.56387,-2.47584c0.93601,-1.86442 1.72332,-4.34662 3.52882,-5.71272c1.56011,-1.18044 3.02969,-0.89276 4.8179,-1.33982c1.42077,0.00936 5.86431,-0.73662 6.91672,0.56206c1.09497,1.3512 0.95226,5.21066 0.94769,6.82566c-0.016,5.65609 0.00661,11.32006 0.00661,16.97618c0,11.81018 -0.95136,23.44233 -0.95136,35.24856c0,10.8855 -0.00982,21.79889 -0.00982,32.68439c0.04041,4.77463 -1.02233,9.83825 -1.5977,14.57925c-0.17682,1.45698 0.27161,3.28429 -0.48677,4.65331c-1.17385,2.11901 -6.04269,3.35382 -8.04276,4.26357c-2.32484,0.92951 -4.86611,2.09391 -7.36599,2.4742c-5.34546,0.81316 -10.83016,0.27907 -16.22669,0.63347c-4.04561,0.26567 -8.05507,0.31963 -12.11253,0.31963c-10.43547,0 -21.63608,2.56606 -31.88407,0.00407c-2.241,0 -4.20727,-1.03012 -6.4071,-1.28283c-1.17238,-0.13468 -2.4813,0.16317 -3.50493,-0.67609c-1.08506,-0.88962 -0.68712,-2.15759 -0.83506,-3.34266c-0.55247,-4.42542 -1.597,-8.80578 -1.597,-13.2965c-0.0296,-5.45696 -1.44247,-11.1986 -2.26524,-16.54203c-0.82253,-5.34189 -0.62944,-11.03297 -0.62944,-16.45935c0,-6.64158 0.00008,-13.30413 0.00008,-19.94571c0.46142,-0.47719 0.28251,-1.19528 0.28251,-1.19528z" data-paper-data="{&quot;noHover&quot;:false,&quot;origItem&quot;:[&quot;Path&quot;,{&quot;applyMatrix&quot;:true,&quot;segments&quot;:[[[323.60448,200.90993],[0.92284,-0.95438],[0,13.28317]],[[323.60448,240.75944],[0,-13.28317],[0,10.85276]],[[324.85231,273.64909],[-1.64507,-10.68379],[1.64554,10.68687]],[[329.36739,306.71278],[-0.05919,-10.91393],[0,8.98144]],[[332.54997,333.29578],[-1.10493,-8.85085],[0.29588,2.37014]],[[334.21709,339.97894],[-2.17012,-1.77925],[2.04725,1.67851]],[[341.2231,341.32858],[-2.34477,-0.26936],[4.39966,0.50542]],[[354.02957,343.88987],[-4.482,0],[20.49598,5.12399]],[[417.75134,343.87083],[-20.87094,0],[8.11493,0]],[[441.957,343.23366],[-8.09122,0.53135],[10.79306,-0.70879]],[[474.38756,341.97443],[-10.69093,1.62633],[4.99977,-0.76058]],[[489.10965,337.03148],[-4.64967,1.85902],[4.00015,-1.81951]],[[505.18458,328.51198],[-2.34769,4.23802],[1.51676,-2.73804]],[[506.15432,319.20866],[-0.35364,2.91395],[1.15073,-9.482]],[[509.33689,290.06436],[0.08081,9.54926],[0,-21.771]],[[509.33689,224.75136],[0,21.771],[0,-23.61247]],[[511.25786,154.31576],[0,23.62036],[0,-11.31224]],[[511.25786,120.3786],[-0.032,11.31219],[0.00914,-3.23]],[[509.36796,106.73206],[2.18994,2.7024],[-2.10481,-2.59735]],[[495.54109,105.61283],[2.84155,0.01872],[-3.57641,0.89411]],[[485.90937,108.29511],[3.12023,-2.36088],[-3.61099,2.73221]],[[478.95638,119.55012],[1.87203,-3.72885],[-0.87593,1.74473]],[[475.82858,124.50176],[0.65554,-1.83891],[-4.29055,12.03573]],[[471.51924,163.92061],[-0.02206,-12.62988],[0,13.31958]],[[470.19638,204.10353],[2.01998,-13.15538],[-0.32311,2.10429]],[[467.33999,215.86948],[2.19088,-1.67854],[-1.71114,1.31099]],[[458.37274,215.74202],[1.58786,0.22554],[-6.12751,-0.87036]],[[439.98246,213.19985],[6.12504,0.88402],[-3.16241,-0.01403]],[[430.60188,211.78064],[3.09523,0.64851],[-12.37641,-2.5931]],[[392.93832,204.83617],[12.36539,2.10169],[-5.42335,-0.92178]],[[375.48998,204.88204],[5.54884,0],[-4.02754,0]],[[362.43302,205.50999],[3.85776,0.7591],[-1.68699,-0.33195]],[[357.51604,203.95163],[1.16151,1.26768],[-1.00415,-1.09593]],[[356.95225,199.52825],[0.18793,1.47446],[1.90607,-9.53038]],[[357.5802,169.68357],[0.00015,9.70983],[-0.00031,-20.35383]],[[356.29955,108.85278],[0,20.33169],[0.01872,-2.2127]],[[354.3875,97.61804],[2.21819,1.00497],[-7.37677,-3.34212]],[[328.60253,100.88125],[6.71756,-3.33593],[-1.48114,0.73553]],[[322.13033,105.3433],[0.84458,-1.92745],[-0.68165,1.55563]],[[322.32383,114.01393],[0,-1.63803],[0,17.73528]],[[322.96416,167.16079],[0,-17.72462],[0,10.25316]],[[324.16891,198.52188],[-2.52729,-9.95652],[0,0]]],&quot;closed&quot;:true}]}" fill="#ffffff"/></g><g stroke="none" stroke-width="0.5"><path d="M241.00073,168.45566c0.59252,-0.60415 1.49294,-0.60415 1.49294,-0.60415l1.24808,0.0201c11.36306,-1.59801 23.40097,-1.25308 34.88174,-1.24484c2.16384,0.00155 7.69947,-1.14169 9.37503,0.2796c0.91649,0.77742 0.39052,2.37168 0.58578,3.55751c-0.01558,7.07757 -1.60955,15.33188 -5.16914,21.51825c-1.56741,2.72407 -4.48764,5.73212 -7.7002,6.45397c-5.758,1.29379 -13.15405,-0.37954 -18.90888,-1.20854c-6.62142,-1.64907 -13.73639,-5.24548 -15.34987,-12.56824c-0.66158,-3.00257 -0.55644,-6.67281 -0.3463,-9.72693c0.05682,-0.82583 1.14965,-2.33003 0.3323,-2.46102c-1.67463,-0.26838 -3.94121,0.20803 -5.95671,0.46153c-0.07885,0.64177 -0.15548,1.18003 -0.19507,1.47066c-1.00234,7.35759 -4.48591,14.37201 -11.36136,17.82629c-6.44592,1.81388 -15.96523,0.83904 -22.04855,-1.87203c-5.01798,-2.2363 -9.4516,-10.43723 -10.35061,-15.59317c-0.30106,-1.72665 0.06174,-3.49853 0.30046,-5.19599c0,0 0.28284,-1.9799 2.26274,-1.69705c0.84804,0.12115 1.28096,0.55364 1.49877,1.00854c4.66609,-0.49557 9.46428,-0.41628 14.14,-0.41628c6.17693,0 12.31237,-0.20029 18.43631,-0.90399c1.80042,-0.20688 5.8704,-0.92013 7.34172,0.77145c0.09062,0.10419 0.15017,0.30445 0.18568,0.5716c1.64142,-0.20043 3.64549,-0.497 5.30515,-0.44728z" fill="#000000"/><path d="M201.58878,180.00609c-0.10589,0.57506 -0.49931,1.64334 -1.961,1.64334c-2,0 -2,-2 -2,-2l0.33589,-1.41559c1.33602,-2.00403 2.52919,-3.79477 4.2303,-5.50995c0,0 1.41421,-1.41422 2.82842,0c1.41422,1.41422 0,2.82842 0,2.82842c-1.39798,1.38422 -2.36621,2.84605 -3.43361,4.45379z" fill="#ffffff"/><path d="M204.72247,185.95718c-1.71499,-1.02899 -0.686,-2.74398 -0.686,-2.74398l0.84469,-1.39636c1.07631,-2.09534 2.5147,-3.47335 3.79897,-5.42012c0,0 1.1094,-1.6641 2.7735,-0.5547c1.6641,1.1094 0.5547,2.7735 0.5547,2.7735c-1.19607,1.77847 -2.62748,3.07541 -3.54946,4.99017l-0.99242,1.66549c0,0 -1.02899,1.71499 -2.74398,0.686z" fill="#ffffff"/><path d="M249.82202,182.46534c-1.89736,-0.63245 -1.26491,-2.52983 -1.26491,-2.52983l0.67145,-1.99249c1.09883,-2.55452 2.1394,-4.45626 4.0983,-6.44389c0,0 1.41421,-1.41422 2.82843,0c1.41422,1.41422 0,2.82843 0,2.82843c-1.63419,1.60403 -2.35295,3.08915 -3.25014,5.19114l-0.55329,1.68173c0,0 -0.63246,1.89737 -2.52983,1.26491z" fill="#ffffff"/><path d="M256.55809,186.13956c-1.89736,-0.63245 -1.26491,-2.52982 -1.26491,-2.52982l0.41469,-1.18053c1.29088,-2.57035 2.79275,-4.88939 3.93097,-7.54803c0,0 0.78784,-1.83829 2.62613,-1.05045c1.83829,0.78784 1.05045,2.62612 1.05045,2.62612c-1.17105,2.72973 -2.71656,5.12145 -4.02984,7.76122l-0.19768,0.65658c0,0 -0.63245,1.89737 -2.52982,1.26492z" fill="#ffffff"/></g><path d="M217.09512,212.70195c0.52022,-0.0855 0.96955,-0.111 1.3106,-0.05903c1.80021,0.27433 4.36038,0.70121 4.88536,2.44489c0.5112,1.69791 -1.57647,3.23462 -2.78462,4.53255c-0.48052,0.51622 -1.16413,0.76305 -1.84041,1.0205l-0.44387,0.38046l-0.06412,-0.0748l-0.17999,0.25937c-3.08452,1.54593 -10.64072,5.68119 -12.73923,-0.82585c-0.36617,-1.13541 0.72884,-2.05694 1.871,-2.89742c0.47456,-0.88556 1.35089,-1.80426 2.46855,-2.80479c1.02487,-0.91747 2.31296,-1.57197 3.63405,-1.95512c1.08326,-0.31417 2.25518,-0.05329 3.38277,-0.07993c0,0 0.20609,0 0.49992,0.05917z" fill="#000000" stroke="none" stroke-width="0.5"/><g data-paper-data="{&quot;index&quot;:null}"><path d="M329.09469,240.85128c3.35718,2.74528 6.67681,4.3739 10.84563,5.63929c2.54428,0.7723 5.7722,0.98853 7.37962,3.54259c1.64387,2.61199 1.68216,5.93931 2.32302,8.82695c2.01707,9.08876 6.70031,18.19529 2.40028,27.38251c-1.31654,2.793 -2.62261,5.92008 -5.09851,7.94068c-2.32355,1.89626 -5.82313,3.10147 -8.40351,4.73215c-9.87872,6.24291 -19.84675,11.23659 -31.20544,14.14971c-3.32094,2.51939 -7.63702,4.45389 -11.36732,6.3965c-5.71571,2.97653 -11.05879,6.62537 -16.75555,9.59658c-2.33519,1.21794 -8.48479,5.38547 -11.26135,3.32405c-0.99328,-0.73745 -0.70438,-2.37527 -0.94851,-3.58805c-0.78068,-3.87817 -0.81354,-8.10646 -1.20503,-12.04248c-0.0033,-3.62681 -0.94403,-9.43263 1.46968,-12.65973c0.00343,-0.00459 0.00685,-0.00916 0.01029,-0.01373c-2.27982,0.4602 -4.55483,0.91298 -6.8208,1.36164c-2.80754,0.5559 -5.62069,1.84033 -8.38435,2.34298c-1.14421,0.20811 -2.42807,0.58382 -3.48737,0.10384c-2.16115,-0.97923 -2.75477,-3.86286 -3.10601,-5.81888c-0.67293,-3.7476 -1.01431,-7.8687 -0.77661,-11.6638c0.17826,-4.8169 1.82303,-7.49188 6.21262,-9.70504c-1.08271,0.24904 -2.12479,0.53358 -3.33026,1.05963c-3.29222,1.4367 -4.48692,3.81781 -8.20484,0.51339c-0.8934,-0.79405 -0.74588,-2.27126 -1.10482,-3.41135c-1.59282,-5.05919 -2.15201,-9.89544 -2.67887,-15.14974c-0.07195,-1.09417 -0.50453,-2.22466 -0.21583,-3.28252c1.4593,-5.34717 8.96816,-5.00129 13.28919,-5.69052c7.94888,-1.2679 15.55911,-0.1353 23.44874,0.31104c5.29249,0.2994 11.16549,-1.19523 16.47415,-1.64158c1.30321,-0.6792 2.79401,-0.9456 4.23987,-1.20851c0.64286,-0.11689 1.26294,-0.33594 1.89155,-0.51422c0.49988,-0.14177 2.03766,-0.25168 1.52377,-0.32845c-3.16026,-0.47216 -6.96767,-0.4287 -9.97845,-1.45721c-3.70628,-1.26611 -6.69888,-4.09888 -10.03918,-6.01149c-3.28178,-1.8791 -7.52901,-2.31539 -6.66798,-7.24316c0.54042,-3.09286 5.24132,-6.29859 7.14903,-8.63534c2.49929,-3.04784 5.34645,-6.67788 9.64716,-6.81943c2.96582,-0.09761 6.91449,2.40154 9.61332,3.35507c5.99821,2.11921 11.44348,5.33186 17.29718,7.84141c5.49747,2.35682 11.83727,3.47698 15.59229,8.27455zM295.91723,293.51607c0.74082,-0.23515 1.48074,-0.47361 2.21943,-0.71668c1.95925,-0.64471 6.36703,-2.98573 8.44244,-3.12566c0.04517,-0.00304 0.09035,-0.00574 0.13552,-0.00812l-0.0052,-0.02434l3.29316,-0.70397c0.0804,-0.0183 0.1628,-0.03184 0.24695,-0.04028c1.09906,-0.1102 2.07936,0.69142 2.18956,1.79048c0.08565,0.85421 -0.37949,1.63667 -1.10698,1.99466l-1.74995,0.91204l-0.04587,-0.08799l-0.1501,0.17706c-3.33936,0.92287 -6.55451,2.01899 -9.86737,3.01008c-0.80038,0.2171 -1.60273,0.4312 -2.40683,0.64248c-3.99094,1.26904 -8.00796,2.43697 -11.99866,3.71399c-2.59027,0.82889 -5.10034,2.33452 -7.69908,3.05025c-1.5813,0.43552 -5.84334,0.66408 -6.85765,2.26865c-1.65088,2.61157 -0.7624,7.34991 -0.76356,10.18269c0.3834,3.7909 1.85951,9.1957 0.69067,12.73435c-0.07482,0.22648 0.2092,-0.45086 0.401,-0.59267c0.46752,-0.34563 1.00143,-0.59568 1.53099,-0.83566c0.8217,-0.37236 1.70044,-0.61165 2.5156,-0.99812c2.69339,-1.27695 5.11219,-2.85397 7.61435,-4.43263c7.38384,-4.65862 16.04109,-7.82783 23.04048,-12.95856c11.22666,-3.18801 20.95935,-7.70368 30.81821,-13.93404c2.41827,-1.52824 5.87496,-2.67474 8.01624,-4.45378c1.96542,-1.63295 2.95403,-4.3147 4.00447,-6.54318c3.84556,-8.09207 -0.91943,-16.88387 -2.69994,-24.87047c-0.53145,-2.38386 -0.53547,-5.13344 -1.70205,-7.36842c-0.76363,-1.46299 -3.97593,-1.59461 -5.23712,-1.97785c-4.65552,-1.41467 -8.46353,-3.29805 -12.22336,-6.37259l-1.23194,-1.00739c0,0 -0.52901,-0.43259 -0.71572,-1.10127c-3.21491,-3.05725 -8.91966,-4.05961 -12.92227,-5.77686c-5.76281,-2.47243 -11.12931,-5.65839 -17.03312,-7.73907c-2.22187,-0.78306 -5.93804,-3.09456 -8.37823,-3.13433c-2.59568,-0.04231 -5.00295,3.54874 -6.47319,5.35229c-1.70595,2.083 -3.65068,3.83978 -5.44762,5.82389c-0.46718,0.51585 -1.54195,1.40322 -0.99608,1.83496c1.40584,1.11191 3.33478,1.34564 4.88974,2.23716c3.10257,1.77882 5.89771,4.48227 9.32389,5.68188c2.97062,1.04011 6.53953,-0.19887 9.35725,1.4113c2.86786,1.63883 4.65678,2.84904 2.13734,6.37758c-1.76761,2.47557 -6.84123,2.03248 -9.33513,3.33224c-5.72481,0.64359 -12.1203,2.08623 -17.86229,1.8014c-6.76927,-0.33578 -13.26269,-1.2799 -20.09462,-0.59795c-2.08565,0.20819 -4.13982,0.65948 -6.20847,0.99701c-3.24844,0.53005 -6.67486,-0.41311 -5.99536,3.87127c0.5088,5.07417 1.37899,9.55237 2.55435,14.48351c0.135,0.5664 -0.14014,1.24335 0.16556,1.73891c0.68826,1.11574 2.47338,-0.88071 3.66342,-1.43061c2.5825,-1.19332 6.05855,-2.01526 8.88399,-2.49292c11.01022,-1.86137 22.17354,-2.11726 32.95112,-4.7986c2.76054,-0.68092 5.45272,-1.5324 8.18115,-2.27434c0.79417,-0.35548 1.5152,-1.06854 2.38099,-1.04084c0.10836,0.00347 0.21629,0.00984 0.32386,0.01884l-0.00767,-0.07651l2.61256,-0.26197c1.09906,-0.1102 2.07936,0.69142 2.18956,1.79048c0.10016,0.99886 -0.55284,1.89963 -1.49777,2.13829l-2.17018,0.58915l-0.00465,-0.01714l-0.03483,0.02742c-0.82103,0.18636 -1.6359,0.39167 -2.44724,0.60833c-3.04316,1.30362 -6.03728,2.47042 -9.26984,3.2104c-9.02843,2.06674 -17.81013,4.89349 -26.8311,6.98413c-4.05797,0.94045 -8.94558,0.89787 -11.96455,4.24972c-0.89301,0.99148 -0.54789,2.77194 -0.55665,3.82512c-0.24213,3.54599 0.18302,7.29054 0.72237,10.80438c0.14887,0.96988 -0.15287,2.52856 0.77794,2.83905c1.25792,0.41961 2.48058,-0.94161 3.74283,-1.34803c3.14021,-1.01108 6.43718,-1.43761 9.65856,-2.0882c10.714,-2.1638 21.7011,-4.48326 32.31664,-7.27436z" fill="#000000" stroke="#000000" stroke-width="1"/><path d="M298.14479,292.8488c-0.73869,0.24307 -1.48501,0.48218 -2.22583,0.71731c-10.61554,2.79111 -21.64352,5.09175 -32.35753,7.25555c-3.22137,0.65059 -6.52095,1.07353 -9.66116,2.08462c-1.26225,0.40641 -2.48539,1.76691 -3.74332,1.3473c-0.93081,-0.31049 -0.63044,-1.87147 -0.77931,-2.84134c-0.53935,-3.51384 -0.96852,-7.26757 -0.72639,-10.81357c0.00876,-1.05317 -0.33736,-2.83718 0.55565,-3.82865c3.01897,-3.35185 7.90618,-3.31109 11.96414,-4.25154c9.02096,-2.09065 17.80166,-4.92761 26.83009,-6.99435c3.23256,-0.73998 6.30333,-1.94888 9.34648,-3.25249c0.81134,-0.21666 1.63751,-0.41221 2.45855,-0.59858l0.03484,-0.02741l0.00473,0.01724l2.17378,-0.58438c0.94493,-0.23867 1.5173,-1.08044 1.41715,-2.07931c-0.11021,-1.09907 -1.08067,-1.89138 -2.17973,-1.78117l-2.60271,0.26746l0.00747,0.07642c-0.10756,-0.009 -0.21386,-0.01471 -0.32222,-0.01817c-0.86578,-0.0277 -1.57392,0.68841 -2.36809,1.04389c-2.72843,0.74194 -5.37344,1.57043 -8.13397,2.25135c-10.77759,2.68134 -21.93313,2.9104 -32.94335,4.77177c-2.82543,0.47766 -6.30155,1.29707 -8.88405,2.4904c-1.19004,0.5499 -3.07496,2.55268 -3.76322,1.43693c-0.3057,-0.49556 -0.03065,-1.17415 -0.16565,-1.74055c-1.17536,-4.93114 -2.04443,-9.42218 -2.55323,-14.49634c-0.67951,-4.28438 2.7482,-3.34591 5.99663,-3.87596c2.06865,-0.33754 4.12387,-0.79171 6.2095,-0.9999c6.83193,-0.68194 13.33104,0.25165 20.1003,0.58743c5.74199,0.28482 12.16384,-1.17683 17.88866,-1.82043c2.4939,-1.29975 7.59063,-0.85807 9.35823,-3.33364c2.51944,-3.52853 0.71894,-4.63958 -2.14892,-6.27842c-2.81771,-1.61018 -6.37103,-0.37274 -9.34164,-1.41285c-3.42618,-1.19961 -6.21217,-3.90645 -9.31474,-5.68525c-1.55497,-0.89152 -3.48041,-1.12712 -4.88626,-2.23902c-0.54587,-0.43173 0.48005,-1.40635 0.94724,-1.9222c1.79695,-1.9841 3.74897,-3.74405 5.45491,-5.82706c1.47024,-1.80355 3.88497,-5.39654 6.48066,-5.35423c2.44019,0.03978 6.16449,2.35051 8.38636,3.13357c5.90381,2.08067 11.29015,5.27045 17.05296,7.74289c4.00262,1.71726 9.72099,2.72807 12.93589,5.78531c0.18671,0.66868 0.71678,1.10222 0.71678,1.10222l1.23324,1.00863c3.75983,3.07454 7.57592,4.96836 12.23143,6.38303c1.26119,0.38324 4.47535,0.51842 5.23899,1.98142c1.16659,2.23498 1.17317,4.99106 1.70462,7.37493c1.78051,7.9866 6.54712,16.80175 2.70155,24.89382c-1.05044,2.22848 -2.04066,4.91696 -4.0061,6.54991c-2.14128,1.77904 -5.60067,2.93233 -8.01894,4.46057c-9.85886,6.23036 -19.62199,10.77202 -30.84865,13.96004c-6.99939,5.13073 -15.68429,8.30036 -23.06813,12.95898c-2.50216,1.57867 -4.9263,3.1539 -7.61969,4.43086c-0.81516,0.38648 -1.69549,0.6251 -2.51719,0.99746c-0.52957,0.23998 -1.06431,0.48966 -1.53183,0.83529c-0.1918,0.1418 -0.4759,0.81911 -0.40109,0.59262c1.16884,-3.53865 -0.31271,-8.9464 -0.69611,-12.73729c0.00116,-2.83278 -0.89221,-7.57459 0.75867,-10.18616c1.01432,-1.60457 5.33417,-1.91451 6.91547,-2.35003c2.59874,-0.71573 5.1008,-2.22542 7.69107,-3.0543c3.9907,-1.27702 7.98501,-2.44833 11.97595,-3.71738c0.8041,-0.21128 1.60081,-0.42459 2.40118,-0.64168c3.31287,-0.99108 6.50715,-2.07765 9.84651,-3.00051l0.14971,-0.17676l0.0459,0.08797l1.74682,-0.90933c0.72749,-0.35799 1.18933,-1.13704 1.10368,-1.99124c-0.1102,-1.09906 -1.01567,-1.83435 -2.11473,-1.72414c-0.08415,0.00844 -0.16688,0.02234 -0.24728,0.04064l-3.29866,0.70915l0.00518,0.02437c-0.04517,0.00238 -0.09058,0.00527 -0.13575,0.00832c-2.07541,0.13993 -6.50626,2.49123 -8.46551,3.13595z" data-paper-data="{&quot;noHover&quot;:false,&quot;origItem&quot;:[&quot;Path&quot;,{&quot;applyMatrix&quot;:true,&quot;segments&quot;:[[[732.16474,172.3011],[-0.32011,1.52116],[3.43611,-21.68211]],[[740.19232,106.53876],[-2.16809,21.75285],[0.65188,-6.54043]],[[742.42059,86.90135],[-1.38547,6.45084],[0.55691,-2.593]],[[744.35635,79.18404],[1.08604,2.41957],[-0.80363,-1.79038]],[[738.55135,78.20243],[1.95978,0.10272],[-7.10023,-0.37215]],[[716.90626,78.92084],[7.0083,-1.18942],[-2.09409,0.22758]],[[709.40527,80.79186],[1.79487,-1.97495],[-6.06784,6.67664]],[[703.33567,105.44956],[1.06178,-8.26311],[-2.36036,18.36909]],[[694.79105,160.23764],[2.3113,-18.37915],[-0.82754,6.58052]],[[690.25202,179.32541],[1.98699,-6.31607],[-0.26926,1.65782]],[[689.52975,184.31686],[0.20703,-1.67107],[0,0]],[689.48213,184.39163],[689.51716,184.39747],[[688.77779,188.83373],[0,0],[-0.2864,1.92805]],[[684.8214,192.241],[2.00774,0],[-2.20914,0]],[[680.8214,188.241],[0,2.20914],[0,0]],[680.8214,182.98968],[[680.97517,182.98968],[0,0],[-0.03938,-0.21226]],[[680.87305,182.34896],[0.02852,0.21494],[-0.22788,-1.71741]],[[682.46923,177.40304],[-0.54894,1.65133],[0.93204,-5.57767]],[[685.36273,160.66856],[-0.8042,5.62939],[3.18535,-21.98267]],[[688.3369,94.13763],[-1.50716,22.28197],[0.38677,-5.71799]],[[691.52513,75.96087],[-1.85944,5.37733],[0.85685,-2.47794]],[[693.64106,68.38511],[2.35769,1.14702],[-1.04717,-0.50945]],[[690.14757,68.40263],[1.15407,0.15564],[-10.0476,-1.35503]],[[660.8154,66.20949],[10.19923,0],[-8.6616,-0.49731]],[[654.30781,78.91287],[0.40661,-6.57023],[-0.25893,4.18401]],[[653.56259,91.4668],[-0.00188,-4.19201],[0.00617,13.73176]],[[658.76225,131.3362],[-2.01896,-13.40397],[1.71257,11.36984]],[[658.74172,167.24199],[0.13841,-11.52094],[-2.0889,5.22226]],[[653.97325,186.484],[4.57372,-4.01155],[-6.51912,5.71783]],[[640.85525,183.50324],[3.83357,5.38009],[-3.76653,-5.28601]],[[636.17956,165.16374],[2.6626,5.70404],[-3.07092,-6.5788]],[[623.01199,147.74277],[4.15897,5.81923],[-2.08442,-2.91652]],[[617.58429,138.45848],[2.49323,2.57579],[-0.96808,-1.00013]],[[614.13145,140.80686],[0.93332,-1.03264],[-3.58985,3.97188]],[[603.62882,152.80986],[3.80482,-3.81052],[-3.29572,3.2857]],[[594.26934,166.75966],[-0.60214,-5.15702],[0.56607,4.84811]],[[602.17854,182.80707],[-2.00165,-4.26532],[5.31865,11.33352]],[[620.97828,215.15905],[-6.07013,-10.97475],[4.21607,7.62263]],[[635.0529,239.72191],[-6.7255,-5.78768],[1.36794,0.23812]],[637.38726,240.92645],[[639.63782,243.17701],[0,0],[6.86864,6.86864]],[[654.75848,266.23014],[-3.7442,-8.98229],[1.01432,2.43333]],[[659.73948,276.25746],[-3.06376,-1.22771],[4.68044,1.87555]],[[674.74242,278.17426],[-4.84998,-0.58192],[16.24879,1.94958]],[[724.77392,278.58447],[-15.33603,9.26748],[4.22512,-2.53507]],[[736.99591,269.30985],[-2.85741,4.23709],[3.11306,-4.61617]],[[744.25945,252.46865],[-2.55868,5.11736],[10.43128,-20.86256]],[[765.83894,188.35933],[-4.10401,22.97743],[8.81358,-14.95274]],[[787.02919,139.92251],[-7.79736,15.62358],[2.64228,-5.29435]],[[794.33083,123.88528],[-2.00373,5.61471],[0.60643,-1.69929]],[[795.81515,118.68002],[-0.57705,1.70949],[0.3719,-1.10173]],[[797.17264,115.46656],[-0.59453,0.99933],[0.24391,-0.40998]],[[798.27204,114.55029],[0.43579,-0.19407],[-6.80875,3.03211]],[[772.7926,115.7169],[7.62047,0.00652],[-5.63706,0.56756]],[[752.6812,119.26829],[4.86765,-3.80641],[-2.99072,2.33869]],[[749.53494,133.36785],[0.55115,-3.23372],[-0.90577,5.31436]],[[745.00119,149.29783],[1.13263,-5.3201],[-1.74498,8.19639]],[[740.0045,173.9165],[1.72906,-8.19528],[-0.25999,1.64234]],[[739.20623,178.83434],[0.27231,-1.63609],[-1.31123,6.79044]],[[735.18508,199.07126],[1.17017,-6.82954],[0,0]],[734.86267,199.40529],[735.04693,199.479],[[733.58116,203.14343],[0,0],[-0.56724,1.51916]],[[729.83265,205.74437],[1.71697,0],[-2.20914,0]],[[725.83265,201.74437],[0,2.20914],[0,-0.16915]],[[725.86354,201.24489],[-0.02038,0.16363],[0,0]],[726.60731,194.55096],[[726.65678,194.55646],[0,0],[-0.00428,-0.09036]],[[726.64591,194.28516],[0.00295,0.09051],[-0.13568,-4.15804]],[[731.18141,176.86082],[-0.89205,4.0276],[0.33633,-1.51852]]],&quot;closed&quot;:true}]}" fill="#ffffff" stroke="none" stroke-width="0.5"/></g><g data-paper-data="{&quot;index&quot;:null}"><path d="M159.84457,124.41695c-3.06653,3.06653 -5.01823,6.20711 -6.69324,10.22887c-1.02228,2.45453 -1.55949,5.64477 -4.26118,6.98935c-2.76297,1.37507 -6.07751,1.08119 -9.01468,1.43075c-9.24466,1.10021 -18.773,4.85151 -27.48536,-0.34369c-2.64771,-1.58863 -5.62889,-3.20017 -7.39238,-5.86532c-1.65497,-2.50115 -2.50501,-6.10351 -3.87011,-8.83371c-5.22615,-10.45229 -9.20038,-20.86881 -10.96569,-32.46147c-2.17548,-3.55572 -3.66971,-8.04327 -5.23045,-11.94878c-2.39141,-5.98416 -5.48896,-11.66463 -7.87697,-17.62941c-0.97889,-2.44505 -4.51206,-8.97977 -2.1839,-11.5368c0.83286,-0.91474 2.4337,-0.46388 3.66478,-0.58579c3.93672,-0.38985 8.14718,-0.00069 12.10262,0.00248c3.60903,0.35856 9.47975,0.00179 12.44993,2.72543c0.00422,0.00386 0.00843,0.00773 0.01262,0.01161c-0.23044,-2.31436 -0.45397,-4.62319 -0.67432,-6.92262c-0.27302,-2.84899 -1.27036,-5.77626 -1.49477,-8.57628c-0.09291,-1.15926 -0.33866,-2.4742 0.24461,-3.48033c1.18998,-2.05267 4.11844,-2.35563 6.09974,-2.50995c3.79604,-0.29567 7.93064,-0.22418 11.68309,0.39098c4.77508,0.65796 7.27261,2.5614 9.03677,7.14991c-0.13978,-1.10215 -0.31892,-2.16742 -0.72208,-3.41936c-1.10106,-3.41913 -3.35109,-4.84544 0.30778,-8.21512c0.87922,-0.80972 2.33434,-0.51554 3.50456,-0.75895c5.19287,-1.08011 10.06077,-1.15399 15.34142,-1.15399c1.09589,0.03758 2.2639,-0.28006 3.28767,0.11275c5.1749,1.9855 4.08158,9.4224 4.33625,13.79063c0.4685,8.03572 -1.41773,15.49498 -2.649,23.30071c-0.82595,5.23622 0.07527,11.22903 -0.01026,16.55573c0.54579,1.36447 0.66213,2.8744 0.77946,4.33929c0.05217,0.65131 0.20825,1.29016 0.32293,1.93342c0.09119,0.51153 0.04711,2.05259 0.17478,1.54894c0.78511,-3.09737 1.12173,-6.89012 2.4455,-9.78326c1.62957,-3.56146 4.74678,-6.25649 6.98312,-9.38931c2.19715,-3.07792 3.05501,-7.26043 7.87229,-5.91205c3.02351,0.84629 5.74423,5.84359 7.87898,7.97492c2.78327,2.79091 6.11113,5.98603 5.82288,10.27941c-0.19878,2.96076 -3.07943,6.64038 -4.29746,9.23061c-2.7071,5.75684 -6.44699,10.85441 -9.52805,16.42853c-2.89355,5.2349 -4.64065,11.4313 -9.78893,14.68893zM111.24435,88.43042c0.44603,2.0138 2.33559,6.63315 2.26775,8.71217c-0.00147,0.04525 -0.0033,0.09047 -0.00544,0.13565l0.02474,-0.00275l0.37188,3.34696c0.01019,0.08182 0.01544,0.16517 0.01544,0.24974c0,1.10457 -0.89543,2 -2,2c-0.85849,0 -1.59063,-0.54089 -1.87425,-1.30047l-0.73289,-1.83221l0.09213,-0.03686l-0.16121,-0.16702c-0.58509,-3.41477 -1.35496,-6.72324 -2.01058,-10.11846c-0.13616,-0.81804 -0.26914,-1.63775 -0.39914,-2.45892c-0.86453,-4.09764 -1.62585,-8.21114 -2.49834,-12.30934c-0.56632,-2.66005 -1.81399,-5.30781 -2.26688,-7.96499c-0.27558,-1.61686 -0.07777,-5.88044 -1.57313,-7.04978c-2.43382,-1.9032 -7.23717,-1.49191 -10.0557,-1.77569c-3.81024,0.00326 -9.33535,0.93275 -12.73972,-0.5833c-0.21789,-0.09703 0.42775,0.25314 0.5497,0.45813c0.29726,0.49967 0.4928,1.05586 0.67875,1.60673c0.28853,0.85475 0.43895,1.75298 0.74216,2.60263c1.00186,2.80736 2.32968,5.37144 3.65082,8.01861c3.89868,7.81179 6.18833,16.74204 10.59512,24.21841c2.052,11.48872 5.57411,21.62338 10.78975,32.05466c1.27934,2.55868 2.07524,6.11251 3.63177,8.4206c1.4287,2.11855 3.99843,3.36978 6.11099,4.63731c7.66801,4.63374 16.89136,0.76969 25.01575,-0.20511c2.42499,-0.29096 5.16125,-0.02063 7.50147,-0.9584c1.53188,-0.61386 1.98334,-3.79699 2.4905,-5.01366c1.8721,-4.49114 4.12601,-8.09225 7.56033,-11.52657l1.12528,-1.12528c0,0 0.48321,-0.48321 1.16718,-0.60227c3.36275,-2.89384 4.92927,-8.47012 7.03731,-12.28143c3.03507,-5.48737 6.74055,-10.50923 9.39987,-16.17599c1.00082,-2.13266 3.67156,-5.59965 3.9546,-8.02371c0.30107,-2.57851 -3.03188,-5.33205 -4.67974,-6.9749c-1.90241,-1.90526 -3.45639,-4.01556 -5.25132,-6.0015c-0.46666,-0.51632 -1.24238,-1.67426 -1.72642,-1.17419c-1.24661,1.2879 -1.67164,3.18389 -2.71385,4.64214c-2.07949,2.90962 -5.04833,5.42108 -6.58379,8.71048c-1.3313,2.85202 -0.45458,6.52675 -2.33784,9.16975c-1.91679,2.69004 -3.29944,4.34929 -6.559,1.49038c-2.28686,-2.00577 -1.33979,-7.00988 -2.38424,-9.62101c-0.06921,-5.76047 -0.86655,-12.26797 -0.01026,-17.95289c1.00948,-6.70198 2.59674,-13.06882 2.59983,-19.9347c0.00094,-2.096 -0.24314,-4.18496 -0.37261,-6.27697c-0.20331,-3.28511 1.07701,-6.60034 -3.25379,-6.35169c-5.09961,0 -9.64229,0.41906 -14.66609,1.09657c-0.57703,0.07782 -1.22316,-0.26349 -1.74675,-0.00876c-1.17884,0.57351 0.62954,2.54891 1.05796,3.78788c0.92972,2.68867 1.40073,6.22939 1.59412,9.08838c0.75358,11.14099 -0.10559,22.27413 1.48709,33.26547c0.4021,2.8147 0.98073,5.5784 1.44675,8.36724c0.27447,0.82567 0.91203,1.61426 0.79809,2.47296c-0.01426,0.10747 -0.03137,0.21423 -0.05106,0.32036h0.07689v2.62566c0,1.10457 -0.89543,2 -2,2c-1.00387,0 -1.83499,-0.73961 -1.97819,-1.70364l-0.36969,-2.21813l0.01752,-0.00292l-0.02381,-0.03739c-0.10351,-0.83553 -0.22651,-1.66681 -0.36113,-2.49572c-0.99349,-3.15803 -1.85575,-6.25362 -2.26952,-9.54389c-1.15565,-9.18958 -3.09213,-18.20949 -4.27231,-27.39404c-0.53089,-4.13155 -0.00088,-8.99053 -3.0348,-12.32885c-0.89744,-0.98748 -2.70345,-0.82172 -3.7505,-0.93551c-3.50415,-0.59471 -7.27243,-0.54528 -10.82254,-0.3592c-0.97989,0.05136 -2.50069,-0.40439 -2.9025,0.4908c-0.54302,1.20979 0.68943,2.56215 0.96788,3.85865c0.69273,3.22542 0.7882,6.54849 1.11414,9.81871c1.08405,10.87642 2.29573,22.04012 4.01379,32.88117c0.16005,0.76058 0.3235,1.5206 0.49166,2.27986z" fill="#000000" stroke="#000000" stroke-width="1"/><path d="M110.70279,86.14734c-1.71806,-10.84105 -2.90694,-22.04354 -3.99099,-32.91997c-0.32594,-3.27022 -0.41757,-6.59552 -1.11031,-9.82094c-0.27845,-1.2965 -1.51012,-2.64928 -0.9671,-3.85906c0.40181,-0.89519 1.92503,-0.44058 2.90492,-0.49194c3.55012,-0.18608 7.32794,-0.23859 10.83209,0.35612c1.04704,0.11379 2.85667,-0.05261 3.75411,0.93487c3.03392,3.33832 2.50576,8.19707 3.03665,12.32863c1.18018,9.18455 3.12693,18.20448 4.28258,27.39406c0.41377,3.29026 1.31025,6.46631 2.30375,9.62435c0.13463,0.82891 0.24678,1.67047 0.3503,2.506l0.0238,0.0374l-0.01763,0.00299l0.36458,2.22124c0.1432,0.96403 0.92367,1.61753 1.92754,1.61753c1.10457,0 1.98976,-0.88657 1.98976,-1.99114l-0.00645,-2.61641l-0.07678,-0.00019c0.01969,-0.10613 0.03598,-0.21133 0.05024,-0.3188c0.11394,-0.85871 -0.52794,-1.63476 -0.80241,-2.46042c-0.46602,-2.78884 -1.02648,-5.50332 -1.42858,-8.31801c-1.59268,-10.99134 -0.70759,-22.11407 -1.46117,-33.25506c-0.19339,-2.85899 -0.66188,-6.39953 -1.5916,-9.08819c-0.42843,-1.23897 -2.23315,-3.3143 -1.0543,-3.88781c0.52358,-0.25473 1.17136,0.08665 1.74839,0.00883c5.0238,-0.67751 9.57914,-1.09417 14.67875,-1.09417c4.3308,-0.24865 3.05503,3.06831 3.25833,6.35342c0.12947,2.09201 0.37632,4.18228 0.37538,6.27828c-0.00308,6.86588 -1.58045,13.23942 -2.58993,19.9414c-0.85629,5.68492 -0.04264,12.22056 0.02656,17.98103c1.04445,2.61113 0.09646,7.63836 2.38332,9.64414c3.25956,2.85891 4.5447,1.17825 6.46148,-1.51179c1.88326,-2.64301 1.00653,-6.30205 2.33783,-9.15407c1.53546,-3.2894 4.50674,-5.79142 6.58623,-8.70104c1.04221,-1.45826 1.46875,-3.35059 2.71536,-4.63849c0.48404,-0.50007 1.35144,0.61798 1.81809,1.13429c1.79493,1.98594 3.35133,4.10381 5.25374,6.00907c1.64786,1.64285 4.982,4.40401 4.68093,6.98252c-0.28304,2.42405 -2.95382,5.89922 -3.95464,8.03188c-2.65932,5.66676 -6.37059,10.70798 -9.40565,16.19535c-2.10804,3.81131 -3.68433,9.40031 -7.04708,12.29415c-0.68397,0.11906 -1.16823,0.60323 -1.16823,0.60323l-1.12664,1.12645c-3.43432,3.43432 -5.69943,7.04242 -7.57153,11.53356c-0.50716,1.21667 -0.96235,4.40131 -2.49423,5.01516c-2.34022,0.93777 -5.08321,0.66934 -7.5082,0.96031c-8.12439,0.97479 -17.37113,4.83812 -25.03915,0.20438c-2.11256,-1.26754 -4.68882,-2.52105 -6.11753,-4.6396c-1.55653,-2.30809 -2.35891,-5.86528 -3.63825,-8.42397c-5.21564,-10.43128 -8.76057,-20.59882 -10.81257,-32.08754c-4.40679,-7.47637 -6.6941,-16.43417 -10.59278,-24.24596c-1.32114,-2.64718 -2.64666,-5.21639 -3.64852,-8.02374c-0.30321,-0.84965 -0.45282,-1.7494 -0.74134,-2.60415c-0.18595,-0.55087 -0.38102,-1.10786 -0.67829,-1.60752c-0.12195,-0.20499 -0.76754,-0.55526 -0.54965,-0.45822c3.40438,1.51606 8.93295,0.58143 12.74319,0.57818c2.81853,0.28378 7.62581,-0.13203 10.05964,1.77117c1.49536,1.16934 1.37276,5.49856 1.64834,7.11543c0.45288,2.65718 1.7054,5.29738 2.27172,7.95743c0.87249,4.0982 1.63944,8.18944 2.50397,12.28708c0.12999,0.82117 0.26275,1.63518 0.3989,2.45322c0.65561,3.39522 1.41805,6.68197 2.00314,10.09674l0.16094,0.1666l-0.09211,0.03689l0.73052,1.82883c0.28362,0.75958 1.0127,1.29684 1.87119,1.29684c1.10457,0 1.92653,-0.82759 1.92653,-1.93216c0,-0.08458 -0.00558,-0.16829 -0.01577,-0.2501l-0.3765,-3.35295l-0.02475,0.00272c0.00214,-0.04518 0.00379,-0.09065 0.00526,-0.1359c0.06784,-2.07902 -1.82966,-6.72235 -2.27569,-8.73615c-0.16817,-0.75926 -0.33161,-1.52571 -0.49166,-2.28629z" data-paper-data="{&quot;noHover&quot;:false,&quot;origItem&quot;:[&quot;Path&quot;,{&quot;applyMatrix&quot;:true,&quot;segments&quot;:[[[732.16474,172.3011],[-0.32011,1.52116],[3.43611,-21.68211]],[[740.19232,106.53876],[-2.16809,21.75285],[0.65188,-6.54043]],[[742.42059,86.90135],[-1.38547,6.45084],[0.55691,-2.593]],[[744.35635,79.18404],[1.08604,2.41957],[-0.80363,-1.79038]],[[738.55135,78.20243],[1.95978,0.10272],[-7.10023,-0.37215]],[[716.90626,78.92084],[7.0083,-1.18942],[-2.09409,0.22758]],[[709.40527,80.79186],[1.79487,-1.97495],[-6.06784,6.67664]],[[703.33567,105.44956],[1.06178,-8.26311],[-2.36036,18.36909]],[[694.79105,160.23764],[2.3113,-18.37915],[-0.82754,6.58052]],[[690.25202,179.32541],[1.98699,-6.31607],[-0.26926,1.65782]],[[689.52975,184.31686],[0.20703,-1.67107],[0,0]],[689.48213,184.39163],[689.51716,184.39747],[[688.77779,188.83373],[0,0],[-0.2864,1.92805]],[[684.8214,192.241],[2.00774,0],[-2.20914,0]],[[680.8214,188.241],[0,2.20914],[0,0]],[680.8214,182.98968],[[680.97517,182.98968],[0,0],[-0.03938,-0.21226]],[[680.87305,182.34896],[0.02852,0.21494],[-0.22788,-1.71741]],[[682.46923,177.40304],[-0.54894,1.65133],[0.93204,-5.57767]],[[685.36273,160.66856],[-0.8042,5.62939],[3.18535,-21.98267]],[[688.3369,94.13763],[-1.50716,22.28197],[0.38677,-5.71799]],[[691.52513,75.96087],[-1.85944,5.37733],[0.85685,-2.47794]],[[693.64106,68.38511],[2.35769,1.14702],[-1.04717,-0.50945]],[[690.14757,68.40263],[1.15407,0.15564],[-10.0476,-1.35503]],[[660.8154,66.20949],[10.19923,0],[-8.6616,-0.49731]],[[654.30781,78.91287],[0.40661,-6.57023],[-0.25893,4.18401]],[[653.56259,91.4668],[-0.00188,-4.19201],[0.00617,13.73176]],[[658.76225,131.3362],[-2.01896,-13.40397],[1.71257,11.36984]],[[658.74172,167.24199],[0.13841,-11.52094],[-2.0889,5.22226]],[[653.97325,186.484],[4.57372,-4.01155],[-6.51912,5.71783]],[[640.85525,183.50324],[3.83357,5.38009],[-3.76653,-5.28601]],[[636.17956,165.16374],[2.6626,5.70404],[-3.07092,-6.5788]],[[623.01199,147.74277],[4.15897,5.81923],[-2.08442,-2.91652]],[[617.58429,138.45848],[2.49323,2.57579],[-0.96808,-1.00013]],[[614.13145,140.80686],[0.93332,-1.03264],[-3.58985,3.97188]],[[603.62882,152.80986],[3.80482,-3.81052],[-3.29572,3.2857]],[[594.26934,166.75966],[-0.60214,-5.15702],[0.56607,4.84811]],[[602.17854,182.80707],[-2.00165,-4.26532],[5.31865,11.33352]],[[620.97828,215.15905],[-6.07013,-10.97475],[4.21607,7.62263]],[[635.0529,239.72191],[-6.7255,-5.78768],[1.36794,0.23812]],[637.38726,240.92645],[[639.63782,243.17701],[0,0],[6.86864,6.86864]],[[654.75848,266.23014],[-3.7442,-8.98229],[1.01432,2.43333]],[[659.73948,276.25746],[-3.06376,-1.22771],[4.68044,1.87555]],[[674.74242,278.17426],[-4.84998,-0.58192],[16.24879,1.94958]],[[724.77392,278.58447],[-15.33603,9.26748],[4.22512,-2.53507]],[[736.99591,269.30985],[-2.85741,4.23709],[3.11306,-4.61617]],[[744.25945,252.46865],[-2.55868,5.11736],[10.43128,-20.86256]],[[765.83894,188.35933],[-4.10401,22.97743],[8.81358,-14.95274]],[[787.02919,139.92251],[-7.79736,15.62358],[2.64228,-5.29435]],[[794.33083,123.88528],[-2.00373,5.61471],[0.60643,-1.69929]],[[795.81515,118.68002],[-0.57705,1.70949],[0.3719,-1.10173]],[[797.17264,115.46656],[-0.59453,0.99933],[0.24391,-0.40998]],[[798.27204,114.55029],[0.43579,-0.19407],[-6.80875,3.03211]],[[772.7926,115.7169],[7.62047,0.00652],[-5.63706,0.56756]],[[752.6812,119.26829],[4.86765,-3.80641],[-2.99072,2.33869]],[[749.53494,133.36785],[0.55115,-3.23372],[-0.90577,5.31436]],[[745.00119,149.29783],[1.13263,-5.3201],[-1.74498,8.19639]],[[740.0045,173.9165],[1.72906,-8.19528],[-0.25999,1.64234]],[[739.20623,178.83434],[0.27231,-1.63609],[-1.31123,6.79044]],[[735.18508,199.07126],[1.17017,-6.82954],[0,0]],[734.86267,199.40529],[735.04693,199.479],[[733.58116,203.14343],[0,0],[-0.56724,1.51916]],[[729.83265,205.74437],[1.71697,0],[-2.20914,0]],[[725.83265,201.74437],[0,2.20914],[0,-0.16915]],[[725.86354,201.24489],[-0.02038,0.16363],[0,0]],[726.60731,194.55096],[[726.65678,194.55646],[0,0],[-0.00428,-0.09036]],[[726.64591,194.28516],[0.00295,0.09051],[-0.13568,-4.15804]],[[731.18141,176.86082],[-0.89205,4.0276],[0.33633,-1.51852]]],&quot;closed&quot;:true}]}" fill="#ffffff" stroke="none" stroke-width="0.5"/></g></g></g></svg>